<svg width="432" height="432" viewBox="0 0 432 432" fill="none" xmlns="http://www.w3.org/2000/svg">
<path d="M374.49 216.004C374.489 227.329 370.595 238.255 363.552 246.691C356.509 255.126 346.813 260.478 336.32 261.722C325.828 262.965 315.277 260.013 306.687 253.43C298.098 246.847 292.074 237.096 289.769 226.045H141.722C139.417 237.097 133.393 246.848 124.803 253.431C116.213 260.013 105.661 262.966 95.1684 261.722C84.6757 260.477 74.9796 255.125 67.9369 246.688C60.8942 238.252 57 227.325 57 216C57 204.675 60.8942 193.748 67.9369 185.312C74.9796 176.875 84.6757 171.523 95.1684 170.278C105.661 169.034 116.213 171.987 124.803 178.569C133.393 185.152 139.417 194.903 141.722 205.955H289.769C292.074 194.903 298.099 185.152 306.689 178.569C315.279 171.986 325.831 169.034 336.324 170.279C346.817 171.523 356.513 176.877 363.555 185.314C370.598 193.751 374.491 204.679 374.49 216.004V216.004Z" fill="white" stroke="black" stroke-width="2" stroke-miterlimit="10"/>
<path d="M99.8844 253.922C119.284 253.922 135.011 237.006 135.011 216.138C135.011 195.27 119.284 178.353 99.8844 178.353C80.4848 178.353 64.7583 195.27 64.7583 216.138C64.7583 237.006 80.4848 253.922 99.8844 253.922Z" fill="#0D0D0D"/>
<path d="M87.4946 198.24V213.752" stroke="white" stroke-width="4" stroke-miterlimit="10" stroke-linecap="round"/>
<path d="M112.27 198.24V213.751" stroke="white" stroke-width="4" stroke-miterlimit="10" stroke-linecap="round"/>
<path d="M124.213 219.712C120.337 233.817 108.955 239.201 99.8835 239.201C90.8116 239.201 79.4304 233.817 75.5542 219.712" stroke="white" stroke-width="4" stroke-miterlimit="10" stroke-linecap="round"/>
<path d="M331.702 253.925C351.102 253.925 366.828 237.008 366.828 216.14C366.828 195.272 351.102 178.355 331.702 178.355C312.303 178.355 296.576 195.272 296.576 216.14C296.576 237.008 312.303 253.925 331.702 253.925Z" fill="#0D0D0D"/>
<path d="M356.03 219.713C352.154 233.819 340.773 239.202 331.701 239.202C322.629 239.202 311.248 233.819 307.372 219.713" stroke="white" stroke-width="4" stroke-miterlimit="10" stroke-linecap="round"/>
<path d="M319.312 198.241V213.753" stroke="white" stroke-width="4" stroke-miterlimit="10" stroke-linecap="round"/>
<path d="M344.091 198.241V213.753" stroke="white" stroke-width="4" stroke-miterlimit="10" stroke-linecap="round"/>
<rect x="143.814" y="213.917" width="9.64621" height="5.17037" fill="#0D0D0D"/>
<rect x="278.86" y="213.917" width="9.64621" height="5.17037" fill="#0D0D0D"/>
<rect x="158.287" y="213.917" width="19.2924" height="5.17037" fill="#0D0D0D"/>
<rect x="182.396" y="213.917" width="19.2924" height="5.17037" fill="#0D0D0D"/>
<rect x="206.517" y="213.917" width="19.2924" height="5.17037" fill="#0D0D0D"/>
<rect x="230.63" y="213.917" width="19.2924" height="5.17037" fill="#0D0D0D"/>
<rect x="254.744" y="213.917" width="19.2924" height="5.17037" fill="#0D0D0D"/>
</svg>
