<svg width="432" height="432" viewBox="0 0 432 432" fill="none" xmlns="http://www.w3.org/2000/svg">
<path d="M324 216.003C323.999 223.725 321.343 231.176 316.541 236.929C311.738 242.682 305.126 246.331 297.97 247.179C290.815 248.027 283.62 246.014 277.762 241.525C271.905 237.036 267.797 230.386 266.225 222.85H165.266C163.694 230.387 159.586 237.036 153.728 241.525C147.87 246.015 140.674 248.028 133.519 247.179C126.363 246.331 119.751 242.681 114.949 236.928C110.146 231.175 107.49 223.723 107.49 216C107.49 208.277 110.146 200.825 114.949 195.072C119.751 189.319 126.363 185.669 133.519 184.821C140.674 183.972 147.87 185.985 153.728 190.475C159.586 194.964 163.694 201.613 165.266 209.15H266.225C267.797 201.613 271.905 194.963 277.763 190.474C283.622 185.985 290.817 183.972 297.973 184.821C305.128 185.669 311.741 189.32 316.543 195.074C321.346 200.827 324.001 208.279 324 216.003V216.003Z" fill="white" stroke="black" stroke-width="2" stroke-miterlimit="10"/>
<path d="M136.735 241.861C149.964 241.861 160.689 230.325 160.689 216.094C160.689 201.863 149.964 190.327 136.735 190.327C123.506 190.327 112.781 201.863 112.781 216.094C112.781 230.325 123.506 241.861 136.735 241.861Z" fill="#0D0D0D"/>
<path d="M128.286 203.889V214.467" stroke="white" stroke-width="4" stroke-miterlimit="10" stroke-linecap="round"/>
<path d="M145.181 203.888V214.466" stroke="white" stroke-width="4" stroke-miterlimit="10" stroke-linecap="round"/>
<path d="M153.325 218.531C150.682 228.15 142.921 231.821 136.734 231.821C130.548 231.821 122.786 228.15 120.143 218.531" stroke="white" stroke-width="4" stroke-miterlimit="10" stroke-linecap="round"/>
<path d="M294.821 241.863C308.051 241.863 318.775 230.326 318.775 216.095C318.775 201.864 308.051 190.328 294.821 190.328C281.592 190.328 270.867 201.864 270.867 216.095C270.867 230.326 281.592 241.863 294.821 241.863Z" fill="#0D0D0D"/>
<path d="M311.411 218.532C308.768 228.151 301.007 231.822 294.82 231.822C288.634 231.822 280.872 228.151 278.229 218.532" stroke="white" stroke-width="4" stroke-miterlimit="10" stroke-linecap="round"/>
<path d="M286.372 203.889V214.467" stroke="white" stroke-width="4" stroke-miterlimit="10" stroke-linecap="round"/>
<path d="M303.27 203.889V214.467" stroke="white" stroke-width="4" stroke-miterlimit="10" stroke-linecap="round"/>
<rect x="166.692" y="214.579" width="6.57815" height="3.52589" fill="#0D0D0D"/>
<rect x="258.786" y="214.579" width="6.57815" height="3.52589" fill="#0D0D0D"/>
<rect x="176.562" y="214.579" width="13.1563" height="3.52589" fill="#0D0D0D"/>
<rect x="193.003" y="214.579" width="13.1563" height="3.52589" fill="#0D0D0D"/>
<rect x="209.452" y="214.579" width="13.1563" height="3.52589" fill="#0D0D0D"/>
<rect x="225.896" y="214.579" width="13.1563" height="3.52589" fill="#0D0D0D"/>
<rect x="242.34" y="214.579" width="13.1563" height="3.52589" fill="#0D0D0D"/>
</svg>
