<svg width="431" height="832" viewBox="0 0 431 832" fill="none" xmlns="http://www.w3.org/2000/svg">
<path d="M338.99 128V115.4H340.934V128H338.99ZM330.764 128V115.4H332.708V128H330.764ZM331.61 122.654V120.782H339.854V122.654H331.61ZM349.587 128V121.844C349.587 121.316 349.395 120.89 349.011 120.566C348.639 120.23 348.165 120.062 347.589 120.062C347.061 120.062 346.581 120.17 346.149 120.386C345.729 120.602 345.345 120.932 344.997 121.376L343.791 120.17C344.355 119.558 344.961 119.102 345.609 118.802C346.269 118.502 346.977 118.352 347.733 118.352C348.453 118.352 349.077 118.472 349.605 118.712C350.133 118.952 350.541 119.306 350.829 119.774C351.117 120.23 351.261 120.788 351.261 121.448V128H349.587ZM346.761 128.18C346.149 128.18 345.603 128.06 345.123 127.82C344.643 127.58 344.259 127.25 343.971 126.83C343.695 126.398 343.557 125.894 343.557 125.318C343.557 124.814 343.647 124.37 343.827 123.986C344.007 123.602 344.271 123.284 344.619 123.032C344.979 122.78 345.423 122.588 345.951 122.456C346.491 122.324 347.109 122.258 347.805 122.258H350.433L350.271 123.734H347.571C347.211 123.734 346.887 123.77 346.599 123.842C346.323 123.902 346.083 124.004 345.879 124.148C345.687 124.28 345.543 124.442 345.447 124.634C345.351 124.814 345.303 125.03 345.303 125.282C345.303 125.546 345.369 125.78 345.501 125.984C345.633 126.176 345.813 126.326 346.041 126.434C346.269 126.542 346.533 126.596 346.833 126.596C347.265 126.596 347.673 126.524 348.057 126.38C348.453 126.224 348.801 126.014 349.101 125.75C349.413 125.486 349.653 125.192 349.821 124.868L350.253 126.074C350.001 126.494 349.689 126.86 349.317 127.172C348.945 127.484 348.543 127.73 348.111 127.91C347.679 128.09 347.229 128.18 346.761 128.18ZM357.619 128.18C356.743 128.18 355.957 127.964 355.261 127.532C354.577 127.1 354.031 126.512 353.623 125.768C353.227 125.024 353.029 124.19 353.029 123.266C353.029 122.342 353.227 121.508 353.623 120.764C354.031 120.02 354.577 119.432 355.261 119C355.957 118.568 356.743 118.352 357.619 118.352C358.459 118.352 359.221 118.526 359.905 118.874C360.601 119.21 361.129 119.672 361.489 120.26L360.463 121.52C360.271 121.244 360.025 120.992 359.725 120.764C359.425 120.536 359.107 120.356 358.771 120.224C358.435 120.092 358.111 120.026 357.799 120.026C357.223 120.026 356.707 120.17 356.251 120.458C355.807 120.734 355.453 121.118 355.189 121.61C354.925 122.102 354.793 122.654 354.793 123.266C354.793 123.878 354.931 124.43 355.207 124.922C355.483 125.402 355.849 125.786 356.305 126.074C356.761 126.362 357.265 126.506 357.817 126.506C358.141 126.506 358.453 126.452 358.753 126.344C359.065 126.236 359.365 126.074 359.653 125.858C359.941 125.642 360.211 125.378 360.463 125.066L361.489 126.326C361.105 126.866 360.553 127.31 359.833 127.658C359.125 128.006 358.387 128.18 357.619 128.18ZM364.929 125.048L364.839 123.032L369.357 118.55H371.859L364.929 125.048ZM363.237 128V114.68H365.091V128H363.237ZM369.609 128L366.045 123.842L367.359 122.636L371.985 128H369.609ZM377.474 128.18C376.502 128.18 375.638 127.976 374.882 127.568C374.138 127.148 373.55 126.578 373.118 125.858C372.698 125.138 372.488 124.31 372.488 123.374C372.488 122.63 372.608 121.952 372.848 121.34C373.088 120.728 373.418 120.2 373.838 119.756C374.27 119.3 374.78 118.952 375.368 118.712C375.968 118.46 376.616 118.334 377.312 118.334C377.924 118.334 378.494 118.454 379.022 118.694C379.55 118.922 380.006 119.24 380.39 119.648C380.786 120.056 381.086 120.542 381.29 121.106C381.506 121.658 381.608 122.264 381.596 122.924L381.578 123.716H373.856L373.442 122.24H379.976L379.706 122.546V122.114C379.67 121.718 379.538 121.364 379.31 121.052C379.082 120.74 378.794 120.494 378.446 120.314C378.098 120.134 377.72 120.044 377.312 120.044C376.664 120.044 376.118 120.17 375.674 120.422C375.23 120.662 374.894 121.022 374.666 121.502C374.438 121.97 374.324 122.552 374.324 123.248C374.324 123.908 374.462 124.484 374.738 124.976C375.014 125.456 375.404 125.828 375.908 126.092C376.412 126.356 376.994 126.488 377.654 126.488C378.122 126.488 378.554 126.41 378.95 126.254C379.358 126.098 379.796 125.816 380.264 125.408L381.2 126.722C380.912 127.01 380.558 127.262 380.138 127.478C379.73 127.694 379.292 127.868 378.824 128C378.368 128.12 377.918 128.18 377.474 128.18ZM387.552 128.18C386.688 128.18 385.914 127.97 385.23 127.55C384.558 127.118 384.024 126.536 383.628 125.804C383.232 125.06 383.034 124.214 383.034 123.266C383.034 122.318 383.226 121.478 383.61 120.746C384.006 120.002 384.54 119.42 385.212 119C385.884 118.568 386.646 118.352 387.498 118.352C387.966 118.352 388.416 118.43 388.848 118.586C389.292 118.73 389.688 118.934 390.036 119.198C390.384 119.45 390.654 119.732 390.846 120.044C391.05 120.344 391.152 120.65 391.152 120.962L390.612 120.998V114.68H392.466V128H390.612V125.75H390.972C390.972 126.038 390.876 126.326 390.684 126.614C390.492 126.89 390.234 127.148 389.91 127.388C389.598 127.628 389.232 127.82 388.812 127.964C388.404 128.108 387.984 128.18 387.552 128.18ZM387.804 126.578C388.368 126.578 388.866 126.434 389.298 126.146C389.73 125.858 390.066 125.468 390.306 124.976C390.558 124.472 390.684 123.902 390.684 123.266C390.684 122.63 390.558 122.066 390.306 121.574C390.066 121.07 389.73 120.674 389.298 120.386C388.866 120.098 388.368 119.954 387.804 119.954C387.24 119.954 386.742 120.098 386.31 120.386C385.878 120.674 385.536 121.07 385.284 121.574C385.044 122.066 384.924 122.63 384.924 123.266C384.924 123.902 385.044 124.472 385.284 124.976C385.536 125.468 385.878 125.858 386.31 126.146C386.742 126.434 387.24 126.578 387.804 126.578ZM330.602 151V141.55H332.456V151H330.602ZM331.502 139.462C331.106 139.462 330.8 139.36 330.584 139.156C330.368 138.952 330.26 138.664 330.26 138.292C330.26 137.944 330.368 137.662 330.584 137.446C330.812 137.23 331.118 137.122 331.502 137.122C331.898 137.122 332.204 137.224 332.42 137.428C332.636 137.632 332.744 137.92 332.744 138.292C332.744 138.64 332.63 138.922 332.402 139.138C332.186 139.354 331.886 139.462 331.502 139.462ZM335.306 151V141.55H337.16V143.494L336.836 143.71C336.956 143.29 337.19 142.906 337.538 142.558C337.886 142.198 338.3 141.91 338.78 141.694C339.26 141.466 339.752 141.352 340.256 141.352C340.976 141.352 341.576 141.496 342.056 141.784C342.536 142.06 342.896 142.486 343.136 143.062C343.376 143.638 343.496 144.364 343.496 145.24V151H341.642V145.366C341.642 144.826 341.57 144.382 341.426 144.034C341.282 143.674 341.06 143.416 340.76 143.26C340.46 143.092 340.088 143.02 339.644 143.044C339.284 143.044 338.954 143.104 338.654 143.224C338.354 143.332 338.09 143.488 337.862 143.692C337.646 143.896 337.472 144.136 337.34 144.412C337.22 144.676 337.16 144.964 337.16 145.276V151H336.242C336.086 151 335.93 151 335.774 151C335.618 151 335.462 151 335.306 151ZM347.037 151V140.488C347.037 139.948 347.157 139.468 347.397 139.048C347.637 138.628 347.967 138.298 348.387 138.058C348.807 137.818 349.293 137.698 349.845 137.698C350.229 137.698 350.589 137.77 350.925 137.914C351.261 138.058 351.531 138.25 351.735 138.49L351.105 139.912C350.949 139.768 350.775 139.654 350.583 139.57C350.403 139.474 350.229 139.426 350.061 139.426C349.809 139.426 349.593 139.468 349.413 139.552C349.245 139.624 349.119 139.744 349.035 139.912C348.951 140.068 348.909 140.26 348.909 140.488V151H347.973C347.817 151 347.661 151 347.505 151C347.349 151 347.193 151 347.037 151ZM345.525 143.422V141.712H351.141V143.422H345.525ZM356.974 151.18C356.05 151.18 355.222 150.97 354.49 150.55C353.77 150.118 353.2 149.536 352.78 148.804C352.36 148.06 352.15 147.214 352.15 146.266C352.15 145.318 352.36 144.478 352.78 143.746C353.2 143.002 353.77 142.42 354.49 142C355.222 141.568 356.05 141.352 356.974 141.352C357.886 141.352 358.702 141.568 359.422 142C360.154 142.42 360.73 143.002 361.15 143.746C361.57 144.478 361.78 145.318 361.78 146.266C361.78 147.214 361.57 148.06 361.15 148.804C360.73 149.536 360.154 150.118 359.422 150.55C358.702 150.97 357.886 151.18 356.974 151.18ZM356.974 149.488C357.538 149.488 358.042 149.35 358.486 149.074C358.93 148.786 359.278 148.402 359.53 147.922C359.782 147.43 359.902 146.878 359.89 146.266C359.902 145.642 359.782 145.09 359.53 144.61C359.278 144.118 358.93 143.734 358.486 143.458C358.042 143.182 357.538 143.044 356.974 143.044C356.41 143.044 355.9 143.188 355.444 143.476C355 143.752 354.652 144.136 354.4 144.628C354.148 145.108 354.028 145.654 354.04 146.266C354.028 146.878 354.148 147.43 354.4 147.922C354.652 148.402 355 148.786 355.444 149.074C355.9 149.35 356.41 149.488 356.974 149.488ZM363.8 151V141.55H365.672V144.52L365.492 143.8C365.624 143.344 365.846 142.93 366.158 142.558C366.482 142.186 366.848 141.892 367.256 141.676C367.676 141.46 368.108 141.352 368.552 141.352C368.756 141.352 368.948 141.37 369.128 141.406C369.32 141.442 369.47 141.484 369.578 141.532L369.092 143.548C368.948 143.488 368.786 143.44 368.606 143.404C368.438 143.356 368.27 143.332 368.102 143.332C367.778 143.332 367.466 143.398 367.166 143.53C366.878 143.65 366.62 143.824 366.392 144.052C366.176 144.268 366.002 144.526 365.87 144.826C365.738 145.114 365.672 145.432 365.672 145.78V151H363.8ZM371.024 151V141.55H372.896V143.566L372.554 143.782C372.65 143.47 372.8 143.17 373.004 142.882C373.22 142.594 373.478 142.342 373.778 142.126C374.09 141.898 374.42 141.718 374.768 141.586C375.128 141.454 375.494 141.388 375.866 141.388C376.406 141.388 376.88 141.478 377.288 141.658C377.696 141.838 378.032 142.108 378.296 142.468C378.56 142.828 378.752 143.278 378.872 143.818L378.584 143.746L378.71 143.44C378.842 143.164 379.022 142.906 379.25 142.666C379.49 142.414 379.76 142.192 380.06 142C380.36 141.808 380.678 141.658 381.014 141.55C381.35 141.442 381.68 141.388 382.004 141.388C382.712 141.388 383.294 141.532 383.75 141.82C384.218 142.108 384.566 142.546 384.794 143.134C385.034 143.722 385.154 144.454 385.154 145.33V151H383.282V145.438C383.282 144.634 383.126 144.046 382.814 143.674C382.514 143.29 382.04 143.098 381.392 143.098C381.056 143.098 380.738 143.158 380.438 143.278C380.15 143.386 379.898 143.542 379.682 143.746C379.466 143.95 379.298 144.19 379.178 144.466C379.058 144.73 378.998 145.024 378.998 145.348V151H377.126V145.402C377.126 144.658 376.964 144.088 376.64 143.692C376.328 143.296 375.872 143.098 375.272 143.098C374.936 143.098 374.624 143.158 374.336 143.278C374.048 143.386 373.796 143.542 373.58 143.746C373.364 143.938 373.196 144.172 373.076 144.448C372.956 144.712 372.896 145 372.896 145.312V151H371.024ZM393.234 151V144.844C393.234 144.316 393.042 143.89 392.658 143.566C392.286 143.23 391.812 143.062 391.236 143.062C390.708 143.062 390.228 143.17 389.796 143.386C389.376 143.602 388.992 143.932 388.644 144.376L387.438 143.17C388.002 142.558 388.608 142.102 389.256 141.802C389.916 141.502 390.624 141.352 391.38 141.352C392.1 141.352 392.724 141.472 393.252 141.712C393.78 141.952 394.188 142.306 394.476 142.774C394.764 143.23 394.908 143.788 394.908 144.448V151H393.234ZM390.408 151.18C389.796 151.18 389.25 151.06 388.77 150.82C388.29 150.58 387.906 150.25 387.618 149.83C387.342 149.398 387.204 148.894 387.204 148.318C387.204 147.814 387.294 147.37 387.474 146.986C387.654 146.602 387.918 146.284 388.266 146.032C388.626 145.78 389.07 145.588 389.598 145.456C390.138 145.324 390.756 145.258 391.452 145.258H394.08L393.918 146.734H391.218C390.858 146.734 390.534 146.77 390.246 146.842C389.97 146.902 389.73 147.004 389.526 147.148C389.334 147.28 389.19 147.442 389.094 147.634C388.998 147.814 388.95 148.03 388.95 148.282C388.95 148.546 389.016 148.78 389.148 148.984C389.28 149.176 389.46 149.326 389.688 149.434C389.916 149.542 390.18 149.596 390.48 149.596C390.912 149.596 391.32 149.524 391.704 149.38C392.1 149.224 392.448 149.014 392.748 148.75C393.06 148.486 393.3 148.192 393.468 147.868L393.9 149.074C393.648 149.494 393.336 149.86 392.964 150.172C392.592 150.484 392.19 150.73 391.758 150.91C391.326 151.09 390.876 151.18 390.408 151.18ZM398.421 151V139.138H400.275V151H398.421ZM396.459 143.35V141.55H402.471V143.35H396.459ZM404.465 151V141.55H406.319V151H404.465ZM405.365 139.462C404.969 139.462 404.663 139.36 404.447 139.156C404.231 138.952 404.123 138.664 404.123 138.292C404.123 137.944 404.231 137.662 404.447 137.446C404.675 137.23 404.981 137.122 405.365 137.122C405.761 137.122 406.067 137.224 406.283 137.428C406.499 137.632 406.607 137.92 406.607 138.292C406.607 138.64 406.493 138.922 406.265 139.138C406.049 139.354 405.749 139.462 405.365 139.462ZM413.417 151.18C412.493 151.18 411.665 150.97 410.933 150.55C410.213 150.118 409.643 149.536 409.223 148.804C408.803 148.06 408.593 147.214 408.593 146.266C408.593 145.318 408.803 144.478 409.223 143.746C409.643 143.002 410.213 142.42 410.933 142C411.665 141.568 412.493 141.352 413.417 141.352C414.329 141.352 415.145 141.568 415.865 142C416.597 142.42 417.173 143.002 417.593 143.746C418.013 144.478 418.223 145.318 418.223 146.266C418.223 147.214 418.013 148.06 417.593 148.804C417.173 149.536 416.597 150.118 415.865 150.55C415.145 150.97 414.329 151.18 413.417 151.18ZM413.417 149.488C413.981 149.488 414.485 149.35 414.929 149.074C415.373 148.786 415.721 148.402 415.973 147.922C416.225 147.43 416.345 146.878 416.333 146.266C416.345 145.642 416.225 145.09 415.973 144.61C415.721 144.118 415.373 143.734 414.929 143.458C414.485 143.182 413.981 143.044 413.417 143.044C412.853 143.044 412.343 143.188 411.887 143.476C411.443 143.752 411.095 144.136 410.843 144.628C410.591 145.108 410.471 145.654 410.483 146.266C410.471 146.878 410.591 147.43 410.843 147.922C411.095 148.402 411.443 148.786 411.887 149.074C412.343 149.35 412.853 149.488 413.417 149.488ZM420.243 151V141.55H422.097V143.494L421.773 143.71C421.893 143.29 422.127 142.906 422.475 142.558C422.823 142.198 423.237 141.91 423.717 141.694C424.197 141.466 424.689 141.352 425.193 141.352C425.913 141.352 426.513 141.496 426.993 141.784C427.473 142.06 427.833 142.486 428.073 143.062C428.313 143.638 428.433 144.364 428.433 145.24V151H426.579V145.366C426.579 144.826 426.507 144.382 426.363 144.034C426.219 143.674 425.997 143.416 425.697 143.26C425.397 143.092 425.025 143.02 424.581 143.044C424.221 143.044 423.891 143.104 423.591 143.224C423.291 143.332 423.027 143.488 422.799 143.692C422.583 143.896 422.409 144.136 422.277 144.412C422.157 144.676 422.097 144.964 422.097 145.276V151H421.179C421.023 151 420.867 151 420.711 151C420.555 151 420.399 151 420.243 151Z" fill="#0D0D0D"/>
<path d="M333.158 359V348.272H329.63V346.4H338.738V348.272H335.102V359H333.158ZM340.667 359V345.68H342.521V351.494L342.197 351.71C342.317 351.29 342.551 350.906 342.899 350.558C343.247 350.198 343.661 349.91 344.141 349.694C344.621 349.466 345.113 349.352 345.617 349.352C346.337 349.352 346.937 349.496 347.417 349.784C347.897 350.06 348.257 350.486 348.497 351.062C348.737 351.638 348.857 352.364 348.857 353.24V359H347.003V353.366C347.003 352.826 346.931 352.382 346.787 352.034C346.643 351.674 346.421 351.416 346.121 351.26C345.821 351.092 345.449 351.02 345.005 351.044C344.645 351.044 344.315 351.104 344.015 351.224C343.715 351.332 343.451 351.488 343.223 351.692C343.007 351.896 342.833 352.136 342.701 352.412C342.581 352.676 342.521 352.964 342.521 353.276V359H341.603C341.447 359 341.291 359 341.135 359C340.979 359 340.823 359 340.667 359ZM355.782 359.18C354.81 359.18 353.946 358.976 353.19 358.568C352.446 358.148 351.858 357.578 351.426 356.858C351.006 356.138 350.796 355.31 350.796 354.374C350.796 353.63 350.916 352.952 351.156 352.34C351.396 351.728 351.726 351.2 352.146 350.756C352.578 350.3 353.088 349.952 353.676 349.712C354.276 349.46 354.924 349.334 355.62 349.334C356.232 349.334 356.802 349.454 357.33 349.694C357.858 349.922 358.314 350.24 358.698 350.648C359.094 351.056 359.394 351.542 359.598 352.106C359.814 352.658 359.916 353.264 359.904 353.924L359.886 354.716H352.164L351.75 353.24H358.284L358.014 353.546V353.114C357.978 352.718 357.846 352.364 357.618 352.052C357.39 351.74 357.102 351.494 356.754 351.314C356.406 351.134 356.028 351.044 355.62 351.044C354.972 351.044 354.426 351.17 353.982 351.422C353.538 351.662 353.202 352.022 352.974 352.502C352.746 352.97 352.632 353.552 352.632 354.248C352.632 354.908 352.77 355.484 353.046 355.976C353.322 356.456 353.712 356.828 354.216 357.092C354.72 357.356 355.302 357.488 355.962 357.488C356.43 357.488 356.862 357.41 357.258 357.254C357.666 357.098 358.104 356.816 358.572 356.408L359.508 357.722C359.22 358.01 358.866 358.262 358.446 358.478C358.038 358.694 357.6 358.868 357.132 359C356.676 359.12 356.226 359.18 355.782 359.18ZM366.964 359V345.68H368.818V351.494L368.494 351.71C368.614 351.29 368.848 350.906 369.196 350.558C369.544 350.198 369.958 349.91 370.438 349.694C370.918 349.466 371.41 349.352 371.914 349.352C372.634 349.352 373.234 349.496 373.714 349.784C374.194 350.06 374.554 350.486 374.794 351.062C375.034 351.638 375.154 352.364 375.154 353.24V359H373.3V353.366C373.3 352.826 373.228 352.382 373.084 352.034C372.94 351.674 372.718 351.416 372.418 351.26C372.118 351.092 371.746 351.02 371.302 351.044C370.942 351.044 370.612 351.104 370.312 351.224C370.012 351.332 369.748 351.488 369.52 351.692C369.304 351.896 369.13 352.136 368.998 352.412C368.878 352.676 368.818 352.964 368.818 353.276V359H367.9C367.744 359 367.588 359 367.432 359C367.276 359 367.12 359 366.964 359ZM383.267 359V352.844C383.267 352.316 383.075 351.89 382.691 351.566C382.319 351.23 381.845 351.062 381.269 351.062C380.741 351.062 380.261 351.17 379.829 351.386C379.409 351.602 379.025 351.932 378.677 352.376L377.471 351.17C378.035 350.558 378.641 350.102 379.289 349.802C379.949 349.502 380.657 349.352 381.413 349.352C382.133 349.352 382.757 349.472 383.285 349.712C383.813 349.952 384.221 350.306 384.509 350.774C384.797 351.23 384.941 351.788 384.941 352.448V359H383.267ZM380.441 359.18C379.829 359.18 379.283 359.06 378.803 358.82C378.323 358.58 377.939 358.25 377.651 357.83C377.375 357.398 377.237 356.894 377.237 356.318C377.237 355.814 377.327 355.37 377.507 354.986C377.687 354.602 377.951 354.284 378.299 354.032C378.659 353.78 379.103 353.588 379.631 353.456C380.171 353.324 380.789 353.258 381.485 353.258H384.113L383.951 354.734H381.251C380.891 354.734 380.567 354.77 380.279 354.842C380.003 354.902 379.763 355.004 379.559 355.148C379.367 355.28 379.223 355.442 379.127 355.634C379.031 355.814 378.983 356.03 378.983 356.282C378.983 356.546 379.049 356.78 379.181 356.984C379.313 357.176 379.493 357.326 379.721 357.434C379.949 357.542 380.213 357.596 380.513 357.596C380.945 357.596 381.353 357.524 381.737 357.38C382.133 357.224 382.481 357.014 382.781 356.75C383.093 356.486 383.333 356.192 383.501 355.868L383.933 357.074C383.681 357.494 383.369 357.86 382.997 358.172C382.625 358.484 382.223 358.73 381.791 358.91C381.359 359.09 380.909 359.18 380.441 359.18ZM390.434 359.18C389.642 359.18 388.928 359.042 388.292 358.766C387.656 358.49 387.128 358.082 386.708 357.542L387.968 356.462C388.328 356.882 388.718 357.188 389.138 357.38C389.57 357.56 390.056 357.65 390.596 357.65C390.812 357.65 391.01 357.626 391.19 357.578C391.382 357.518 391.544 357.434 391.676 357.326C391.82 357.218 391.928 357.092 392 356.948C392.072 356.792 392.108 356.624 392.108 356.444C392.108 356.132 391.994 355.88 391.766 355.688C391.646 355.604 391.454 355.514 391.19 355.418C390.938 355.31 390.608 355.202 390.2 355.094C389.504 354.914 388.934 354.71 388.49 354.482C388.046 354.254 387.704 353.996 387.464 353.708C387.284 353.48 387.152 353.234 387.068 352.97C386.984 352.694 386.942 352.394 386.942 352.07C386.942 351.542 387.092 351.074 387.392 350.666C387.692 350.258 388.094 349.94 388.598 349.712C389.114 349.472 389.69 349.352 390.326 349.352C390.77 349.352 391.208 349.412 391.64 349.532C392.084 349.652 392.492 349.826 392.864 350.054C393.236 350.282 393.548 350.552 393.8 350.864L392.738 352.034C392.51 351.806 392.258 351.608 391.982 351.44C391.718 351.26 391.448 351.122 391.172 351.026C390.896 350.93 390.644 350.882 390.416 350.882C390.164 350.882 389.936 350.906 389.732 350.954C389.528 351.002 389.354 351.074 389.21 351.17C389.078 351.266 388.976 351.386 388.904 351.53C388.832 351.674 388.796 351.836 388.796 352.016C388.808 352.172 388.844 352.322 388.904 352.466C388.976 352.598 389.072 352.712 389.192 352.808C389.324 352.904 389.522 353.006 389.786 353.114C390.05 353.222 390.386 353.324 390.794 353.42C391.394 353.576 391.886 353.75 392.27 353.942C392.666 354.122 392.978 354.332 393.206 354.572C393.446 354.8 393.614 355.064 393.71 355.364C393.806 355.664 393.854 356 393.854 356.372C393.854 356.912 393.698 357.398 393.386 357.83C393.086 358.25 392.678 358.58 392.162 358.82C391.646 359.06 391.07 359.18 390.434 359.18ZM395.898 359V345.68H397.752V351.494L397.428 351.71C397.548 351.29 397.782 350.906 398.13 350.558C398.478 350.198 398.892 349.91 399.372 349.694C399.852 349.466 400.344 349.352 400.848 349.352C401.568 349.352 402.168 349.496 402.648 349.784C403.128 350.06 403.488 350.486 403.728 351.062C403.968 351.638 404.088 352.364 404.088 353.24V359H402.234V353.366C402.234 352.826 402.162 352.382 402.018 352.034C401.874 351.674 401.652 351.416 401.352 351.26C401.052 351.092 400.68 351.02 400.236 351.044C399.876 351.044 399.546 351.104 399.246 351.224C398.946 351.332 398.682 351.488 398.454 351.692C398.238 351.896 398.064 352.136 397.932 352.412C397.812 352.676 397.752 352.964 397.752 353.276V359H396.834C396.678 359 396.522 359 396.366 359C396.21 359 396.054 359 395.898 359ZM334.31 382.18C333.434 382.18 332.648 381.964 331.952 381.532C331.268 381.1 330.722 380.512 330.314 379.768C329.918 379.024 329.72 378.19 329.72 377.266C329.72 376.342 329.918 375.508 330.314 374.764C330.722 374.02 331.268 373.432 331.952 373C332.648 372.568 333.434 372.352 334.31 372.352C335.15 372.352 335.912 372.526 336.596 372.874C337.292 373.21 337.82 373.672 338.18 374.26L337.154 375.52C336.962 375.244 336.716 374.992 336.416 374.764C336.116 374.536 335.798 374.356 335.462 374.224C335.126 374.092 334.802 374.026 334.49 374.026C333.914 374.026 333.398 374.17 332.942 374.458C332.498 374.734 332.144 375.118 331.88 375.61C331.616 376.102 331.484 376.654 331.484 377.266C331.484 377.878 331.622 378.43 331.898 378.922C332.174 379.402 332.54 379.786 332.996 380.074C333.452 380.362 333.956 380.506 334.508 380.506C334.832 380.506 335.144 380.452 335.444 380.344C335.756 380.236 336.056 380.074 336.344 379.858C336.632 379.642 336.902 379.378 337.154 379.066L338.18 380.326C337.796 380.866 337.244 381.31 336.524 381.658C335.816 382.006 335.078 382.18 334.31 382.18ZM339.929 382V368.68H341.783V374.494L341.459 374.71C341.579 374.29 341.813 373.906 342.161 373.558C342.509 373.198 342.923 372.91 343.403 372.694C343.883 372.466 344.375 372.352 344.879 372.352C345.599 372.352 346.199 372.496 346.679 372.784C347.159 373.06 347.519 373.486 347.759 374.062C347.999 374.638 348.119 375.364 348.119 376.24V382H346.265V376.366C346.265 375.826 346.193 375.382 346.049 375.034C345.905 374.674 345.683 374.416 345.383 374.26C345.083 374.092 344.711 374.02 344.267 374.044C343.907 374.044 343.577 374.104 343.277 374.224C342.977 374.332 342.713 374.488 342.485 374.692C342.269 374.896 342.095 375.136 341.963 375.412C341.843 375.676 341.783 375.964 341.783 376.276V382H340.865C340.709 382 340.553 382 340.397 382C340.241 382 340.085 382 339.929 382ZM356.232 382V375.844C356.232 375.316 356.04 374.89 355.656 374.566C355.284 374.23 354.81 374.062 354.234 374.062C353.706 374.062 353.226 374.17 352.794 374.386C352.374 374.602 351.99 374.932 351.642 375.376L350.436 374.17C351 373.558 351.606 373.102 352.254 372.802C352.914 372.502 353.622 372.352 354.378 372.352C355.098 372.352 355.722 372.472 356.25 372.712C356.778 372.952 357.186 373.306 357.474 373.774C357.762 374.23 357.906 374.788 357.906 375.448V382H356.232ZM353.406 382.18C352.794 382.18 352.248 382.06 351.768 381.82C351.288 381.58 350.904 381.25 350.616 380.83C350.34 380.398 350.202 379.894 350.202 379.318C350.202 378.814 350.292 378.37 350.472 377.986C350.652 377.602 350.916 377.284 351.264 377.032C351.624 376.78 352.068 376.588 352.596 376.456C353.136 376.324 353.754 376.258 354.45 376.258H357.078L356.916 377.734H354.216C353.856 377.734 353.532 377.77 353.244 377.842C352.968 377.902 352.728 378.004 352.524 378.148C352.332 378.28 352.188 378.442 352.092 378.634C351.996 378.814 351.948 379.03 351.948 379.282C351.948 379.546 352.014 379.78 352.146 379.984C352.278 380.176 352.458 380.326 352.686 380.434C352.914 380.542 353.178 380.596 353.478 380.596C353.91 380.596 354.318 380.524 354.702 380.38C355.098 380.224 355.446 380.014 355.746 379.75C356.058 379.486 356.298 379.192 356.466 378.868L356.898 380.074C356.646 380.494 356.334 380.86 355.962 381.172C355.59 381.484 355.188 381.73 354.756 381.91C354.324 382.09 353.874 382.18 353.406 382.18ZM360.249 382V372.55H362.103V374.494L361.779 374.71C361.899 374.29 362.133 373.906 362.481 373.558C362.829 373.198 363.243 372.91 363.723 372.694C364.203 372.466 364.695 372.352 365.199 372.352C365.919 372.352 366.519 372.496 366.999 372.784C367.479 373.06 367.839 373.486 368.079 374.062C368.319 374.638 368.439 375.364 368.439 376.24V382H366.585V376.366C366.585 375.826 366.513 375.382 366.369 375.034C366.225 374.674 366.003 374.416 365.703 374.26C365.403 374.092 365.031 374.02 364.587 374.044C364.227 374.044 363.897 374.104 363.597 374.224C363.297 374.332 363.033 374.488 362.805 374.692C362.589 374.896 362.415 375.136 362.283 375.412C362.163 375.676 362.103 375.964 362.103 376.276V382H361.185C361.029 382 360.873 382 360.717 382C360.561 382 360.405 382 360.249 382ZM375.184 386.14C374.512 386.14 373.84 386.032 373.168 385.816C372.508 385.612 371.974 385.342 371.566 385.006L372.25 383.566C372.61 383.842 373.054 384.064 373.582 384.232C374.122 384.4 374.656 384.484 375.184 384.484C375.844 384.484 376.396 384.376 376.84 384.16C377.284 383.944 377.62 383.626 377.848 383.206C378.076 382.786 378.19 382.264 378.19 381.64V379.822L378.388 379.948C378.328 380.32 378.13 380.68 377.794 381.028C377.47 381.364 377.062 381.64 376.57 381.856C376.078 382.072 375.574 382.18 375.058 382.18C374.158 382.18 373.354 381.97 372.646 381.55C371.95 381.118 371.398 380.536 370.99 379.804C370.582 379.06 370.378 378.214 370.378 377.266C370.378 376.318 370.576 375.478 370.972 374.746C371.38 374.002 371.932 373.42 372.628 373C373.336 372.568 374.128 372.352 375.004 372.352C375.364 372.352 375.712 372.4 376.048 372.496C376.384 372.58 376.696 372.706 376.984 372.874C377.272 373.03 377.53 373.204 377.758 373.396C377.986 373.588 378.172 373.792 378.316 374.008C378.46 374.224 378.55 374.428 378.586 374.62L378.19 374.764V372.55H380.044V381.424C380.044 382.18 379.93 382.846 379.702 383.422C379.486 384.01 379.168 384.502 378.748 384.898C378.328 385.306 377.818 385.612 377.218 385.816C376.618 386.032 375.94 386.14 375.184 386.14ZM375.256 380.47C375.844 380.47 376.366 380.332 376.822 380.056C377.278 379.78 377.632 379.402 377.884 378.922C378.136 378.442 378.262 377.89 378.262 377.266C378.262 376.642 378.13 376.09 377.866 375.61C377.614 375.118 377.26 374.734 376.804 374.458C376.36 374.182 375.844 374.044 375.256 374.044C374.68 374.044 374.164 374.188 373.708 374.476C373.264 374.752 372.91 375.136 372.646 375.628C372.394 376.108 372.268 376.654 372.268 377.266C372.268 377.878 372.394 378.43 372.646 378.922C372.91 379.402 373.264 379.78 373.708 380.056C374.164 380.332 374.68 380.47 375.256 380.47ZM387.054 382.18C386.082 382.18 385.218 381.976 384.462 381.568C383.718 381.148 383.13 380.578 382.698 379.858C382.278 379.138 382.068 378.31 382.068 377.374C382.068 376.63 382.188 375.952 382.428 375.34C382.668 374.728 382.998 374.2 383.418 373.756C383.85 373.3 384.36 372.952 384.948 372.712C385.548 372.46 386.196 372.334 386.892 372.334C387.504 372.334 388.074 372.454 388.602 372.694C389.13 372.922 389.586 373.24 389.97 373.648C390.366 374.056 390.666 374.542 390.87 375.106C391.086 375.658 391.188 376.264 391.176 376.924L391.158 377.716H383.436L383.022 376.24H389.556L389.286 376.546V376.114C389.25 375.718 389.118 375.364 388.89 375.052C388.662 374.74 388.374 374.494 388.026 374.314C387.678 374.134 387.3 374.044 386.892 374.044C386.244 374.044 385.698 374.17 385.254 374.422C384.81 374.662 384.474 375.022 384.246 375.502C384.018 375.97 383.904 376.552 383.904 377.248C383.904 377.908 384.042 378.484 384.318 378.976C384.594 379.456 384.984 379.828 385.488 380.092C385.992 380.356 386.574 380.488 387.234 380.488C387.702 380.488 388.134 380.41 388.53 380.254C388.938 380.098 389.376 379.816 389.844 379.408L390.78 380.722C390.492 381.01 390.138 381.262 389.718 381.478C389.31 381.694 388.872 381.868 388.404 382C387.948 382.12 387.498 382.18 387.054 382.18ZM396.341 382.18C395.549 382.18 394.835 382.042 394.199 381.766C393.563 381.49 393.035 381.082 392.615 380.542L393.875 379.462C394.235 379.882 394.625 380.188 395.045 380.38C395.477 380.56 395.963 380.65 396.503 380.65C396.719 380.65 396.917 380.626 397.097 380.578C397.289 380.518 397.451 380.434 397.583 380.326C397.727 380.218 397.835 380.092 397.907 379.948C397.979 379.792 398.015 379.624 398.015 379.444C398.015 379.132 397.901 378.88 397.673 378.688C397.553 378.604 397.361 378.514 397.097 378.418C396.845 378.31 396.515 378.202 396.107 378.094C395.411 377.914 394.841 377.71 394.397 377.482C393.953 377.254 393.611 376.996 393.371 376.708C393.191 376.48 393.059 376.234 392.975 375.97C392.891 375.694 392.849 375.394 392.849 375.07C392.849 374.542 392.999 374.074 393.299 373.666C393.599 373.258 394.001 372.94 394.505 372.712C395.021 372.472 395.597 372.352 396.233 372.352C396.677 372.352 397.115 372.412 397.547 372.532C397.991 372.652 398.399 372.826 398.771 373.054C399.143 373.282 399.455 373.552 399.707 373.864L398.645 375.034C398.417 374.806 398.165 374.608 397.889 374.44C397.625 374.26 397.355 374.122 397.079 374.026C396.803 373.93 396.551 373.882 396.323 373.882C396.071 373.882 395.843 373.906 395.639 373.954C395.435 374.002 395.261 374.074 395.117 374.17C394.985 374.266 394.883 374.386 394.811 374.53C394.739 374.674 394.703 374.836 394.703 375.016C394.715 375.172 394.751 375.322 394.811 375.466C394.883 375.598 394.979 375.712 395.099 375.808C395.231 375.904 395.429 376.006 395.693 376.114C395.957 376.222 396.293 376.324 396.701 376.42C397.301 376.576 397.793 376.75 398.177 376.942C398.573 377.122 398.885 377.332 399.113 377.572C399.353 377.8 399.521 378.064 399.617 378.364C399.713 378.664 399.761 379 399.761 379.372C399.761 379.912 399.605 380.398 399.293 380.83C398.993 381.25 398.585 381.58 398.069 381.82C397.553 382.06 396.977 382.18 396.341 382.18ZM335.894 405V398.844C335.894 398.316 335.702 397.89 335.318 397.566C334.946 397.23 334.472 397.062 333.896 397.062C333.368 397.062 332.888 397.17 332.456 397.386C332.036 397.602 331.652 397.932 331.304 398.376L330.098 397.17C330.662 396.558 331.268 396.102 331.916 395.802C332.576 395.502 333.284 395.352 334.04 395.352C334.76 395.352 335.384 395.472 335.912 395.712C336.44 395.952 336.848 396.306 337.136 396.774C337.424 397.23 337.568 397.788 337.568 398.448V405H335.894ZM333.068 405.18C332.456 405.18 331.91 405.06 331.43 404.82C330.95 404.58 330.566 404.25 330.278 403.83C330.002 403.398 329.864 402.894 329.864 402.318C329.864 401.814 329.954 401.37 330.134 400.986C330.314 400.602 330.578 400.284 330.926 400.032C331.286 399.78 331.73 399.588 332.258 399.456C332.798 399.324 333.416 399.258 334.112 399.258H336.74L336.578 400.734H333.878C333.518 400.734 333.194 400.77 332.906 400.842C332.63 400.902 332.39 401.004 332.186 401.148C331.994 401.28 331.85 401.442 331.754 401.634C331.658 401.814 331.61 402.03 331.61 402.282C331.61 402.546 331.676 402.78 331.808 402.984C331.94 403.176 332.12 403.326 332.348 403.434C332.576 403.542 332.84 403.596 333.14 403.596C333.572 403.596 333.98 403.524 334.364 403.38C334.76 403.224 335.108 403.014 335.408 402.75C335.72 402.486 335.96 402.192 336.128 401.868L336.56 403.074C336.308 403.494 335.996 403.86 335.624 404.172C335.252 404.484 334.85 404.73 334.418 404.91C333.986 405.09 333.536 405.18 333.068 405.18ZM339.911 405V395.55H341.765V397.494L341.441 397.71C341.561 397.29 341.795 396.906 342.143 396.558C342.491 396.198 342.905 395.91 343.385 395.694C343.865 395.466 344.357 395.352 344.861 395.352C345.581 395.352 346.181 395.496 346.661 395.784C347.141 396.06 347.501 396.486 347.741 397.062C347.981 397.638 348.101 398.364 348.101 399.24V405H346.247V399.366C346.247 398.826 346.175 398.382 346.031 398.034C345.887 397.674 345.665 397.416 345.365 397.26C345.065 397.092 344.693 397.02 344.249 397.044C343.889 397.044 343.559 397.104 343.259 397.224C342.959 397.332 342.695 397.488 342.467 397.692C342.251 397.896 342.077 398.136 341.945 398.412C341.825 398.676 341.765 398.964 341.765 399.276V405H340.847C340.691 405 340.535 405 340.379 405C340.223 405 340.067 405 339.911 405ZM354.558 405.18C353.694 405.18 352.92 404.97 352.236 404.55C351.564 404.118 351.03 403.536 350.634 402.804C350.238 402.06 350.04 401.214 350.04 400.266C350.04 399.318 350.232 398.478 350.616 397.746C351.012 397.002 351.546 396.42 352.218 396C352.89 395.568 353.652 395.352 354.504 395.352C354.972 395.352 355.422 395.43 355.854 395.586C356.298 395.73 356.694 395.934 357.042 396.198C357.39 396.45 357.66 396.732 357.852 397.044C358.056 397.344 358.158 397.65 358.158 397.962L357.618 397.998V391.68H359.472V405H357.618V402.75H357.978C357.978 403.038 357.882 403.326 357.69 403.614C357.498 403.89 357.24 404.148 356.916 404.388C356.604 404.628 356.238 404.82 355.818 404.964C355.41 405.108 354.99 405.18 354.558 405.18ZM354.81 403.578C355.374 403.578 355.872 403.434 356.304 403.146C356.736 402.858 357.072 402.468 357.312 401.976C357.564 401.472 357.69 400.902 357.69 400.266C357.69 399.63 357.564 399.066 357.312 398.574C357.072 398.07 356.736 397.674 356.304 397.386C355.872 397.098 355.374 396.954 354.81 396.954C354.246 396.954 353.748 397.098 353.316 397.386C352.884 397.674 352.542 398.07 352.29 398.574C352.05 399.066 351.93 399.63 351.93 400.266C351.93 400.902 352.05 401.472 352.29 401.976C352.542 402.468 352.884 402.858 353.316 403.146C353.748 403.434 354.246 403.578 354.81 403.578ZM367.375 405V395.55H369.229V405H367.375ZM368.275 393.462C367.879 393.462 367.573 393.36 367.357 393.156C367.141 392.952 367.033 392.664 367.033 392.292C367.033 391.944 367.141 391.662 367.357 391.446C367.585 391.23 367.891 391.122 368.275 391.122C368.671 391.122 368.977 391.224 369.193 391.428C369.409 391.632 369.517 391.92 369.517 392.292C369.517 392.64 369.403 392.922 369.175 393.138C368.959 393.354 368.659 393.462 368.275 393.462ZM373.249 405V393.138H375.103V405H373.249ZM371.287 397.35V395.55H377.299V397.35H371.287ZM334.238 428.18C333.374 428.18 332.6 427.97 331.916 427.55C331.244 427.118 330.71 426.536 330.314 425.804C329.918 425.06 329.72 424.214 329.72 423.266C329.72 422.318 329.912 421.478 330.296 420.746C330.692 420.002 331.226 419.42 331.898 419C332.57 418.568 333.332 418.352 334.184 418.352C334.652 418.352 335.102 418.43 335.534 418.586C335.978 418.73 336.374 418.934 336.722 419.198C337.07 419.45 337.34 419.732 337.532 420.044C337.736 420.344 337.838 420.65 337.838 420.962L337.298 420.998V414.68H339.152V428H337.298V425.75H337.658C337.658 426.038 337.562 426.326 337.37 426.614C337.178 426.89 336.92 427.148 336.596 427.388C336.284 427.628 335.918 427.82 335.498 427.964C335.09 428.108 334.67 428.18 334.238 428.18ZM334.49 426.578C335.054 426.578 335.552 426.434 335.984 426.146C336.416 425.858 336.752 425.468 336.992 424.976C337.244 424.472 337.37 423.902 337.37 423.266C337.37 422.63 337.244 422.066 336.992 421.574C336.752 421.07 336.416 420.674 335.984 420.386C335.552 420.098 335.054 419.954 334.49 419.954C333.926 419.954 333.428 420.098 332.996 420.386C332.564 420.674 332.222 421.07 331.97 421.574C331.73 422.066 331.61 422.63 331.61 423.266C331.61 423.902 331.73 424.472 331.97 424.976C332.222 425.468 332.564 425.858 332.996 426.146C333.428 426.434 333.926 426.578 334.49 426.578ZM345.952 428.18C345.028 428.18 344.2 427.97 343.468 427.55C342.748 427.118 342.178 426.536 341.758 425.804C341.338 425.06 341.128 424.214 341.128 423.266C341.128 422.318 341.338 421.478 341.758 420.746C342.178 420.002 342.748 419.42 343.468 419C344.2 418.568 345.028 418.352 345.952 418.352C346.864 418.352 347.68 418.568 348.4 419C349.132 419.42 349.708 420.002 350.128 420.746C350.548 421.478 350.758 422.318 350.758 423.266C350.758 424.214 350.548 425.06 350.128 425.804C349.708 426.536 349.132 427.118 348.4 427.55C347.68 427.97 346.864 428.18 345.952 428.18ZM345.952 426.488C346.516 426.488 347.02 426.35 347.464 426.074C347.908 425.786 348.256 425.402 348.508 424.922C348.76 424.43 348.88 423.878 348.868 423.266C348.88 422.642 348.76 422.09 348.508 421.61C348.256 421.118 347.908 420.734 347.464 420.458C347.02 420.182 346.516 420.044 345.952 420.044C345.388 420.044 344.878 420.188 344.422 420.476C343.978 420.752 343.63 421.136 343.378 421.628C343.126 422.108 343.006 422.654 343.018 423.266C343.006 423.878 343.126 424.43 343.378 424.922C343.63 425.402 343.978 425.786 344.422 426.074C344.878 426.35 345.388 426.488 345.952 426.488ZM357.188 428.18C356.216 428.18 355.352 427.976 354.596 427.568C353.852 427.148 353.264 426.578 352.832 425.858C352.412 425.138 352.202 424.31 352.202 423.374C352.202 422.63 352.322 421.952 352.562 421.34C352.802 420.728 353.132 420.2 353.552 419.756C353.984 419.3 354.494 418.952 355.082 418.712C355.682 418.46 356.33 418.334 357.026 418.334C357.638 418.334 358.208 418.454 358.736 418.694C359.264 418.922 359.72 419.24 360.104 419.648C360.5 420.056 360.8 420.542 361.004 421.106C361.22 421.658 361.322 422.264 361.31 422.924L361.292 423.716H353.57L353.156 422.24H359.69L359.42 422.546V422.114C359.384 421.718 359.252 421.364 359.024 421.052C358.796 420.74 358.508 420.494 358.16 420.314C357.812 420.134 357.434 420.044 357.026 420.044C356.378 420.044 355.832 420.17 355.388 420.422C354.944 420.662 354.608 421.022 354.38 421.502C354.152 421.97 354.038 422.552 354.038 423.248C354.038 423.908 354.176 424.484 354.452 424.976C354.728 425.456 355.118 425.828 355.622 426.092C356.126 426.356 356.708 426.488 357.368 426.488C357.836 426.488 358.268 426.41 358.664 426.254C359.072 426.098 359.51 425.816 359.978 425.408L360.914 426.722C360.626 427.01 360.272 427.262 359.852 427.478C359.444 427.694 359.006 427.868 358.538 428C358.082 428.12 357.632 428.18 357.188 428.18ZM366.475 428.18C365.683 428.18 364.969 428.042 364.333 427.766C363.697 427.49 363.169 427.082 362.749 426.542L364.009 425.462C364.369 425.882 364.759 426.188 365.179 426.38C365.611 426.56 366.097 426.65 366.637 426.65C366.853 426.65 367.051 426.626 367.231 426.578C367.423 426.518 367.585 426.434 367.717 426.326C367.861 426.218 367.969 426.092 368.041 425.948C368.113 425.792 368.149 425.624 368.149 425.444C368.149 425.132 368.035 424.88 367.807 424.688C367.687 424.604 367.495 424.514 367.231 424.418C366.979 424.31 366.649 424.202 366.241 424.094C365.545 423.914 364.975 423.71 364.531 423.482C364.087 423.254 363.745 422.996 363.505 422.708C363.325 422.48 363.193 422.234 363.109 421.97C363.025 421.694 362.983 421.394 362.983 421.07C362.983 420.542 363.133 420.074 363.433 419.666C363.733 419.258 364.135 418.94 364.639 418.712C365.155 418.472 365.731 418.352 366.367 418.352C366.811 418.352 367.249 418.412 367.681 418.532C368.125 418.652 368.533 418.826 368.905 419.054C369.277 419.282 369.589 419.552 369.841 419.864L368.779 421.034C368.551 420.806 368.299 420.608 368.023 420.44C367.759 420.26 367.489 420.122 367.213 420.026C366.937 419.93 366.685 419.882 366.457 419.882C366.205 419.882 365.977 419.906 365.773 419.954C365.569 420.002 365.395 420.074 365.251 420.17C365.119 420.266 365.017 420.386 364.945 420.53C364.873 420.674 364.837 420.836 364.837 421.016C364.849 421.172 364.885 421.322 364.945 421.466C365.017 421.598 365.113 421.712 365.233 421.808C365.365 421.904 365.563 422.006 365.827 422.114C366.091 422.222 366.427 422.324 366.835 422.42C367.435 422.576 367.927 422.75 368.311 422.942C368.707 423.122 369.019 423.332 369.247 423.572C369.487 423.8 369.655 424.064 369.751 424.364C369.847 424.664 369.895 425 369.895 425.372C369.895 425.912 369.739 426.398 369.427 426.83C369.127 427.25 368.719 427.58 368.203 427.82C367.687 428.06 367.111 428.18 366.475 428.18ZM371.939 428V418.55H373.793V420.494L373.469 420.71C373.589 420.29 373.823 419.906 374.171 419.558C374.519 419.198 374.933 418.91 375.413 418.694C375.893 418.466 376.385 418.352 376.889 418.352C377.609 418.352 378.209 418.496 378.689 418.784C379.169 419.06 379.529 419.486 379.769 420.062C380.009 420.638 380.129 421.364 380.129 422.24V428H378.275V422.366C378.275 421.826 378.203 421.382 378.059 421.034C377.915 420.674 377.693 420.416 377.393 420.26C377.093 420.092 376.721 420.02 376.277 420.044C375.917 420.044 375.587 420.104 375.287 420.224C374.987 420.332 374.723 420.488 374.495 420.692C374.279 420.896 374.105 421.136 373.973 421.412C373.853 421.676 373.793 421.964 373.793 422.276V428H372.875C372.719 428 372.563 428 372.407 428C372.251 428 372.095 428 371.939 428ZM382.392 419.45L381.708 418.622C382.176 418.406 382.56 418.16 382.86 417.884C383.16 417.608 383.31 417.368 383.31 417.164C383.31 417.008 383.244 416.87 383.112 416.75C382.98 416.618 382.86 416.51 382.752 416.426C382.488 416.21 382.308 416.03 382.212 415.886C382.128 415.742 382.086 415.592 382.086 415.436C382.086 415.148 382.188 414.92 382.392 414.752C382.596 414.572 382.86 414.482 383.184 414.482C383.52 414.482 383.82 414.572 384.084 414.752C384.36 414.92 384.576 415.154 384.732 415.454C384.888 415.754 384.966 416.108 384.966 416.516C384.966 416.828 384.9 417.134 384.768 417.434C384.636 417.734 384.45 418.016 384.21 418.28C383.982 418.544 383.712 418.778 383.4 418.982C383.088 419.186 382.752 419.342 382.392 419.45ZM388.155 428V416.138H390.009V428H388.155ZM386.193 420.35V418.55H392.205V420.35H386.193ZM330.26 451V441.55H332.132V443.566L331.79 443.782C331.886 443.47 332.036 443.17 332.24 442.882C332.456 442.594 332.714 442.342 333.014 442.126C333.326 441.898 333.656 441.718 334.004 441.586C334.364 441.454 334.73 441.388 335.102 441.388C335.642 441.388 336.116 441.478 336.524 441.658C336.932 441.838 337.268 442.108 337.532 442.468C337.796 442.828 337.988 443.278 338.108 443.818L337.82 443.746L337.946 443.44C338.078 443.164 338.258 442.906 338.486 442.666C338.726 442.414 338.996 442.192 339.296 442C339.596 441.808 339.914 441.658 340.25 441.55C340.586 441.442 340.916 441.388 341.24 441.388C341.948 441.388 342.53 441.532 342.986 441.82C343.454 442.108 343.802 442.546 344.03 443.134C344.27 443.722 344.39 444.454 344.39 445.33V451H342.518V445.438C342.518 444.634 342.362 444.046 342.05 443.674C341.75 443.29 341.276 443.098 340.628 443.098C340.292 443.098 339.974 443.158 339.674 443.278C339.386 443.386 339.134 443.542 338.918 443.746C338.702 443.95 338.534 444.19 338.414 444.466C338.294 444.73 338.234 445.024 338.234 445.348V451H336.362V445.402C336.362 444.658 336.2 444.088 335.876 443.692C335.564 443.296 335.108 443.098 334.508 443.098C334.172 443.098 333.86 443.158 333.572 443.278C333.284 443.386 333.032 443.542 332.816 443.746C332.6 443.938 332.432 444.172 332.312 444.448C332.192 444.712 332.132 445 332.132 445.312V451H330.26ZM352.47 451V444.844C352.47 444.316 352.278 443.89 351.894 443.566C351.522 443.23 351.048 443.062 350.472 443.062C349.944 443.062 349.464 443.17 349.032 443.386C348.612 443.602 348.228 443.932 347.88 444.376L346.674 443.17C347.238 442.558 347.844 442.102 348.492 441.802C349.152 441.502 349.86 441.352 350.616 441.352C351.336 441.352 351.96 441.472 352.488 441.712C353.016 441.952 353.424 442.306 353.712 442.774C354 443.23 354.144 443.788 354.144 444.448V451H352.47ZM349.644 451.18C349.032 451.18 348.486 451.06 348.006 450.82C347.526 450.58 347.142 450.25 346.854 449.83C346.578 449.398 346.44 448.894 346.44 448.318C346.44 447.814 346.53 447.37 346.71 446.986C346.89 446.602 347.154 446.284 347.502 446.032C347.862 445.78 348.306 445.588 348.834 445.456C349.374 445.324 349.992 445.258 350.688 445.258H353.316L353.154 446.734H350.454C350.094 446.734 349.77 446.77 349.482 446.842C349.206 446.902 348.966 447.004 348.762 447.148C348.57 447.28 348.426 447.442 348.33 447.634C348.234 447.814 348.186 448.03 348.186 448.282C348.186 448.546 348.252 448.78 348.384 448.984C348.516 449.176 348.696 449.326 348.924 449.434C349.152 449.542 349.416 449.596 349.716 449.596C350.148 449.596 350.556 449.524 350.94 449.38C351.336 449.224 351.684 449.014 351.984 448.75C352.296 448.486 352.536 448.192 352.704 447.868L353.136 449.074C352.884 449.494 352.572 449.86 352.2 450.172C351.828 450.484 351.426 450.73 350.994 450.91C350.562 451.09 350.112 451.18 349.644 451.18ZM357.657 451V439.138H359.511V451H357.657ZM355.695 443.35V441.55H361.707V443.35H355.695ZM367.322 451.18C366.446 451.18 365.66 450.964 364.964 450.532C364.28 450.1 363.734 449.512 363.326 448.768C362.93 448.024 362.732 447.19 362.732 446.266C362.732 445.342 362.93 444.508 363.326 443.764C363.734 443.02 364.28 442.432 364.964 442C365.66 441.568 366.446 441.352 367.322 441.352C368.162 441.352 368.924 441.526 369.608 441.874C370.304 442.21 370.832 442.672 371.192 443.26L370.166 444.52C369.974 444.244 369.728 443.992 369.428 443.764C369.128 443.536 368.81 443.356 368.474 443.224C368.138 443.092 367.814 443.026 367.502 443.026C366.926 443.026 366.41 443.17 365.954 443.458C365.51 443.734 365.156 444.118 364.892 444.61C364.628 445.102 364.496 445.654 364.496 446.266C364.496 446.878 364.634 447.43 364.91 447.922C365.186 448.402 365.552 448.786 366.008 449.074C366.464 449.362 366.968 449.506 367.52 449.506C367.844 449.506 368.156 449.452 368.456 449.344C368.768 449.236 369.068 449.074 369.356 448.858C369.644 448.642 369.914 448.378 370.166 448.066L371.192 449.326C370.808 449.866 370.256 450.31 369.536 450.658C368.828 451.006 368.09 451.18 367.322 451.18ZM372.941 451V437.68H374.795V443.494L374.471 443.71C374.591 443.29 374.825 442.906 375.173 442.558C375.521 442.198 375.935 441.91 376.415 441.694C376.895 441.466 377.387 441.352 377.891 441.352C378.611 441.352 379.211 441.496 379.691 441.784C380.171 442.06 380.531 442.486 380.771 443.062C381.011 443.638 381.131 444.364 381.131 445.24V451H379.277V445.366C379.277 444.826 379.205 444.382 379.061 444.034C378.917 443.674 378.695 443.416 378.395 443.26C378.095 443.092 377.723 443.02 377.279 443.044C376.919 443.044 376.589 443.104 376.289 443.224C375.989 443.332 375.725 443.488 375.497 443.692C375.281 443.896 375.107 444.136 374.975 444.412C374.855 444.676 374.795 444.964 374.795 445.276V451H373.877C373.721 451 373.565 451 373.409 451C373.253 451 373.097 451 372.941 451ZM335.894 474V467.844C335.894 467.316 335.702 466.89 335.318 466.566C334.946 466.23 334.472 466.062 333.896 466.062C333.368 466.062 332.888 466.17 332.456 466.386C332.036 466.602 331.652 466.932 331.304 467.376L330.098 466.17C330.662 465.558 331.268 465.102 331.916 464.802C332.576 464.502 333.284 464.352 334.04 464.352C334.76 464.352 335.384 464.472 335.912 464.712C336.44 464.952 336.848 465.306 337.136 465.774C337.424 466.23 337.568 466.788 337.568 467.448V474H335.894ZM333.068 474.18C332.456 474.18 331.91 474.06 331.43 473.82C330.95 473.58 330.566 473.25 330.278 472.83C330.002 472.398 329.864 471.894 329.864 471.318C329.864 470.814 329.954 470.37 330.134 469.986C330.314 469.602 330.578 469.284 330.926 469.032C331.286 468.78 331.73 468.588 332.258 468.456C332.798 468.324 333.416 468.258 334.112 468.258H336.74L336.578 469.734H333.878C333.518 469.734 333.194 469.77 332.906 469.842C332.63 469.902 332.39 470.004 332.186 470.148C331.994 470.28 331.85 470.442 331.754 470.634C331.658 470.814 331.61 471.03 331.61 471.282C331.61 471.546 331.676 471.78 331.808 471.984C331.94 472.176 332.12 472.326 332.348 472.434C332.576 472.542 332.84 472.596 333.14 472.596C333.572 472.596 333.98 472.524 334.364 472.38C334.76 472.224 335.108 472.014 335.408 471.75C335.72 471.486 335.96 471.192 336.128 470.868L336.56 472.074C336.308 472.494 335.996 472.86 335.624 473.172C335.252 473.484 334.85 473.73 334.418 473.91C333.986 474.09 333.536 474.18 333.068 474.18ZM339.911 474V464.55H341.765V466.494L341.441 466.71C341.561 466.29 341.795 465.906 342.143 465.558C342.491 465.198 342.905 464.91 343.385 464.694C343.865 464.466 344.357 464.352 344.861 464.352C345.581 464.352 346.181 464.496 346.661 464.784C347.141 465.06 347.501 465.486 347.741 466.062C347.981 466.638 348.101 467.364 348.101 468.24V474H346.247V468.366C346.247 467.826 346.175 467.382 346.031 467.034C345.887 466.674 345.665 466.416 345.365 466.26C345.065 466.092 344.693 466.02 344.249 466.044C343.889 466.044 343.559 466.104 343.259 466.224C342.959 466.332 342.695 466.488 342.467 466.692C342.251 466.896 342.077 467.136 341.945 467.412C341.825 467.676 341.765 467.964 341.765 468.276V474H340.847C340.691 474 340.535 474 340.379 474C340.223 474 340.067 474 339.911 474ZM352.112 478.14L354.02 473.73L354.038 475.206L349.322 464.55H351.482L354.434 471.498C354.494 471.618 354.566 471.804 354.65 472.056C354.734 472.296 354.806 472.536 354.866 472.776L354.398 472.884C354.494 472.632 354.584 472.38 354.668 472.128C354.764 471.876 354.854 471.624 354.938 471.372L357.404 464.55H359.6L355.712 474L354.11 478.14H352.112ZM360.951 474V464.55H362.823V466.566L362.481 466.782C362.577 466.47 362.727 466.17 362.931 465.882C363.147 465.594 363.405 465.342 363.705 465.126C364.017 464.898 364.347 464.718 364.695 464.586C365.055 464.454 365.421 464.388 365.793 464.388C366.333 464.388 366.807 464.478 367.215 464.658C367.623 464.838 367.959 465.108 368.223 465.468C368.487 465.828 368.679 466.278 368.799 466.818L368.511 466.746L368.637 466.44C368.769 466.164 368.949 465.906 369.177 465.666C369.417 465.414 369.687 465.192 369.987 465C370.287 464.808 370.605 464.658 370.941 464.55C371.277 464.442 371.607 464.388 371.931 464.388C372.639 464.388 373.221 464.532 373.677 464.82C374.145 465.108 374.493 465.546 374.721 466.134C374.961 466.722 375.081 467.454 375.081 468.33V474H373.209V468.438C373.209 467.634 373.053 467.046 372.741 466.674C372.441 466.29 371.967 466.098 371.319 466.098C370.983 466.098 370.665 466.158 370.365 466.278C370.077 466.386 369.825 466.542 369.609 466.746C369.393 466.95 369.225 467.19 369.105 467.466C368.985 467.73 368.925 468.024 368.925 468.348V474H367.053V468.402C367.053 467.658 366.891 467.088 366.567 466.692C366.255 466.296 365.799 466.098 365.199 466.098C364.863 466.098 364.551 466.158 364.263 466.278C363.975 466.386 363.723 466.542 363.507 466.746C363.291 466.938 363.123 467.172 363.003 467.448C362.883 467.712 362.823 468 362.823 468.312V474H360.951ZM381.812 474.18C380.888 474.18 380.06 473.97 379.328 473.55C378.608 473.118 378.038 472.536 377.618 471.804C377.198 471.06 376.988 470.214 376.988 469.266C376.988 468.318 377.198 467.478 377.618 466.746C378.038 466.002 378.608 465.42 379.328 465C380.06 464.568 380.888 464.352 381.812 464.352C382.724 464.352 383.54 464.568 384.26 465C384.992 465.42 385.568 466.002 385.988 466.746C386.408 467.478 386.618 468.318 386.618 469.266C386.618 470.214 386.408 471.06 385.988 471.804C385.568 472.536 384.992 473.118 384.26 473.55C383.54 473.97 382.724 474.18 381.812 474.18ZM381.812 472.488C382.376 472.488 382.88 472.35 383.324 472.074C383.768 471.786 384.116 471.402 384.368 470.922C384.62 470.43 384.74 469.878 384.728 469.266C384.74 468.642 384.62 468.09 384.368 467.61C384.116 467.118 383.768 466.734 383.324 466.458C382.88 466.182 382.376 466.044 381.812 466.044C381.248 466.044 380.738 466.188 380.282 466.476C379.838 466.752 379.49 467.136 379.238 467.628C378.986 468.108 378.866 468.654 378.878 469.266C378.866 469.878 378.986 470.43 379.238 470.922C379.49 471.402 379.838 471.786 380.282 472.074C380.738 472.35 381.248 472.488 381.812 472.488ZM388.638 474V464.55H390.51V467.52L390.33 466.8C390.462 466.344 390.684 465.93 390.996 465.558C391.32 465.186 391.686 464.892 392.094 464.676C392.514 464.46 392.946 464.352 393.39 464.352C393.594 464.352 393.786 464.37 393.966 464.406C394.158 464.442 394.308 464.484 394.416 464.532L393.93 466.548C393.786 466.488 393.624 466.44 393.444 466.404C393.276 466.356 393.108 466.332 392.94 466.332C392.616 466.332 392.304 466.398 392.004 466.53C391.716 466.65 391.458 466.824 391.23 467.052C391.014 467.268 390.84 467.526 390.708 467.826C390.576 468.114 390.51 468.432 390.51 468.78V474H388.638ZM399.903 474.18C398.931 474.18 398.067 473.976 397.311 473.568C396.567 473.148 395.979 472.578 395.547 471.858C395.127 471.138 394.917 470.31 394.917 469.374C394.917 468.63 395.037 467.952 395.277 467.34C395.517 466.728 395.847 466.2 396.267 465.756C396.699 465.3 397.209 464.952 397.797 464.712C398.397 464.46 399.045 464.334 399.741 464.334C400.353 464.334 400.923 464.454 401.451 464.694C401.979 464.922 402.435 465.24 402.819 465.648C403.215 466.056 403.515 466.542 403.719 467.106C403.935 467.658 404.037 468.264 404.025 468.924L404.007 469.716H396.285L395.871 468.24H402.405L402.135 468.546V468.114C402.099 467.718 401.967 467.364 401.739 467.052C401.511 466.74 401.223 466.494 400.875 466.314C400.527 466.134 400.149 466.044 399.741 466.044C399.093 466.044 398.547 466.17 398.103 466.422C397.659 466.662 397.323 467.022 397.095 467.502C396.867 467.97 396.753 468.552 396.753 469.248C396.753 469.908 396.891 470.484 397.167 470.976C397.443 471.456 397.833 471.828 398.337 472.092C398.841 472.356 399.423 472.488 400.083 472.488C400.551 472.488 400.983 472.41 401.379 472.254C401.787 472.098 402.225 471.816 402.693 471.408L403.629 472.722C403.341 473.01 402.987 473.262 402.567 473.478C402.159 473.694 401.721 473.868 401.253 474C400.797 474.12 400.347 474.18 399.903 474.18Z" fill="#0D0D0D"/>
<path d="M318 372L237 372" stroke="#0D0D0D" stroke-width="5"/>
<path d="M238.385 518.292H31.5009C21.7609 518.292 13.8651 526.828 13.8651 537.357L13.8651 751.696C13.8651 762.225 21.7609 770.761 31.5009 770.761H238.385C248.125 770.761 256.021 762.225 256.021 751.696V537.357C256.021 526.828 248.125 518.292 238.385 518.292Z" fill="black"/>
<path d="M232.52 511.954L25.6358 511.954C15.8958 511.954 8 520.49 8 531.019L8 745.359C8 755.888 15.8958 764.423 25.6358 764.423H232.52C242.26 764.423 250.156 755.888 250.156 745.359L250.156 531.019C250.156 520.49 242.26 511.954 232.52 511.954Z" fill="white" stroke="black" stroke-width="2" stroke-miterlimit="10"/>
<path d="M211.591 568.536C211.59 574.586 209.525 580.423 205.792 584.93C202.058 589.436 196.917 592.295 191.355 592.96C185.792 593.624 180.199 592.047 175.645 588.53C171.091 585.013 167.897 579.804 166.675 573.9H88.1883C86.9662 579.804 83.7723 585.014 79.2183 588.53C74.6644 592.047 69.0704 593.624 63.5077 592.96C57.945 592.295 52.8046 589.435 49.0709 584.929C45.3372 580.422 43.2726 574.584 43.2726 568.534C43.2726 562.484 45.3372 556.647 49.0709 552.14C52.8046 547.633 57.945 544.774 63.5077 544.109C69.0704 543.444 74.6644 545.021 79.2183 548.538C83.7723 552.055 86.9662 557.264 88.1883 563.168H166.675C167.898 557.264 171.092 552.055 175.646 548.538C180.2 545.021 185.794 543.444 191.357 544.109C196.92 544.774 202.06 547.634 205.794 552.141C209.527 556.648 211.591 562.486 211.591 568.536Z" stroke="black" stroke-width="2" stroke-miterlimit="10"/>
<path d="M215.427 572.685C215.426 578.735 213.362 584.571 209.628 589.078C205.894 593.584 200.754 596.443 195.191 597.107C189.629 597.771 184.035 596.194 179.481 592.678C174.927 589.161 171.734 583.952 170.512 578.049H92.0244C90.8023 583.953 87.6084 589.161 83.0545 592.678C78.5005 596.194 72.9065 597.771 67.3438 597.107C61.7811 596.442 56.6407 593.583 52.907 589.076C49.1733 584.57 47.1088 578.733 47.1088 572.683C47.1088 566.633 49.1733 560.796 52.907 556.29C56.6407 551.783 61.7811 548.924 67.3438 548.259C72.9065 547.595 78.5005 549.172 83.0545 552.688C87.6084 556.205 90.8023 561.414 92.0244 567.317H170.512C171.734 561.413 174.928 556.204 179.482 552.688C184.036 549.171 189.63 547.594 195.193 548.259C200.756 548.924 205.896 551.784 209.63 556.291C213.363 560.798 215.427 566.635 215.427 572.685V572.685Z" stroke="black" stroke-width="2" stroke-miterlimit="10"/>
<path d="M207.75 564.388C207.749 570.438 205.684 576.274 201.951 580.781C198.217 585.287 193.076 588.146 187.514 588.811C181.951 589.475 176.358 587.898 171.804 584.381C167.25 580.865 164.056 575.656 162.834 569.752H84.3472C83.1251 575.656 79.9312 580.865 75.3773 584.381C70.8233 587.898 65.2293 589.475 59.6666 588.811C54.1039 588.146 48.9635 585.287 45.2298 580.78C41.4961 576.273 39.4316 570.436 39.4316 564.386C39.4316 558.336 41.4961 552.498 45.2298 547.992C48.9635 543.485 54.1039 540.625 59.6666 539.961C65.2293 539.296 70.8233 540.873 75.3773 544.39C79.9312 547.907 83.1251 553.116 84.3472 559.02H162.834C164.056 553.115 167.25 547.906 171.805 544.39C176.359 540.873 181.953 539.296 187.516 539.961C193.079 540.626 198.219 543.486 201.953 547.993C205.686 552.5 207.75 558.338 207.75 564.388Z" fill="white" stroke="black" stroke-width="2" stroke-miterlimit="10"/>
<path d="M62.1608 584.511C72.4425 584.511 80.7774 575.501 80.7774 564.387C80.7774 553.273 72.4425 544.263 62.1608 544.263C51.8792 544.263 43.5443 553.273 43.5443 564.387C43.5443 575.501 51.8792 584.511 62.1608 584.511Z" fill="black"/>
<path d="M185.021 584.511C195.302 584.511 203.637 575.501 203.637 564.387C203.637 553.273 195.302 544.263 185.021 544.263C174.739 544.263 166.404 553.273 166.404 564.387C166.404 575.501 174.739 584.511 185.021 584.511Z" fill="black"/>
<path d="M211.591 634.63C211.59 640.68 209.525 646.517 205.792 651.023C202.058 655.53 196.917 658.389 191.355 659.053C185.792 659.718 180.199 658.14 175.645 654.624C171.091 651.107 167.897 645.898 166.675 639.994H88.1883C86.9662 645.898 83.7723 651.107 79.2183 654.624C74.6644 658.141 69.0704 659.718 63.5077 659.053C57.945 658.389 52.8046 655.529 49.0709 651.022C45.3372 646.515 43.2726 640.678 43.2726 634.628C43.2726 628.578 45.3372 622.74 49.0709 618.233C52.8046 613.727 57.945 610.867 63.5077 610.202C69.0704 609.538 74.6644 611.115 79.2183 614.632C83.7723 618.148 86.9662 623.358 88.1883 629.262H166.675C167.898 623.357 171.092 618.148 175.646 614.631C180.2 611.115 185.794 609.538 191.357 610.203C196.92 610.867 202.06 613.727 205.794 618.235C209.527 622.742 211.591 628.58 211.591 634.63Z" stroke="black" stroke-width="2" stroke-miterlimit="10"/>
<path d="M215.427 638.779C215.426 644.829 213.362 650.666 209.628 655.172C205.894 659.679 200.754 662.538 195.191 663.202C189.628 663.866 184.035 662.289 179.481 658.773C174.927 655.256 171.734 650.047 170.512 644.143H92.0244C90.8023 650.047 87.6084 655.256 83.0545 658.773C78.5005 662.289 72.9065 663.867 67.3438 663.202C61.7811 662.537 56.6407 659.678 52.907 655.171C49.1733 650.664 47.1088 644.827 47.1088 638.777C47.1088 632.727 49.1733 626.89 52.907 622.383C56.6407 617.876 61.7811 615.017 67.3438 614.352C72.9065 613.687 78.5005 615.265 83.0545 618.781C87.6084 622.298 90.8023 627.507 92.0244 633.411H170.512C171.734 627.507 174.928 622.298 179.482 618.781C184.036 615.264 189.63 613.687 195.193 614.352C200.756 615.017 205.896 617.877 209.63 622.384C213.363 626.891 215.427 632.729 215.427 638.779V638.779Z" stroke="black" stroke-width="2" stroke-miterlimit="10"/>
<path d="M207.75 630.482C207.749 636.532 205.684 642.369 201.951 646.875C198.217 651.381 193.076 654.24 187.514 654.905C181.951 655.569 176.358 653.992 171.804 650.475C167.25 646.959 164.056 641.75 162.834 635.846H84.3472C83.1251 641.75 79.9312 646.959 75.3773 650.476C70.8233 653.992 65.2293 655.569 59.6666 654.905C54.1039 654.24 48.9635 651.381 45.2298 646.874C41.4961 642.367 39.4316 636.53 39.4316 630.48C39.4316 624.43 41.4961 618.593 45.2298 614.086C48.9635 609.579 54.1039 606.72 59.6666 606.055C65.2293 605.391 70.8233 606.968 75.3773 610.485C79.9312 614.001 83.1251 619.21 84.3472 625.114H162.834C164.056 619.21 167.25 614.001 171.805 610.484C176.359 606.968 181.953 605.391 187.516 606.056C193.079 606.72 198.219 609.58 201.953 614.087C205.686 618.595 207.75 624.432 207.75 630.482V630.482Z" fill="white" stroke="black" stroke-width="2" stroke-miterlimit="10"/>
<path d="M62.1608 650.604C72.4425 650.604 80.7774 641.594 80.7774 630.48C80.7774 619.365 72.4425 610.355 62.1608 610.355C51.8792 610.355 43.5443 619.365 43.5443 630.48C43.5443 641.594 51.8792 650.604 62.1608 650.604Z" fill="black"/>
<path d="M185.021 650.604C195.302 650.604 203.637 641.594 203.637 630.48C203.637 619.365 195.302 610.355 185.021 610.355C174.739 610.355 166.404 619.365 166.404 630.48C166.404 641.594 174.739 650.604 185.021 650.604Z" fill="black"/>
<path d="M211.591 700.724C211.59 706.774 209.525 712.611 205.792 717.117C202.058 721.624 196.917 724.483 191.355 725.147C185.792 725.812 180.199 724.235 175.645 720.718C171.091 717.201 167.897 711.992 166.675 706.088H88.1883C86.9662 711.992 83.7723 717.201 79.2183 720.718C74.6644 724.235 69.0704 725.812 63.5077 725.147C57.945 724.483 52.8046 721.623 49.0709 717.116C45.3372 712.609 43.2726 706.772 43.2726 700.722C43.2726 694.672 45.3372 688.835 49.0709 684.328C52.8046 679.821 57.945 676.961 63.5077 676.297C69.0704 675.632 74.6644 677.209 79.2183 680.726C83.7723 684.243 86.9662 689.452 88.1883 695.356H166.675C167.898 689.452 171.092 684.242 175.646 680.726C180.2 677.209 185.794 675.632 191.357 676.297C196.92 676.962 202.06 679.822 205.794 684.329C209.527 688.836 211.591 694.674 211.591 700.724V700.724Z" stroke="black" stroke-width="2" stroke-miterlimit="10"/>
<path d="M215.427 704.872C215.426 710.922 213.362 716.759 209.628 721.265C205.894 725.772 200.754 728.631 195.191 729.295C189.629 729.959 184.035 728.382 179.481 724.865C174.927 721.349 171.734 716.14 170.512 710.236H92.0244C90.8023 716.14 87.6084 721.349 83.0545 724.866C78.5005 728.382 72.9065 729.959 67.3438 729.295C61.7811 728.63 56.6407 725.771 52.907 721.264C49.1733 716.757 47.1088 710.92 47.1088 704.87C47.1088 698.82 49.1733 692.983 52.907 688.476C56.6407 683.97 61.7811 681.11 67.3438 680.446C72.9065 679.781 78.5005 681.358 83.0545 684.875C87.6084 688.391 90.8023 693.6 92.0244 699.504H170.512C171.734 693.6 174.928 688.391 179.482 684.874C184.036 681.358 189.63 679.781 195.193 680.446C200.756 681.111 205.896 683.97 209.63 688.478C213.363 692.985 215.427 698.822 215.427 704.872V704.872Z" stroke="black" stroke-width="2" stroke-miterlimit="10"/>
<path d="M207.75 696.576C207.749 702.625 205.684 708.462 201.951 712.969C198.217 717.475 193.076 720.334 187.514 720.998C181.951 721.663 176.358 720.085 171.804 716.569C167.25 713.052 164.056 707.843 162.834 701.94H84.3472C83.1251 707.843 79.9312 713.052 75.3773 716.569C70.8233 720.086 65.2293 721.663 59.6666 720.998C54.1039 720.334 48.9635 717.474 45.2298 712.967C41.4961 708.461 39.4316 702.623 39.4316 696.574C39.4316 690.524 41.4961 684.686 45.2298 680.18C48.9635 675.673 54.1039 672.814 59.6666 672.149C65.2293 671.484 70.8233 673.061 75.3773 676.578C79.9312 680.095 83.1251 685.304 84.3472 691.208H162.834C164.056 685.304 167.25 680.094 171.805 676.578C176.359 673.061 181.953 671.484 187.516 672.149C193.079 672.814 198.219 675.674 201.953 680.181C205.686 684.688 207.75 690.526 207.75 696.576V696.576Z" fill="white" stroke="black" stroke-width="2" stroke-miterlimit="10"/>
<path d="M62.1608 716.698C72.4425 716.698 80.7774 707.688 80.7774 696.573C80.7774 685.459 72.4425 676.448 62.1608 676.448C51.8792 676.448 43.5443 685.459 43.5443 696.573C43.5443 707.688 51.8792 716.698 62.1608 716.698Z" fill="black"/>
<path d="M185.021 716.698C195.302 716.698 203.637 707.688 203.637 696.573C203.637 685.459 195.302 676.448 185.021 676.448C174.739 676.448 166.404 685.459 166.404 696.573C166.404 707.688 174.739 716.698 185.021 716.698Z" fill="black"/>
<path d="M258.001 465.411V493.612C258.001 493.618 257.999 493.624 257.997 493.629C257.995 493.635 257.992 493.639 257.988 493.643C257.985 493.648 257.98 493.651 257.975 493.653C257.97 493.655 257.964 493.656 257.959 493.656H16.3596C16.3541 493.656 16.3487 493.655 16.3437 493.653C16.3386 493.651 16.334 493.648 16.3302 493.643C16.3263 493.639 16.3233 493.635 16.3212 493.629C16.3191 493.624 16.318 493.618 16.318 493.612V465.411C16.3192 470.193 18.1113 474.782 21.3059 478.183C24.5005 481.584 28.8399 483.522 33.3832 483.577C37.9265 483.633 42.3075 481.801 45.5761 478.479C48.8447 475.157 50.7374 470.613 50.8439 465.832C50.8387 461.204 52.4721 456.741 55.4254 453.313C58.3787 449.884 62.4398 447.738 66.8159 447.292C69.1851 447.104 71.5657 447.434 73.8084 448.259C76.0511 449.085 78.1078 450.389 79.8496 452.09C81.5914 453.791 82.9809 455.852 83.931 458.144C84.8811 460.436 85.3715 462.91 85.3713 465.411C85.3713 470.229 87.1899 474.85 90.427 478.258C93.6642 481.665 98.0547 483.579 102.633 483.579C107.211 483.579 111.601 481.665 114.838 478.258C118.075 474.85 119.894 470.229 119.894 465.411C119.894 460.591 121.713 455.969 124.951 452.561C128.189 449.153 132.58 447.238 137.159 447.238C141.738 447.238 146.13 449.153 149.368 452.561C152.605 455.969 154.424 460.591 154.424 465.411C154.425 470.193 156.217 474.782 159.412 478.182C162.607 481.582 166.946 483.52 171.489 483.575C176.032 483.629 180.412 481.796 183.68 478.474C186.947 475.151 188.838 470.606 188.943 465.825C188.938 461.199 190.571 456.737 193.523 453.311C196.476 449.884 200.535 447.738 204.91 447.292C207.28 447.104 209.661 447.433 211.905 448.258C214.149 449.083 216.206 450.386 217.949 452.087C219.692 453.788 221.083 455.849 222.034 458.142C222.986 460.434 223.477 462.909 223.478 465.411C223.478 470.229 225.296 474.85 228.534 478.258C231.771 481.665 236.161 483.579 240.739 483.579C245.317 483.579 249.708 481.665 252.945 478.258C256.182 474.85 258.001 470.229 258.001 465.411H258.001Z" fill="black"/>
<path d="M250.171 457.172V485.372C250.171 485.384 250.167 485.395 250.159 485.403C250.151 485.411 250.141 485.416 250.129 485.416H8.53014C8.52467 485.416 8.51926 485.415 8.51421 485.413C8.50916 485.411 8.50457 485.407 8.50071 485.403C8.49684 485.399 8.49378 485.394 8.49169 485.389C8.4896 485.384 8.48852 485.378 8.48853 485.372V457.172C8.48968 461.954 10.2819 466.543 13.4764 469.943C16.671 473.344 21.0104 475.282 25.5537 475.338C30.097 475.393 34.478 473.561 37.7466 470.24C41.0152 466.918 42.9079 462.374 43.0144 457.593C43.0092 452.966 44.6427 448.502 47.596 445.074C50.5492 441.646 54.6103 439.5 58.9864 439.054C61.3557 438.866 63.7362 439.196 65.9789 440.021C68.2216 440.847 70.2783 442.151 72.0201 443.852C73.7619 445.552 75.1514 447.613 76.1015 449.905C77.0516 452.197 77.5419 454.671 77.5418 457.172C77.5418 461.99 79.3604 466.611 82.5975 470.018C85.8346 473.425 90.2251 475.339 94.8031 475.339C99.3811 475.339 103.772 473.425 107.009 470.018C110.246 466.611 112.065 461.99 112.065 457.172C112.065 452.352 113.884 447.73 117.121 444.322C120.359 440.915 124.751 439 129.33 439C133.909 439 138.3 440.915 141.538 444.322C144.776 447.73 146.595 452.352 146.595 457.172C146.596 461.954 148.388 466.543 151.582 469.943C154.777 473.343 159.116 475.281 163.659 475.336C168.203 475.39 172.583 473.557 175.851 470.234C179.118 466.912 181.009 462.367 181.113 457.586C181.108 452.961 182.741 448.499 185.694 445.072C188.646 441.646 192.706 439.5 197.08 439.054C199.45 438.866 201.832 439.195 204.075 440.02C206.319 440.845 208.377 442.148 210.12 443.849C211.863 445.55 213.254 447.611 214.205 449.903C215.156 452.196 215.648 454.67 215.648 457.172C215.648 461.99 217.467 466.611 220.704 470.018C223.941 473.425 228.332 475.339 232.91 475.339C237.488 475.339 241.878 473.425 245.115 470.018C248.352 466.611 250.171 461.99 250.171 457.172H250.171Z" fill="#01F293" stroke="black" stroke-width="2" stroke-miterlimit="10"/>
<path d="M208 695.502C208 701.78 205.926 707.837 202.177 712.513C198.428 717.189 193.267 720.156 187.682 720.846C182.097 721.535 176.481 719.898 171.909 716.249C167.336 712.6 164.13 707.195 162.903 701.068H84.0976C82.8706 707.195 79.6637 712.6 75.0913 716.25C70.5189 719.899 64.9023 721.535 59.317 720.846C53.7318 720.156 48.5705 717.189 44.8217 712.512C41.0729 707.835 39 701.778 39 695.5C39 689.222 41.0729 683.165 44.8217 678.488C48.5705 673.811 53.7318 670.844 59.317 670.154C64.9023 669.465 70.5189 671.101 75.0913 674.75C79.6637 678.4 82.8706 683.805 84.0976 689.932H162.903C164.13 683.805 167.337 678.399 171.909 674.75C176.482 671.101 182.099 669.465 187.684 670.155C193.269 670.844 198.431 673.812 202.179 678.489C205.928 683.166 208.001 689.224 208 695.502V695.502Z" fill="white" stroke="black" stroke-width="2" stroke-miterlimit="10"/>
<path d="M61.8273 716.522C72.1537 716.522 80.5249 707.144 80.5249 695.576C80.5249 684.008 72.1537 674.63 61.8273 674.63C51.5009 674.63 43.1297 684.008 43.1297 695.576C43.1297 707.144 51.5009 716.522 61.8273 716.522Z" fill="#0D0D0D"/>
<path d="M55.2322 685.655V694.254" stroke="white" stroke-width="4" stroke-miterlimit="10" stroke-linecap="round"/>
<path d="M68.4203 685.655V694.253" stroke="white" stroke-width="4" stroke-miterlimit="10" stroke-linecap="round"/>
<path d="M74.7773 697.558C72.714 705.377 66.6558 708.361 61.8268 708.361C56.9979 708.361 50.9396 705.377 48.8763 697.558" stroke="white" stroke-width="4" stroke-miterlimit="10" stroke-linecap="round"/>
<path d="M185.224 716.524C195.551 716.524 203.922 707.146 203.922 695.577C203.922 684.009 195.551 674.631 185.224 674.631C174.898 674.631 166.526 684.009 166.526 695.577C166.526 707.146 174.898 716.524 185.224 716.524Z" fill="#0D0D0D"/>
<path d="M198.174 697.558C196.111 705.378 190.052 708.362 185.223 708.362C180.394 708.362 174.336 705.378 172.273 697.558" stroke="white" stroke-width="4" stroke-miterlimit="10" stroke-linecap="round"/>
<path d="M178.629 685.655V694.254" stroke="white" stroke-width="4" stroke-miterlimit="10" stroke-linecap="round"/>
<path d="M191.819 685.655V694.254" stroke="white" stroke-width="4" stroke-miterlimit="10" stroke-linecap="round"/>
<rect x="85.2109" y="694.346" width="5.13468" height="2.86618" fill="#0D0D0D"/>
<rect x="157.096" y="694.345" width="5.13468" height="2.86618" fill="#0D0D0D"/>
<rect x="92.9148" y="694.345" width="10.2694" height="2.86618" fill="#0D0D0D"/>
<rect x="105.749" y="694.345" width="10.2694" height="2.86618" fill="#0D0D0D"/>
<rect x="118.588" y="694.345" width="10.2694" height="2.86618" fill="#0D0D0D"/>
<rect x="131.423" y="694.345" width="10.2694" height="2.86618" fill="#0D0D0D"/>
<rect x="144.259" y="694.345" width="10.2694" height="2.86618" fill="#0D0D0D"/>
<path d="M208 628.502C208 634.78 205.926 640.837 202.177 645.513C198.428 650.189 193.267 653.156 187.682 653.846C182.097 654.535 176.481 652.898 171.909 649.249C167.336 645.6 164.13 640.195 162.903 634.068H84.0976C82.8706 640.195 79.6637 645.6 75.0913 649.25C70.5189 652.899 64.9023 654.535 59.317 653.846C53.7318 653.156 48.5705 650.189 44.8217 645.512C41.0729 640.835 39 634.778 39 628.5C39 622.222 41.0729 616.165 44.8217 611.488C48.5705 606.811 53.7318 603.844 59.317 603.154C64.9023 602.465 70.5189 604.101 75.0913 607.75C79.6637 611.4 82.8706 616.805 84.0976 622.932H162.903C164.13 616.805 167.337 611.399 171.909 607.75C176.482 604.101 182.099 602.465 187.684 603.155C193.269 603.844 198.431 606.812 202.179 611.489C205.928 616.166 208.001 622.224 208 628.502V628.502Z" fill="white" stroke="black" stroke-width="2" stroke-miterlimit="10"/>
<path d="M61.8273 649.522C72.1537 649.522 80.5249 640.144 80.5249 628.576C80.5249 617.008 72.1537 607.63 61.8273 607.63C51.5009 607.63 43.1297 617.008 43.1297 628.576C43.1297 640.144 51.5009 649.522 61.8273 649.522Z" fill="#0D0D0D"/>
<path d="M55.2322 618.655V627.254" stroke="white" stroke-width="4" stroke-miterlimit="10" stroke-linecap="round"/>
<path d="M68.4203 618.655V627.253" stroke="white" stroke-width="4" stroke-miterlimit="10" stroke-linecap="round"/>
<path d="M74.7773 630.558C72.714 638.377 66.6558 641.361 61.8268 641.361C56.9979 641.361 50.9396 638.377 48.8763 630.558" stroke="white" stroke-width="4" stroke-miterlimit="10" stroke-linecap="round"/>
<path d="M185.224 649.524C195.551 649.524 203.922 640.146 203.922 628.577C203.922 617.009 195.551 607.631 185.224 607.631C174.898 607.631 166.526 617.009 166.526 628.577C166.526 640.146 174.898 649.524 185.224 649.524Z" fill="#0D0D0D"/>
<path d="M198.174 630.558C196.111 638.378 190.052 641.362 185.223 641.362C180.394 641.362 174.336 638.378 172.273 630.558" stroke="white" stroke-width="4" stroke-miterlimit="10" stroke-linecap="round"/>
<path d="M178.629 618.655V627.254" stroke="white" stroke-width="4" stroke-miterlimit="10" stroke-linecap="round"/>
<path d="M191.819 618.655V627.254" stroke="white" stroke-width="4" stroke-miterlimit="10" stroke-linecap="round"/>
<rect x="85.2109" y="627.346" width="5.13468" height="2.86618" fill="#0D0D0D"/>
<rect x="157.096" y="627.345" width="5.13468" height="2.86618" fill="#0D0D0D"/>
<rect x="92.9148" y="627.345" width="10.2694" height="2.86618" fill="#0D0D0D"/>
<rect x="105.749" y="627.345" width="10.2694" height="2.86618" fill="#0D0D0D"/>
<rect x="118.588" y="627.345" width="10.2694" height="2.86618" fill="#0D0D0D"/>
<rect x="131.423" y="627.345" width="10.2694" height="2.86618" fill="#0D0D0D"/>
<rect x="144.259" y="627.345" width="10.2694" height="2.86618" fill="#0D0D0D"/>
<path d="M250.465 790.539H16.7539V828.988L60.4805 807.125L98.1758 828.988L131.348 807.125L170.551 828.988L205.23 807.125L250.465 828.988V790.539Z" fill="black" stroke="black" stroke-width="3"/>
<path d="M247.449 783H13.7379V821.449L57.4645 799.586L95.1598 821.449L128.332 799.586L167.535 821.449L202.215 799.586L247.449 821.449V783Z" fill="white" stroke="black" stroke-width="3"/>
<path d="M208 563.502C208 569.534 205.926 575.353 202.177 579.846C198.428 584.339 193.267 587.189 187.682 587.852C182.097 588.514 176.481 586.942 171.909 583.436C167.336 579.929 164.13 574.736 162.903 568.85H84.0976C82.8706 574.736 79.6637 579.93 75.0913 583.436C70.5189 586.942 64.9023 588.514 59.317 587.852C53.7318 587.189 48.5705 584.338 44.8217 579.845C41.0729 575.352 39 569.532 39 563.5C39 557.468 41.0729 551.648 44.8217 547.155C48.5705 542.662 53.7318 539.811 59.317 539.148C64.9023 538.486 70.5189 540.058 75.0913 543.564C79.6637 547.07 82.8706 552.264 84.0976 558.15H162.903C164.13 552.264 167.337 547.07 171.909 543.564C176.482 540.058 182.099 538.486 187.684 539.148C193.269 539.811 198.431 542.663 202.179 547.156C205.928 551.65 208.001 557.47 208 563.502V563.502Z" fill="white" stroke="black" stroke-width="2" stroke-miterlimit="10"/>
<path d="M61.8273 583.698C72.1537 583.698 80.5249 574.688 80.5249 563.573C80.5249 552.459 72.1537 543.449 61.8273 543.449C51.5009 543.449 43.1297 552.459 43.1297 563.573C43.1297 574.688 51.5009 583.698 61.8273 583.698Z" fill="#0D0D0D"/>
<path d="M55.2322 554.041V562.303" stroke="white" stroke-width="4" stroke-miterlimit="10" stroke-linecap="round"/>
<path d="M68.4203 554.041V562.302" stroke="white" stroke-width="4" stroke-miterlimit="10" stroke-linecap="round"/>
<path d="M74.7773 565.477C72.714 572.99 66.6558 575.857 61.8268 575.857C56.9979 575.857 50.9396 572.99 48.8763 565.477" stroke="white" stroke-width="4" stroke-miterlimit="10" stroke-linecap="round"/>
<path d="M185.224 583.699C195.55 583.699 203.922 574.689 203.922 563.574C203.922 552.46 195.55 543.45 185.224 543.45C174.898 543.45 166.526 552.46 166.526 563.574C166.526 574.689 174.898 583.699 185.224 583.699Z" fill="#0D0D0D"/>
<path d="M198.174 565.477C196.111 572.99 190.052 575.858 185.223 575.858C180.394 575.858 174.336 572.99 172.273 565.477" stroke="white" stroke-width="4" stroke-miterlimit="10" stroke-linecap="round"/>
<path d="M178.629 554.041V562.303" stroke="white" stroke-width="4" stroke-miterlimit="10" stroke-linecap="round"/>
<path d="M191.819 554.041V562.303" stroke="white" stroke-width="4" stroke-miterlimit="10" stroke-linecap="round"/>
<rect x="85.2109" y="562.391" width="5.13468" height="2.75379" fill="#0D0D0D"/>
<rect x="157.096" y="562.391" width="5.13468" height="2.75379" fill="#0D0D0D"/>
<rect x="92.9148" y="562.391" width="10.2694" height="2.75379" fill="#0D0D0D"/>
<rect x="105.749" y="562.391" width="10.2694" height="2.75379" fill="#0D0D0D"/>
<rect x="118.588" y="562.391" width="10.2694" height="2.75379" fill="#0D0D0D"/>
<rect x="131.423" y="562.391" width="10.2694" height="2.75379" fill="#0D0D0D"/>
<rect x="144.259" y="562.391" width="10.2694" height="2.75379" fill="#0D0D0D"/>
<path d="M114.547 288L114.547 210" stroke="#0D0D0D" stroke-width="5"/>
<path d="M9.02063 59.4897V10.6678L25.3261 19.211C29.8881 21.6013 34.8918 22.843 39.9614 22.843C45.0311 22.843 50.0348 21.6013 54.5968 19.211L70.9023 10.6678L87.2078 19.2111C91.7698 21.6013 96.7735 22.8431 101.843 22.8431C106.913 22.8431 111.916 21.6013 116.478 19.2111L132.784 10.6678L149.089 19.211C153.651 21.6013 158.655 22.843 163.725 22.843C168.794 22.843 173.798 21.6013 178.36 19.211L194.666 10.6678L210.971 19.211C215.533 21.6013 220.537 22.843 225.606 22.843C230.676 22.843 235.68 21.6013 240.242 19.211L256.547 10.6678V59.4897H9.02063Z" fill="black"/>
<path d="M1.00171 50.8234V2L17.3072 10.5435C21.8692 12.9338 26.8729 14.1756 31.9425 14.1756C37.0122 14.1756 42.0159 12.9338 46.5779 10.5435L62.8834 2L79.1889 10.5435C83.7509 12.9338 88.7546 14.1756 93.8243 14.1756C98.8939 14.1756 103.898 12.9338 108.46 10.5435L124.765 2L141.071 10.5435C145.633 12.9338 150.636 14.1756 155.706 14.1756C160.776 14.1756 165.779 12.9338 170.341 10.5435L186.647 2L202.952 10.5435C207.514 12.9338 212.518 14.1756 217.588 14.1756C222.657 14.1756 227.661 12.9338 232.223 10.5435L248.529 2V50.8234H1.00171Z" fill="white" stroke="black" stroke-width="2" stroke-miterlimit="10"/>
<path d="M236.495 82.2251H25.0221C15.0661 82.2251 6.99518 90.9499 6.99518 101.712V320.805C6.99518 331.568 15.0661 340.293 25.0221 340.293H236.495C246.451 340.293 254.522 331.568 254.522 320.805V101.712C254.522 90.9499 246.451 82.2251 236.495 82.2251Z" fill="black"/>
<path d="M230.5 75.7454H19.027C9.07095 75.7454 1 84.4702 1 95.2328V314.326C1 325.089 9.07095 333.814 19.027 333.814H230.5C240.456 333.814 248.527 325.089 248.527 314.326V95.2328C248.527 84.4702 240.456 75.7454 230.5 75.7454Z" fill="white" stroke="black" stroke-width="2" stroke-miterlimit="10"/>
<path d="M209.107 133.584C209.106 139.768 206.996 145.734 203.179 150.341C199.362 154.948 194.108 157.87 188.422 158.549C182.736 159.228 177.018 157.616 172.364 154.021C167.709 150.426 164.444 145.102 163.195 139.067H82.9674C81.7182 145.102 78.4535 150.427 73.7985 154.022C69.1435 157.616 63.4255 159.228 57.7394 158.549C52.0534 157.87 46.7989 154.947 42.9824 150.34C39.1659 145.733 37.0556 139.766 37.0556 133.582C37.0556 127.397 39.1659 121.43 42.9824 116.823C46.7989 112.217 52.0534 109.294 57.7394 108.614C63.4255 107.935 69.1435 109.547 73.7985 113.142C78.4535 116.737 81.7182 122.061 82.9674 128.096H163.195C164.444 122.061 167.709 116.736 172.364 113.141C177.02 109.547 182.738 107.935 188.424 108.614C194.11 109.294 199.365 112.217 203.181 116.825C206.997 121.432 209.107 127.399 209.107 133.584Z" stroke="black" stroke-width="2" stroke-miterlimit="10"/>
<path d="M213.027 137.823C213.027 144.007 210.916 149.974 207.1 154.58C203.283 159.187 198.029 162.11 192.343 162.789C186.657 163.468 180.939 161.856 176.284 158.261C171.63 154.666 168.365 149.341 167.116 143.306H86.8881C85.6388 149.341 82.3741 154.666 77.7192 158.261C73.0642 161.856 67.3461 163.468 61.6601 162.789C55.974 162.109 50.7196 159.186 46.9031 154.579C43.0866 149.972 40.9763 144.005 40.9763 137.821C40.9763 131.637 43.0866 125.67 46.9031 121.063C50.7196 116.456 55.974 113.533 61.6601 112.854C67.3461 112.174 73.0642 113.786 77.7192 117.381C82.3741 120.976 85.6388 126.301 86.8881 132.336H167.116C168.365 126.301 171.63 120.976 176.285 117.381C180.94 113.786 186.659 112.174 192.345 112.854C198.031 113.533 203.285 116.457 207.102 121.064C210.918 125.671 213.028 131.639 213.027 137.823V137.823Z" stroke="black" stroke-width="2" stroke-miterlimit="10"/>
<path d="M205.181 129.342C205.181 135.526 203.07 141.493 199.253 146.099C195.437 150.706 190.182 153.628 184.496 154.307C178.81 154.986 173.093 153.374 168.438 149.779C163.783 146.185 160.519 140.86 159.27 134.825H79.0416C77.7924 140.86 74.5277 146.185 69.8727 149.78C65.2178 153.374 59.4997 154.986 53.8136 154.307C48.1276 153.628 42.8731 150.705 39.0566 146.098C35.2401 141.491 33.1298 135.524 33.1298 129.34C33.1298 123.156 35.2401 117.189 39.0566 112.582C42.8731 107.975 48.1276 105.052 53.8136 104.373C59.4997 103.694 65.2178 105.306 69.8727 108.901C74.5277 112.495 77.7924 117.82 79.0416 123.855H159.27C160.519 117.82 163.784 112.495 168.439 108.9C173.094 105.305 178.812 103.694 184.498 104.373C190.184 105.053 195.439 107.976 199.255 112.583C203.072 117.191 205.181 123.158 205.181 129.342Z" fill="white" stroke="black" stroke-width="2" stroke-miterlimit="10"/>
<path d="M56.3631 149.911C66.8728 149.911 75.3925 140.701 75.3925 129.34C75.3925 117.979 66.8728 108.768 56.3631 108.768C45.8534 108.768 37.3336 117.979 37.3336 129.34C37.3336 140.701 45.8534 149.911 56.3631 149.911Z" fill="black"/>
<path d="M181.949 149.911C192.458 149.911 200.978 140.701 200.978 129.34C200.978 117.979 192.458 108.768 181.949 108.768C171.439 108.768 162.919 117.979 162.919 129.34C162.919 140.701 171.439 149.911 181.949 149.911Z" fill="black"/>
<path d="M209.107 201.142C209.106 207.326 206.996 213.293 203.179 217.899C199.362 222.506 194.108 225.428 188.422 226.107C182.736 226.786 177.018 225.174 172.364 221.579C167.709 217.985 164.444 212.66 163.195 206.625H82.9674C81.7182 212.66 78.4535 217.985 73.7985 221.58C69.1435 225.174 63.4255 226.786 57.7394 226.107C52.0534 225.428 46.7989 222.505 42.9824 217.898C39.1659 213.291 37.0556 207.324 37.0556 201.14C37.0556 194.956 39.1659 188.989 42.9824 184.383C46.7989 179.776 52.0534 176.853 57.7394 176.174C63.4255 175.494 69.1435 177.106 73.7985 180.701C78.4535 184.296 81.7182 189.62 82.9674 195.655H163.195C164.444 189.62 167.709 184.295 172.364 180.701C177.02 177.106 182.738 175.494 188.424 176.174C194.11 176.853 199.365 179.777 203.181 184.384C206.997 188.991 209.107 194.958 209.107 201.142Z" stroke="black" stroke-width="2" stroke-miterlimit="10"/>
<path d="M213.027 205.383C213.027 211.567 210.916 217.534 207.1 222.14C203.283 226.746 198.029 229.669 192.343 230.348C186.657 231.027 180.939 229.415 176.284 225.82C171.63 222.225 168.365 216.901 167.116 210.866H86.8881C85.6388 216.901 82.3741 222.226 77.7192 225.82C73.0642 229.415 67.3461 231.027 61.6601 230.348C55.974 229.668 50.7196 226.745 46.9031 222.139C43.0866 217.532 40.9763 211.565 40.9763 205.381C40.9763 199.197 43.0866 193.23 46.9031 188.623C50.7196 184.017 55.974 181.094 61.6601 180.414C67.3461 179.735 73.0642 181.347 77.7192 184.942C82.3741 188.536 85.6388 193.861 86.8881 199.896H167.116C168.365 193.861 171.63 188.536 176.285 184.941C180.94 181.347 186.659 179.735 192.345 180.415C198.031 181.094 203.285 184.017 207.102 188.625C210.918 193.232 213.028 199.199 213.027 205.383V205.383Z" stroke="black" stroke-width="2" stroke-miterlimit="10"/>
<path d="M205.181 196.902C205.181 203.086 203.07 209.052 199.253 213.658C195.437 218.265 190.182 221.187 184.496 221.866C178.81 222.545 173.093 220.933 168.438 217.338C163.783 213.744 160.519 208.419 159.27 202.385H79.0416C77.7924 208.419 74.5277 213.744 69.8727 217.339C65.2178 220.933 59.4997 222.545 53.8136 221.866C48.1276 221.187 42.8731 218.264 39.0566 213.657C35.2401 209.05 33.1298 203.084 33.1298 196.9C33.1298 190.716 35.2401 184.749 39.0566 180.142C42.8731 175.535 48.1276 172.613 53.8136 171.933C59.4997 171.254 65.2178 172.866 69.8727 176.461C74.5277 180.055 77.7924 185.38 79.0416 191.415H159.27C160.519 185.38 163.784 180.055 168.439 176.46C173.094 172.866 178.812 171.254 184.498 171.933C190.184 172.613 195.439 175.536 199.255 180.143C203.072 184.75 205.181 190.718 205.181 196.902V196.902Z" fill="white" stroke="black" stroke-width="2" stroke-miterlimit="10"/>
<path d="M56.3631 217.471C66.8728 217.471 75.3925 208.261 75.3925 196.9C75.3925 185.539 66.8728 176.329 56.3631 176.329C45.8534 176.329 37.3336 185.539 37.3336 196.9C37.3336 208.261 45.8534 217.471 56.3631 217.471Z" fill="black"/>
<path d="M181.949 217.471C192.458 217.471 200.978 208.261 200.978 196.9C200.978 185.539 192.458 176.329 181.949 176.329C171.439 176.329 162.919 185.539 162.919 196.9C162.919 208.261 171.439 217.471 181.949 217.471Z" fill="black"/>
<path d="M209.107 268.702C209.106 274.886 206.996 280.853 203.179 285.459C199.362 290.065 194.108 292.988 188.422 293.667C182.736 294.346 177.018 292.734 172.364 289.139C167.709 285.544 164.444 280.22 163.195 274.185H82.9674C81.7182 280.22 78.4535 285.545 73.7985 289.139C69.1435 292.734 63.4255 294.346 57.7394 293.667C52.0534 292.987 46.7989 290.065 42.9824 285.458C39.1659 280.851 37.0556 274.884 37.0556 268.7C37.0556 262.516 39.1659 256.549 42.9824 251.942C46.7989 247.336 52.0534 244.413 57.7394 243.733C63.4255 243.054 69.1435 244.666 73.7985 248.261C78.4535 251.856 81.7182 257.18 82.9674 263.215H163.195C164.444 257.18 167.709 251.855 172.364 248.261C177.02 244.666 182.738 243.054 188.424 243.734C194.11 244.413 199.365 247.337 203.181 251.944C206.997 256.551 209.107 262.518 209.107 268.702V268.702Z" stroke="black" stroke-width="2" stroke-miterlimit="10"/>
<path d="M213.027 272.942C213.027 279.126 210.916 285.093 207.1 289.699C203.283 294.306 198.029 297.228 192.343 297.907C186.657 298.586 180.939 296.974 176.284 293.379C171.63 289.785 168.365 284.46 167.116 278.425H86.8881C85.6388 284.46 82.3741 289.785 77.7192 293.38C73.0642 296.974 67.3461 298.586 61.6601 297.907C55.974 297.228 50.7196 294.305 46.9031 289.698C43.0866 285.091 40.9763 279.124 40.9763 272.94C40.9763 266.756 43.0866 260.789 46.9031 256.182C50.7196 251.575 55.974 248.652 61.6601 247.973C67.3461 247.294 73.0642 248.906 77.7192 252.5C82.3741 256.095 85.6388 261.42 86.8881 267.455H167.116C168.365 261.42 171.63 256.095 176.285 252.5C180.94 248.905 186.659 247.293 192.345 247.973C198.031 248.653 203.285 251.576 207.102 256.183C210.918 260.79 213.028 266.758 213.027 272.942V272.942Z" stroke="black" stroke-width="2" stroke-miterlimit="10"/>
<path d="M205.181 264.461C205.181 270.645 203.07 276.612 199.253 281.218C195.437 285.824 190.182 288.747 184.496 289.426C178.81 290.105 173.093 288.493 168.438 284.898C163.783 281.303 160.519 275.979 159.27 269.944H79.0416C77.7924 275.979 74.5277 281.304 69.8727 284.899C65.2178 288.493 59.4997 290.105 53.8136 289.426C48.1276 288.747 42.8731 285.824 39.0566 281.217C35.2401 276.61 33.1298 270.643 33.1298 264.459C33.1298 258.275 35.2401 252.308 39.0566 247.701C42.8731 243.094 48.1276 240.171 53.8136 239.492C59.4997 238.813 65.2178 240.425 69.8727 244.019C74.5277 247.614 77.7924 252.939 79.0416 258.974H159.27C160.519 252.939 163.784 247.614 168.439 244.019C173.094 240.424 178.812 238.812 184.498 239.492C190.184 240.172 195.439 243.095 199.255 247.702C203.072 252.309 205.181 258.277 205.181 264.461V264.461Z" fill="white" stroke="black" stroke-width="2" stroke-miterlimit="10"/>
<path d="M56.3631 285.031C66.8728 285.031 75.3925 275.821 75.3925 264.459C75.3925 253.098 66.8728 243.888 56.3631 243.888C45.8534 243.888 37.3336 253.098 37.3336 264.459C37.3336 275.821 45.8534 285.031 56.3631 285.031Z" fill="black"/>
<path d="M181.949 285.031C192.458 285.031 200.978 275.821 200.978 264.459C200.978 253.098 192.458 243.888 181.949 243.888C171.439 243.888 162.919 253.098 162.919 264.459C162.919 275.821 171.439 285.031 181.949 285.031Z" fill="black"/>
<path d="M202 263.502C202 269.534 199.926 275.353 196.177 279.846C192.428 284.339 187.267 287.189 181.682 287.852C176.097 288.514 170.481 286.942 165.909 283.436C161.336 279.929 158.13 274.736 156.903 268.85H78.0976C76.8706 274.736 73.6637 279.93 69.0913 283.436C64.5189 286.942 58.9023 288.514 53.317 287.852C47.7318 287.189 42.5705 284.338 38.8217 279.845C35.0729 275.352 33 269.532 33 263.5C33 257.468 35.0729 251.648 38.8217 247.155C42.5705 242.662 47.7318 239.811 53.317 239.148C58.9023 238.486 64.5189 240.058 69.0913 243.564C73.6637 247.07 76.8706 252.264 78.0976 258.15H156.903C158.13 252.264 161.337 247.07 165.909 243.564C170.482 240.058 176.099 238.486 181.684 239.148C187.269 239.811 192.431 242.663 196.179 247.156C199.928 251.65 202.001 257.47 202 263.502V263.502Z" fill="white" stroke="black" stroke-width="2" stroke-miterlimit="10"/>
<path d="M55.8273 283.698C66.1537 283.698 74.5249 274.688 74.5249 263.573C74.5249 252.459 66.1537 243.449 55.8273 243.449C45.5009 243.449 37.1297 252.459 37.1297 263.573C37.1297 274.688 45.5009 283.698 55.8273 283.698Z" fill="#0D0D0D"/>
<path d="M49.2322 254.041V262.303" stroke="white" stroke-width="4" stroke-miterlimit="10" stroke-linecap="round"/>
<path d="M62.4203 254.041V262.302" stroke="white" stroke-width="4" stroke-miterlimit="10" stroke-linecap="round"/>
<path d="M68.7773 265.477C66.714 272.99 60.6558 275.857 55.8268 275.857C50.9979 275.857 44.9396 272.99 42.8763 265.477" stroke="white" stroke-width="4" stroke-miterlimit="10" stroke-linecap="round"/>
<path d="M179.224 283.699C189.55 283.699 197.922 274.689 197.922 263.574C197.922 252.46 189.55 243.45 179.224 243.45C168.898 243.45 160.526 252.46 160.526 263.574C160.526 274.689 168.898 283.699 179.224 283.699Z" fill="#0D0D0D"/>
<path d="M192.174 265.477C190.111 272.99 184.052 275.858 179.223 275.858C174.394 275.858 168.336 272.99 166.273 265.477" stroke="white" stroke-width="4" stroke-miterlimit="10" stroke-linecap="round"/>
<path d="M172.629 254.041V262.303" stroke="white" stroke-width="4" stroke-miterlimit="10" stroke-linecap="round"/>
<path d="M185.819 254.041V262.303" stroke="white" stroke-width="4" stroke-miterlimit="10" stroke-linecap="round"/>
<rect x="79.2109" y="262.391" width="5.13468" height="2.75379" fill="#0D0D0D"/>
<rect x="151.096" y="262.391" width="5.13468" height="2.75379" fill="#0D0D0D"/>
<rect x="86.9148" y="262.391" width="10.2694" height="2.75379" fill="#0D0D0D"/>
<rect x="99.7485" y="262.391" width="10.2694" height="2.75379" fill="#0D0D0D"/>
<rect x="112.588" y="262.391" width="10.2694" height="2.75379" fill="#0D0D0D"/>
<rect x="125.423" y="262.391" width="10.2694" height="2.75379" fill="#0D0D0D"/>
<rect x="138.259" y="262.391" width="10.2694" height="2.75379" fill="#0D0D0D"/>
<path d="M202 196.502C202 202.534 199.926 208.353 196.177 212.846C192.428 217.339 187.267 220.189 181.682 220.852C176.097 221.514 170.481 219.942 165.909 216.436C161.336 212.929 158.13 207.736 156.903 201.85H78.0976C76.8706 207.736 73.6637 212.93 69.0913 216.436C64.5189 219.942 58.9023 221.514 53.317 220.852C47.7318 220.189 42.5705 217.338 38.8217 212.845C35.0729 208.352 33 202.532 33 196.5C33 190.468 35.0729 184.648 38.8217 180.155C42.5705 175.662 47.7318 172.811 53.317 172.148C58.9023 171.486 64.5189 173.058 69.0913 176.564C73.6637 180.07 76.8706 185.264 78.0976 191.15H156.903C158.13 185.264 161.337 180.07 165.909 176.564C170.482 173.058 176.099 171.486 181.684 172.148C187.269 172.811 192.431 175.663 196.179 180.156C199.928 184.65 202.001 190.47 202 196.502V196.502Z" fill="white" stroke="black" stroke-width="2" stroke-miterlimit="10"/>
<path d="M55.8273 216.698C66.1537 216.698 74.5249 207.688 74.5249 196.573C74.5249 185.459 66.1537 176.449 55.8273 176.449C45.5009 176.449 37.1297 185.459 37.1297 196.573C37.1297 207.688 45.5009 216.698 55.8273 216.698Z" fill="#0D0D0D"/>
<path d="M49.2322 187.041V195.303" stroke="white" stroke-width="4" stroke-miterlimit="10" stroke-linecap="round"/>
<path d="M62.4203 187.041V195.302" stroke="white" stroke-width="4" stroke-miterlimit="10" stroke-linecap="round"/>
<path d="M68.7773 198.477C66.714 205.99 60.6558 208.857 55.8268 208.857C50.9979 208.857 44.9396 205.99 42.8763 198.477" stroke="white" stroke-width="4" stroke-miterlimit="10" stroke-linecap="round"/>
<path d="M179.224 216.699C189.55 216.699 197.922 207.689 197.922 196.574C197.922 185.46 189.55 176.45 179.224 176.45C168.898 176.45 160.526 185.46 160.526 196.574C160.526 207.689 168.898 216.699 179.224 216.699Z" fill="#0D0D0D"/>
<path d="M192.174 198.477C190.111 205.99 184.052 208.858 179.223 208.858C174.394 208.858 168.336 205.99 166.273 198.477" stroke="white" stroke-width="4" stroke-miterlimit="10" stroke-linecap="round"/>
<path d="M172.629 187.041V195.303" stroke="white" stroke-width="4" stroke-miterlimit="10" stroke-linecap="round"/>
<path d="M185.819 187.041V195.303" stroke="white" stroke-width="4" stroke-miterlimit="10" stroke-linecap="round"/>
<rect x="79.2109" y="195.391" width="5.13468" height="2.75379" fill="#0D0D0D"/>
<rect x="151.096" y="195.391" width="5.13468" height="2.75379" fill="#0D0D0D"/>
<rect x="86.9148" y="195.391" width="10.2694" height="2.75379" fill="#0D0D0D"/>
<rect x="99.7485" y="195.391" width="10.2694" height="2.75379" fill="#0D0D0D"/>
<rect x="112.588" y="195.391" width="10.2694" height="2.75379" fill="#0D0D0D"/>
<rect x="125.423" y="195.391" width="10.2694" height="2.75379" fill="#0D0D0D"/>
<rect x="138.259" y="195.391" width="10.2694" height="2.75379" fill="#0D0D0D"/>
<path d="M202 128.502C202 134.534 199.926 140.353 196.177 144.846C192.428 149.339 187.267 152.189 181.682 152.852C176.097 153.514 170.481 151.942 165.909 148.436C161.336 144.929 158.13 139.736 156.903 133.85H78.0976C76.8706 139.736 73.6637 144.93 69.0913 148.436C64.5189 151.942 58.9023 153.514 53.317 152.852C47.7318 152.189 42.5705 149.338 38.8217 144.845C35.0729 140.352 33 134.532 33 128.5C33 122.468 35.0729 116.648 38.8217 112.155C42.5705 107.662 47.7318 104.811 53.317 104.148C58.9023 103.486 64.5189 105.058 69.0913 108.564C73.6637 112.07 76.8706 117.264 78.0976 123.15H156.903C158.13 117.264 161.337 112.07 165.909 108.564C170.482 105.058 176.099 103.486 181.684 104.148C187.269 104.811 192.431 107.663 196.179 112.156C199.928 116.65 202.001 122.47 202 128.502V128.502Z" fill="white" stroke="black" stroke-width="2" stroke-miterlimit="10"/>
<path d="M55.8273 148.698C66.1537 148.698 74.5249 139.688 74.5249 128.573C74.5249 117.459 66.1537 108.449 55.8273 108.449C45.5009 108.449 37.1297 117.459 37.1297 128.573C37.1297 139.688 45.5009 148.698 55.8273 148.698Z" fill="#0D0D0D"/>
<path d="M49.2322 119.041V127.303" stroke="white" stroke-width="4" stroke-miterlimit="10" stroke-linecap="round"/>
<path d="M62.4203 119.041V127.302" stroke="white" stroke-width="4" stroke-miterlimit="10" stroke-linecap="round"/>
<path d="M68.7773 130.477C66.714 137.99 60.6558 140.857 55.8268 140.857C50.9979 140.857 44.9396 137.99 42.8763 130.477" stroke="white" stroke-width="4" stroke-miterlimit="10" stroke-linecap="round"/>
<path d="M179.224 148.699C189.55 148.699 197.922 139.689 197.922 128.574C197.922 117.46 189.55 108.45 179.224 108.45C168.898 108.45 160.526 117.46 160.526 128.574C160.526 139.689 168.898 148.699 179.224 148.699Z" fill="#A500FF"/>
<path d="M192 133L179 141L166 133" stroke="white" stroke-width="4" stroke-miterlimit="10" stroke-linecap="round"/>
<path d="M190.819 122.303L185.819 127.303" stroke="white" stroke-width="4" stroke-miterlimit="10" stroke-linecap="round"/>
<path d="M167 122.303L172 127.303" stroke="white" stroke-width="4" stroke-miterlimit="10" stroke-linecap="round"/>
<rect x="79.2109" y="127.391" width="5.13468" height="2.75379" fill="#0D0D0D"/>
<rect x="151.096" y="127.391" width="5.13468" height="2.75379" fill="#0D0D0D"/>
<rect x="86.9148" y="127.391" width="10.2694" height="2.75379" fill="#0D0D0D"/>
<rect x="99.7485" y="127.391" width="10.2694" height="2.75379" fill="#0D0D0D"/>
<rect x="112.588" y="127.391" width="10.2694" height="2.75379" fill="#0D0D0D"/>
<rect x="125.423" y="127.391" width="10.2694" height="2.75379" fill="#0D0D0D"/>
<rect x="138.259" y="127.391" width="10.2694" height="2.75379" fill="#0D0D0D"/>
<path d="M318 133L229 133" stroke="#0D0D0D" stroke-width="5"/>
<mask id="path-142-inside-1_1502_88194" fill="white">
<path fill-rule="evenodd" clip-rule="evenodd" d="M4.09753 360.92H41.2683H72.2439H109.415H145.037H182.207H217.829H255V377.32V397H217.829V377.32H182.207V397H145.037V377.32H109.415V397H72.2439V377.32H41.2683V397H4.09753V377.32V360.92Z"/>
</mask>
<path fill-rule="evenodd" clip-rule="evenodd" d="M4.09753 360.92H41.2683H72.2439H109.415H145.037H182.207H217.829H255V377.32V397H217.829V377.32H182.207V397H145.037V377.32H109.415V397H72.2439V377.32H41.2683V397H4.09753V377.32V360.92Z" fill="#0D0D0D"/>
<path d="M4.09753 360.92V358.92H2.09753V360.92H4.09753ZM255 360.92H257V358.92H255V360.92ZM255 397V399H257V397H255ZM217.829 397H215.829V399H217.829V397ZM217.829 377.32H219.829V375.32H217.829V377.32ZM182.207 377.32V375.32H180.207V377.32H182.207ZM182.207 397V399H184.207V397H182.207ZM145.037 397H143.037V399H145.037V397ZM145.037 377.32H147.037V375.32H145.037V377.32ZM109.415 377.32V375.32H107.415V377.32H109.415ZM109.415 397V399H111.415V397H109.415ZM72.2439 397H70.2439V399H72.2439V397ZM72.2439 377.32H74.2439V375.32H72.2439V377.32ZM41.2683 377.32V375.32H39.2683V377.32H41.2683ZM41.2683 397V399H43.2683V397H41.2683ZM4.09753 397H2.09753V399H4.09753V397ZM41.2683 358.92H4.09753V362.92H41.2683V358.92ZM72.2439 358.92H41.2683V362.92H72.2439V358.92ZM109.415 358.92H72.2439V362.92H109.415V358.92ZM145.037 358.92H109.415V362.92H145.037V358.92ZM182.207 358.92H145.037V362.92H182.207V358.92ZM217.829 358.92H182.207V362.92H217.829V358.92ZM217.829 362.92H255V358.92H217.829V362.92ZM253 360.92V377.32H257V360.92H253ZM253 377.32V397H257V377.32H253ZM255 395H217.829V399H255V395ZM219.829 397V377.32H215.829V397H219.829ZM182.207 379.32H217.829V375.32H182.207V379.32ZM184.207 397V377.32H180.207V397H184.207ZM145.037 399H182.207V395H145.037V399ZM143.037 377.32V397H147.037V377.32H143.037ZM109.415 379.32H145.037V375.32H109.415V379.32ZM111.415 397V377.32H107.415V397H111.415ZM72.2439 399H109.415V395H72.2439V399ZM70.2439 377.32V397H74.2439V377.32H70.2439ZM41.2683 379.32H72.2439V375.32H41.2683V379.32ZM43.2683 397V377.32H39.2683V397H43.2683ZM4.09753 399H41.2683V395H4.09753V399ZM2.09753 377.32V397H6.09753V377.32H2.09753ZM2.09753 360.92V377.32H6.09753V360.92H2.09753Z" fill="black" mask="url(#path-142-inside-1_1502_88194)"/>
<mask id="path-144-inside-2_1502_88194" fill="white">
<path fill-rule="evenodd" clip-rule="evenodd" d="M1 356H38.1707H69.1464H106.317H141.939H179.11H214.732H251.902V372.4L251.902 392.08H214.732V372.4H179.11V392.08H141.939V372.4H106.317V392.08H69.1464V372.4H38.1707V392.08H1V372.4V356Z"/>
</mask>
<path fill-rule="evenodd" clip-rule="evenodd" d="M1 356H38.1707H69.1464H106.317H141.939H179.11H214.732H251.902V372.4L251.902 392.08H214.732V372.4H179.11V392.08H141.939V372.4H106.317V392.08H69.1464V372.4H38.1707V392.08H1V372.4V356Z" fill="#A500FF"/>
<path d="M1 356V354H-1V356H1ZM251.902 356H253.902V354H251.902V356ZM251.902 372.4L253.902 372.4V372.4H251.902ZM251.902 392.08V394.08H253.902L253.902 392.08L251.902 392.08ZM214.732 392.08H212.732V394.08H214.732V392.08ZM214.732 372.4H216.732V370.4H214.732V372.4ZM179.11 372.4V370.4H177.11V372.4H179.11ZM179.11 392.08V394.08H181.11V392.08H179.11ZM141.939 392.08H139.939V394.08H141.939V392.08ZM141.939 372.4H143.939V370.4H141.939V372.4ZM106.317 372.4V370.4H104.317V372.4H106.317ZM106.317 392.08V394.08H108.317V392.08H106.317ZM69.1464 392.08H67.1464V394.08H69.1464V392.08ZM69.1464 372.4H71.1464V370.4H69.1464V372.4ZM38.1707 372.4V370.4H36.1707V372.4H38.1707ZM38.1707 392.08V394.08H40.1707V392.08H38.1707ZM1 392.08H-1V394.08H1V392.08ZM38.1707 354H1V358H38.1707V354ZM69.1464 354H38.1707V358H69.1464V354ZM106.317 354H69.1464V358H106.317V354ZM141.939 354H106.317V358H141.939V354ZM179.11 354H141.939V358H179.11V354ZM214.732 354H179.11V358H214.732V354ZM214.732 358H251.902V354H214.732V358ZM249.902 356V372.4H253.902V356H249.902ZM249.902 372.4L249.902 392.08L253.902 392.08L253.902 372.4L249.902 372.4ZM251.902 390.08H214.732V394.08H251.902V390.08ZM216.732 392.08V372.4H212.732V392.08H216.732ZM179.11 374.4H214.732V370.4H179.11V374.4ZM181.11 392.08V372.4H177.11V392.08H181.11ZM141.939 394.08H179.11V390.08H141.939V394.08ZM139.939 372.4V392.08H143.939V372.4H139.939ZM106.317 374.4H141.939V370.4H106.317V374.4ZM108.317 392.08V372.4H104.317V392.08H108.317ZM69.1464 394.08H106.317V390.08H69.1464V394.08ZM67.1464 372.4V392.08H71.1464V372.4H67.1464ZM38.1707 374.4H69.1464V370.4H38.1707V374.4ZM40.1707 392.08V372.4H36.1707V392.08H40.1707ZM1 394.08H38.1707V390.08H1V394.08ZM-1 372.4V392.08H3V372.4H-1ZM-1 356V372.4H3V356H-1Z" fill="black" mask="url(#path-144-inside-2_1502_88194)"/>
</svg>
