<svg width="261" height="300" viewBox="0 0 261 300" fill="none" xmlns="http://www.w3.org/2000/svg">
<path d="M242.228 20.6389H25.6063C15.4079 20.6389 7.14038 29.5793 7.14038 40.6078V265.114C7.14038 276.143 15.4079 285.083 25.6063 285.083H242.228C252.427 285.083 260.694 276.143 260.694 265.114V40.6078C260.694 29.5793 252.427 20.6389 242.228 20.6389Z" fill="black"/>
<path d="M236.088 14H19.4659C9.26747 14 1 22.9403 1 33.9688V258.474C1 269.503 9.26747 278.443 19.4659 278.443H236.088C246.286 278.443 254.554 269.503 254.554 258.474V33.9688C254.554 22.9403 246.286 14 236.088 14Z" fill="white" stroke="black" stroke-width="2" stroke-miterlimit="10"/>
<path d="M214.171 73.2659C214.171 79.6025 212.009 85.7163 208.099 90.4365C204.19 95.1566 198.807 98.1514 192.983 98.8472C187.158 99.543 181.301 97.891 176.533 94.2075C171.765 90.5241 168.421 85.068 167.142 78.8843H84.9602C83.6806 85.0682 80.3364 90.5244 75.568 94.2078C70.7997 97.8913 64.9424 99.5431 59.1179 98.847C53.2934 98.1509 47.911 95.1558 44.0016 90.4353C40.0921 85.7147 37.9304 79.6006 37.9304 73.2637C37.9304 66.9268 40.0921 60.8127 44.0016 56.0921C47.911 51.3716 53.2934 48.3765 59.1179 47.6804C64.9424 46.9843 70.7997 48.6361 75.568 52.3196C80.3364 56.003 83.6806 61.4592 84.9602 67.6431H167.142C168.421 61.459 171.766 56.0027 176.534 52.3193C181.303 48.6358 187.16 46.9841 192.985 47.6805C198.809 48.3769 204.192 51.3724 208.101 56.0934C212.01 60.8143 214.172 66.9288 214.171 73.2659Z" stroke="black" stroke-width="2" stroke-miterlimit="10"/>
<path d="M218.189 77.6113C218.188 83.948 216.026 90.0619 212.117 94.7821C208.207 99.5023 202.825 102.497 197 103.193C191.176 103.889 185.319 102.237 180.551 98.5532C175.783 94.8697 172.439 89.4136 171.159 83.2298H88.9778C87.6981 89.4138 84.3539 94.87 79.5856 98.5535C74.8173 102.237 68.96 103.889 63.1355 103.193C57.3109 102.497 51.9286 99.5015 48.0191 94.7809C44.1097 90.0603 41.948 83.9461 41.948 77.6091C41.948 71.2722 44.1097 65.158 48.0191 60.4374C51.9286 55.7168 57.3109 52.7216 63.1355 52.0255C68.96 51.3294 74.8173 52.9813 79.5856 56.6648C84.3539 60.3483 87.6981 65.8045 88.9778 71.9885H171.159C172.439 65.8043 175.783 60.348 180.552 56.6646C185.32 52.9811 191.178 51.3294 197.002 52.0258C202.827 52.7222 208.209 55.7177 212.119 60.4387C216.028 65.1597 218.189 71.2742 218.189 77.6113V77.6113Z" stroke="black" stroke-width="2" stroke-miterlimit="10"/>
<path d="M214.171 142.495C214.171 148.832 212.009 154.946 208.099 159.666C204.189 164.386 198.807 167.381 192.983 168.077C187.158 168.772 181.301 167.12 176.533 163.437C171.765 159.753 168.421 154.297 167.142 148.113H84.9602C83.6806 154.297 80.3364 159.754 75.568 163.437C70.7997 167.121 64.9424 168.772 59.1179 168.076C53.2934 167.38 47.911 164.385 44.0016 159.664C40.0921 154.944 37.9304 148.83 37.9304 142.493C37.9304 136.156 40.0921 130.041 44.0016 125.321C47.911 120.6 53.2934 117.605 59.1179 116.909C64.9424 116.213 70.7997 117.865 75.568 121.548C80.3364 125.232 83.6806 130.688 84.9602 136.872H167.142C168.421 130.688 171.766 125.231 176.534 121.548C181.303 117.864 187.16 116.213 192.985 116.909C198.809 117.605 204.192 120.601 208.101 125.322C212.01 130.043 214.172 136.158 214.171 142.495Z" stroke="black" stroke-width="2" stroke-miterlimit="10"/>
<path d="M218.189 146.841C218.188 153.178 216.026 159.291 212.117 164.012C208.207 168.732 202.825 171.726 197 172.422C191.176 173.118 185.319 171.466 180.551 167.783C175.783 164.099 172.439 158.643 171.159 152.459H88.9778C87.6981 158.643 84.3539 164.099 79.5856 167.783C74.8173 171.466 68.96 173.118 63.1355 172.422C57.3109 171.726 51.9286 168.731 48.0191 164.01C44.1097 159.29 41.948 153.176 41.948 146.839C41.948 140.502 44.1097 134.388 48.0191 129.667C51.9286 124.946 57.3109 121.951 63.1355 121.255C68.96 120.559 74.8173 122.211 79.5856 125.894C84.3539 129.578 87.6981 135.034 88.9778 141.218H171.159C172.439 135.034 175.783 129.578 180.552 125.894C185.32 122.211 191.178 120.559 197.002 121.255C202.827 121.952 208.209 124.947 212.119 129.668C216.028 134.389 218.189 140.504 218.189 146.841H218.189Z" stroke="black" stroke-width="2" stroke-miterlimit="10"/>
<path d="M210.241 138.149C210.241 144.486 208.079 150.6 204.169 155.32C200.26 160.04 194.877 163.035 189.053 163.731C183.229 164.427 177.371 162.775 172.603 159.091C167.835 155.408 164.491 149.952 163.212 143.768H81.0303C79.7506 149.952 76.4064 155.408 71.6381 159.092C66.8698 162.775 61.0125 164.427 55.188 163.731C49.3634 163.035 43.9811 160.04 40.0716 155.319C36.1622 150.598 34.0005 144.484 34.0005 138.147C34.0005 131.81 36.1622 125.696 40.0716 120.976C43.9811 116.255 49.3634 113.26 55.188 112.564C61.0125 111.868 66.8698 113.519 71.6381 117.203C76.4064 120.886 79.7506 126.343 81.0303 132.527H163.212C164.491 126.342 167.836 120.886 172.604 117.203C177.373 113.519 183.23 111.867 189.055 112.564C194.88 113.26 200.262 116.256 204.171 120.977C208.08 125.698 210.242 131.812 210.241 138.149Z" fill="white" stroke="black" stroke-width="2" stroke-miterlimit="10"/>
<path d="M214.171 211.723C214.171 218.059 212.009 224.173 208.099 228.893C204.189 233.613 198.807 236.608 192.983 237.304C187.158 238 181.301 236.348 176.533 232.664C171.765 228.981 168.421 223.525 167.142 217.341H84.9602C83.6806 223.525 80.3364 228.981 75.568 232.665C70.7997 236.348 64.9424 238 59.1179 237.304C53.2934 236.608 47.911 233.613 44.0016 228.892C40.0921 224.172 37.9304 218.057 37.9304 211.721C37.9304 205.384 40.0921 199.27 44.0016 194.549C47.911 189.829 53.2934 186.833 59.1179 186.137C64.9424 185.441 70.7997 187.093 75.568 190.777C80.3364 194.46 83.6806 199.916 84.9602 206.1H167.142C168.421 199.916 171.766 194.46 176.534 190.776C181.303 187.093 187.16 185.441 192.985 186.138C198.809 186.834 204.192 189.829 208.101 194.55C212.01 199.271 214.172 205.386 214.171 211.723Z" stroke="black" stroke-width="2" stroke-miterlimit="10"/>
<path d="M218.189 216.069C218.188 222.406 216.026 228.519 212.117 233.24C208.207 237.96 202.825 240.954 197 241.65C191.176 242.346 185.319 240.694 180.551 237.011C175.783 233.327 172.439 227.871 171.159 221.687H88.9778C87.6981 227.871 84.3539 233.327 79.5856 237.011C74.8173 240.694 68.96 242.346 63.1355 241.65C57.3109 240.954 51.9286 237.959 48.0191 233.238C44.1097 228.518 41.948 222.404 41.948 216.067C41.948 209.73 44.1097 203.616 48.0191 198.895C51.9286 194.175 57.3109 191.18 63.1355 190.484C68.96 189.788 74.8173 191.439 79.5856 195.123C84.3539 198.806 87.6981 204.262 88.9778 210.446H171.159C172.439 204.262 175.783 198.806 180.552 195.123C185.32 191.439 191.178 189.788 197.002 190.484C202.827 191.18 208.209 194.176 212.119 198.897C216.028 203.618 218.189 209.732 218.189 216.069V216.069Z" stroke="black" stroke-width="2" stroke-miterlimit="10"/>
<path d="M210.151 207.378C210.151 213.715 207.989 219.829 204.079 224.549C200.17 229.269 194.787 232.264 188.963 232.96C183.139 233.655 177.282 232.003 172.514 228.32C167.745 224.636 164.401 219.18 163.122 212.996H80.9404C79.6608 219.181 76.3166 224.637 71.5483 228.32C66.7799 232.004 60.9227 233.656 55.0981 232.959C49.2736 232.263 43.8912 229.268 39.9818 224.548C36.0724 219.827 33.9106 213.713 33.9106 207.376C33.9106 201.039 36.0724 194.925 39.9818 190.204C43.8912 185.483 49.2736 182.488 55.0981 181.792C60.9227 181.096 66.7799 182.748 71.5483 186.432C76.3166 190.115 79.6608 195.571 80.9404 201.755H163.122C164.402 195.571 167.746 190.115 172.514 186.431C177.283 182.748 183.14 181.096 188.965 181.792C194.79 182.489 200.172 185.484 204.081 190.205C207.991 194.926 210.152 201.041 210.151 207.378Z" fill="white" stroke="black" stroke-width="2" stroke-miterlimit="10"/>
<path d="M210 68.5022C210 74.7799 207.84 80.8369 203.936 85.5132C200.032 90.1895 194.657 93.1564 188.841 93.8457C183.024 94.5351 177.175 92.8984 172.414 89.2492C167.652 85.6 164.313 80.1947 163.035 74.0684H80.9656C79.6877 80.1948 76.348 85.6003 71.5862 89.2495C66.8244 92.8988 60.9751 94.5353 55.1585 93.8456C49.342 93.156 43.967 90.1887 40.0629 85.512C36.1588 80.8354 34 74.778 34 68.5C34 62.222 36.1588 56.1647 40.0629 51.488C43.967 46.8113 49.342 43.844 55.1585 43.1544C60.9751 42.4647 66.8244 44.1013 71.5862 47.7505C76.348 51.3997 79.6877 56.8052 80.9656 62.9316H163.035C164.313 56.805 167.652 51.3994 172.414 47.7502C177.176 44.1009 183.026 42.4646 188.843 43.1545C194.659 43.8444 200.034 46.8121 203.938 51.4892C207.842 56.1663 210.001 62.224 210 68.5022V68.5022Z" fill="white" stroke="black" stroke-width="2" stroke-miterlimit="10"/>
<rect x="82.125" y="67.3453" width="5.34735" height="2.86618" fill="#0D0D0D"/>
<rect x="156.988" y="67.3452" width="5.34735" height="2.86618" fill="#0D0D0D"/>
<rect x="90.1477" y="67.3452" width="10.6947" height="2.86618" fill="#0D0D0D"/>
<rect x="103.514" y="67.3452" width="10.6947" height="2.86618" fill="#0D0D0D"/>
<rect x="116.884" y="67.3452" width="10.6947" height="2.86618" fill="#0D0D0D"/>
<rect x="130.252" y="67.3452" width="10.6947" height="2.86618" fill="#0D0D0D"/>
<rect x="143.62" y="67.3452" width="10.6947" height="2.86618" fill="#0D0D0D"/>
<path d="M57.6976 89.2491C68.024 89.2491 76.3952 80.239 76.3952 69.1245C76.3952 58.0101 68.024 49 57.6976 49C47.3712 49 39 58.0101 39 69.1245C39 80.239 47.3712 89.2491 57.6976 89.2491Z" fill="#0D0D0D"/>
<path d="M51.1025 59.5924V67.8541" stroke="white" stroke-width="4" stroke-miterlimit="10" stroke-linecap="round"/>
<path d="M64.2905 59.592V67.8536" stroke="white" stroke-width="4" stroke-miterlimit="10" stroke-linecap="round"/>
<path d="M70.6476 71.0283C68.5843 78.5411 62.5261 81.4083 57.6971 81.4083C52.8681 81.4083 46.8099 78.5411 44.7466 71.0283" stroke="white" stroke-width="4" stroke-miterlimit="10" stroke-linecap="round"/>
<path d="M185.698 88.2491C196.024 88.2491 204.395 79.239 204.395 68.1245C204.395 57.0101 196.024 48 185.698 48C175.371 48 167 57.0101 167 68.1245C167 79.239 175.371 88.2491 185.698 88.2491Z" fill="#0D0D0D"/>
<path d="M179.103 58.5924V66.8541" stroke="white" stroke-width="4" stroke-miterlimit="10" stroke-linecap="round"/>
<path d="M192.291 58.592V66.8536" stroke="white" stroke-width="4" stroke-miterlimit="10" stroke-linecap="round"/>
<path d="M198.648 70.0283C196.584 77.5411 190.526 80.4083 185.697 80.4083C180.868 80.4083 174.81 77.5411 172.747 70.0283" stroke="white" stroke-width="4" stroke-miterlimit="10" stroke-linecap="round"/>
<path d="M57.6976 158.249C68.024 158.249 76.3952 149.239 76.3952 138.125C76.3952 127.01 68.024 118 57.6976 118C47.3712 118 39 127.01 39 138.125C39 149.239 47.3712 158.249 57.6976 158.249Z" fill="#0D0D0D"/>
<path d="M51.1025 128.592V136.854" stroke="white" stroke-width="4" stroke-miterlimit="10" stroke-linecap="round"/>
<path d="M64.2905 128.592V136.854" stroke="white" stroke-width="4" stroke-miterlimit="10" stroke-linecap="round"/>
<path d="M70.6476 140.028C68.5843 147.541 62.5261 150.408 57.6971 150.408C52.8681 150.408 46.8099 147.541 44.7466 140.028" stroke="white" stroke-width="4" stroke-miterlimit="10" stroke-linecap="round"/>
<path d="M185.698 158.249C196.024 158.249 204.395 149.239 204.395 138.125C204.395 127.01 196.024 118 185.698 118C175.371 118 167 127.01 167 138.125C167 149.239 175.371 158.249 185.698 158.249Z" fill="#0D0D0D"/>
<path d="M179.103 128.592V136.854" stroke="white" stroke-width="4" stroke-miterlimit="10" stroke-linecap="round"/>
<path d="M192.291 128.592V136.854" stroke="white" stroke-width="4" stroke-miterlimit="10" stroke-linecap="round"/>
<path d="M198.648 140.028C196.584 147.541 190.526 150.408 185.697 150.408C180.868 150.408 174.81 147.541 172.747 140.028" stroke="white" stroke-width="4" stroke-miterlimit="10" stroke-linecap="round"/>
<path d="M185.698 227.249C196.024 227.249 204.395 218.239 204.395 207.125C204.395 196.01 196.024 187 185.698 187C175.371 187 167 196.01 167 207.125C167 218.239 175.371 227.249 185.698 227.249Z" fill="#0D0D0D"/>
<path d="M179.103 197.592V205.854" stroke="white" stroke-width="4" stroke-miterlimit="10" stroke-linecap="round"/>
<path d="M192.291 197.592V205.854" stroke="white" stroke-width="4" stroke-miterlimit="10" stroke-linecap="round"/>
<path d="M198.648 209.028C196.584 216.541 190.526 219.408 185.697 219.408C180.868 219.408 174.81 216.541 172.747 209.028" stroke="white" stroke-width="4" stroke-miterlimit="10" stroke-linecap="round"/>
<path d="M57.6976 227.249C68.024 227.249 76.3952 218.239 76.3952 207.125C76.3952 196.01 68.024 187 57.6976 187C47.3712 187 39 196.01 39 207.125C39 218.239 47.3712 227.249 57.6976 227.249Z" fill="#0D0D0D"/>
<path d="M51.1025 197.592V205.854" stroke="white" stroke-width="4" stroke-miterlimit="10" stroke-linecap="round"/>
<path d="M64.2905 197.592V205.854" stroke="white" stroke-width="4" stroke-miterlimit="10" stroke-linecap="round"/>
<path d="M70.6476 209.028C68.5843 216.541 62.5261 219.408 57.6971 219.408C52.8681 219.408 46.8099 216.541 44.7466 209.028" stroke="white" stroke-width="4" stroke-miterlimit="10" stroke-linecap="round"/>
</svg>
