<svg width="266" height="80" viewBox="0 0 266 80" fill="none" xmlns="http://www.w3.org/2000/svg">
<path d="M264.388 39.638C264.387 49.1475 261.156 58.3225 255.313 65.4061C249.471 72.4896 241.427 76.9838 232.722 78.028C224.018 79.0723 215.265 76.5931 208.139 71.0653C201.013 65.5375 196.016 57.3496 194.103 48.0696H71.285C69.3726 57.3499 64.3748 65.538 57.2486 71.0658C50.1225 76.5936 41.3689 79.0725 32.6642 78.0279C23.9596 76.9832 15.9158 72.4884 10.0732 65.4043C4.23063 58.3201 1 49.1446 1 39.6348C1 30.125 4.23063 20.9494 10.0732 13.8652C15.9158 6.78109 23.9596 2.2863 32.6642 1.24166C41.3689 0.197023 50.1225 2.67597 57.2486 8.20375C64.3748 13.7315 69.3726 21.9196 71.285 31.1999H194.103C196.016 21.9194 201.014 13.7311 208.14 8.20329C215.267 2.6755 224.021 0.196779 232.725 1.24185C241.43 2.28692 249.474 6.78233 255.316 13.8671C261.159 20.9519 264.389 30.128 264.388 39.638V39.638Z" fill="white" stroke="black" stroke-width="2" stroke-miterlimit="10"/>
<path d="M36.5641 71.2676C52.653 71.2676 65.6957 57.1049 65.6957 39.6343C65.6957 22.1637 52.653 8.00098 36.5641 8.00098C20.4752 8.00098 7.43262 22.1637 7.43262 39.6343C7.43262 57.1049 20.4752 71.2676 36.5641 71.2676Z" fill="black"/>
<path d="M26.291 24.6504V37.6367" stroke="white" stroke-width="4" stroke-miterlimit="10"/>
<path d="M46.8364 24.6504V37.6367" stroke="white" stroke-width="4" stroke-miterlimit="10"/>
<path d="M56.7413 42.6265C53.5266 54.4357 44.0877 58.9426 36.564 58.9426C29.0403 58.9426 19.6014 54.4357 16.3867 42.6265" stroke="white" stroke-width="4" stroke-miterlimit="10"/>
<path d="M228.819 71.269C244.908 71.269 257.951 57.1062 257.951 39.6355C257.951 22.1648 244.908 8.00195 228.819 8.00195C212.73 8.00195 199.688 22.1648 199.688 39.6355C199.688 57.1062 212.73 71.269 228.819 71.269Z" fill="black"/>
<path d="M248.997 42.627C245.783 54.4363 236.344 58.9434 228.82 58.9434C221.296 58.9434 211.857 54.4363 208.643 42.627" stroke="white" stroke-width="4" stroke-miterlimit="10"/>
<path d="M218.547 24.6509V37.6372" stroke="white" stroke-width="4" stroke-miterlimit="10"/>
<path d="M239.093 24.6509V37.6372" stroke="white" stroke-width="4" stroke-miterlimit="10"/>
<rect x="73" y="37.7754" width="8" height="4.32861" fill="#0D0D0D"/>
<rect x="185" y="37.7754" width="8" height="4.32861" fill="#0D0D0D"/>
<rect x="85" y="37.7754" width="16" height="4.32861" fill="#0D0D0D"/>
<rect x="105" y="37.7754" width="16" height="4.32861" fill="#0D0D0D"/>
<rect x="125" y="37.7754" width="16" height="4.32861" fill="#0D0D0D"/>
<rect x="145" y="37.7754" width="16" height="4.32861" fill="#0D0D0D"/>
<rect x="165" y="37.7754" width="16" height="4.32861" fill="#0D0D0D"/>
</svg>
