<svg width="468" height="842" viewBox="0 0 468 842" fill="none" xmlns="http://www.w3.org/2000/svg">
<path d="M341.765 23V6.9H344.249V23H341.765ZM331.254 23V6.9H333.738V23H331.254ZM332.335 16.169V13.777H342.869V16.169H332.335ZM355.306 23V15.134C355.306 14.4593 355.061 13.915 354.57 13.501C354.095 13.0717 353.489 12.857 352.753 12.857C352.078 12.857 351.465 12.995 350.913 13.271C350.376 13.547 349.886 13.9687 349.441 14.536L347.9 12.995C348.621 12.213 349.395 11.6303 350.223 11.247C351.066 10.8637 351.971 10.672 352.937 10.672C353.857 10.672 354.654 10.8253 355.329 11.132C356.004 11.4387 356.525 11.891 356.893 12.489C357.261 13.0717 357.445 13.7847 357.445 14.628V23H355.306ZM351.695 23.23C350.913 23.23 350.215 23.0767 349.602 22.77C348.989 22.4633 348.498 22.0417 348.13 21.505C347.777 20.953 347.601 20.309 347.601 19.573C347.601 18.929 347.716 18.3617 347.946 17.871C348.176 17.3803 348.513 16.974 348.958 16.652C349.418 16.33 349.985 16.0847 350.66 15.916C351.35 15.7473 352.14 15.663 353.029 15.663H356.387L356.18 17.549H352.73C352.27 17.549 351.856 17.595 351.488 17.687C351.135 17.7637 350.829 17.894 350.568 18.078C350.323 18.2467 350.139 18.4537 350.016 18.699C349.893 18.929 349.832 19.205 349.832 19.527C349.832 19.8643 349.916 20.1633 350.085 20.424C350.254 20.6693 350.484 20.861 350.775 20.999C351.066 21.137 351.404 21.206 351.787 21.206C352.339 21.206 352.86 21.114 353.351 20.93C353.857 20.7307 354.302 20.4623 354.685 20.125C355.084 19.7877 355.39 19.412 355.605 18.998L356.157 20.539C355.835 21.0757 355.436 21.5433 354.961 21.942C354.486 22.3407 353.972 22.655 353.42 22.885C352.868 23.115 352.293 23.23 351.695 23.23ZM364.464 23.23C363.452 23.23 362.54 23.0537 361.727 22.701C360.915 22.3483 360.24 21.827 359.703 21.137L361.313 19.757C361.773 20.2937 362.272 20.6847 362.808 20.93C363.36 21.16 363.981 21.275 364.671 21.275C364.947 21.275 365.2 21.2443 365.43 21.183C365.676 21.1063 365.883 20.999 366.051 20.861C366.235 20.723 366.373 20.562 366.465 20.378C366.557 20.1787 366.603 19.964 366.603 19.734C366.603 19.3353 366.458 19.0133 366.166 18.768C366.013 18.6607 365.768 18.5457 365.43 18.423C365.108 18.285 364.687 18.147 364.165 18.009C363.276 17.779 362.548 17.5183 361.98 17.227C361.413 16.9357 360.976 16.606 360.669 16.238C360.439 15.9467 360.271 15.6323 360.163 15.295C360.056 14.9423 360.002 14.559 360.002 14.145C360.002 13.4703 360.194 12.8723 360.577 12.351C360.961 11.8297 361.474 11.4233 362.118 11.132C362.778 10.8253 363.514 10.672 364.326 10.672C364.894 10.672 365.453 10.7487 366.005 10.902C366.573 11.0553 367.094 11.2777 367.569 11.569C368.045 11.8603 368.443 12.2053 368.765 12.604L367.408 14.099C367.117 13.8077 366.795 13.5547 366.442 13.34C366.105 13.11 365.76 12.9337 365.407 12.811C365.055 12.6883 364.733 12.627 364.441 12.627C364.119 12.627 363.828 12.6577 363.567 12.719C363.307 12.7803 363.084 12.8723 362.9 12.995C362.732 13.1177 362.601 13.271 362.509 13.455C362.417 13.639 362.371 13.846 362.371 14.076C362.387 14.2753 362.433 14.467 362.509 14.651C362.601 14.8197 362.724 14.9653 362.877 15.088C363.046 15.2107 363.299 15.341 363.636 15.479C363.974 15.617 364.403 15.7473 364.924 15.87C365.691 16.0693 366.32 16.2917 366.81 16.537C367.316 16.767 367.715 17.0353 368.006 17.342C368.313 17.6333 368.528 17.9707 368.65 18.354C368.773 18.7373 368.834 19.1667 368.834 19.642C368.834 20.332 368.635 20.953 368.236 21.505C367.853 22.0417 367.332 22.4633 366.672 22.77C366.013 23.0767 365.277 23.23 364.464 23.23ZM371.445 23V5.98H373.814V13.409L373.4 13.685C373.553 13.1483 373.852 12.6577 374.297 12.213C374.742 11.753 375.271 11.385 375.884 11.109C376.497 10.8177 377.126 10.672 377.77 10.672C378.69 10.672 379.457 10.856 380.07 11.224C380.683 11.5767 381.143 12.121 381.45 12.857C381.757 13.593 381.91 14.5207 381.91 15.64V23H379.541V15.801C379.541 15.111 379.449 14.5437 379.265 14.099C379.081 13.639 378.797 13.3093 378.414 13.11C378.031 12.8953 377.555 12.8033 376.988 12.834C376.528 12.834 376.106 12.9107 375.723 13.064C375.34 13.202 375.002 13.4013 374.711 13.662C374.435 13.9227 374.213 14.2293 374.044 14.582C373.891 14.9193 373.814 15.2873 373.814 15.686V23H372.641C372.442 23 372.242 23 372.043 23C371.844 23 371.644 23 371.445 23ZM396.998 23.23C395.817 23.23 394.759 22.9617 393.824 22.425C392.904 21.873 392.176 21.1293 391.639 20.194C391.102 19.2433 390.834 18.1623 390.834 16.951C390.834 15.7397 391.102 14.6663 391.639 13.731C392.176 12.7803 392.904 12.0367 393.824 11.5C394.759 10.948 395.817 10.672 396.998 10.672C398.163 10.672 399.206 10.948 400.126 11.5C401.061 12.0367 401.797 12.7803 402.334 13.731C402.871 14.6663 403.139 15.7397 403.139 16.951C403.139 18.1623 402.871 19.2433 402.334 20.194C401.797 21.1293 401.061 21.873 400.126 22.425C399.206 22.9617 398.163 23.23 396.998 23.23ZM396.998 21.068C397.719 21.068 398.363 20.8917 398.93 20.539C399.497 20.171 399.942 19.6803 400.264 19.067C400.586 18.4383 400.739 17.733 400.724 16.951C400.739 16.1537 400.586 15.4483 400.264 14.835C399.942 14.2063 399.497 13.7157 398.93 13.363C398.363 13.0103 397.719 12.834 396.998 12.834C396.277 12.834 395.626 13.018 395.043 13.386C394.476 13.7387 394.031 14.2293 393.709 14.858C393.387 15.4713 393.234 16.169 393.249 16.951C393.234 17.733 393.387 18.4383 393.709 19.067C394.031 19.6803 394.476 20.171 395.043 20.539C395.626 20.8917 396.277 21.068 396.998 21.068ZM406.582 23V9.568C406.582 8.878 406.736 8.26467 407.042 7.728C407.349 7.19133 407.771 6.76967 408.307 6.463C408.844 6.15633 409.465 6.003 410.17 6.003C410.661 6.003 411.121 6.095 411.55 6.279C411.98 6.463 412.325 6.70833 412.585 7.015L411.78 8.832C411.581 8.648 411.359 8.50233 411.113 8.395C410.883 8.27233 410.661 8.211 410.446 8.211C410.124 8.211 409.848 8.26467 409.618 8.372C409.404 8.464 409.243 8.61733 409.135 8.832C409.028 9.03133 408.974 9.27667 408.974 9.568V23H407.778C407.579 23 407.38 23 407.18 23C406.981 23 406.782 23 406.582 23ZM404.65 13.317V11.132H411.826V13.317H404.65ZM422.242 23V7.843H424.611V23H422.242ZM419.735 13.225V10.925H427.417V13.225H419.735ZM429.574 23V5.98H431.943V13.409L431.529 13.685C431.682 13.1483 431.981 12.6577 432.426 12.213C432.871 11.753 433.4 11.385 434.013 11.109C434.626 10.8177 435.255 10.672 435.899 10.672C436.819 10.672 437.586 10.856 438.199 11.224C438.812 11.5767 439.272 12.121 439.579 12.857C439.886 13.593 440.039 14.5207 440.039 15.64V23H437.67V15.801C437.67 15.111 437.578 14.5437 437.394 14.099C437.21 13.639 436.926 13.3093 436.543 13.11C436.16 12.8953 435.684 12.8033 435.117 12.834C434.657 12.834 434.235 12.9107 433.852 13.064C433.469 13.202 433.131 13.4013 432.84 13.662C432.564 13.9227 432.342 14.2293 432.173 14.582C432.02 14.9193 431.943 15.2873 431.943 15.686V23H430.77C430.571 23 430.371 23 430.172 23C429.973 23 429.773 23 429.574 23ZM448.888 23.23C447.646 23.23 446.542 22.9693 445.576 22.448C444.625 21.9113 443.874 21.183 443.322 20.263C442.785 19.343 442.517 18.285 442.517 17.089C442.517 16.1383 442.67 15.272 442.977 14.49C443.283 13.708 443.705 13.0333 444.242 12.466C444.794 11.8833 445.445 11.4387 446.197 11.132C446.963 10.81 447.791 10.649 448.681 10.649C449.463 10.649 450.191 10.8023 450.866 11.109C451.54 11.4003 452.123 11.8067 452.614 12.328C453.12 12.8493 453.503 13.4703 453.764 14.191C454.04 14.8963 454.17 15.6707 454.155 16.514L454.132 17.526H444.265L443.736 15.64H452.085L451.74 16.031V15.479C451.694 14.973 451.525 14.5207 451.234 14.122C450.942 13.7233 450.574 13.409 450.13 13.179C449.685 12.949 449.202 12.834 448.681 12.834C447.853 12.834 447.155 12.995 446.588 13.317C446.02 13.6237 445.591 14.0837 445.3 14.697C445.008 15.295 444.863 16.0387 444.863 16.928C444.863 17.7713 445.039 18.5073 445.392 19.136C445.744 19.7493 446.243 20.2247 446.887 20.562C447.531 20.8993 448.274 21.068 449.118 21.068C449.716 21.068 450.268 20.9683 450.774 20.769C451.295 20.5697 451.855 20.2093 452.453 19.688L453.649 21.367C453.281 21.735 452.828 22.057 452.292 22.333C451.77 22.609 451.211 22.8313 450.613 23C450.03 23.1533 449.455 23.23 448.888 23.23ZM330.656 57.06V39.925H333.048V42.685L332.68 42.478C332.772 42.018 333.033 41.581 333.462 41.167C333.891 40.7377 334.413 40.3927 335.026 40.132C335.655 39.856 336.299 39.718 336.958 39.718C338.047 39.718 339.013 39.9863 339.856 40.523C340.699 41.0597 341.366 41.7957 341.857 42.731C342.348 43.6663 342.593 44.7397 342.593 45.951C342.593 47.147 342.348 48.2203 341.857 49.171C341.382 50.1063 340.722 50.85 339.879 51.402C339.036 51.9387 338.085 52.207 337.027 52.207C336.322 52.207 335.639 52.069 334.98 51.793C334.321 51.5017 333.761 51.1337 333.301 50.689C332.841 50.2443 332.557 49.7843 332.45 49.309L333.048 48.987V57.06H330.656ZM336.636 50.022C337.341 50.022 337.97 49.8457 338.522 49.493C339.074 49.1403 339.511 48.6573 339.833 48.044C340.155 47.4307 340.316 46.733 340.316 45.951C340.316 45.169 340.155 44.479 339.833 43.881C339.526 43.2677 339.097 42.7847 338.545 42.432C337.993 42.0793 337.357 41.903 336.636 41.903C335.915 41.903 335.279 42.0793 334.727 42.432C334.175 42.7693 333.738 43.2447 333.416 43.858C333.094 44.4713 332.933 45.169 332.933 45.951C332.933 46.733 333.094 47.4307 333.416 48.044C333.738 48.6573 334.175 49.1403 334.727 49.493C335.279 49.8457 335.915 50.022 336.636 50.022ZM345.166 52V39.925H347.558V43.72L347.328 42.8C347.496 42.2173 347.78 41.6883 348.179 41.213C348.593 40.7377 349.06 40.362 349.582 40.086C350.118 39.81 350.67 39.672 351.238 39.672C351.498 39.672 351.744 39.695 351.974 39.741C352.219 39.787 352.411 39.8407 352.549 39.902L351.928 42.478C351.744 42.4013 351.537 42.34 351.307 42.294C351.092 42.2327 350.877 42.202 350.663 42.202C350.249 42.202 349.85 42.2863 349.467 42.455C349.099 42.6083 348.769 42.8307 348.478 43.122C348.202 43.398 347.979 43.7277 347.811 44.111C347.642 44.479 347.558 44.8853 347.558 45.33V52H345.166ZM359.561 52.23C358.319 52.23 357.215 51.9693 356.249 51.448C355.298 50.9113 354.547 50.183 353.995 49.263C353.458 48.343 353.19 47.285 353.19 46.089C353.19 45.1383 353.343 44.272 353.65 43.49C353.956 42.708 354.378 42.0333 354.915 41.466C355.467 40.8833 356.118 40.4387 356.87 40.132C357.636 39.81 358.464 39.649 359.354 39.649C360.136 39.649 360.864 39.8023 361.539 40.109C362.213 40.4003 362.796 40.8067 363.287 41.328C363.793 41.8493 364.176 42.4703 364.437 43.191C364.713 43.8963 364.843 44.6707 364.828 45.514L364.805 46.526H354.938L354.409 44.64H362.758L362.413 45.031V44.479C362.367 43.973 362.198 43.5207 361.907 43.122C361.615 42.7233 361.247 42.409 360.803 42.179C360.358 41.949 359.875 41.834 359.354 41.834C358.526 41.834 357.828 41.995 357.261 42.317C356.693 42.6237 356.264 43.0837 355.973 43.697C355.681 44.295 355.536 45.0387 355.536 45.928C355.536 46.7713 355.712 47.5073 356.065 48.136C356.417 48.7493 356.916 49.2247 357.56 49.562C358.204 49.8993 358.947 50.068 359.791 50.068C360.389 50.068 360.941 49.9683 361.447 49.769C361.968 49.5697 362.528 49.2093 363.126 48.688L364.322 50.367C363.954 50.735 363.501 51.057 362.965 51.333C362.443 51.609 361.884 51.8313 361.286 52C360.703 52.1533 360.128 52.23 359.561 52.23ZM371.133 52L366.027 39.925H368.58L372.26 48.964L371.823 49.171L375.756 39.925H378.194L372.835 52H371.133ZM380.753 52V39.925H383.122V52H380.753ZM381.903 37.257C381.397 37.257 381.006 37.1267 380.73 36.866C380.454 36.6053 380.316 36.2373 380.316 35.762C380.316 35.3173 380.454 34.957 380.73 34.681C381.021 34.405 381.412 34.267 381.903 34.267C382.409 34.267 382.8 34.3973 383.076 34.658C383.352 34.9187 383.49 35.2867 383.49 35.762C383.49 36.2067 383.344 36.567 383.053 36.843C382.777 37.119 382.394 37.257 381.903 37.257ZM392.191 52.23C391.011 52.23 389.953 51.9617 389.017 51.425C388.097 50.873 387.369 50.1293 386.832 49.194C386.296 48.2433 386.027 47.1623 386.027 45.951C386.027 44.7397 386.296 43.6663 386.832 42.731C387.369 41.7803 388.097 41.0367 389.017 40.5C389.953 39.948 391.011 39.672 392.191 39.672C393.357 39.672 394.399 39.948 395.319 40.5C396.255 41.0367 396.991 41.7803 397.527 42.731C398.064 43.6663 398.332 44.7397 398.332 45.951C398.332 47.1623 398.064 48.2433 397.527 49.194C396.991 50.1293 396.255 50.873 395.319 51.425C394.399 51.9617 393.357 52.23 392.191 52.23ZM392.191 50.068C392.912 50.068 393.556 49.8917 394.123 49.539C394.691 49.171 395.135 48.6803 395.457 48.067C395.779 47.4383 395.933 46.733 395.917 45.951C395.933 45.1537 395.779 44.4483 395.457 43.835C395.135 43.2063 394.691 42.7157 394.123 42.363C393.556 42.0103 392.912 41.834 392.191 41.834C391.471 41.834 390.819 42.018 390.236 42.386C389.669 42.7387 389.224 43.2293 388.902 43.858C388.58 44.4713 388.427 45.169 388.442 45.951C388.427 46.733 388.58 47.4383 388.902 48.067C389.224 48.6803 389.669 49.171 390.236 49.539C390.819 49.8917 391.471 50.068 392.191 50.068ZM405.146 52.23C404.287 52.23 403.536 52.0307 402.892 51.632C402.263 51.2333 401.772 50.6737 401.42 49.953C401.082 49.2323 400.914 48.3737 400.914 47.377V39.925H403.283V46.733C403.283 47.791 403.528 48.6267 404.019 49.24C404.525 49.8533 405.222 50.16 406.112 50.16C406.556 50.16 406.963 50.091 407.331 49.953C407.699 49.7997 408.013 49.5927 408.274 49.332C408.55 49.0713 408.764 48.757 408.918 48.389C409.071 48.021 409.148 47.6223 409.148 47.193V39.925H411.517V52H409.148V49.47L409.562 49.194C409.378 49.7613 409.063 50.275 408.619 50.735C408.189 51.195 407.676 51.563 407.078 51.839C406.48 52.0997 405.836 52.23 405.146 52.23ZM418.865 52.23C417.853 52.23 416.94 52.0537 416.128 51.701C415.315 51.3483 414.64 50.827 414.104 50.137L415.714 48.757C416.174 49.2937 416.672 49.6847 417.209 49.93C417.761 50.16 418.382 50.275 419.072 50.275C419.348 50.275 419.601 50.2443 419.831 50.183C420.076 50.1063 420.283 49.999 420.452 49.861C420.636 49.723 420.774 49.562 420.866 49.378C420.958 49.1787 421.004 48.964 421.004 48.734C421.004 48.3353 420.858 48.0133 420.567 47.768C420.413 47.6607 420.168 47.5457 419.831 47.423C419.509 47.285 419.087 47.147 418.566 47.009C417.676 46.779 416.948 46.5183 416.381 46.227C415.813 45.9357 415.376 45.606 415.07 45.238C414.84 44.9467 414.671 44.6323 414.564 44.295C414.456 43.9423 414.403 43.559 414.403 43.145C414.403 42.4703 414.594 41.8723 414.978 41.351C415.361 40.8297 415.875 40.4233 416.519 40.132C417.178 39.8253 417.914 39.672 418.727 39.672C419.294 39.672 419.854 39.7487 420.406 39.902C420.973 40.0553 421.494 40.2777 421.97 40.569C422.445 40.8603 422.844 41.2053 423.166 41.604L421.809 43.099C421.517 42.8077 421.195 42.5547 420.843 42.34C420.505 42.11 420.16 41.9337 419.808 41.811C419.455 41.6883 419.133 41.627 418.842 41.627C418.52 41.627 418.228 41.6577 417.968 41.719C417.707 41.7803 417.485 41.8723 417.301 41.995C417.132 42.1177 417.002 42.271 416.91 42.455C416.818 42.639 416.772 42.846 416.772 43.076C416.787 43.2753 416.833 43.467 416.91 43.651C417.002 43.8197 417.124 43.9653 417.278 44.088C417.446 44.2107 417.699 44.341 418.037 44.479C418.374 44.617 418.803 44.7473 419.325 44.87C420.091 45.0693 420.72 45.2917 421.211 45.537C421.717 45.767 422.115 46.0353 422.407 46.342C422.713 46.6333 422.928 46.9707 423.051 47.354C423.173 47.7373 423.235 48.1667 423.235 48.642C423.235 49.332 423.035 49.953 422.637 50.505C422.253 51.0417 421.732 51.4633 421.073 51.77C420.413 52.0767 419.677 52.23 418.865 52.23ZM337.004 81.23C336.483 81.23 335.961 81.1457 335.44 80.977C334.934 80.8083 334.466 80.586 334.037 80.31C333.623 80.0187 333.27 79.7043 332.979 79.367C332.703 79.0143 332.519 78.6617 332.427 78.309L333.025 77.987V80.931H330.656V63.98H333.025V71.685L332.657 71.478C332.734 71.1253 332.902 70.788 333.163 70.466C333.424 70.1287 333.753 69.8297 334.152 69.569C334.566 69.293 335.011 69.0783 335.486 68.925C335.961 68.7563 336.444 68.672 336.935 68.672C338.024 68.672 338.99 68.9403 339.833 69.477C340.676 70.0137 341.343 70.7573 341.834 71.708C342.325 72.6433 342.57 73.7167 342.57 74.928C342.57 76.1393 342.325 77.2203 341.834 78.171C341.359 79.1217 340.699 79.873 339.856 80.425C339.013 80.9617 338.062 81.23 337.004 81.23ZM336.613 79.068C337.318 79.068 337.947 78.8917 338.499 78.539C339.051 78.171 339.488 77.6803 339.81 77.067C340.132 76.4383 340.293 75.7253 340.293 74.928C340.293 74.146 340.132 73.4483 339.81 72.835C339.503 72.2063 339.074 71.7157 338.522 71.363C337.97 71.0103 337.334 70.834 336.613 70.834C335.892 70.834 335.256 71.0103 334.704 71.363C334.152 71.7157 333.715 72.2063 333.393 72.835C333.071 73.4483 332.91 74.146 332.91 74.928C332.91 75.7253 333.071 76.4383 333.393 77.067C333.715 77.6803 334.152 78.171 334.704 78.539C335.256 78.8917 335.892 79.068 336.613 79.068ZM345.189 81V63.98H347.558V81H345.189ZM356.119 81.23C354.938 81.23 353.88 80.9617 352.945 80.425C352.025 79.873 351.297 79.1293 350.76 78.194C350.223 77.2433 349.955 76.1623 349.955 74.951C349.955 73.7397 350.223 72.6663 350.76 71.731C351.297 70.7803 352.025 70.0367 352.945 69.5C353.88 68.948 354.938 68.672 356.119 68.672C357.284 68.672 358.327 68.948 359.247 69.5C360.182 70.0367 360.918 70.7803 361.455 71.731C361.992 72.6663 362.26 73.7397 362.26 74.951C362.26 76.1623 361.992 77.2433 361.455 78.194C360.918 79.1293 360.182 79.873 359.247 80.425C358.327 80.9617 357.284 81.23 356.119 81.23ZM356.119 79.068C356.84 79.068 357.484 78.8917 358.051 78.539C358.618 78.171 359.063 77.6803 359.385 77.067C359.707 76.4383 359.86 75.733 359.845 74.951C359.86 74.1537 359.707 73.4483 359.385 72.835C359.063 72.2063 358.618 71.7157 358.051 71.363C357.484 71.0103 356.84 70.834 356.119 70.834C355.398 70.834 354.747 71.018 354.164 71.386C353.597 71.7387 353.152 72.2293 352.83 72.858C352.508 73.4713 352.355 74.169 352.37 74.951C352.355 75.733 352.508 76.4383 352.83 77.067C353.152 77.6803 353.597 78.171 354.164 78.539C354.747 78.8917 355.398 79.068 356.119 79.068ZM369.971 81.23C368.851 81.23 367.847 80.954 366.958 80.402C366.084 79.85 365.386 79.0987 364.865 78.148C364.359 77.1973 364.106 76.1317 364.106 74.951C364.106 73.7703 364.359 72.7047 364.865 71.754C365.386 70.8033 366.084 70.052 366.958 69.5C367.847 68.948 368.851 68.672 369.971 68.672C371.044 68.672 372.018 68.8943 372.892 69.339C373.781 69.7683 374.456 70.3587 374.916 71.11L373.605 72.72C373.359 72.3673 373.045 72.0453 372.662 71.754C372.278 71.4627 371.872 71.2327 371.443 71.064C371.013 70.8953 370.599 70.811 370.201 70.811C369.465 70.811 368.805 70.995 368.223 71.363C367.655 71.7157 367.203 72.2063 366.866 72.835C366.528 73.4637 366.36 74.169 366.36 74.951C366.36 75.733 366.536 76.4383 366.889 77.067C367.241 77.6803 367.709 78.171 368.292 78.539C368.874 78.907 369.518 79.091 370.224 79.091C370.638 79.091 371.036 79.022 371.42 78.884C371.818 78.746 372.202 78.539 372.57 78.263C372.938 77.987 373.283 77.6497 373.605 77.251L374.916 78.861C374.425 79.551 373.72 80.1183 372.8 80.563C371.895 81.0077 370.952 81.23 369.971 81.23ZM379.312 77.228L379.197 74.652L384.97 68.925H388.167L379.312 77.228ZM377.15 81V63.98H379.519V81H377.15ZM385.292 81L380.738 75.687L382.417 74.146L388.328 81H385.292ZM397.06 81V68.925H399.429V81H397.06ZM398.21 66.257C397.704 66.257 397.313 66.1267 397.037 65.866C396.761 65.6053 396.623 65.2373 396.623 64.762C396.623 64.3173 396.761 63.957 397.037 63.681C397.328 63.405 397.719 63.267 398.21 63.267C398.716 63.267 399.107 63.3973 399.383 63.658C399.659 63.9187 399.797 64.2867 399.797 64.762C399.797 65.2067 399.651 65.567 399.36 65.843C399.084 66.119 398.7 66.257 398.21 66.257ZM403.07 81V68.925H405.439V71.409L405.025 71.685C405.178 71.1483 405.477 70.6577 405.922 70.213C406.367 69.753 406.896 69.385 407.509 69.109C408.122 68.8177 408.751 68.672 409.395 68.672C410.315 68.672 411.082 68.856 411.695 69.224C412.308 69.5767 412.768 70.121 413.075 70.857C413.382 71.593 413.535 72.5207 413.535 73.64V81H411.166V73.801C411.166 73.111 411.074 72.5437 410.89 72.099C410.706 71.639 410.422 71.3093 410.039 71.11C409.656 70.8953 409.18 70.8033 408.613 70.834C408.153 70.834 407.731 70.9107 407.348 71.064C406.965 71.202 406.627 71.4013 406.336 71.662C406.06 71.9227 405.838 72.2293 405.669 72.582C405.516 72.9193 405.439 73.2873 405.439 73.686V81H404.266C404.067 81 403.867 81 403.668 81C403.469 81 403.269 81 403.07 81ZM424.69 81V65.843H427.059V81H424.69ZM422.183 71.225V68.925H429.865V71.225H422.183ZM432.022 81V63.98H434.391V71.409L433.977 71.685C434.131 71.1483 434.43 70.6577 434.874 70.213C435.319 69.753 435.848 69.385 436.461 69.109C437.075 68.8177 437.703 68.672 438.347 68.672C439.267 68.672 440.034 68.856 440.647 69.224C441.261 69.5767 441.721 70.121 442.027 70.857C442.334 71.593 442.487 72.5207 442.487 73.64V81H440.118V73.801C440.118 73.111 440.026 72.5437 439.842 72.099C439.658 71.639 439.375 71.3093 438.991 71.11C438.608 70.8953 438.133 70.8033 437.565 70.834C437.105 70.834 436.684 70.9107 436.3 71.064C435.917 71.202 435.58 71.4013 435.288 71.662C435.012 71.9227 434.79 72.2293 434.621 72.582C434.468 72.9193 434.391 73.2873 434.391 73.686V81H433.218C433.019 81 432.82 81 432.62 81C432.421 81 432.222 81 432.022 81ZM451.336 81.23C450.094 81.23 448.99 80.9693 448.024 80.448C447.073 79.9113 446.322 79.183 445.77 78.263C445.233 77.343 444.965 76.285 444.965 75.089C444.965 74.1383 445.118 73.272 445.425 72.49C445.732 71.708 446.153 71.0333 446.69 70.466C447.242 69.8833 447.894 69.4387 448.645 69.132C449.412 68.81 450.24 68.649 451.129 68.649C451.911 68.649 452.639 68.8023 453.314 69.109C453.989 69.4003 454.571 69.8067 455.062 70.328C455.568 70.8493 455.951 71.4703 456.212 72.191C456.488 72.8963 456.618 73.6707 456.603 74.514L456.58 75.526H446.713L446.184 73.64H454.533L454.188 74.031V73.479C454.142 72.973 453.973 72.5207 453.682 72.122C453.391 71.7233 453.023 71.409 452.578 71.179C452.133 70.949 451.65 70.834 451.129 70.834C450.301 70.834 449.603 70.995 449.036 71.317C448.469 71.6237 448.039 72.0837 447.748 72.697C447.457 73.295 447.311 74.0387 447.311 74.928C447.311 75.7713 447.487 76.5073 447.84 77.136C448.193 77.7493 448.691 78.2247 449.335 78.562C449.979 78.8993 450.723 79.068 451.566 79.068C452.164 79.068 452.716 78.9683 453.222 78.769C453.743 78.5697 454.303 78.2093 454.901 77.688L456.097 79.367C455.729 79.735 455.277 80.057 454.74 80.333C454.219 80.609 453.659 80.8313 453.061 81C452.478 81.1533 451.903 81.23 451.336 81.23ZM335.785 110.23C334.666 110.23 333.661 109.954 332.772 109.402C331.898 108.85 331.2 108.099 330.679 107.148C330.173 106.197 329.92 105.132 329.92 103.951C329.92 102.77 330.173 101.705 330.679 100.754C331.2 99.8033 331.898 99.052 332.772 98.5C333.661 97.948 334.666 97.672 335.785 97.672C336.858 97.672 337.832 97.8943 338.706 98.339C339.595 98.7683 340.27 99.3587 340.73 100.11L339.419 101.72C339.174 101.367 338.859 101.045 338.476 100.754C338.093 100.463 337.686 100.233 337.257 100.064C336.828 99.8953 336.414 99.811 336.015 99.811C335.279 99.811 334.62 99.995 334.037 100.363C333.47 100.716 333.017 101.206 332.68 101.835C332.343 102.464 332.174 103.169 332.174 103.951C332.174 104.733 332.35 105.438 332.703 106.067C333.056 106.68 333.523 107.171 334.106 107.539C334.689 107.907 335.333 108.091 336.038 108.091C336.452 108.091 336.851 108.022 337.234 107.884C337.633 107.746 338.016 107.539 338.384 107.263C338.752 106.987 339.097 106.65 339.419 106.251L340.73 107.861C340.239 108.551 339.534 109.118 338.614 109.563C337.709 110.008 336.766 110.23 335.785 110.23ZM342.965 110V92.98H345.334V100.409L344.92 100.685C345.073 100.148 345.372 99.6577 345.817 99.213C346.261 98.753 346.79 98.385 347.404 98.109C348.017 97.8177 348.646 97.672 349.29 97.672C350.21 97.672 350.976 97.856 351.59 98.224C352.203 98.5767 352.663 99.121 352.97 99.857C353.276 100.593 353.43 101.521 353.43 102.64V110H351.061V102.801C351.061 102.111 350.969 101.544 350.785 101.099C350.601 100.639 350.317 100.309 349.934 100.11C349.55 99.8953 349.075 99.8033 348.508 99.834C348.048 99.834 347.626 99.9107 347.243 100.064C346.859 100.202 346.522 100.401 346.231 100.662C345.955 100.923 345.732 101.229 345.564 101.582C345.41 101.919 345.334 102.287 345.334 102.686V110H344.161C343.961 110 343.762 110 343.563 110C343.363 110 343.164 110 342.965 110ZM363.796 110V102.134C363.796 101.459 363.551 100.915 363.06 100.501C362.585 100.072 361.979 99.857 361.243 99.857C360.569 99.857 359.955 99.995 359.403 100.271C358.867 100.547 358.376 100.969 357.931 101.536L356.39 99.995C357.111 99.213 357.885 98.6303 358.713 98.247C359.557 97.8637 360.461 97.672 361.427 97.672C362.347 97.672 363.145 97.8253 363.819 98.132C364.494 98.4387 365.015 98.891 365.383 99.489C365.751 100.072 365.935 100.785 365.935 101.628V110H363.796ZM360.185 110.23C359.403 110.23 358.706 110.077 358.092 109.77C357.479 109.463 356.988 109.042 356.62 108.505C356.268 107.953 356.091 107.309 356.091 106.573C356.091 105.929 356.206 105.362 356.436 104.871C356.666 104.38 357.004 103.974 357.448 103.652C357.908 103.33 358.476 103.085 359.15 102.916C359.84 102.747 360.63 102.663 361.519 102.663H364.877L364.67 104.549H361.22C360.76 104.549 360.346 104.595 359.978 104.687C359.626 104.764 359.319 104.894 359.058 105.078C358.813 105.247 358.629 105.454 358.506 105.699C358.384 105.929 358.322 106.205 358.322 106.527C358.322 106.864 358.407 107.163 358.575 107.424C358.744 107.669 358.974 107.861 359.265 107.999C359.557 108.137 359.894 108.206 360.277 108.206C360.829 108.206 361.351 108.114 361.841 107.93C362.347 107.731 362.792 107.462 363.175 107.125C363.574 106.788 363.881 106.412 364.095 105.998L364.647 107.539C364.325 108.076 363.927 108.543 363.451 108.942C362.976 109.341 362.462 109.655 361.91 109.885C361.358 110.115 360.783 110.23 360.185 110.23ZM369.32 110V97.925H371.689V110H369.32ZM370.47 95.257C369.964 95.257 369.573 95.1267 369.297 94.866C369.021 94.6053 368.883 94.2373 368.883 93.762C368.883 93.3173 369.021 92.957 369.297 92.681C369.589 92.405 369.98 92.267 370.47 92.267C370.976 92.267 371.367 92.3973 371.643 92.658C371.919 92.9187 372.057 93.2867 372.057 93.762C372.057 94.2067 371.912 94.567 371.62 94.843C371.344 95.119 370.961 95.257 370.47 95.257ZM375.331 110V97.925H377.7V100.409L377.286 100.685C377.439 100.148 377.738 99.6577 378.183 99.213C378.627 98.753 379.156 98.385 379.77 98.109C380.383 97.8177 381.012 97.672 381.656 97.672C382.576 97.672 383.342 97.856 383.956 98.224C384.569 98.5767 385.029 99.121 385.336 99.857C385.642 100.593 385.796 101.521 385.796 102.64V110H383.427V102.801C383.427 102.111 383.335 101.544 383.151 101.099C382.967 100.639 382.683 100.309 382.3 100.11C381.916 99.8953 381.441 99.8033 380.874 99.834C380.414 99.834 379.992 99.9107 379.609 100.064C379.225 100.202 378.888 100.401 378.597 100.662C378.321 100.923 378.098 101.229 377.93 101.582C377.776 101.919 377.7 102.287 377.7 102.686V110H376.527C376.327 110 376.128 110 375.929 110C375.729 110 375.53 110 375.331 110Z" fill="#0D0D0D"/>
<path d="M331.254 374V357.9H337.97C338.997 357.9 339.864 358.053 340.569 358.36C341.274 358.667 341.803 359.127 342.156 359.74C342.524 360.338 342.708 361.074 342.708 361.948C342.708 362.822 342.463 363.566 341.972 364.179C341.497 364.792 340.83 365.214 339.971 365.444V364.984C340.692 365.137 341.32 365.413 341.857 365.812C342.394 366.195 342.808 366.678 343.099 367.261C343.406 367.844 343.559 368.511 343.559 369.262C343.559 370.029 343.436 370.711 343.191 371.309C342.961 371.892 342.608 372.382 342.133 372.781C341.673 373.18 341.113 373.486 340.454 373.701C339.795 373.9 339.043 374 338.2 374H331.254ZM333.738 371.608H338.062C338.997 371.608 339.726 371.401 340.247 370.987C340.768 370.573 341.029 369.983 341.029 369.216C341.029 368.741 340.899 368.334 340.638 367.997C340.393 367.66 340.04 367.407 339.58 367.238C339.12 367.054 338.576 366.962 337.947 366.962H333.738V371.608ZM333.738 364.57H337.832C338.292 364.57 338.698 364.478 339.051 364.294C339.419 364.11 339.703 363.857 339.902 363.535C340.117 363.213 340.224 362.845 340.224 362.431C340.224 361.741 339.994 361.212 339.534 360.844C339.074 360.476 338.415 360.292 337.556 360.292H333.738V364.57ZM346.29 374V356.98H348.659V374H346.29ZM357.22 374.23C356.039 374.23 354.981 373.962 354.046 373.425C353.126 372.873 352.397 372.129 351.861 371.194C351.324 370.243 351.056 369.162 351.056 367.951C351.056 366.74 351.324 365.666 351.861 364.731C352.397 363.78 353.126 363.037 354.046 362.5C354.981 361.948 356.039 361.672 357.22 361.672C358.385 361.672 359.428 361.948 360.348 362.5C361.283 363.037 362.019 363.78 362.556 364.731C363.092 365.666 363.361 366.74 363.361 367.951C363.361 369.162 363.092 370.243 362.556 371.194C362.019 372.129 361.283 372.873 360.348 373.425C359.428 373.962 358.385 374.23 357.22 374.23ZM357.22 372.068C357.94 372.068 358.584 371.892 359.152 371.539C359.719 371.171 360.164 370.68 360.486 370.067C360.808 369.438 360.961 368.733 360.946 367.951C360.961 367.154 360.808 366.448 360.486 365.835C360.164 365.206 359.719 364.716 359.152 364.363C358.584 364.01 357.94 363.834 357.22 363.834C356.499 363.834 355.847 364.018 355.265 364.386C354.697 364.739 354.253 365.229 353.931 365.858C353.609 366.471 353.455 367.169 353.471 367.951C353.455 368.733 353.609 369.438 353.931 370.067C354.253 370.68 354.697 371.171 355.265 371.539C355.847 371.892 356.499 372.068 357.22 372.068ZM371.071 374.23C369.952 374.23 368.947 373.954 368.058 373.402C367.184 372.85 366.486 372.099 365.965 371.148C365.459 370.197 365.206 369.132 365.206 367.951C365.206 366.77 365.459 365.705 365.965 364.754C366.486 363.803 367.184 363.052 368.058 362.5C368.947 361.948 369.952 361.672 371.071 361.672C372.144 361.672 373.118 361.894 373.992 362.339C374.881 362.768 375.556 363.359 376.016 364.11L374.705 365.72C374.46 365.367 374.145 365.045 373.762 364.754C373.379 364.463 372.972 364.233 372.543 364.064C372.114 363.895 371.7 363.811 371.301 363.811C370.565 363.811 369.906 363.995 369.323 364.363C368.756 364.716 368.303 365.206 367.966 365.835C367.629 366.464 367.46 367.169 367.46 367.951C367.46 368.733 367.636 369.438 367.989 370.067C368.342 370.68 368.809 371.171 369.392 371.539C369.975 371.907 370.619 372.091 371.324 372.091C371.738 372.091 372.137 372.022 372.52 371.884C372.919 371.746 373.302 371.539 373.67 371.263C374.038 370.987 374.383 370.65 374.705 370.251L376.016 371.861C375.525 372.551 374.82 373.118 373.9 373.563C372.995 374.008 372.052 374.23 371.071 374.23ZM380.413 370.228L380.298 367.652L386.071 361.925H389.268L380.413 370.228ZM378.251 374V356.98H380.62V374H378.251ZM386.393 374L381.839 368.687L383.518 367.146L389.429 374H386.393ZM391.001 363.075L390.127 362.017C390.725 361.741 391.216 361.427 391.599 361.074C391.982 360.721 392.174 360.415 392.174 360.154C392.174 359.955 392.09 359.778 391.921 359.625C391.752 359.456 391.599 359.318 391.461 359.211C391.124 358.935 390.894 358.705 390.771 358.521C390.664 358.337 390.61 358.145 390.61 357.946C390.61 357.578 390.74 357.287 391.001 357.072C391.262 356.842 391.599 356.727 392.013 356.727C392.442 356.727 392.826 356.842 393.163 357.072C393.516 357.287 393.792 357.586 393.991 357.969C394.19 358.352 394.29 358.805 394.29 359.326C394.29 359.725 394.206 360.116 394.037 360.499C393.868 360.882 393.631 361.243 393.324 361.58C393.033 361.917 392.688 362.216 392.289 362.477C391.89 362.738 391.461 362.937 391.001 363.075ZM400.896 374.23C399.884 374.23 398.972 374.054 398.159 373.701C397.346 373.348 396.672 372.827 396.135 372.137L397.745 370.757C398.205 371.294 398.703 371.685 399.24 371.93C399.792 372.16 400.413 372.275 401.103 372.275C401.379 372.275 401.632 372.244 401.862 372.183C402.107 372.106 402.314 371.999 402.483 371.861C402.667 371.723 402.805 371.562 402.897 371.378C402.989 371.179 403.035 370.964 403.035 370.734C403.035 370.335 402.889 370.013 402.598 369.768C402.445 369.661 402.199 369.546 401.862 369.423C401.54 369.285 401.118 369.147 400.597 369.009C399.708 368.779 398.979 368.518 398.412 368.227C397.845 367.936 397.408 367.606 397.101 367.238C396.871 366.947 396.702 366.632 396.595 366.295C396.488 365.942 396.434 365.559 396.434 365.145C396.434 364.47 396.626 363.872 397.009 363.351C397.392 362.83 397.906 362.423 398.55 362.132C399.209 361.825 399.945 361.672 400.758 361.672C401.325 361.672 401.885 361.749 402.437 361.902C403.004 362.055 403.526 362.278 404.001 362.569C404.476 362.86 404.875 363.205 405.197 363.604L403.84 365.099C403.549 364.808 403.227 364.555 402.874 364.34C402.537 364.11 402.192 363.934 401.839 363.811C401.486 363.688 401.164 363.627 400.873 363.627C400.551 363.627 400.26 363.658 399.999 363.719C399.738 363.78 399.516 363.872 399.332 363.995C399.163 364.118 399.033 364.271 398.941 364.455C398.849 364.639 398.803 364.846 398.803 365.076C398.818 365.275 398.864 365.467 398.941 365.651C399.033 365.82 399.156 365.965 399.309 366.088C399.478 366.211 399.731 366.341 400.068 366.479C400.405 366.617 400.835 366.747 401.356 366.87C402.123 367.069 402.751 367.292 403.242 367.537C403.748 367.767 404.147 368.035 404.438 368.342C404.745 368.633 404.959 368.971 405.082 369.354C405.205 369.737 405.266 370.167 405.266 370.642C405.266 371.332 405.067 371.953 404.668 372.505C404.285 373.042 403.763 373.463 403.104 373.77C402.445 374.077 401.709 374.23 400.896 374.23ZM419.751 374.23C418.57 374.23 417.512 373.962 416.577 373.425C415.657 372.873 414.929 372.129 414.392 371.194C413.855 370.243 413.587 369.162 413.587 367.951C413.587 366.74 413.855 365.666 414.392 364.731C414.929 363.78 415.657 363.037 416.577 362.5C417.512 361.948 418.57 361.672 419.751 361.672C420.916 361.672 421.959 361.948 422.879 362.5C423.814 363.037 424.55 363.78 425.087 364.731C425.624 365.666 425.892 366.74 425.892 367.951C425.892 369.162 425.624 370.243 425.087 371.194C424.55 372.129 423.814 372.873 422.879 373.425C421.959 373.962 420.916 374.23 419.751 374.23ZM419.751 372.068C420.472 372.068 421.116 371.892 421.683 371.539C422.25 371.171 422.695 370.68 423.017 370.067C423.339 369.438 423.492 368.733 423.477 367.951C423.492 367.154 423.339 366.448 423.017 365.835C422.695 365.206 422.25 364.716 421.683 364.363C421.116 364.01 420.472 363.834 419.751 363.834C419.03 363.834 418.379 364.018 417.796 364.386C417.229 364.739 416.784 365.229 416.462 365.858C416.14 366.471 415.987 367.169 416.002 367.951C415.987 368.733 416.14 369.438 416.462 370.067C416.784 370.68 417.229 371.171 417.796 371.539C418.379 371.892 419.03 372.068 419.751 372.068ZM430.991 374L426.874 361.925L429.266 361.902L432.21 370.941L431.681 370.895L434.878 363.834H436.304L439.524 370.918L438.903 370.964L441.87 361.925H444.262L440.191 374H438.558L435.2 366.318L435.729 366.387L432.601 374H430.991ZM446.42 374V361.925H448.789V364.409L448.375 364.685C448.528 364.148 448.827 363.658 449.272 363.213C449.716 362.753 450.245 362.385 450.859 362.109C451.472 361.818 452.101 361.672 452.745 361.672C453.665 361.672 454.431 361.856 455.045 362.224C455.658 362.577 456.118 363.121 456.425 363.857C456.731 364.593 456.885 365.521 456.885 366.64V374H454.516V366.801C454.516 366.111 454.424 365.544 454.24 365.099C454.056 364.639 453.772 364.309 453.389 364.11C453.005 363.895 452.53 363.803 451.963 363.834C451.503 363.834 451.081 363.911 450.698 364.064C450.314 364.202 449.977 364.401 449.686 364.662C449.41 364.923 449.187 365.229 449.019 365.582C448.865 365.919 448.789 366.287 448.789 366.686V374H447.616C447.416 374 447.217 374 447.018 374C446.818 374 446.619 374 446.42 374ZM330.656 403V385.98H333.025V393.409L332.611 393.685C332.764 393.148 333.063 392.658 333.508 392.213C333.953 391.753 334.482 391.385 335.095 391.109C335.708 390.818 336.337 390.672 336.981 390.672C337.901 390.672 338.668 390.856 339.281 391.224C339.894 391.577 340.354 392.121 340.661 392.857C340.968 393.593 341.121 394.521 341.121 395.64V403H338.752V395.801C338.752 395.111 338.66 394.544 338.476 394.099C338.292 393.639 338.008 393.309 337.625 393.11C337.242 392.895 336.766 392.803 336.199 392.834C335.739 392.834 335.317 392.911 334.934 393.064C334.551 393.202 334.213 393.401 333.922 393.662C333.646 393.923 333.424 394.229 333.255 394.582C333.102 394.919 333.025 395.287 333.025 395.686V403H331.852C331.653 403 331.453 403 331.254 403C331.055 403 330.855 403 330.656 403ZM351.488 403V395.134C351.488 394.459 351.242 393.915 350.752 393.501C350.276 393.072 349.671 392.857 348.935 392.857C348.26 392.857 347.647 392.995 347.095 393.271C346.558 393.547 346.067 393.969 345.623 394.536L344.082 392.995C344.802 392.213 345.577 391.63 346.405 391.247C347.248 390.864 348.153 390.672 349.119 390.672C350.039 390.672 350.836 390.825 351.511 391.132C352.185 391.439 352.707 391.891 353.075 392.489C353.443 393.072 353.627 393.785 353.627 394.628V403H351.488ZM347.877 403.23C347.095 403.23 346.397 403.077 345.784 402.77C345.17 402.463 344.68 402.042 344.312 401.505C343.959 400.953 343.783 400.309 343.783 399.573C343.783 398.929 343.898 398.362 344.128 397.871C344.358 397.38 344.695 396.974 345.14 396.652C345.6 396.33 346.167 396.085 346.842 395.916C347.532 395.747 348.321 395.663 349.211 395.663H352.569L352.362 397.549H348.912C348.452 397.549 348.038 397.595 347.67 397.687C347.317 397.764 347.01 397.894 346.75 398.078C346.504 398.247 346.32 398.454 346.198 398.699C346.075 398.929 346.014 399.205 346.014 399.527C346.014 399.864 346.098 400.163 346.267 400.424C346.435 400.669 346.665 400.861 346.957 400.999C347.248 401.137 347.585 401.206 347.969 401.206C348.521 401.206 349.042 401.114 349.533 400.93C350.039 400.731 350.483 400.462 350.867 400.125C351.265 399.788 351.572 399.412 351.787 398.998L352.339 400.539C352.017 401.076 351.618 401.543 351.143 401.942C350.667 402.341 350.154 402.655 349.602 402.885C349.05 403.115 348.475 403.23 347.877 403.23ZM360.646 403.23C359.634 403.23 358.722 403.054 357.909 402.701C357.096 402.348 356.422 401.827 355.885 401.137L357.495 399.757C357.955 400.294 358.453 400.685 358.99 400.93C359.542 401.16 360.163 401.275 360.853 401.275C361.129 401.275 361.382 401.244 361.612 401.183C361.857 401.106 362.064 400.999 362.233 400.861C362.417 400.723 362.555 400.562 362.647 400.378C362.739 400.179 362.785 399.964 362.785 399.734C362.785 399.335 362.639 399.013 362.348 398.768C362.195 398.661 361.949 398.546 361.612 398.423C361.29 398.285 360.868 398.147 360.347 398.009C359.458 397.779 358.729 397.518 358.162 397.227C357.595 396.936 357.158 396.606 356.851 396.238C356.621 395.947 356.452 395.632 356.345 395.295C356.238 394.942 356.184 394.559 356.184 394.145C356.184 393.47 356.376 392.872 356.759 392.351C357.142 391.83 357.656 391.423 358.3 391.132C358.959 390.825 359.695 390.672 360.508 390.672C361.075 390.672 361.635 390.749 362.187 390.902C362.754 391.055 363.276 391.278 363.751 391.569C364.226 391.86 364.625 392.205 364.947 392.604L363.59 394.099C363.299 393.808 362.977 393.555 362.624 393.34C362.287 393.11 361.942 392.934 361.589 392.811C361.236 392.688 360.914 392.627 360.623 392.627C360.301 392.627 360.01 392.658 359.749 392.719C359.488 392.78 359.266 392.872 359.082 392.995C358.913 393.118 358.783 393.271 358.691 393.455C358.599 393.639 358.553 393.846 358.553 394.076C358.568 394.275 358.614 394.467 358.691 394.651C358.783 394.82 358.906 394.965 359.059 395.088C359.228 395.211 359.481 395.341 359.818 395.479C360.155 395.617 360.585 395.747 361.106 395.87C361.873 396.069 362.501 396.292 362.992 396.537C363.498 396.767 363.897 397.035 364.188 397.342C364.495 397.633 364.709 397.971 364.832 398.354C364.955 398.737 365.016 399.167 365.016 399.642C365.016 400.332 364.817 400.953 364.418 401.505C364.035 402.042 363.513 402.463 362.854 402.77C362.195 403.077 361.459 403.23 360.646 403.23ZM367.627 403V385.98H369.996V393.409L369.582 393.685C369.735 393.148 370.034 392.658 370.479 392.213C370.923 391.753 371.452 391.385 372.066 391.109C372.679 390.818 373.308 390.672 373.952 390.672C374.872 390.672 375.638 390.856 376.252 391.224C376.865 391.577 377.325 392.121 377.632 392.857C377.938 393.593 378.092 394.521 378.092 395.64V403H375.723V395.801C375.723 395.111 375.631 394.544 375.447 394.099C375.263 393.639 374.979 393.309 374.596 393.11C374.212 392.895 373.737 392.803 373.17 392.834C372.71 392.834 372.288 392.911 371.905 393.064C371.521 393.202 371.184 393.401 370.893 393.662C370.617 393.923 370.394 394.229 370.226 394.582C370.072 394.919 369.996 395.287 369.996 395.686V403H368.823C368.623 403 368.424 403 368.225 403C368.025 403 367.826 403 367.627 403Z" fill="#0D0D0D"/>
<path d="M318 34H237" stroke="#0D0D0D" stroke-width="5"/>
<path d="M318 382L237 382" stroke="#0D0D0D" stroke-width="5"/>
<path d="M238.385 528.292H31.5009C21.7609 528.292 13.8651 536.828 13.8651 547.357L13.8651 761.696C13.8651 772.225 21.7609 780.761 31.5009 780.761H238.385C248.125 780.761 256.021 772.225 256.021 761.696V547.357C256.021 536.828 248.125 528.292 238.385 528.292Z" fill="black"/>
<path d="M232.52 521.954H25.6358C15.8958 521.954 8 530.49 8 541.019L8 755.359C8 765.888 15.8958 774.423 25.6358 774.423H232.52C242.26 774.423 250.156 765.888 250.156 755.359L250.156 541.019C250.156 530.49 242.26 521.954 232.52 521.954Z" fill="white" stroke="black" stroke-width="2" stroke-miterlimit="10"/>
<path d="M211.591 578.536C211.59 584.586 209.525 590.423 205.792 594.93C202.058 599.436 196.917 602.295 191.355 602.96C185.792 603.624 180.199 602.047 175.645 598.53C171.091 595.013 167.897 589.804 166.675 583.9H88.1883C86.9662 589.804 83.7723 595.014 79.2183 598.53C74.6644 602.047 69.0704 603.624 63.5077 602.96C57.945 602.295 52.8046 599.435 49.0709 594.929C45.3372 590.422 43.2726 584.584 43.2726 578.534C43.2726 572.484 45.3372 566.647 49.0709 562.14C52.8046 557.633 57.945 554.774 63.5077 554.109C69.0704 553.444 74.6644 555.021 79.2183 558.538C83.7723 562.055 86.9662 567.264 88.1883 573.168H166.675C167.898 567.264 171.092 562.055 175.646 558.538C180.2 555.021 185.794 553.444 191.357 554.109C196.92 554.774 202.06 557.634 205.794 562.141C209.527 566.648 211.591 572.486 211.591 578.536Z" stroke="black" stroke-width="2" stroke-miterlimit="10"/>
<path d="M215.427 582.685C215.426 588.735 213.362 594.571 209.628 599.078C205.894 603.584 200.754 606.443 195.191 607.107C189.629 607.771 184.035 606.194 179.481 602.678C174.927 599.161 171.734 593.952 170.512 588.049H92.0244C90.8023 593.953 87.6084 599.161 83.0545 602.678C78.5005 606.194 72.9065 607.771 67.3438 607.107C61.7811 606.442 56.6407 603.583 52.907 599.076C49.1733 594.57 47.1088 588.733 47.1088 582.683C47.1088 576.633 49.1733 570.796 52.907 566.29C56.6407 561.783 61.7811 558.924 67.3438 558.259C72.9065 557.595 78.5005 559.172 83.0545 562.688C87.6084 566.205 90.8023 571.414 92.0244 577.317H170.512C171.734 571.413 174.928 566.204 179.482 562.688C184.036 559.171 189.63 557.594 195.193 558.259C200.756 558.924 205.896 561.784 209.63 566.291C213.363 570.798 215.427 576.635 215.427 582.685V582.685Z" stroke="black" stroke-width="2" stroke-miterlimit="10"/>
<path d="M207.75 574.388C207.749 580.438 205.684 586.274 201.951 590.781C198.217 595.287 193.076 598.146 187.514 598.811C181.951 599.475 176.358 597.898 171.804 594.381C167.25 590.865 164.056 585.656 162.834 579.752H84.3472C83.1251 585.656 79.9312 590.865 75.3773 594.381C70.8233 597.898 65.2293 599.475 59.6666 598.811C54.1039 598.146 48.9635 595.287 45.2298 590.78C41.4961 586.273 39.4316 580.436 39.4316 574.386C39.4316 568.336 41.4961 562.498 45.2298 557.992C48.9635 553.485 54.1039 550.625 59.6666 549.961C65.2293 549.296 70.8233 550.873 75.3773 554.39C79.9312 557.907 83.1251 563.116 84.3472 569.02H162.834C164.056 563.115 167.25 557.906 171.805 554.39C176.359 550.873 181.953 549.296 187.516 549.961C193.079 550.626 198.219 553.486 201.953 557.993C205.686 562.5 207.75 568.338 207.75 574.388Z" fill="white" stroke="black" stroke-width="2" stroke-miterlimit="10"/>
<path d="M62.1608 594.511C72.4425 594.511 80.7774 585.501 80.7774 574.387C80.7774 563.273 72.4425 554.263 62.1608 554.263C51.8792 554.263 43.5443 563.273 43.5443 574.387C43.5443 585.501 51.8792 594.511 62.1608 594.511Z" fill="black"/>
<path d="M185.021 594.511C195.302 594.511 203.637 585.501 203.637 574.387C203.637 563.273 195.302 554.263 185.021 554.263C174.739 554.263 166.404 563.273 166.404 574.387C166.404 585.501 174.739 594.511 185.021 594.511Z" fill="black"/>
<path d="M211.591 644.63C211.59 650.68 209.525 656.517 205.792 661.023C202.058 665.53 196.917 668.389 191.355 669.053C185.792 669.718 180.199 668.14 175.645 664.624C171.091 661.107 167.897 655.898 166.675 649.994H88.1883C86.9662 655.898 83.7723 661.107 79.2183 664.624C74.6644 668.141 69.0704 669.718 63.5077 669.053C57.945 668.389 52.8046 665.529 49.0709 661.022C45.3372 656.515 43.2726 650.678 43.2726 644.628C43.2726 638.578 45.3372 632.74 49.0709 628.233C52.8046 623.727 57.945 620.867 63.5077 620.202C69.0704 619.538 74.6644 621.115 79.2183 624.632C83.7723 628.148 86.9662 633.358 88.1883 639.262H166.675C167.898 633.357 171.092 628.148 175.646 624.631C180.2 621.115 185.794 619.538 191.357 620.203C196.92 620.867 202.06 623.727 205.794 628.235C209.527 632.742 211.591 638.58 211.591 644.63Z" stroke="black" stroke-width="2" stroke-miterlimit="10"/>
<path d="M215.427 648.779C215.426 654.829 213.362 660.666 209.628 665.172C205.894 669.679 200.754 672.538 195.191 673.202C189.628 673.866 184.035 672.289 179.481 668.773C174.927 665.256 171.734 660.047 170.512 654.143H92.0244C90.8023 660.047 87.6084 665.256 83.0545 668.773C78.5005 672.289 72.9065 673.867 67.3438 673.202C61.7811 672.537 56.6407 669.678 52.907 665.171C49.1733 660.664 47.1088 654.827 47.1088 648.777C47.1088 642.727 49.1733 636.89 52.907 632.383C56.6407 627.876 61.7811 625.017 67.3438 624.352C72.9065 623.687 78.5005 625.265 83.0545 628.781C87.6084 632.298 90.8023 637.507 92.0244 643.411H170.512C171.734 637.507 174.928 632.298 179.482 628.781C184.036 625.264 189.63 623.687 195.193 624.352C200.756 625.017 205.896 627.877 209.63 632.384C213.363 636.891 215.427 642.729 215.427 648.779V648.779Z" stroke="black" stroke-width="2" stroke-miterlimit="10"/>
<path d="M207.75 640.482C207.749 646.532 205.684 652.369 201.951 656.875C198.217 661.381 193.076 664.24 187.514 664.905C181.951 665.569 176.358 663.992 171.804 660.475C167.25 656.959 164.056 651.75 162.834 645.846H84.3472C83.1251 651.75 79.9312 656.959 75.3773 660.476C70.8233 663.992 65.2293 665.569 59.6666 664.905C54.1039 664.24 48.9635 661.381 45.2298 656.874C41.4961 652.367 39.4316 646.53 39.4316 640.48C39.4316 634.43 41.4961 628.593 45.2298 624.086C48.9635 619.579 54.1039 616.72 59.6666 616.055C65.2293 615.391 70.8233 616.968 75.3773 620.485C79.9312 624.001 83.1251 629.21 84.3472 635.114H162.834C164.056 629.21 167.25 624.001 171.805 620.484C176.359 616.968 181.953 615.391 187.516 616.056C193.079 616.72 198.219 619.58 201.953 624.087C205.686 628.595 207.75 634.432 207.75 640.482Z" fill="white" stroke="black" stroke-width="2" stroke-miterlimit="10"/>
<path d="M62.1608 660.604C72.4425 660.604 80.7774 651.594 80.7774 640.48C80.7774 629.365 72.4425 620.355 62.1608 620.355C51.8792 620.355 43.5443 629.365 43.5443 640.48C43.5443 651.594 51.8792 660.604 62.1608 660.604Z" fill="black"/>
<path d="M185.021 660.604C195.302 660.604 203.637 651.594 203.637 640.48C203.637 629.365 195.302 620.355 185.021 620.355C174.739 620.355 166.404 629.365 166.404 640.48C166.404 651.594 174.739 660.604 185.021 660.604Z" fill="black"/>
<path d="M211.591 710.724C211.59 716.774 209.525 722.611 205.792 727.117C202.058 731.624 196.917 734.483 191.355 735.147C185.792 735.812 180.199 734.235 175.645 730.718C171.091 727.201 167.897 721.992 166.675 716.088H88.1883C86.9662 721.992 83.7723 727.201 79.2183 730.718C74.6644 734.235 69.0704 735.812 63.5077 735.147C57.945 734.483 52.8046 731.623 49.0709 727.116C45.3372 722.609 43.2726 716.772 43.2726 710.722C43.2726 704.672 45.3372 698.835 49.0709 694.328C52.8046 689.821 57.945 686.961 63.5077 686.297C69.0704 685.632 74.6644 687.209 79.2183 690.726C83.7723 694.243 86.9662 699.452 88.1883 705.356H166.675C167.898 699.452 171.092 694.242 175.646 690.726C180.2 687.209 185.794 685.632 191.357 686.297C196.92 686.962 202.06 689.822 205.794 694.329C209.527 698.836 211.591 704.674 211.591 710.724V710.724Z" stroke="black" stroke-width="2" stroke-miterlimit="10"/>
<path d="M215.427 714.872C215.426 720.922 213.362 726.759 209.628 731.265C205.894 735.772 200.754 738.631 195.191 739.295C189.629 739.959 184.035 738.382 179.481 734.865C174.927 731.349 171.734 726.14 170.512 720.236H92.0244C90.8023 726.14 87.6084 731.349 83.0545 734.866C78.5005 738.382 72.9065 739.959 67.3438 739.295C61.7811 738.63 56.6407 735.771 52.907 731.264C49.1733 726.757 47.1088 720.92 47.1088 714.87C47.1088 708.82 49.1733 702.983 52.907 698.476C56.6407 693.97 61.7811 691.11 67.3438 690.446C72.9065 689.781 78.5005 691.358 83.0545 694.875C87.6084 698.391 90.8023 703.6 92.0244 709.504H170.512C171.734 703.6 174.928 698.391 179.482 694.874C184.036 691.358 189.63 689.781 195.193 690.446C200.756 691.111 205.896 693.97 209.63 698.478C213.363 702.985 215.427 708.822 215.427 714.872V714.872Z" stroke="black" stroke-width="2" stroke-miterlimit="10"/>
<path d="M207.75 706.576C207.749 712.625 205.684 718.462 201.951 722.969C198.217 727.475 193.076 730.334 187.514 730.998C181.951 731.663 176.358 730.085 171.804 726.569C167.25 723.052 164.056 717.843 162.834 711.94H84.3472C83.1251 717.843 79.9312 723.052 75.3773 726.569C70.8233 730.086 65.2293 731.663 59.6666 730.998C54.1039 730.334 48.9635 727.474 45.2298 722.967C41.4961 718.461 39.4316 712.623 39.4316 706.574C39.4316 700.524 41.4961 694.686 45.2298 690.18C48.9635 685.673 54.1039 682.814 59.6666 682.149C65.2293 681.484 70.8233 683.061 75.3773 686.578C79.9312 690.095 83.1251 695.304 84.3472 701.208H162.834C164.056 695.304 167.25 690.094 171.805 686.578C176.359 683.061 181.953 681.484 187.516 682.149C193.079 682.814 198.219 685.674 201.953 690.181C205.686 694.688 207.75 700.526 207.75 706.576Z" fill="white" stroke="black" stroke-width="2" stroke-miterlimit="10"/>
<path d="M62.1608 726.698C72.4425 726.698 80.7774 717.688 80.7774 706.573C80.7774 695.459 72.4425 686.448 62.1608 686.448C51.8792 686.448 43.5443 695.459 43.5443 706.573C43.5443 717.688 51.8792 726.698 62.1608 726.698Z" fill="black"/>
<path d="M185.021 726.698C195.302 726.698 203.637 717.688 203.637 706.573C203.637 695.459 195.302 686.448 185.021 686.448C174.739 686.448 166.404 695.459 166.404 706.573C166.404 717.688 174.739 726.698 185.021 726.698Z" fill="black"/>
<path d="M258.001 475.411V503.612C258.001 503.618 257.999 503.624 257.997 503.629C257.995 503.635 257.992 503.639 257.988 503.643C257.985 503.648 257.98 503.651 257.975 503.653C257.97 503.655 257.964 503.656 257.959 503.656H16.3596C16.3541 503.656 16.3487 503.655 16.3437 503.653C16.3386 503.651 16.334 503.648 16.3302 503.643C16.3263 503.639 16.3233 503.635 16.3212 503.629C16.3191 503.624 16.318 503.618 16.318 503.612V475.411C16.3192 480.193 18.1113 484.782 21.3059 488.183C24.5005 491.584 28.8399 493.522 33.3832 493.577C37.9265 493.633 42.3075 491.801 45.5761 488.479C48.8447 485.157 50.7374 480.613 50.8439 475.832C50.8387 471.204 52.4721 466.741 55.4254 463.313C58.3787 459.884 62.4398 457.738 66.8159 457.292C69.1852 457.104 71.5657 457.434 73.8084 458.259C76.0511 459.085 78.1078 460.389 79.8496 462.09C81.5914 463.791 82.9809 465.852 83.931 468.144C84.8811 470.436 85.3715 472.91 85.3713 475.411C85.3713 480.229 87.1899 484.85 90.427 488.258C93.6642 491.665 98.0547 493.579 102.633 493.579C107.211 493.579 111.601 491.665 114.838 488.258C118.075 484.85 119.894 480.229 119.894 475.411C119.894 470.591 121.713 465.969 124.951 462.561C128.189 459.153 132.58 457.238 137.159 457.238C141.738 457.238 146.13 459.153 149.368 462.561C152.605 465.969 154.424 470.591 154.424 475.411C154.425 480.193 156.217 484.782 159.412 488.182C162.607 491.582 166.946 493.52 171.489 493.575C176.032 493.629 180.412 491.796 183.68 488.474C186.947 485.151 188.838 480.606 188.943 475.825C188.938 471.199 190.571 466.737 193.523 463.311C196.476 459.884 200.535 457.738 204.91 457.292C207.28 457.104 209.661 457.433 211.905 458.258C214.149 459.083 216.206 460.386 217.949 462.087C219.692 463.788 221.083 465.849 222.034 468.142C222.986 470.434 223.477 472.909 223.478 475.411C223.478 480.229 225.296 484.85 228.534 488.258C231.771 491.665 236.161 493.579 240.739 493.579C245.317 493.579 249.708 491.665 252.945 488.258C256.182 484.85 258.001 480.229 258.001 475.411H258.001Z" fill="black"/>
<path d="M250.171 467.172V495.372C250.171 495.384 250.167 495.395 250.159 495.403C250.151 495.411 250.141 495.416 250.129 495.416H8.53014C8.52467 495.416 8.51926 495.415 8.51421 495.413C8.50916 495.411 8.50457 495.407 8.50071 495.403C8.49684 495.399 8.49378 495.394 8.49169 495.389C8.4896 495.384 8.48852 495.378 8.48853 495.372V467.172C8.48968 471.954 10.2819 476.543 13.4764 479.943C16.671 483.344 21.0104 485.282 25.5537 485.338C30.097 485.393 34.478 483.561 37.7466 480.24C41.0152 476.918 42.9079 472.374 43.0144 467.593C43.0092 462.966 44.6427 458.502 47.596 455.074C50.5492 451.646 54.6103 449.5 58.9864 449.054C61.3557 448.866 63.7362 449.196 65.9789 450.021C68.2216 450.847 70.2783 452.151 72.0201 453.852C73.7619 455.552 75.1514 457.613 76.1015 459.905C77.0516 462.197 77.5419 464.671 77.5418 467.172C77.5418 471.99 79.3604 476.611 82.5975 480.018C85.8346 483.425 90.2251 485.339 94.8031 485.339C99.3811 485.339 103.772 483.425 107.009 480.018C110.246 476.611 112.065 471.99 112.065 467.172C112.065 462.352 113.884 457.73 117.121 454.322C120.359 450.915 124.751 449 129.33 449C133.909 449 138.3 450.915 141.538 454.322C144.776 457.73 146.595 462.352 146.595 467.172C146.596 471.954 148.388 476.543 151.582 479.943C154.777 483.343 159.116 485.281 163.66 485.336C168.203 485.39 172.583 483.557 175.851 480.234C179.118 476.912 181.009 472.367 181.113 467.586C181.108 462.961 182.741 458.499 185.694 455.072C188.646 451.646 192.706 449.5 197.08 449.054C199.45 448.866 201.832 449.195 204.075 450.02C206.319 450.845 208.377 452.148 210.12 453.849C211.863 455.55 213.254 457.611 214.205 459.903C215.156 462.196 215.648 464.67 215.648 467.172C215.648 471.99 217.467 476.611 220.704 480.018C223.941 483.425 228.332 485.339 232.91 485.339C237.488 485.339 241.878 483.425 245.115 480.018C248.352 476.611 250.171 471.99 250.171 467.172H250.171Z" fill="#01F293" stroke="black" stroke-width="2" stroke-miterlimit="10"/>
<path d="M208 705.502C208 711.78 205.926 717.837 202.177 722.513C198.428 727.189 193.267 730.156 187.682 730.846C182.097 731.535 176.481 729.898 171.909 726.249C167.336 722.6 164.13 717.195 162.903 711.068H84.0976C82.8706 717.195 79.6637 722.6 75.0913 726.25C70.5189 729.899 64.9023 731.535 59.317 730.846C53.7318 730.156 48.5705 727.189 44.8217 722.512C41.0729 717.835 39 711.778 39 705.5C39 699.222 41.0729 693.165 44.8217 688.488C48.5705 683.811 53.7318 680.844 59.317 680.154C64.9023 679.465 70.5189 681.101 75.0913 684.75C79.6637 688.4 82.8706 693.805 84.0976 699.932H162.903C164.13 693.805 167.337 688.399 171.909 684.75C176.482 681.101 182.099 679.465 187.684 680.155C193.269 680.844 198.431 683.812 202.179 688.489C205.928 693.166 208.001 699.224 208 705.502V705.502Z" fill="white" stroke="black" stroke-width="2" stroke-miterlimit="10"/>
<path d="M61.8273 726.522C72.1537 726.522 80.5249 717.144 80.5249 705.576C80.5249 694.008 72.1537 684.63 61.8273 684.63C51.5009 684.63 43.1297 694.008 43.1297 705.576C43.1297 717.144 51.5009 726.522 61.8273 726.522Z" fill="#0D0D0D"/>
<path d="M55.2322 695.655V704.254" stroke="white" stroke-width="4" stroke-miterlimit="10" stroke-linecap="round"/>
<path d="M68.4203 695.655V704.253" stroke="white" stroke-width="4" stroke-miterlimit="10" stroke-linecap="round"/>
<path d="M74.7773 707.558C72.714 715.377 66.6558 718.361 61.8268 718.361C56.9979 718.361 50.9396 715.377 48.8763 707.558" stroke="white" stroke-width="4" stroke-miterlimit="10" stroke-linecap="round"/>
<path d="M185.224 726.524C195.55 726.524 203.922 717.146 203.922 705.577C203.922 694.009 195.55 684.631 185.224 684.631C174.898 684.631 166.526 694.009 166.526 705.577C166.526 717.146 174.898 726.524 185.224 726.524Z" fill="#0D0D0D"/>
<path d="M198.174 707.558C196.111 715.378 190.052 718.362 185.223 718.362C180.394 718.362 174.336 715.378 172.273 707.558" stroke="white" stroke-width="4" stroke-miterlimit="10" stroke-linecap="round"/>
<path d="M178.629 695.655V704.254" stroke="white" stroke-width="4" stroke-miterlimit="10" stroke-linecap="round"/>
<path d="M191.819 695.655V704.254" stroke="white" stroke-width="4" stroke-miterlimit="10" stroke-linecap="round"/>
<rect x="85.2109" y="704.346" width="5.13468" height="2.86618" fill="#0D0D0D"/>
<rect x="157.096" y="704.345" width="5.13468" height="2.86618" fill="#0D0D0D"/>
<rect x="92.9149" y="704.345" width="10.2694" height="2.86618" fill="#0D0D0D"/>
<rect x="105.749" y="704.345" width="10.2694" height="2.86618" fill="#0D0D0D"/>
<rect x="118.588" y="704.345" width="10.2694" height="2.86618" fill="#0D0D0D"/>
<rect x="131.423" y="704.345" width="10.2694" height="2.86618" fill="#0D0D0D"/>
<rect x="144.259" y="704.345" width="10.2694" height="2.86618" fill="#0D0D0D"/>
<path d="M208 638.502C208 644.78 205.926 650.837 202.177 655.513C198.428 660.189 193.267 663.156 187.682 663.846C182.097 664.535 176.481 662.898 171.909 659.249C167.336 655.6 164.13 650.195 162.903 644.068H84.0976C82.8706 650.195 79.6637 655.6 75.0913 659.25C70.5189 662.899 64.9023 664.535 59.317 663.846C53.7318 663.156 48.5705 660.189 44.8217 655.512C41.0729 650.835 39 644.778 39 638.5C39 632.222 41.0729 626.165 44.8217 621.488C48.5705 616.811 53.7318 613.844 59.317 613.154C64.9023 612.465 70.5189 614.101 75.0913 617.75C79.6637 621.4 82.8706 626.805 84.0976 632.932H162.903C164.13 626.805 167.337 621.399 171.909 617.75C176.482 614.101 182.099 612.465 187.684 613.155C193.269 613.844 198.431 616.812 202.179 621.489C205.928 626.166 208.001 632.224 208 638.502V638.502Z" fill="white" stroke="black" stroke-width="2" stroke-miterlimit="10"/>
<path d="M61.8273 659.522C72.1537 659.522 80.5249 650.144 80.5249 638.576C80.5249 627.008 72.1537 617.63 61.8273 617.63C51.5009 617.63 43.1297 627.008 43.1297 638.576C43.1297 650.144 51.5009 659.522 61.8273 659.522Z" fill="#0D0D0D"/>
<path d="M55.2322 628.655V637.254" stroke="white" stroke-width="4" stroke-miterlimit="10" stroke-linecap="round"/>
<path d="M68.4203 628.655V637.253" stroke="white" stroke-width="4" stroke-miterlimit="10" stroke-linecap="round"/>
<path d="M74.7773 640.558C72.714 648.377 66.6558 651.361 61.8268 651.361C56.9979 651.361 50.9396 648.377 48.8763 640.558" stroke="white" stroke-width="4" stroke-miterlimit="10" stroke-linecap="round"/>
<path d="M185.224 659.524C195.55 659.524 203.922 650.146 203.922 638.577C203.922 627.009 195.55 617.631 185.224 617.631C174.898 617.631 166.526 627.009 166.526 638.577C166.526 650.146 174.898 659.524 185.224 659.524Z" fill="#0D0D0D"/>
<path d="M198.174 640.558C196.111 648.378 190.052 651.362 185.223 651.362C180.394 651.362 174.336 648.378 172.273 640.558" stroke="white" stroke-width="4" stroke-miterlimit="10" stroke-linecap="round"/>
<path d="M178.629 628.655V637.254" stroke="white" stroke-width="4" stroke-miterlimit="10" stroke-linecap="round"/>
<path d="M191.819 628.655V637.254" stroke="white" stroke-width="4" stroke-miterlimit="10" stroke-linecap="round"/>
<rect x="85.2109" y="637.346" width="5.13468" height="2.86618" fill="#0D0D0D"/>
<rect x="157.096" y="637.345" width="5.13468" height="2.86618" fill="#0D0D0D"/>
<rect x="92.9149" y="637.345" width="10.2694" height="2.86618" fill="#0D0D0D"/>
<rect x="105.749" y="637.345" width="10.2694" height="2.86618" fill="#0D0D0D"/>
<rect x="118.588" y="637.345" width="10.2694" height="2.86618" fill="#0D0D0D"/>
<rect x="131.423" y="637.345" width="10.2694" height="2.86618" fill="#0D0D0D"/>
<rect x="144.259" y="637.345" width="10.2694" height="2.86618" fill="#0D0D0D"/>
<path d="M250.465 800.539H16.7539V838.988L60.4805 817.125L98.1758 838.988L131.348 817.125L170.551 838.988L205.23 817.125L250.465 838.988V800.539Z" fill="black" stroke="black" stroke-width="3"/>
<path d="M247.449 793H13.7379V831.449L57.4645 809.586L95.1598 831.449L128.332 809.586L167.535 831.449L202.215 809.586L247.449 831.449V793Z" fill="white" stroke="black" stroke-width="3"/>
<path d="M208 573.502C208 579.534 205.926 585.353 202.177 589.846C198.428 594.339 193.267 597.189 187.682 597.852C182.097 598.514 176.481 596.942 171.909 593.436C167.336 589.929 164.13 584.736 162.903 578.85H84.0976C82.8706 584.736 79.6637 589.93 75.0913 593.436C70.5189 596.942 64.9023 598.514 59.317 597.852C53.7318 597.189 48.5705 594.338 44.8217 589.845C41.0729 585.352 39 579.532 39 573.5C39 567.468 41.0729 561.648 44.8217 557.155C48.5705 552.662 53.7318 549.811 59.317 549.148C64.9023 548.486 70.5189 550.058 75.0913 553.564C79.6637 557.07 82.8706 562.264 84.0976 568.15H162.903C164.13 562.264 167.337 557.07 171.909 553.564C176.482 550.058 182.099 548.486 187.684 549.148C193.269 549.811 198.431 552.663 202.179 557.156C205.928 561.65 208.001 567.47 208 573.502V573.502Z" fill="white" stroke="black" stroke-width="2" stroke-miterlimit="10"/>
<path d="M61.8273 593.698C72.1537 593.698 80.5249 584.688 80.5249 573.573C80.5249 562.459 72.1537 553.449 61.8273 553.449C51.5009 553.449 43.1297 562.459 43.1297 573.573C43.1297 584.688 51.5009 593.698 61.8273 593.698Z" fill="#0D0D0D"/>
<path d="M55.2322 564.041V572.303" stroke="white" stroke-width="4" stroke-miterlimit="10" stroke-linecap="round"/>
<path d="M68.4203 564.041V572.302" stroke="white" stroke-width="4" stroke-miterlimit="10" stroke-linecap="round"/>
<path d="M74.7773 575.477C72.714 582.99 66.6558 585.857 61.8268 585.857C56.9979 585.857 50.9396 582.99 48.8763 575.477" stroke="white" stroke-width="4" stroke-miterlimit="10" stroke-linecap="round"/>
<path d="M185.224 593.699C195.55 593.699 203.922 584.689 203.922 573.574C203.922 562.46 195.55 553.45 185.224 553.45C174.898 553.45 166.526 562.46 166.526 573.574C166.526 584.689 174.898 593.699 185.224 593.699Z" fill="#0D0D0D"/>
<path d="M198.174 575.477C196.111 582.99 190.052 585.858 185.223 585.858C180.394 585.858 174.336 582.99 172.273 575.477" stroke="white" stroke-width="4" stroke-miterlimit="10" stroke-linecap="round"/>
<path d="M178.629 564.041V572.303" stroke="white" stroke-width="4" stroke-miterlimit="10" stroke-linecap="round"/>
<path d="M191.819 564.041V572.303" stroke="white" stroke-width="4" stroke-miterlimit="10" stroke-linecap="round"/>
<rect x="85.2109" y="572.391" width="5.13468" height="2.75379" fill="#0D0D0D"/>
<rect x="157.096" y="572.391" width="5.13468" height="2.75379" fill="#0D0D0D"/>
<rect x="92.9149" y="572.391" width="10.2694" height="2.75379" fill="#0D0D0D"/>
<rect x="105.749" y="572.391" width="10.2694" height="2.75379" fill="#0D0D0D"/>
<rect x="118.588" y="572.391" width="10.2694" height="2.75379" fill="#0D0D0D"/>
<rect x="131.423" y="572.391" width="10.2694" height="2.75379" fill="#0D0D0D"/>
<rect x="144.259" y="572.391" width="10.2694" height="2.75379" fill="#0D0D0D"/>
<path d="M114.547 298L114.547 220" stroke="#0D0D0D" stroke-width="5"/>
<path d="M9.02063 69.4897V20.6678L25.3261 29.211C29.8881 31.6013 34.8918 32.843 39.9614 32.843C45.0311 32.843 50.0348 31.6013 54.5968 29.211L70.9023 20.6678L87.2078 29.2111C91.7698 31.6013 96.7735 32.8431 101.843 32.8431C106.913 32.8431 111.916 31.6013 116.478 29.2111L132.784 20.6678L149.089 29.211C153.651 31.6013 158.655 32.843 163.725 32.843C168.794 32.843 173.798 31.6013 178.36 29.211L194.666 20.6678L210.971 29.211C215.533 31.6013 220.537 32.843 225.606 32.843C230.676 32.843 235.68 31.6013 240.242 29.211L256.547 20.6678V69.4897H9.02063Z" fill="black"/>
<path d="M1.00171 60.8234V12L17.3072 20.5435C21.8692 22.9338 26.8729 24.1756 31.9425 24.1756C37.0122 24.1756 42.0159 22.9338 46.5779 20.5435L62.8834 12L79.1889 20.5435C83.7509 22.9338 88.7546 24.1756 93.8243 24.1756C98.8939 24.1756 103.898 22.9338 108.46 20.5435L124.765 12L141.071 20.5435C145.633 22.9338 150.636 24.1756 155.706 24.1756C160.776 24.1756 165.779 22.9338 170.341 20.5435L186.647 12L202.952 20.5435C207.514 22.9338 212.518 24.1756 217.588 24.1756C222.657 24.1756 227.661 22.9338 232.223 20.5435L248.529 12V60.8234H1.00171Z" fill="white" stroke="black" stroke-width="2" stroke-miterlimit="10"/>
<path d="M222.69 402.864V402.864C222.69 407.288 224.403 411.524 227.442 414.641C230.479 417.757 234.59 419.5 238.869 419.5C243.147 419.5 247.258 417.757 250.296 414.641C253.334 411.524 255.048 407.288 255.048 402.864V376.169H10.5192V402.411C10.5192 411.667 17.6314 419.372 26.4674 419.498L26.4682 419.498C30.7222 419.561 34.8358 417.899 37.9123 414.86C40.9901 411.82 42.7799 407.649 42.8806 403.25C43.1078 393.031 50.4301 384.045 60.625 383.282C63.2625 383.079 65.9118 383.437 68.4068 384.332C70.9022 385.227 73.1878 386.64 75.1216 388.481C77.0553 390.321 78.5956 392.549 79.648 395.023C80.7004 397.498 81.243 400.167 81.2428 402.864C81.2428 407.288 82.9564 411.524 85.9949 414.641C89.0322 417.757 93.1433 419.5 97.4217 419.5C101.7 419.5 105.811 417.757 108.848 414.641C111.887 411.524 113.601 407.288 113.601 402.864V402.863C113.604 397.669 115.618 392.681 119.21 388.998C122.804 385.313 127.686 383.236 132.783 383.236C137.881 383.236 142.763 385.313 146.357 388.998L145.311 390.018L146.357 388.998C149.949 392.681 151.963 397.669 151.966 402.863V402.864C151.966 407.255 153.655 411.462 156.653 414.574C159.651 417.684 163.715 419.449 167.961 419.499C172.207 419.549 176.309 417.879 179.374 414.841C182.441 411.801 184.222 407.635 184.32 403.245C184.32 403.245 184.32 403.245 184.32 403.245L185.82 403.278L222.69 402.864ZM222.69 402.864C222.689 400.166 222.145 397.496 221.092 395.021M222.69 402.864L221.092 395.021M256.505 374.712L256.505 374.712M256.505 374.712L256.505 374.713L256.505 374.712ZM256.505 374.712L256.505 374.712M256.505 374.712L256.505 374.712M256.505 374.712L256.505 374.712M256.505 374.712L256.544 374.696L256.505 374.712ZM221.092 395.021C220.038 392.546 218.496 390.318 216.561 388.478M221.092 395.021L216.561 388.478M216.561 388.478C214.626 386.637 212.34 385.225 209.843 384.33M216.561 388.478L209.843 384.33M209.843 384.33C207.347 383.435 204.697 383.079 202.059 383.283L209.843 384.33Z" stroke="#0D0D0D" stroke-width="3"/>
<path d="M248.486 366.445C248.491 366.445 248.497 366.446 248.502 366.448C248.507 366.45 248.512 366.453 248.516 366.458C248.52 366.462 248.523 366.466 248.525 366.472C248.527 366.477 248.528 366.483 248.528 366.488V394.639C248.528 399.449 246.666 404.062 243.35 407.463C240.035 410.864 235.538 412.775 230.849 412.775C226.161 412.775 221.664 410.864 218.349 407.463C215.033 404.062 213.171 399.449 213.171 394.639C213.17 392.142 212.666 389.672 211.692 387.384C210.718 385.095 209.294 383.038 207.508 381.34C205.723 379.642 203.616 378.341 201.318 377.517C199.02 376.694 196.581 376.366 194.153 376.554C184.849 377.251 178.009 385.486 177.8 395.053C177.694 399.826 175.758 404.363 172.411 407.681C169.065 410.998 164.578 412.828 159.924 412.774C155.271 412.719 150.826 410.785 147.554 407.39C144.282 403.995 142.447 399.413 142.447 394.639C142.444 389.83 140.579 385.22 137.264 381.82C133.948 378.421 129.452 376.512 124.764 376.512C120.076 376.512 115.581 378.421 112.265 381.82C108.949 385.22 107.085 389.83 107.081 394.639C107.081 399.449 105.219 404.062 101.903 407.463C98.5879 410.864 94.0912 412.775 89.4024 412.775C84.7137 412.775 80.217 410.864 76.9015 407.463C73.5861 404.062 71.7235 399.449 71.7235 394.639C71.7237 392.143 71.2215 389.673 70.2484 387.385C69.2753 385.098 67.8522 383.04 66.0683 381.342C64.2843 379.645 62.1779 378.343 59.8809 377.519C57.584 376.695 55.1459 376.366 52.7193 376.553C43.4108 377.249 36.5734 385.488 36.3609 395.06C36.2515 399.841 34.3058 404.385 30.9472 407.702C27.5885 411.019 23.0887 412.842 18.4268 412.773C8.68836 412.634 1 404.177 1 394.186V366.488C1 366.477 1.00449 366.466 1.01248 366.458C1.02047 366.449 1.03131 366.445 1.04261 366.445H248.486Z" fill="#01F293" stroke="black" stroke-width="2" stroke-miterlimit="10"/>
<path d="M236.495 92.2251H25.0221C15.0661 92.2251 6.99518 100.95 6.99518 111.712V330.805C6.99518 341.568 15.0661 350.293 25.0221 350.293H236.495C246.451 350.293 254.522 341.568 254.522 330.805V111.712C254.522 100.95 246.451 92.2251 236.495 92.2251Z" fill="black"/>
<path d="M230.5 85.7454H19.027C9.07095 85.7454 1 94.4702 1 105.233V324.326C1 335.089 9.07095 343.814 19.027 343.814H230.5C240.456 343.814 248.527 335.089 248.527 324.326V105.233C248.527 94.4702 240.456 85.7454 230.5 85.7454Z" fill="white" stroke="black" stroke-width="2" stroke-miterlimit="10"/>
<path d="M209.107 143.584C209.106 149.768 206.996 155.734 203.179 160.341C199.362 164.948 194.108 167.87 188.422 168.549C182.736 169.228 177.018 167.616 172.364 164.021C167.709 160.426 164.444 155.102 163.195 149.067H82.9674C81.7182 155.102 78.4535 160.427 73.7985 164.022C69.1435 167.616 63.4255 169.228 57.7394 168.549C52.0534 167.87 46.7989 164.947 42.9824 160.34C39.1659 155.733 37.0556 149.766 37.0556 143.582C37.0556 137.397 39.1659 131.43 42.9824 126.823C46.7989 122.217 52.0534 119.294 57.7394 118.614C63.4255 117.935 69.1435 119.547 73.7985 123.142C78.4535 126.737 81.7182 132.061 82.9674 138.096H163.195C164.444 132.061 167.709 126.736 172.364 123.141C177.02 119.547 182.738 117.935 188.424 118.614C194.11 119.294 199.365 122.217 203.181 126.825C206.997 131.432 209.107 137.399 209.107 143.584Z" stroke="black" stroke-width="2" stroke-miterlimit="10"/>
<path d="M213.027 147.823C213.027 154.007 210.916 159.974 207.1 164.58C203.283 169.187 198.029 172.11 192.343 172.789C186.657 173.468 180.939 171.856 176.284 168.261C171.63 164.666 168.365 159.341 167.116 153.306H86.8881C85.6388 159.341 82.3741 164.666 77.7192 168.261C73.0642 171.856 67.3461 173.468 61.6601 172.789C55.974 172.109 50.7196 169.186 46.9031 164.579C43.0866 159.972 40.9763 154.005 40.9763 147.821C40.9763 141.637 43.0866 135.67 46.9031 131.063C50.7196 126.456 55.974 123.533 61.6601 122.854C67.3461 122.174 73.0642 123.786 77.7192 127.381C82.3741 130.976 85.6388 136.301 86.8881 142.336H167.116C168.365 136.301 171.63 130.976 176.285 127.381C180.94 123.786 186.659 122.174 192.345 122.854C198.031 123.533 203.285 126.457 207.102 131.064C210.918 135.671 213.028 141.639 213.027 147.823V147.823Z" stroke="black" stroke-width="2" stroke-miterlimit="10"/>
<path d="M205.181 139.342C205.181 145.526 203.07 151.493 199.253 156.099C195.437 160.706 190.182 163.628 184.496 164.307C178.81 164.986 173.093 163.374 168.438 159.779C163.783 156.185 160.519 150.86 159.27 144.825H79.0416C77.7924 150.86 74.5277 156.185 69.8727 159.78C65.2178 163.374 59.4997 164.986 53.8136 164.307C48.1276 163.628 42.8731 160.705 39.0566 156.098C35.2401 151.491 33.1298 145.524 33.1298 139.34C33.1298 133.156 35.2401 127.189 39.0566 122.582C42.8731 117.975 48.1276 115.052 53.8136 114.373C59.4997 113.694 65.2178 115.306 69.8727 118.901C74.5277 122.495 77.7924 127.82 79.0416 133.855H159.27C160.519 127.82 163.784 122.495 168.439 118.9C173.094 115.305 178.812 113.694 184.498 114.373C190.184 115.053 195.439 117.976 199.255 122.583C203.072 127.191 205.181 133.158 205.181 139.342Z" fill="white" stroke="black" stroke-width="2" stroke-miterlimit="10"/>
<path d="M56.3631 159.911C66.8728 159.911 75.3925 150.701 75.3925 139.34C75.3925 127.979 66.8728 118.768 56.3631 118.768C45.8534 118.768 37.3336 127.979 37.3336 139.34C37.3336 150.701 45.8534 159.911 56.3631 159.911Z" fill="black"/>
<path d="M181.949 159.911C192.458 159.911 200.978 150.701 200.978 139.34C200.978 127.979 192.458 118.768 181.949 118.768C171.439 118.768 162.919 127.979 162.919 139.34C162.919 150.701 171.439 159.911 181.949 159.911Z" fill="black"/>
<path d="M209.107 211.142C209.106 217.326 206.996 223.293 203.179 227.899C199.362 232.506 194.108 235.428 188.422 236.107C182.736 236.786 177.018 235.174 172.364 231.579C167.709 227.985 164.444 222.66 163.195 216.625H82.9674C81.7182 222.66 78.4535 227.985 73.7985 231.58C69.1435 235.174 63.4255 236.786 57.7394 236.107C52.0534 235.428 46.7989 232.505 42.9824 227.898C39.1659 223.291 37.0556 217.324 37.0556 211.14C37.0556 204.956 39.1659 198.989 42.9824 194.383C46.7989 189.776 52.0534 186.853 57.7394 186.174C63.4255 185.494 69.1435 187.106 73.7985 190.701C78.4535 194.296 81.7182 199.62 82.9674 205.655H163.195C164.444 199.62 167.709 194.295 172.364 190.701C177.02 187.106 182.738 185.494 188.424 186.174C194.11 186.853 199.365 189.777 203.181 194.384C206.997 198.991 209.107 204.958 209.107 211.142Z" stroke="black" stroke-width="2" stroke-miterlimit="10"/>
<path d="M213.027 215.383C213.027 221.567 210.916 227.534 207.1 232.14C203.283 236.746 198.029 239.669 192.343 240.348C186.657 241.027 180.939 239.415 176.284 235.82C171.63 232.225 168.365 226.901 167.116 220.866H86.8881C85.6388 226.901 82.3741 232.226 77.7192 235.82C73.0642 239.415 67.3461 241.027 61.6601 240.348C55.974 239.668 50.7196 236.745 46.9031 232.139C43.0866 227.532 40.9763 221.565 40.9763 215.381C40.9763 209.197 43.0866 203.23 46.9031 198.623C50.7196 194.017 55.974 191.094 61.6601 190.414C67.3461 189.735 73.0642 191.347 77.7192 194.942C82.3741 198.536 85.6388 203.861 86.8881 209.896H167.116C168.365 203.861 171.63 198.536 176.285 194.941C180.94 191.347 186.659 189.735 192.345 190.415C198.031 191.094 203.285 194.017 207.102 198.625C210.918 203.232 213.028 209.199 213.027 215.383V215.383Z" stroke="black" stroke-width="2" stroke-miterlimit="10"/>
<path d="M205.181 206.902C205.181 213.086 203.07 219.052 199.253 223.658C195.437 228.265 190.182 231.187 184.496 231.866C178.81 232.545 173.093 230.933 168.438 227.338C163.783 223.744 160.519 218.419 159.27 212.385H79.0416C77.7924 218.419 74.5277 223.744 69.8727 227.339C65.2178 230.933 59.4997 232.545 53.8136 231.866C48.1276 231.187 42.8731 228.264 39.0566 223.657C35.2401 219.05 33.1298 213.084 33.1298 206.9C33.1298 200.716 35.2401 194.749 39.0566 190.142C42.8731 185.535 48.1276 182.613 53.8136 181.933C59.4997 181.254 65.2178 182.866 69.8727 186.461C74.5277 190.055 77.7924 195.38 79.0416 201.415H159.27C160.519 195.38 163.784 190.055 168.439 186.46C173.094 182.866 178.812 181.254 184.498 181.933C190.184 182.613 195.439 185.536 199.255 190.143C203.072 194.75 205.181 200.718 205.181 206.902Z" fill="white" stroke="black" stroke-width="2" stroke-miterlimit="10"/>
<path d="M56.3631 227.471C66.8728 227.471 75.3925 218.261 75.3925 206.9C75.3925 195.539 66.8728 186.329 56.3631 186.329C45.8534 186.329 37.3336 195.539 37.3336 206.9C37.3336 218.261 45.8534 227.471 56.3631 227.471Z" fill="black"/>
<path d="M181.949 227.471C192.458 227.471 200.978 218.261 200.978 206.9C200.978 195.539 192.458 186.329 181.949 186.329C171.439 186.329 162.919 195.539 162.919 206.9C162.919 218.261 171.439 227.471 181.949 227.471Z" fill="black"/>
<path d="M209.107 278.702C209.106 284.886 206.996 290.853 203.179 295.459C199.362 300.065 194.108 302.988 188.422 303.667C182.736 304.346 177.018 302.734 172.364 299.139C167.709 295.544 164.444 290.22 163.195 284.185H82.9674C81.7182 290.22 78.4535 295.545 73.7985 299.139C69.1435 302.734 63.4255 304.346 57.7394 303.667C52.0534 302.987 46.7989 300.065 42.9824 295.458C39.1659 290.851 37.0556 284.884 37.0556 278.7C37.0556 272.516 39.1659 266.549 42.9824 261.942C46.7989 257.336 52.0534 254.413 57.7394 253.733C63.4255 253.054 69.1435 254.666 73.7985 258.261C78.4535 261.856 81.7182 267.18 82.9674 273.215H163.195C164.444 267.18 167.709 261.855 172.364 258.261C177.02 254.666 182.738 253.054 188.424 253.734C194.11 254.413 199.365 257.337 203.181 261.944C206.997 266.551 209.107 272.518 209.107 278.702V278.702Z" stroke="black" stroke-width="2" stroke-miterlimit="10"/>
<path d="M213.027 282.942C213.027 289.126 210.916 295.093 207.1 299.699C203.283 304.306 198.029 307.228 192.343 307.907C186.657 308.586 180.939 306.974 176.284 303.379C171.63 299.785 168.365 294.46 167.116 288.425H86.8881C85.6388 294.46 82.3741 299.785 77.7192 303.38C73.0642 306.974 67.3461 308.586 61.6601 307.907C55.974 307.228 50.7196 304.305 46.9031 299.698C43.0866 295.091 40.9763 289.124 40.9763 282.94C40.9763 276.756 43.0866 270.789 46.9031 266.182C50.7196 261.575 55.974 258.652 61.6601 257.973C67.3461 257.294 73.0642 258.906 77.7192 262.5C82.3741 266.095 85.6388 271.42 86.8881 277.455H167.116C168.365 271.42 171.63 266.095 176.285 262.5C180.94 258.905 186.659 257.293 192.345 257.973C198.031 258.653 203.285 261.576 207.102 266.183C210.918 270.79 213.028 276.758 213.027 282.942V282.942Z" stroke="black" stroke-width="2" stroke-miterlimit="10"/>
<path d="M205.181 274.461C205.181 280.645 203.07 286.612 199.253 291.218C195.437 295.824 190.182 298.747 184.496 299.426C178.81 300.105 173.093 298.493 168.438 294.898C163.783 291.303 160.519 285.979 159.27 279.944H79.0416C77.7924 285.979 74.5277 291.304 69.8727 294.899C65.2178 298.493 59.4997 300.105 53.8136 299.426C48.1276 298.747 42.8731 295.824 39.0566 291.217C35.2401 286.61 33.1298 280.643 33.1298 274.459C33.1298 268.275 35.2401 262.308 39.0566 257.701C42.8731 253.094 48.1276 250.171 53.8136 249.492C59.4997 248.813 65.2178 250.425 69.8727 254.019C74.5277 257.614 77.7924 262.939 79.0416 268.974H159.27C160.519 262.939 163.784 257.614 168.439 254.019C173.094 250.424 178.812 248.812 184.498 249.492C190.184 250.172 195.439 253.095 199.255 257.702C203.072 262.309 205.181 268.277 205.181 274.461Z" fill="white" stroke="black" stroke-width="2" stroke-miterlimit="10"/>
<path d="M56.3631 295.031C66.8728 295.031 75.3925 285.821 75.3925 274.459C75.3925 263.098 66.8728 253.888 56.3631 253.888C45.8534 253.888 37.3336 263.098 37.3336 274.459C37.3336 285.821 45.8534 295.031 56.3631 295.031Z" fill="black"/>
<path d="M181.949 295.031C192.458 295.031 200.978 285.821 200.978 274.459C200.978 263.098 192.458 253.888 181.949 253.888C171.439 253.888 162.919 263.098 162.919 274.459C162.919 285.821 171.439 295.031 181.949 295.031Z" fill="black"/>
<path d="M202 273.502C202 279.534 199.926 285.353 196.177 289.846C192.428 294.339 187.267 297.189 181.682 297.852C176.097 298.514 170.481 296.942 165.909 293.436C161.336 289.929 158.13 284.736 156.903 278.85H78.0976C76.8706 284.736 73.6637 289.93 69.0913 293.436C64.5189 296.942 58.9023 298.514 53.317 297.852C47.7318 297.189 42.5705 294.338 38.8217 289.845C35.0729 285.352 33 279.532 33 273.5C33 267.468 35.0729 261.648 38.8217 257.155C42.5705 252.662 47.7318 249.811 53.317 249.148C58.9023 248.486 64.5189 250.058 69.0913 253.564C73.6637 257.07 76.8706 262.264 78.0976 268.15H156.903C158.13 262.264 161.337 257.07 165.909 253.564C170.482 250.058 176.099 248.486 181.684 249.148C187.269 249.811 192.431 252.663 196.179 257.156C199.928 261.65 202.001 267.47 202 273.502V273.502Z" fill="white" stroke="black" stroke-width="2" stroke-miterlimit="10"/>
<path d="M55.8273 293.698C66.1537 293.698 74.5249 284.688 74.5249 273.573C74.5249 262.459 66.1537 253.449 55.8273 253.449C45.5009 253.449 37.1297 262.459 37.1297 273.573C37.1297 284.688 45.5009 293.698 55.8273 293.698Z" fill="#0D0D0D"/>
<path d="M49.2322 264.041V272.303" stroke="white" stroke-width="4" stroke-miterlimit="10" stroke-linecap="round"/>
<path d="M62.4203 264.041V272.302" stroke="white" stroke-width="4" stroke-miterlimit="10" stroke-linecap="round"/>
<path d="M68.7773 275.477C66.714 282.99 60.6558 285.857 55.8268 285.857C50.9979 285.857 44.9396 282.99 42.8763 275.477" stroke="white" stroke-width="4" stroke-miterlimit="10" stroke-linecap="round"/>
<path d="M179.224 293.699C189.55 293.699 197.922 284.689 197.922 273.574C197.922 262.46 189.55 253.45 179.224 253.45C168.898 253.45 160.526 262.46 160.526 273.574C160.526 284.689 168.898 293.699 179.224 293.699Z" fill="#0D0D0D"/>
<path d="M192.174 275.477C190.111 282.99 184.052 285.858 179.223 285.858C174.394 285.858 168.336 282.99 166.273 275.477" stroke="white" stroke-width="4" stroke-miterlimit="10" stroke-linecap="round"/>
<path d="M172.629 264.041V272.303" stroke="white" stroke-width="4" stroke-miterlimit="10" stroke-linecap="round"/>
<path d="M185.819 264.041V272.303" stroke="white" stroke-width="4" stroke-miterlimit="10" stroke-linecap="round"/>
<rect x="79.2109" y="272.391" width="5.13468" height="2.75379" fill="#0D0D0D"/>
<rect x="151.096" y="272.391" width="5.13468" height="2.75379" fill="#0D0D0D"/>
<rect x="86.9149" y="272.391" width="10.2694" height="2.75379" fill="#0D0D0D"/>
<rect x="99.7485" y="272.391" width="10.2694" height="2.75379" fill="#0D0D0D"/>
<rect x="112.588" y="272.391" width="10.2694" height="2.75379" fill="#0D0D0D"/>
<rect x="125.423" y="272.391" width="10.2694" height="2.75379" fill="#0D0D0D"/>
<rect x="138.259" y="272.391" width="10.2694" height="2.75379" fill="#0D0D0D"/>
<path d="M202 206.502C202 212.534 199.926 218.353 196.177 222.846C192.428 227.339 187.267 230.189 181.682 230.852C176.097 231.514 170.481 229.942 165.909 226.436C161.336 222.929 158.13 217.736 156.903 211.85H78.0976C76.8706 217.736 73.6637 222.93 69.0913 226.436C64.5189 229.942 58.9023 231.514 53.317 230.852C47.7318 230.189 42.5705 227.338 38.8217 222.845C35.0729 218.352 33 212.532 33 206.5C33 200.468 35.0729 194.648 38.8217 190.155C42.5705 185.662 47.7318 182.811 53.317 182.148C58.9023 181.486 64.5189 183.058 69.0913 186.564C73.6637 190.07 76.8706 195.264 78.0976 201.15H156.903C158.13 195.264 161.337 190.07 165.909 186.564C170.482 183.058 176.099 181.486 181.684 182.148C187.269 182.811 192.431 185.663 196.179 190.156C199.928 194.65 202.001 200.47 202 206.502V206.502Z" fill="white" stroke="black" stroke-width="2" stroke-miterlimit="10"/>
<path d="M55.8273 226.698C66.1537 226.698 74.5249 217.688 74.5249 206.573C74.5249 195.459 66.1537 186.449 55.8273 186.449C45.5009 186.449 37.1297 195.459 37.1297 206.573C37.1297 217.688 45.5009 226.698 55.8273 226.698Z" fill="#0D0D0D"/>
<path d="M49.2322 197.041V205.303" stroke="white" stroke-width="4" stroke-miterlimit="10" stroke-linecap="round"/>
<path d="M62.4203 197.041V205.302" stroke="white" stroke-width="4" stroke-miterlimit="10" stroke-linecap="round"/>
<path d="M68.7773 208.477C66.714 215.99 60.6558 218.857 55.8268 218.857C50.9979 218.857 44.9396 215.99 42.8763 208.477" stroke="white" stroke-width="4" stroke-miterlimit="10" stroke-linecap="round"/>
<path d="M179.224 226.699C189.55 226.699 197.922 217.689 197.922 206.574C197.922 195.46 189.55 186.45 179.224 186.45C168.898 186.45 160.526 195.46 160.526 206.574C160.526 217.689 168.898 226.699 179.224 226.699Z" fill="#0D0D0D"/>
<path d="M192.174 208.477C190.111 215.99 184.052 218.858 179.223 218.858C174.394 218.858 168.336 215.99 166.273 208.477" stroke="white" stroke-width="4" stroke-miterlimit="10" stroke-linecap="round"/>
<path d="M172.629 197.041V205.303" stroke="white" stroke-width="4" stroke-miterlimit="10" stroke-linecap="round"/>
<path d="M185.819 197.041V205.303" stroke="white" stroke-width="4" stroke-miterlimit="10" stroke-linecap="round"/>
<rect x="79.2109" y="205.391" width="5.13468" height="2.75379" fill="#0D0D0D"/>
<rect x="151.096" y="205.391" width="5.13468" height="2.75379" fill="#0D0D0D"/>
<rect x="86.9149" y="205.391" width="10.2694" height="2.75379" fill="#0D0D0D"/>
<rect x="99.7485" y="205.391" width="10.2694" height="2.75379" fill="#0D0D0D"/>
<rect x="112.588" y="205.391" width="10.2694" height="2.75379" fill="#0D0D0D"/>
<rect x="125.423" y="205.391" width="10.2694" height="2.75379" fill="#0D0D0D"/>
<rect x="138.259" y="205.391" width="10.2694" height="2.75379" fill="#0D0D0D"/>
<path d="M202 138.502C202 144.534 199.926 150.353 196.177 154.846C192.428 159.339 187.267 162.189 181.682 162.852C176.097 163.514 170.481 161.942 165.909 158.436C161.336 154.929 158.13 149.736 156.903 143.85H78.0976C76.8706 149.736 73.6637 154.93 69.0913 158.436C64.5189 161.942 58.9023 163.514 53.317 162.852C47.7318 162.189 42.5705 159.338 38.8217 154.845C35.0729 150.352 33 144.532 33 138.5C33 132.468 35.0729 126.648 38.8217 122.155C42.5705 117.662 47.7318 114.811 53.317 114.148C58.9023 113.486 64.5189 115.058 69.0913 118.564C73.6637 122.07 76.8706 127.264 78.0976 133.15H156.903C158.13 127.264 161.337 122.07 165.909 118.564C170.482 115.058 176.099 113.486 181.684 114.148C187.269 114.811 192.431 117.663 196.179 122.156C199.928 126.65 202.001 132.47 202 138.502V138.502Z" fill="white" stroke="black" stroke-width="2" stroke-miterlimit="10"/>
<path d="M55.8273 158.698C66.1537 158.698 74.5249 149.688 74.5249 138.573C74.5249 127.459 66.1537 118.449 55.8273 118.449C45.5009 118.449 37.1297 127.459 37.1297 138.573C37.1297 149.688 45.5009 158.698 55.8273 158.698Z" fill="#0D0D0D"/>
<path d="M49.2322 129.041V137.303" stroke="white" stroke-width="4" stroke-miterlimit="10" stroke-linecap="round"/>
<path d="M62.4203 129.041V137.302" stroke="white" stroke-width="4" stroke-miterlimit="10" stroke-linecap="round"/>
<path d="M68.7773 140.477C66.714 147.99 60.6558 150.857 55.8268 150.857C50.9979 150.857 44.9396 147.99 42.8763 140.477" stroke="white" stroke-width="4" stroke-miterlimit="10" stroke-linecap="round"/>
<path d="M179.224 158.699C189.55 158.699 197.922 149.689 197.922 138.574C197.922 127.46 189.55 118.45 179.224 118.45C168.898 118.45 160.526 127.46 160.526 138.574C160.526 149.689 168.898 158.699 179.224 158.699Z" fill="#0D0D0D"/>
<path d="M192.174 140.477C190.111 147.99 184.052 150.858 179.223 150.858C174.394 150.858 168.336 147.99 166.273 140.477" stroke="white" stroke-width="4" stroke-miterlimit="10" stroke-linecap="round"/>
<path d="M172.629 129.041V137.303" stroke="white" stroke-width="4" stroke-miterlimit="10" stroke-linecap="round"/>
<path d="M185.819 129.041V137.303" stroke="white" stroke-width="4" stroke-miterlimit="10" stroke-linecap="round"/>
<rect x="79.2109" y="137.391" width="5.13468" height="2.75379" fill="#0D0D0D"/>
<rect x="151.096" y="137.391" width="5.13468" height="2.75379" fill="#0D0D0D"/>
<rect x="86.9149" y="137.391" width="10.2694" height="2.75379" fill="#0D0D0D"/>
<rect x="99.7485" y="137.391" width="10.2694" height="2.75379" fill="#0D0D0D"/>
<rect x="112.588" y="137.391" width="10.2694" height="2.75379" fill="#0D0D0D"/>
<rect x="125.423" y="137.391" width="10.2694" height="2.75379" fill="#0D0D0D"/>
<rect x="138.259" y="137.391" width="10.2694" height="2.75379" fill="#0D0D0D"/>
</svg>
