<svg width="261" height="273" viewBox="0 0 261 273" fill="none" xmlns="http://www.w3.org/2000/svg">
<path d="M242.228 7.63892H25.6063C15.4079 7.63892 7.14038 16.5793 7.14038 27.6078V252.114C7.14038 263.143 15.4079 272.083 25.6063 272.083H242.228C252.427 272.083 260.694 263.143 260.694 252.114V27.6078C260.694 16.5793 252.427 7.63892 242.228 7.63892Z" fill="black"/>
<path d="M236.088 1H19.4659C9.26747 1 1 9.94033 1 20.9688V245.474C1 256.503 9.26747 265.443 19.4659 265.443H236.088C246.286 265.443 254.554 256.503 254.554 245.474V20.9688C254.554 9.94033 246.286 1 236.088 1Z" fill="white" stroke="black" stroke-width="2" stroke-miterlimit="10"/>
<path d="M214.171 60.2659C214.171 66.6025 212.009 72.7163 208.099 77.4365C204.19 82.1566 198.807 85.1514 192.983 85.8472C187.158 86.543 181.301 84.891 176.533 81.2075C171.765 77.5241 168.421 72.068 167.142 65.8843H84.9602C83.6806 72.0682 80.3364 77.5244 75.568 81.2078C70.7997 84.8913 64.9424 86.5431 59.1179 85.847C53.2934 85.1509 47.911 82.1558 44.0016 77.4353C40.0921 72.7147 37.9304 66.6006 37.9304 60.2637C37.9304 53.9268 40.0921 47.8127 44.0016 43.0921C47.911 38.3716 53.2934 35.3765 59.1179 34.6804C64.9424 33.9843 70.7997 35.6361 75.568 39.3196C80.3364 43.003 83.6806 48.4592 84.9602 54.6431H167.142C168.421 48.459 171.766 43.0027 176.534 39.3193C181.303 35.6358 187.16 33.9841 192.985 34.6805C198.809 35.3769 204.192 38.3724 208.101 43.0934C212.01 47.8143 214.172 53.9288 214.171 60.2659Z" stroke="black" stroke-width="2" stroke-miterlimit="10"/>
<path d="M218.189 64.6112C218.188 70.948 216.026 77.0619 212.117 81.7821C208.207 86.5023 202.825 89.497 197 90.1928C191.176 90.8887 185.319 89.2366 180.551 85.5531C175.783 81.8696 172.439 76.4135 171.159 70.2297H88.9778C87.6981 76.4137 84.3539 81.8699 79.5856 85.5534C74.8173 89.2369 68.96 90.8888 63.1355 90.1927C57.3109 89.4966 51.9286 86.5014 48.0191 81.7808C44.1097 77.0602 41.948 70.946 41.948 64.6091C41.948 58.2721 44.1097 52.1579 48.0191 47.4373C51.9286 42.7167 57.3109 39.7216 63.1355 39.0255C68.96 38.3294 74.8173 39.9812 79.5856 43.6647C84.3539 47.3482 87.6981 52.8044 88.9778 58.9884H171.159C172.439 52.8043 175.783 47.348 180.552 43.6645C185.32 39.9811 191.178 38.3294 197.002 39.0258C202.827 39.7221 208.209 42.7177 212.119 47.4386C216.028 52.1596 218.189 58.2742 218.189 64.6112V64.6112Z" stroke="black" stroke-width="2" stroke-miterlimit="10"/>
<path d="M214.171 129.495C214.171 135.832 212.009 141.946 208.099 146.666C204.189 151.386 198.807 154.381 192.983 155.077C187.158 155.772 181.301 154.12 176.533 150.437C171.765 146.753 168.421 141.297 167.142 135.113H84.9602C83.6806 141.297 80.3364 146.754 75.568 150.437C70.7997 154.121 64.9424 155.772 59.1179 155.076C53.2934 154.38 47.911 151.385 44.0016 146.664C40.0921 141.944 37.9304 135.83 37.9304 129.493C37.9304 123.156 40.0921 117.041 44.0016 112.321C47.911 107.6 53.2934 104.605 59.1179 103.909C64.9424 103.213 70.7997 104.865 75.568 108.548C80.3364 112.232 83.6806 117.688 84.9602 123.872H167.142C168.421 117.688 171.766 112.231 176.534 108.548C181.303 104.864 187.16 103.213 192.985 103.909C198.809 104.605 204.192 107.601 208.101 112.322C212.01 117.043 214.172 123.158 214.171 129.495Z" stroke="black" stroke-width="2" stroke-miterlimit="10"/>
<path d="M218.189 133.841C218.188 140.178 216.026 146.291 212.117 151.012C208.207 155.732 202.825 158.726 197 159.422C191.176 160.118 185.319 158.466 180.551 154.783C175.783 151.099 172.439 145.643 171.159 139.459H88.9778C87.6981 145.643 84.3539 151.099 79.5856 154.783C74.8173 158.466 68.96 160.118 63.1355 159.422C57.3109 158.726 51.9286 155.731 48.0191 151.01C44.1097 146.29 41.948 140.176 41.948 133.839C41.948 127.502 44.1097 121.388 48.0191 116.667C51.9286 111.946 57.3109 108.951 63.1355 108.255C68.96 107.559 74.8173 109.211 79.5856 112.894C84.3539 116.578 87.6981 122.034 88.9778 128.218H171.159C172.439 122.034 175.783 116.578 180.552 112.894C185.32 109.211 191.178 107.559 197.002 108.255C202.827 108.952 208.209 111.947 212.119 116.668C216.028 121.389 218.189 127.504 218.189 133.841H218.189Z" stroke="black" stroke-width="2" stroke-miterlimit="10"/>
<path d="M210.241 125.149C210.241 131.486 208.079 137.6 204.169 142.32C200.26 147.04 194.877 150.035 189.053 150.731C183.229 151.427 177.371 149.775 172.603 146.091C167.835 142.408 164.491 136.952 163.212 130.768H81.0303C79.7506 136.952 76.4064 142.408 71.6381 146.092C66.8698 149.775 61.0125 151.427 55.188 150.731C49.3634 150.035 43.9811 147.04 40.0716 142.319C36.1622 137.598 34.0005 131.484 34.0005 125.147C34.0005 118.81 36.1622 112.696 40.0716 107.976C43.9811 103.255 49.3634 100.26 55.188 99.5637C61.0125 98.8676 66.8698 100.519 71.6381 104.203C76.4064 107.886 79.7506 113.343 81.0303 119.527H163.212C164.491 113.342 167.836 107.886 172.604 104.203C177.373 100.519 183.23 98.8674 189.055 99.5638C194.88 100.26 200.262 103.256 204.171 107.977C208.08 112.698 210.242 118.812 210.241 125.149Z" fill="white" stroke="black" stroke-width="2" stroke-miterlimit="10"/>
<path d="M214.171 198.723C214.171 205.059 212.009 211.173 208.099 215.893C204.189 220.613 198.807 223.608 192.983 224.304C187.158 225 181.301 223.348 176.533 219.664C171.765 215.981 168.421 210.525 167.142 204.341H84.9602C83.6806 210.525 80.3364 215.981 75.568 219.665C70.7997 223.348 64.9424 225 59.1179 224.304C53.2934 223.608 47.911 220.613 44.0016 215.892C40.0921 211.172 37.9304 205.057 37.9304 198.721C37.9304 192.384 40.0921 186.27 44.0016 181.549C47.911 176.829 53.2934 173.833 59.1179 173.137C64.9424 172.441 70.7997 174.093 75.568 177.777C80.3364 181.46 83.6806 186.916 84.9602 193.1H167.142C168.421 186.916 171.766 181.46 176.534 177.776C181.303 174.093 187.16 172.441 192.985 173.138C198.809 173.834 204.192 176.829 208.101 181.55C212.01 186.271 214.172 192.386 214.171 198.723Z" stroke="black" stroke-width="2" stroke-miterlimit="10"/>
<path d="M218.189 203.069C218.188 209.406 216.026 215.519 212.117 220.24C208.207 224.96 202.825 227.954 197 228.65C191.176 229.346 185.319 227.694 180.551 224.011C175.783 220.327 172.439 214.871 171.159 208.687H88.9778C87.6981 214.871 84.3539 220.327 79.5856 224.011C74.8173 227.694 68.96 229.346 63.1355 228.65C57.3109 227.954 51.9286 224.959 48.0191 220.238C44.1097 215.518 41.948 209.404 41.948 203.067C41.948 196.73 44.1097 190.616 48.0191 185.895C51.9286 181.175 57.3109 178.18 63.1355 177.484C68.96 176.788 74.8173 178.439 79.5856 182.123C84.3539 185.806 87.6981 191.262 88.9778 197.446H171.159C172.439 191.262 175.783 185.806 180.552 182.123C185.32 178.439 191.178 176.788 197.002 177.484C202.827 178.18 208.209 181.176 212.119 185.897C216.028 190.618 218.189 196.732 218.189 203.069V203.069Z" stroke="black" stroke-width="2" stroke-miterlimit="10"/>
<path d="M210.151 194.378C210.151 200.715 207.989 206.829 204.079 211.549C200.17 216.269 194.787 219.264 188.963 219.96C183.139 220.656 177.282 219.003 172.514 215.32C167.745 211.636 164.401 206.18 163.122 199.997H80.9404C79.6608 206.181 76.3166 211.637 71.5483 215.32C66.7799 219.004 60.9227 220.656 55.0981 219.96C49.2736 219.263 43.8912 216.268 39.9818 211.548C36.0724 206.827 33.9106 200.713 33.9106 194.376C33.9106 188.039 36.0724 181.925 39.9818 177.204C43.8912 172.484 49.2736 169.488 55.0981 168.792C60.9227 168.096 66.7799 169.748 71.5483 173.432C76.3166 177.115 79.6608 182.571 80.9404 188.755H163.122C164.402 182.571 167.746 177.115 172.514 173.431C177.283 169.748 183.14 168.096 188.965 168.792C194.79 169.489 200.172 172.484 204.081 177.205C207.991 181.926 210.152 188.041 210.151 194.378Z" fill="white" stroke="black" stroke-width="2" stroke-miterlimit="10"/>
<path d="M210 55.5022C210 61.7799 207.84 67.8369 203.936 72.5132C200.032 77.1895 194.657 80.1564 188.841 80.8457C183.024 81.5351 177.175 79.8984 172.414 76.2492C167.652 72.6 164.313 67.1947 163.035 61.0684H80.9656C79.6877 67.1948 76.348 72.6003 71.5862 76.2495C66.8244 79.8988 60.9751 81.5353 55.1585 80.8456C49.342 80.156 43.967 77.1887 40.0629 72.512C36.1588 67.8354 34 61.778 34 55.5C34 49.222 36.1588 43.1647 40.0629 38.488C43.967 33.8113 49.342 30.844 55.1585 30.1544C60.9751 29.4647 66.8244 31.1013 71.5862 34.7505C76.348 38.3997 79.6877 43.8052 80.9656 49.9316H163.035C164.313 43.805 167.652 38.3994 172.414 34.7502C177.176 31.1009 183.026 29.4646 188.843 30.1545C194.659 30.8444 200.034 33.8121 203.938 38.4892C207.842 43.1663 210.001 49.224 210 55.5022V55.5022Z" fill="white" stroke="black" stroke-width="2" stroke-miterlimit="10"/>
<rect x="82.125" y="54.3453" width="5.34735" height="2.86618" fill="#0D0D0D"/>
<rect x="156.988" y="54.3452" width="5.34735" height="2.86618" fill="#0D0D0D"/>
<rect x="90.1477" y="54.3452" width="10.6947" height="2.86618" fill="#0D0D0D"/>
<rect x="103.514" y="54.3452" width="10.6947" height="2.86618" fill="#0D0D0D"/>
<rect x="116.884" y="54.3452" width="10.6947" height="2.86618" fill="#0D0D0D"/>
<rect x="130.252" y="54.3452" width="10.6947" height="2.86618" fill="#0D0D0D"/>
<rect x="143.62" y="54.3452" width="10.6947" height="2.86618" fill="#0D0D0D"/>
<path d="M57.6976 76.2491C68.024 76.2491 76.3952 67.239 76.3952 56.1245C76.3952 45.0101 68.024 36 57.6976 36C47.3712 36 39 45.0101 39 56.1245C39 67.239 47.3712 76.2491 57.6976 76.2491Z" fill="#0D0D0D"/>
<path d="M51.1025 46.5923V54.854" stroke="white" stroke-width="4" stroke-miterlimit="10" stroke-linecap="round"/>
<path d="M64.2905 46.5919V54.8536" stroke="white" stroke-width="4" stroke-miterlimit="10" stroke-linecap="round"/>
<path d="M70.6476 58.0282C68.5843 65.541 62.5261 68.4082 57.6971 68.4082C52.8681 68.4082 46.8099 65.541 44.7466 58.0282" stroke="white" stroke-width="4" stroke-miterlimit="10" stroke-linecap="round"/>
<path d="M185.698 75.2491C196.024 75.2491 204.395 66.239 204.395 55.1245C204.395 44.0101 196.024 35 185.698 35C175.371 35 167 44.0101 167 55.1245C167 66.239 175.371 75.2491 185.698 75.2491Z" fill="#0D0D0D"/>
<path d="M179.103 45.5923V53.854" stroke="white" stroke-width="4" stroke-miterlimit="10" stroke-linecap="round"/>
<path d="M192.291 45.5919V53.8536" stroke="white" stroke-width="4" stroke-miterlimit="10" stroke-linecap="round"/>
<path d="M198.648 57.0282C196.584 64.541 190.526 67.4082 185.697 67.4082C180.868 67.4082 174.81 64.541 172.747 57.0282" stroke="white" stroke-width="4" stroke-miterlimit="10" stroke-linecap="round"/>
<path d="M57.6976 145.249C68.024 145.249 76.3952 136.239 76.3952 125.125C76.3952 114.01 68.024 105 57.6976 105C47.3712 105 39 114.01 39 125.125C39 136.239 47.3712 145.249 57.6976 145.249Z" fill="#0D0D0D"/>
<path d="M51.1025 115.592V123.854" stroke="white" stroke-width="4" stroke-miterlimit="10" stroke-linecap="round"/>
<path d="M64.2905 115.592V123.854" stroke="white" stroke-width="4" stroke-miterlimit="10" stroke-linecap="round"/>
<path d="M70.6476 127.028C68.5843 134.541 62.5261 137.408 57.6971 137.408C52.8681 137.408 46.8099 134.541 44.7466 127.028" stroke="white" stroke-width="4" stroke-miterlimit="10" stroke-linecap="round"/>
<path d="M185.698 145.249C196.024 145.249 204.395 136.239 204.395 125.125C204.395 114.01 196.024 105 185.698 105C175.371 105 167 114.01 167 125.125C167 136.239 175.371 145.249 185.698 145.249Z" fill="#0D0D0D"/>
<path d="M179.103 115.592V123.854" stroke="white" stroke-width="4" stroke-miterlimit="10" stroke-linecap="round"/>
<path d="M192.291 115.592V123.854" stroke="white" stroke-width="4" stroke-miterlimit="10" stroke-linecap="round"/>
<path d="M198.648 127.028C196.584 134.541 190.526 137.408 185.697 137.408C180.868 137.408 174.81 134.541 172.747 127.028" stroke="white" stroke-width="4" stroke-miterlimit="10" stroke-linecap="round"/>
<path d="M185.698 214.249C196.024 214.249 204.395 205.239 204.395 194.125C204.395 183.01 196.024 174 185.698 174C175.371 174 167 183.01 167 194.125C167 205.239 175.371 214.249 185.698 214.249Z" fill="#0D0D0D"/>
<path d="M179.103 184.592V192.854" stroke="white" stroke-width="4" stroke-miterlimit="10" stroke-linecap="round"/>
<path d="M192.291 184.592V192.854" stroke="white" stroke-width="4" stroke-miterlimit="10" stroke-linecap="round"/>
<path d="M198.648 196.028C196.584 203.541 190.526 206.408 185.697 206.408C180.868 206.408 174.81 203.541 172.747 196.028" stroke="white" stroke-width="4" stroke-miterlimit="10" stroke-linecap="round"/>
<path d="M57.6976 214.249C68.024 214.249 76.3952 205.239 76.3952 194.125C76.3952 183.01 68.024 174 57.6976 174C47.3712 174 39 183.01 39 194.125C39 205.239 47.3712 214.249 57.6976 214.249Z" fill="#0D0D0D"/>
<path d="M51.1025 184.592V192.854" stroke="white" stroke-width="4" stroke-miterlimit="10" stroke-linecap="round"/>
<path d="M64.2905 184.592V192.854" stroke="white" stroke-width="4" stroke-miterlimit="10" stroke-linecap="round"/>
<path d="M70.6476 196.028C68.5843 203.541 62.5261 206.408 57.6971 206.408C52.8681 206.408 46.8099 203.541 44.7466 196.028" stroke="white" stroke-width="4" stroke-miterlimit="10" stroke-linecap="round"/>
</svg>
