<svg width="167" height="513" viewBox="0 0 167 513" fill="none" xmlns="http://www.w3.org/2000/svg">
<mask id="path-1-inside-1_1259_88589" fill="white">
<path fill-rule="evenodd" clip-rule="evenodd" d="M3 229H27H47H71H94H118H141H165V239V251H141V239H118V251H94V239H71V251H47V239H27V251H3V239V229Z"/>
</mask>
<path fill-rule="evenodd" clip-rule="evenodd" d="M3 229H27H47H71H94H118H141H165V239V251H141V239H118V251H94V239H71V251H47V239H27V251H3V239V229Z" fill="#0D0D0D"/>
<path d="M3 229V227H1V229H3ZM165 229H167V227H165V229ZM165 251V253H167V251H165ZM141 251H139V253H141V251ZM141 239H143V237H141V239ZM118 239V237H116V239H118ZM118 251V253H120V251H118ZM94 251H92V253H94V251ZM94 239H96V237H94V239ZM71 239V237H69V239H71ZM71 251V253H73V251H71ZM47 251H45V253H47V251ZM47 239H49V237H47V239ZM27 239V237H25V239H27ZM27 251V253H29V251H27ZM3 251H1V253H3V251ZM27 227H3V231H27V227ZM47 227H27V231H47V227ZM71 227H47V231H71V227ZM94 227H71V231H94V227ZM118 227H94V231H118V227ZM141 227H118V231H141V227ZM141 231H165V227H141V231ZM163 229V239H167V229H163ZM163 239V251H167V239H163ZM165 249H141V253H165V249ZM143 251V239H139V251H143ZM118 241H141V237H118V241ZM120 251V239H116V251H120ZM94 253H118V249H94V253ZM92 239V251H96V239H92ZM71 241H94V237H71V241ZM73 251V239H69V251H73ZM47 253H71V249H47V253ZM45 239V251H49V239H45ZM27 241H47V237H27V241ZM29 251V239H25V251H29ZM3 253H27V249H3V253ZM1 239V251H5V239H1ZM1 229V239H5V229H1Z" fill="black" mask="url(#path-1-inside-1_1259_88589)"/>
<path d="M6.20215 38.3223V7.47607L16.7815 12.8738C19.7414 14.3839 22.988 15.1685 26.2772 15.1685C29.5665 15.1685 32.8131 14.3839 35.773 12.8738L46.3523 7.47607L56.9317 12.8738C59.8917 14.384 63.1382 15.1685 66.4275 15.1685C69.7168 15.1685 72.9633 14.384 75.9232 12.8738L86.5026 7.4761L97.0819 12.8738C100.042 14.384 103.288 15.1685 106.578 15.1685C109.867 15.1685 113.113 14.384 116.073 12.8738L126.653 7.47609L137.232 12.8738C140.192 14.384 143.439 15.1685 146.728 15.1685C150.017 15.1685 153.264 14.384 156.224 12.8738L166.803 7.47609V38.3223H6.20215Z" fill="black"/>
<path d="M1.00049 32.8467V2L11.5798 7.39777C14.5398 8.90798 17.7863 9.69255 21.0756 9.69255C24.3649 9.69255 27.6114 8.90798 30.5713 7.39777L41.1507 2L51.7301 7.39778C54.69 8.90798 57.9365 9.69254 61.2258 9.69254C64.5151 9.69254 67.7617 8.90798 70.7216 7.39778L81.301 2L91.8803 7.39777C94.8403 8.90798 98.0868 9.69254 101.376 9.69254C104.665 9.69254 107.912 8.90798 110.872 7.39777L121.451 2L132.031 7.39777C134.99 8.90798 138.237 9.69255 141.526 9.69255C144.816 9.69255 148.062 8.90798 151.022 7.39777L161.601 2V32.8467H1.00049Z" fill="white" stroke="black" stroke-width="2" stroke-miterlimit="10"/>
<path d="M153.794 52.686H16.5859C10.1263 52.686 4.88965 58.1983 4.88965 64.9981V203.421C4.88965 210.221 10.1263 215.733 16.5859 215.733H153.794C160.254 215.733 165.49 210.221 165.49 203.421V64.9981C165.49 58.1983 160.254 52.686 153.794 52.686Z" fill="black"/>
<path d="M149.905 48.5923H12.6963C6.23661 48.5923 1 54.1046 1 60.9044V199.328C1 206.127 6.23661 211.64 12.6963 211.64H149.905C156.364 211.64 161.601 206.127 161.601 199.328V60.9044C161.601 54.1046 156.364 48.5923 149.905 48.5923Z" fill="white" stroke="black" stroke-width="2" stroke-miterlimit="10"/>
<path d="M136.022 85.1339C136.022 89.041 134.653 92.8107 132.176 95.721C129.7 98.6314 126.291 100.478 122.602 100.907C118.912 101.336 115.203 100.317 112.182 98.0462C109.162 95.775 107.044 92.4109 106.234 88.5981H54.1802C53.3697 92.411 51.2515 95.7752 48.2312 98.0464C45.211 100.318 41.501 101.336 37.8117 100.907C34.1225 100.478 30.7133 98.6309 28.2371 95.7203C25.7608 92.8097 24.3916 89.0398 24.3916 85.1326C24.3916 81.2253 25.7608 77.4554 28.2371 74.5448C30.7133 71.6342 34.1225 69.7875 37.8117 69.3583C41.501 68.9291 45.211 69.9476 48.2312 72.2187C51.2515 74.4899 53.3697 77.8541 54.1802 81.667H106.234C107.044 77.854 109.163 74.4897 112.183 72.2186C115.203 69.9474 118.914 68.929 122.603 69.3584C126.292 69.7878 129.701 71.6347 132.177 74.5456C134.654 77.4565 136.023 81.2266 136.022 85.1339Z" stroke="black" stroke-width="2" stroke-miterlimit="10"/>
<path d="M138.568 87.8131C138.568 91.7202 137.198 95.4899 134.722 98.4002C132.246 101.311 128.837 103.157 125.147 103.586C121.458 104.015 117.748 102.997 114.728 100.725C111.708 98.4542 109.59 95.0901 108.78 91.2773H56.7261C55.9156 95.0902 53.7974 98.4544 50.7771 100.726C47.7569 102.997 44.0469 104.015 40.3576 103.586C36.6684 103.157 33.2592 101.31 30.783 98.3995C28.3067 95.4889 26.9375 91.719 26.9375 87.8118C26.9375 83.9045 28.3067 80.1346 30.783 77.224C33.2592 74.3134 36.6684 72.4667 40.3576 72.0375C44.0469 71.6083 47.7569 72.6268 50.7771 74.8979C53.7974 77.1691 55.9156 80.5333 56.7261 84.3462H108.78C109.59 80.5332 111.709 77.1689 114.729 74.8978C117.749 72.6266 121.459 71.6082 125.149 72.0376C128.838 72.4669 132.247 74.3139 134.723 77.2248C137.199 80.1357 138.568 83.9058 138.568 87.8131V87.8131Z" stroke="black" stroke-width="2" stroke-miterlimit="10"/>
<path d="M133.477 82.4545C133.477 86.3615 132.107 90.1311 129.631 93.0414C127.154 95.9517 123.745 97.7982 120.056 98.2272C116.367 98.6563 112.657 97.6377 109.637 95.3665C106.617 93.0954 104.499 89.7314 103.688 85.9186H51.6348C50.8243 89.7315 48.7061 93.0956 45.6858 95.3667C42.6656 97.6378 38.9556 98.6563 35.2663 98.2271C31.5771 97.7979 28.1679 95.9512 25.6916 93.0407C23.2154 90.1301 21.8462 86.3603 21.8462 82.4531C21.8462 78.546 23.2154 74.7761 25.6916 71.8656C28.1679 68.955 31.5771 67.1083 35.2663 66.6791C38.9556 66.2499 42.6656 67.2684 45.6858 69.5395C48.7061 71.8106 50.8243 75.1747 51.6348 78.9876H103.688C104.499 75.1746 106.617 71.8104 109.638 69.5393C112.658 67.2682 116.368 66.2498 120.057 66.6792C123.747 67.1086 127.156 68.9555 129.632 71.8663C132.108 74.7771 133.477 78.5472 133.477 82.4545Z" fill="white" stroke="#0D0D0D" stroke-width="2" stroke-miterlimit="10"/>
<path d="M48.7667 82.4531C48.7667 89.3796 43.4389 94.9502 36.92 94.9502C30.4011 94.9502 25.0732 89.3796 25.0732 82.4531C25.0732 75.5267 30.4011 69.9561 36.92 69.9561C43.4389 69.9561 48.7667 75.5267 48.7667 82.4531Z" fill="#01F293" stroke="#0D0D0D"/>
<path d="M130.249 82.4531C130.249 89.3796 124.921 94.9502 118.402 94.9502C111.883 94.9502 106.556 89.3796 106.556 82.4531C106.556 75.5267 111.883 69.9561 118.402 69.9561C124.921 69.9561 130.249 75.5267 130.249 82.4531Z" fill="#A500FF" stroke="#0D0D0D"/>
<path d="M136.022 127.818C136.022 131.725 134.653 135.494 132.176 138.405C129.7 141.315 126.291 143.161 122.602 143.591C118.912 144.02 115.203 143.001 112.182 140.73C109.162 138.459 107.044 135.095 106.234 131.282H54.1802C53.3697 135.095 51.2515 138.459 48.2312 140.73C45.211 143.001 41.501 144.02 37.8117 143.59C34.1225 143.161 30.7133 141.315 28.2371 138.404C25.7608 135.493 24.3916 131.724 24.3916 127.816C24.3916 123.909 25.7608 120.139 28.2371 117.229C30.7133 114.318 34.1225 112.472 37.8117 112.042C41.501 111.613 45.211 112.632 48.2312 114.903C51.2515 117.174 53.3697 120.538 54.1802 124.351H106.234C107.044 120.538 109.163 117.174 112.183 114.903C115.203 112.631 118.914 111.613 122.603 112.042C126.292 112.472 129.701 114.319 132.177 117.23C134.654 120.14 136.023 123.91 136.022 127.818Z" stroke="black" stroke-width="2" stroke-miterlimit="10"/>
<path d="M138.568 130.497C138.568 134.404 137.198 138.174 134.722 141.084C132.246 143.995 128.837 145.841 125.147 146.27C121.458 146.699 117.748 145.681 114.728 143.41C111.708 141.138 109.59 137.774 108.78 133.962H56.7261C55.9156 137.774 53.7974 141.139 50.7771 143.41C47.7569 145.681 44.0469 146.699 40.3576 146.27C36.6684 145.841 33.2592 143.994 30.783 141.084C28.3067 138.173 26.9375 134.403 26.9375 130.496C26.9375 126.589 28.3067 122.819 30.783 119.909C33.2592 116.998 36.6684 115.151 40.3576 114.722C44.0469 114.293 47.7569 115.311 50.7771 117.582C53.7974 119.854 55.9156 123.218 56.7261 127.031H108.78C109.59 123.218 111.709 119.853 114.729 117.582C117.749 115.311 121.459 114.293 125.149 114.722C128.838 115.152 132.247 116.998 134.723 119.909C137.199 122.82 138.568 126.59 138.568 130.497V130.497Z" stroke="black" stroke-width="2" stroke-miterlimit="10"/>
<path d="M133.477 125.139C133.477 129.045 132.107 132.815 129.631 135.725C127.154 138.635 123.745 140.482 120.056 140.911C116.367 141.34 112.657 140.321 109.637 138.05C106.617 135.779 104.499 132.415 103.688 128.603H51.6348C50.8243 132.415 48.7061 135.779 45.6858 138.05C42.6656 140.321 38.9556 141.34 35.2663 140.911C31.5771 140.482 28.1679 138.635 25.6916 135.724C23.2154 132.814 21.8462 129.044 21.8462 125.137C21.8462 121.23 23.2154 117.46 25.6916 114.55C28.1679 111.639 31.5771 109.793 35.2663 109.364C38.9556 108.934 42.6656 109.953 45.6858 112.224C48.7061 114.495 50.8243 117.859 51.6348 121.672H103.688C104.499 117.859 106.617 114.495 109.638 112.224C112.658 109.953 116.368 108.934 120.057 109.364C123.747 109.793 127.156 111.64 129.632 114.551C132.108 117.461 133.477 121.231 133.477 125.139V125.139Z" fill="white" stroke="black" stroke-width="2" stroke-miterlimit="10"/>
<path d="M36.92 138.134C43.7389 138.134 49.2667 132.315 49.2667 125.137C49.2667 117.959 43.7389 112.14 36.92 112.14C30.1011 112.14 24.5732 117.959 24.5732 125.137C24.5732 132.315 30.1011 138.134 36.92 138.134Z" fill="black"/>
<path d="M118.402 138.134C125.221 138.134 130.749 132.315 130.749 125.137C130.749 117.959 125.221 112.14 118.402 112.14C111.583 112.14 106.056 117.959 106.056 125.137C106.056 132.315 111.583 138.134 118.402 138.134Z" fill="black"/>
<path d="M136.022 170.502C136.022 174.409 134.653 178.179 132.176 181.089C129.7 183.999 126.291 185.846 122.602 186.275C118.912 186.704 115.203 185.685 112.182 183.414C109.162 181.143 107.044 177.779 106.234 173.966H54.1802C53.3697 177.779 51.2515 181.143 48.2312 183.414C45.211 185.685 41.501 186.704 37.8117 186.275C34.1225 185.845 30.7133 183.999 28.2371 181.088C25.7608 178.178 24.3916 174.408 24.3916 170.501C24.3916 166.594 25.7608 162.824 28.2371 159.913C30.7133 157.003 34.1225 155.156 37.8117 154.727C41.501 154.298 45.211 155.316 48.2312 157.587C51.2515 159.858 53.3697 163.222 54.1802 167.035H106.234C107.044 163.222 109.163 159.858 112.183 157.587C115.203 155.316 118.914 154.298 122.603 154.727C126.292 155.156 129.701 157.003 132.177 159.914C134.654 162.825 136.023 166.595 136.022 170.502V170.502Z" stroke="black" stroke-width="2" stroke-miterlimit="10"/>
<path d="M138.568 173.181C138.568 177.088 137.198 180.858 134.722 183.768C132.246 186.679 128.837 188.525 125.147 188.954C121.458 189.383 117.748 188.365 114.728 186.094C111.708 183.822 109.59 180.458 108.78 176.645H56.7261C55.9156 180.458 53.7974 183.823 50.7771 186.094C47.7569 188.365 44.0469 189.383 40.3576 188.954C36.6684 188.525 33.2592 186.678 30.783 183.768C28.3067 180.857 26.9375 177.087 26.9375 173.18C26.9375 169.273 28.3067 165.503 30.783 162.592C33.2592 159.682 36.6684 157.835 40.3576 157.406C44.0469 156.976 47.7569 157.995 50.7771 160.266C53.7974 162.537 55.9156 165.901 56.7261 169.714H108.78C109.59 165.901 111.709 162.537 114.729 160.266C117.749 157.995 121.459 156.976 125.149 157.406C128.838 157.835 132.247 159.682 134.723 162.593C137.199 165.504 138.568 169.274 138.568 173.181V173.181Z" stroke="black" stroke-width="2" stroke-miterlimit="10"/>
<path d="M133.477 167.823C133.477 171.73 132.107 175.499 129.631 178.41C127.154 181.32 123.745 183.166 120.056 183.595C116.367 184.024 112.657 183.006 109.637 180.735C106.617 178.464 104.499 175.1 103.688 171.287H51.6348C50.8243 175.1 48.7061 178.464 45.6858 180.735C42.6656 183.006 38.9556 184.024 35.2663 183.595C31.5771 183.166 28.1679 181.319 25.6916 178.409C23.2154 175.498 21.8462 171.728 21.8462 167.821C21.8462 163.914 23.2154 160.144 25.6916 157.234C28.1679 154.323 31.5771 152.476 35.2663 152.047C38.9556 151.618 42.6656 152.637 45.6858 154.908C48.7061 157.179 50.8243 160.543 51.6348 164.356H103.688C104.499 160.543 106.617 157.179 109.638 154.907C112.658 152.636 116.368 151.618 120.057 152.047C123.747 152.477 127.156 154.324 129.632 157.234C132.108 160.145 133.477 163.915 133.477 167.823V167.823Z" fill="white" stroke="black" stroke-width="2" stroke-miterlimit="10"/>
<path d="M36.92 180.818C43.7389 180.818 49.2667 174.999 49.2667 167.821C49.2667 160.643 43.7389 154.824 36.92 154.824C30.1011 154.824 24.5732 160.643 24.5732 167.821C24.5732 174.999 30.1011 180.818 36.92 180.818Z" fill="black"/>
<path d="M118.402 180.818C125.221 180.818 130.749 174.999 130.749 167.821C130.749 160.643 125.221 154.824 118.402 154.824C111.583 154.824 106.056 160.643 106.056 167.821C106.056 174.999 111.583 180.818 118.402 180.818Z" fill="black"/>
<path d="M153.795 304.208H16.5864C10.1267 304.208 4.89014 309.721 4.89014 316.521L4.89014 454.944C4.89014 461.744 10.1267 467.256 16.5864 467.256H153.795C160.254 467.256 165.491 461.744 165.491 454.944L165.491 316.521C165.491 309.721 160.254 304.208 153.795 304.208Z" fill="black"/>
<path d="M149.906 300.115H12.6973C6.23758 300.115 1.00098 305.628 1.00098 312.427L1.00098 450.85C1.00098 457.65 6.23758 463.163 12.6973 463.163H149.906C156.365 463.163 161.602 457.65 161.602 450.85L161.602 312.427C161.602 305.628 156.365 300.115 149.906 300.115Z" fill="white" stroke="black" stroke-width="2" stroke-miterlimit="10"/>
<path d="M136.023 336.657C136.023 340.564 134.654 344.334 132.177 347.244C129.701 350.154 126.292 352.001 122.603 352.43C118.913 352.859 115.204 351.84 112.183 349.569C109.163 347.298 107.045 343.934 106.235 340.121H54.1812C53.3707 343.934 51.2525 347.298 48.2322 349.569C45.2119 351.84 41.502 352.859 37.8127 352.43C34.1235 352.001 30.7143 350.154 28.238 347.243C25.7618 344.333 24.3926 340.563 24.3926 336.656C24.3926 332.748 25.7618 328.978 28.238 326.068C30.7143 323.157 34.1235 321.31 37.8127 320.881C41.502 320.452 45.2119 321.471 48.2322 323.742C51.2525 326.013 53.3707 329.377 54.1812 333.19H106.235C107.045 329.377 109.164 326.013 112.184 323.742C115.204 321.47 118.915 320.452 122.604 320.881C126.293 321.311 129.702 323.158 132.178 326.069C134.655 328.979 136.024 332.75 136.023 336.657Z" stroke="black" stroke-width="2" stroke-miterlimit="10"/>
<path d="M138.569 339.336C138.569 343.243 137.199 347.012 134.723 349.923C132.247 352.833 128.838 354.679 125.148 355.108C121.459 355.537 117.749 354.519 114.729 352.248C111.709 349.977 109.591 346.613 108.781 342.8H56.7271C55.9166 346.613 53.7983 349.977 50.7781 352.248C47.7578 354.519 44.0478 355.537 40.3586 355.108C36.6693 354.679 33.2602 352.832 30.7839 349.922C28.3077 347.011 26.9385 343.242 26.9385 339.335C26.9385 335.428 28.3077 331.658 30.7839 328.748C33.2602 325.837 36.6693 323.991 40.3586 323.561C44.0478 323.132 47.7578 324.151 50.7781 326.422C53.7983 328.693 55.9166 332.057 56.7271 335.869H108.781C109.591 332.057 111.71 328.693 114.73 326.422C117.75 324.15 121.46 323.132 125.15 323.561C128.839 323.991 132.248 325.838 134.724 328.748C137.2 331.659 138.569 335.429 138.569 339.336V339.336Z" stroke="black" stroke-width="2" stroke-miterlimit="10"/>
<path d="M133.478 333.977C133.478 337.884 132.108 341.654 129.632 344.564C127.155 347.475 123.746 349.321 120.057 349.75C116.368 350.179 112.658 349.161 109.638 346.889C106.618 344.618 104.5 341.254 103.689 337.442H51.6358C50.8253 341.254 48.707 344.619 45.6868 346.89C42.6665 349.161 38.9565 350.179 35.2673 349.75C31.578 349.321 28.1689 347.474 25.6926 344.564C23.2164 341.653 21.8472 337.883 21.8472 333.976C21.8472 330.069 23.2164 326.299 25.6926 323.389C28.1689 320.478 31.578 318.631 35.2673 318.202C38.9565 317.773 42.6665 318.791 45.6868 321.062C48.707 323.334 50.8253 326.698 51.6358 330.511H103.689C104.5 326.698 106.618 323.333 109.639 321.062C112.659 318.791 116.369 317.773 120.058 318.202C123.748 318.631 127.157 320.478 129.633 323.389C132.109 326.3 133.478 330.07 133.478 333.977Z" fill="white" stroke="black" stroke-width="2" stroke-miterlimit="10"/>
<path d="M36.921 346.973C43.7399 346.973 49.2677 341.154 49.2677 333.977C49.2677 326.799 43.7399 320.98 36.921 320.98C30.102 320.98 24.5742 326.799 24.5742 333.977C24.5742 341.154 30.102 346.973 36.921 346.973Z" fill="black"/>
<path d="M118.403 346.973C125.222 346.973 130.75 341.154 130.75 333.977C130.75 326.799 125.222 320.98 118.403 320.98C111.584 320.98 106.057 326.799 106.057 333.977C106.057 341.154 111.584 346.973 118.403 346.973Z" fill="black"/>
<path d="M136.023 379.341C136.023 383.248 134.654 387.017 132.177 389.928C129.701 392.838 126.292 394.684 122.603 395.113C118.913 395.542 115.204 394.524 112.183 392.253C109.163 389.982 107.045 386.618 106.235 382.805H54.1812C53.3707 386.618 51.2525 389.982 48.2322 392.253C45.2119 394.524 41.502 395.543 37.8127 395.113C34.1235 394.684 30.7143 392.837 28.238 389.927C25.7618 387.016 24.3926 383.246 24.3926 379.339C24.3926 375.432 25.7618 371.662 28.238 368.752C30.7143 365.841 34.1235 363.995 37.8127 363.565C41.502 363.136 45.2119 364.155 48.2322 366.426C51.2525 368.697 53.3707 372.061 54.1812 375.874H106.235C107.045 372.061 109.164 368.697 112.184 366.426C115.204 364.154 118.915 363.136 122.604 363.565C126.293 363.995 129.702 365.842 132.178 368.753C134.655 371.663 136.024 375.433 136.023 379.341Z" stroke="black" stroke-width="2" stroke-miterlimit="10"/>
<path d="M138.569 382.02C138.569 385.927 137.199 389.697 134.723 392.607C132.247 395.518 128.838 397.364 125.148 397.793C121.459 398.222 117.749 397.204 114.729 394.932C111.709 392.661 109.591 389.297 108.781 385.485H56.7271C55.9166 389.297 53.7984 392.662 50.7781 394.933C47.7578 397.204 44.0478 398.222 40.3586 397.793C36.6693 397.364 33.2602 395.517 30.7839 392.607C28.3077 389.696 26.9385 385.926 26.9385 382.019C26.9385 378.112 28.3077 374.342 30.7839 371.431C33.2602 368.521 36.6693 366.674 40.3586 366.245C44.0478 365.816 47.7578 366.834 50.7781 369.105C53.7984 371.377 55.9166 374.741 56.7271 378.554H108.781C109.591 374.741 111.71 371.376 114.73 369.105C117.75 366.834 121.46 365.816 125.15 366.245C128.839 366.674 132.248 368.521 134.724 371.432C137.2 374.343 138.569 378.113 138.569 382.02V382.02Z" stroke="black" stroke-width="2" stroke-miterlimit="10"/>
<path d="M133.478 376.662C133.478 380.569 132.108 384.339 129.632 387.249C127.155 390.159 123.746 392.006 120.057 392.435C116.368 392.864 112.658 391.845 109.638 389.574C106.618 387.303 104.5 383.939 103.689 380.126H51.6358C50.8253 383.939 48.707 387.303 45.6868 389.574C42.6665 391.845 38.9565 392.864 35.2673 392.435C31.578 392.005 28.1689 390.159 25.6926 387.248C23.2164 384.338 21.8472 380.568 21.8472 376.661C21.8472 372.753 23.2164 368.984 25.6926 366.073C28.1689 363.163 31.578 361.316 35.2673 360.887C38.9565 360.457 42.6665 361.476 45.6868 363.747C48.707 366.018 50.8253 369.382 51.6358 373.195H103.689C104.5 369.382 106.618 366.018 109.639 363.747C112.659 361.476 116.369 360.457 120.058 360.887C123.748 361.316 127.157 363.163 129.633 366.074C132.109 368.985 133.478 372.755 133.478 376.662V376.662Z" fill="white" stroke="black" stroke-width="2" stroke-miterlimit="10"/>
<path d="M36.921 389.657C43.7399 389.657 49.2677 383.838 49.2677 376.66C49.2677 369.482 43.7399 363.664 36.921 363.664C30.102 363.664 24.5742 369.482 24.5742 376.66C24.5742 383.838 30.102 389.657 36.921 389.657Z" fill="black"/>
<path d="M118.403 389.657C125.222 389.657 130.75 383.838 130.75 376.66C130.75 369.482 125.222 363.664 118.403 363.664C111.584 363.664 106.057 369.482 106.057 376.66C106.057 383.838 111.584 389.657 118.403 389.657Z" fill="black"/>
<path d="M136.023 422.025C136.023 425.932 134.654 429.702 132.177 432.612C129.701 435.523 126.292 437.369 122.603 437.798C118.913 438.227 115.204 437.208 112.183 434.937C109.163 432.666 107.045 429.302 106.235 425.489H54.1812C53.3707 429.302 51.2525 432.666 48.2322 434.938C45.2119 437.209 41.502 438.227 37.8127 437.798C34.1235 437.369 30.7143 435.522 28.238 432.611C25.7618 429.701 24.3926 425.931 24.3926 422.024C24.3926 418.117 25.7618 414.347 28.238 411.436C30.7143 408.526 34.1235 406.679 37.8127 406.25C41.502 405.821 45.2119 406.839 48.2322 409.11C51.2525 411.381 53.3707 414.746 54.1812 418.558H106.235C107.045 414.745 109.164 411.381 112.184 409.11C115.204 406.839 118.915 405.821 122.604 406.25C126.293 406.679 129.702 408.526 132.178 411.437C134.655 414.348 136.024 418.118 136.023 422.025V422.025Z" stroke="black" stroke-width="2" stroke-miterlimit="10"/>
<path d="M138.569 424.704C138.569 428.611 137.199 432.381 134.723 435.291C132.247 438.201 128.838 440.048 125.148 440.477C121.459 440.906 117.749 439.887 114.729 437.616C111.709 435.345 109.591 431.981 108.781 428.168H56.7271C55.9166 431.981 53.7983 435.345 50.7781 437.616C47.7578 439.887 44.0478 440.906 40.3586 440.477C36.6693 440.047 33.2602 438.201 30.7839 435.29C28.3077 432.38 26.9385 428.61 26.9385 424.703C26.9385 420.796 28.3077 417.026 30.7839 414.115C33.2602 411.205 36.6693 409.358 40.3586 408.929C44.0478 408.5 47.7578 409.518 50.7781 411.789C53.7983 414.061 55.9166 417.425 56.7271 421.237H108.781C109.591 417.425 111.71 414.06 114.73 411.789C117.75 409.518 121.46 408.5 125.15 408.929C128.839 409.359 132.248 411.205 134.724 414.116C137.2 417.027 138.569 420.797 138.569 424.704V424.704Z" stroke="black" stroke-width="2" stroke-miterlimit="10"/>
<path d="M133.478 419.346C133.478 423.253 132.108 427.022 129.632 429.933C127.155 432.843 123.746 434.689 120.057 435.118C116.368 435.547 112.658 434.529 109.638 432.258C106.618 429.987 104.5 426.623 103.689 422.81H51.6358C50.8253 426.623 48.707 429.987 45.6868 432.258C42.6665 434.529 38.9565 435.547 35.2673 435.118C31.578 434.689 28.1689 432.842 25.6926 429.932C23.2164 427.021 21.8472 423.252 21.8472 419.344C21.8472 415.437 23.2164 411.668 25.6926 408.757C28.1689 405.847 31.578 404 35.2673 403.571C38.9565 403.141 42.6665 404.16 45.6868 406.431C48.707 408.702 50.8253 412.066 51.6358 415.879H103.689C104.5 412.066 106.618 408.702 109.639 406.431C112.659 404.16 116.369 403.141 120.058 403.571C123.748 404 127.157 405.847 129.633 408.758C132.109 411.669 133.478 415.439 133.478 419.346V419.346Z" fill="white" stroke="black" stroke-width="2" stroke-miterlimit="10"/>
<path d="M36.921 432.342C43.7399 432.342 49.2677 426.523 49.2677 419.345C49.2677 412.167 43.7399 406.348 36.921 406.348C30.102 406.348 24.5742 412.167 24.5742 419.345C24.5742 426.523 30.102 432.342 36.921 432.342Z" fill="black"/>
<path d="M118.403 432.342C125.222 432.342 130.75 426.523 130.75 419.345C130.75 412.167 125.222 406.348 118.403 406.348C111.584 406.348 106.057 412.167 106.057 419.345C106.057 426.523 111.584 432.342 118.403 432.342Z" fill="black"/>
<path d="M164.612 267.736V285.948C164.612 285.955 164.609 285.962 164.604 285.968C164.599 285.973 164.592 285.976 164.584 285.976H4.35279C4.34917 285.976 4.34558 285.975 4.34223 285.974C4.33888 285.973 4.33584 285.97 4.33328 285.968C4.33071 285.965 4.32868 285.962 4.32729 285.959C4.32591 285.955 4.32519 285.952 4.3252 285.948V267.736C4.32596 270.824 5.51455 273.788 7.63323 275.984C9.7519 278.18 12.6299 279.432 15.643 279.467C18.6562 279.503 21.5617 278.32 23.7295 276.175C25.8973 274.03 27.1526 271.095 27.2232 268.008C27.2197 265.019 28.3031 262.137 30.2617 259.923C32.2204 257.709 34.9138 256.323 37.816 256.035C39.3873 255.914 40.9661 256.126 42.4535 256.66C43.9409 257.193 45.3049 258.035 46.4601 259.133C47.6153 260.232 48.5368 261.563 49.1669 263.043C49.7971 264.523 50.1223 266.121 50.1222 267.736C50.1222 270.847 51.3283 273.832 53.4752 276.032C55.6221 278.232 58.5339 279.468 61.5701 279.468C64.6063 279.468 67.5181 278.232 69.665 276.032C71.812 273.832 73.0181 270.847 73.0181 267.736C73.0181 264.623 74.2245 261.638 76.3719 259.437C78.5192 257.236 81.4317 256 84.4686 256C87.5055 256 90.4179 257.236 92.5653 259.437C94.7127 261.638 95.9191 264.623 95.9191 267.736C95.9195 270.824 97.108 273.787 99.2267 275.983C101.345 278.179 104.223 279.431 107.236 279.466C110.25 279.501 113.155 278.318 115.322 276.172C117.489 274.026 118.743 271.091 118.812 268.003C118.809 265.016 119.892 262.135 121.85 259.922C123.808 257.709 126.5 256.323 129.401 256.035C130.973 255.913 132.553 256.126 134.041 256.658C135.529 257.191 136.894 258.033 138.05 259.132C139.206 260.23 140.128 261.561 140.759 263.041C141.39 264.522 141.716 266.12 141.716 267.736C141.716 270.847 142.922 273.832 145.069 276.032C147.216 278.232 150.128 279.468 153.164 279.468C156.2 279.468 159.112 278.232 161.259 276.032C163.406 273.832 164.612 270.847 164.612 267.736H164.612Z" fill="#0D0D0D" stroke="black" stroke-width="2" stroke-miterlimit="10"/>
<path d="M161.612 264.736V282.948C161.612 282.955 161.609 282.962 161.604 282.968C161.599 282.973 161.592 282.976 161.584 282.976H1.35279C1.34917 282.976 1.34558 282.975 1.34223 282.974C1.33888 282.973 1.33584 282.97 1.33328 282.968C1.33071 282.965 1.32868 282.962 1.32729 282.959C1.32591 282.955 1.32519 282.952 1.3252 282.948V264.736C1.32596 267.824 2.51455 270.788 4.63323 272.984C6.7519 275.18 9.62986 276.432 12.643 276.467C15.6562 276.503 18.5617 275.32 20.7295 273.175C22.8973 271.03 24.1526 268.095 24.2232 265.008C24.2197 262.019 25.3031 259.137 27.2617 256.923C29.2204 254.709 31.9138 253.323 34.816 253.035C36.3873 252.914 37.9661 253.126 39.4535 253.66C40.9409 254.193 42.3049 255.035 43.4601 256.133C44.6153 257.232 45.5368 258.563 46.1669 260.043C46.7971 261.523 47.1223 263.121 47.1222 264.736C47.1222 267.847 48.3283 270.832 50.4752 273.032C52.6221 275.232 55.5339 276.468 58.5701 276.468C61.6063 276.468 64.5181 275.232 66.665 273.032C68.812 270.832 70.0181 267.847 70.0181 264.736C70.0181 261.623 71.2245 258.638 73.3719 256.437C75.5192 254.236 78.4317 253 81.4686 253C84.5055 253 87.4179 254.236 89.5653 256.437C91.7127 258.638 92.9191 261.623 92.9191 264.736C92.9195 267.824 94.108 270.787 96.2267 272.983C98.3454 275.179 101.223 276.431 104.236 276.466C107.25 276.501 110.155 275.318 112.322 273.172C114.489 271.026 115.743 268.091 115.812 265.003C115.809 262.016 116.892 259.135 118.85 256.922C120.808 254.709 123.5 253.323 126.401 253.035C127.973 252.913 129.553 253.126 131.041 253.658C132.529 254.191 133.894 255.033 135.05 256.132C136.206 257.23 137.128 258.561 137.759 260.041C138.39 261.522 138.716 263.12 138.716 264.736C138.716 267.847 139.922 270.832 142.069 273.032C144.216 275.232 147.128 276.468 150.164 276.468C153.2 276.468 156.112 275.232 158.259 273.032C160.406 270.832 161.612 267.847 161.612 264.736H161.612Z" fill="white" stroke="black" stroke-width="2" stroke-miterlimit="10"/>
<path d="M161.805 484.182H6.80469V509.682L35.8047 495.182L60.8047 509.682L82.8047 495.182L108.805 509.682L131.805 495.182L161.805 509.682V484.182Z" fill="black" stroke="black" stroke-width="3"/>
<path d="M159.805 479.182H4.80469V504.682L33.8047 490.182L58.8047 504.682L80.8047 490.182L106.805 504.682L129.805 490.182L159.805 504.682V479.182Z" fill="white" stroke="black" stroke-width="3"/>
<mask id="path-43-inside-2_1259_88589" fill="white">
<path fill-rule="evenodd" clip-rule="evenodd" d="M1 226H25H45H69H92H116H139H163V236V248H139V236H116V248H92V236H69V248H45V236H25V248H1V236V226Z"/>
</mask>
<path fill-rule="evenodd" clip-rule="evenodd" d="M1 226H25H45H69H92H116H139H163V236V248H139V236H116V248H92V236H69V248H45V236H25V248H1V236V226Z" fill="#A500FF"/>
<path d="M1 226V224H-1V226H1ZM163 226H165V224H163V226ZM163 248V250H165V248H163ZM139 248H137V250H139V248ZM139 236H141V234H139V236ZM116 236V234H114V236H116ZM116 248V250H118V248H116ZM92 248H90V250H92V248ZM92 236H94V234H92V236ZM69 236V234H67V236H69ZM69 248V250H71V248H69ZM45 248H43V250H45V248ZM45 236H47V234H45V236ZM25 236V234H23V236H25ZM25 248V250H27V248H25ZM1 248H-1V250H1V248ZM25 224H1V228H25V224ZM45 224H25V228H45V224ZM69 224H45V228H69V224ZM92 224H69V228H92V224ZM116 224H92V228H116V224ZM139 224H116V228H139V224ZM139 228H163V224H139V228ZM161 226V236H165V226H161ZM161 236V248H165V236H161ZM163 246H139V250H163V246ZM141 248V236H137V248H141ZM116 238H139V234H116V238ZM118 248V236H114V248H118ZM92 250H116V246H92V250ZM90 236V248H94V236H90ZM69 238H92V234H69V238ZM71 248V236H67V248H71ZM45 250H69V246H45V250ZM43 236V248H47V236H43ZM25 238H45V234H25V238ZM27 248V236H23V248H27ZM1 250H25V246H1V250ZM-1 236V248H3V236H-1ZM-1 226V236H3V226H-1Z" fill="black" mask="url(#path-43-inside-2_1259_88589)"/>
</svg>
