<svg width="431" height="832" viewBox="0 0 431 832" fill="none" xmlns="http://www.w3.org/2000/svg">
<path d="M338.99 21V8.4H340.934V21H338.99ZM330.764 21V8.4H332.708V21H330.764ZM331.61 15.654V13.782H339.854V15.654H331.61ZM349.587 21V14.844C349.587 14.316 349.395 13.89 349.011 13.566C348.639 13.23 348.165 13.062 347.589 13.062C347.061 13.062 346.581 13.17 346.149 13.386C345.729 13.602 345.345 13.932 344.997 14.376L343.791 13.17C344.355 12.558 344.961 12.102 345.609 11.802C346.269 11.502 346.977 11.352 347.733 11.352C348.453 11.352 349.077 11.472 349.605 11.712C350.133 11.952 350.541 12.306 350.829 12.774C351.117 13.23 351.261 13.788 351.261 14.448V21H349.587ZM346.761 21.18C346.149 21.18 345.603 21.06 345.123 20.82C344.643 20.58 344.259 20.25 343.971 19.83C343.695 19.398 343.557 18.894 343.557 18.318C343.557 17.814 343.647 17.37 343.827 16.986C344.007 16.602 344.271 16.284 344.619 16.032C344.979 15.78 345.423 15.588 345.951 15.456C346.491 15.324 347.109 15.258 347.805 15.258H350.433L350.271 16.734H347.571C347.211 16.734 346.887 16.77 346.599 16.842C346.323 16.902 346.083 17.004 345.879 17.148C345.687 17.28 345.543 17.442 345.447 17.634C345.351 17.814 345.303 18.03 345.303 18.282C345.303 18.546 345.369 18.78 345.501 18.984C345.633 19.176 345.813 19.326 346.041 19.434C346.269 19.542 346.533 19.596 346.833 19.596C347.265 19.596 347.673 19.524 348.057 19.38C348.453 19.224 348.801 19.014 349.101 18.75C349.413 18.486 349.653 18.192 349.821 17.868L350.253 19.074C350.001 19.494 349.689 19.86 349.317 20.172C348.945 20.484 348.543 20.73 348.111 20.91C347.679 21.09 347.229 21.18 346.761 21.18ZM356.755 21.18C355.963 21.18 355.249 21.042 354.613 20.766C353.977 20.49 353.449 20.082 353.029 19.542L354.289 18.462C354.649 18.882 355.039 19.188 355.459 19.38C355.891 19.56 356.377 19.65 356.917 19.65C357.133 19.65 357.331 19.626 357.511 19.578C357.703 19.518 357.865 19.434 357.997 19.326C358.141 19.218 358.249 19.092 358.321 18.948C358.393 18.792 358.429 18.624 358.429 18.444C358.429 18.132 358.315 17.88 358.087 17.688C357.967 17.604 357.775 17.514 357.511 17.418C357.259 17.31 356.929 17.202 356.521 17.094C355.825 16.914 355.255 16.71 354.811 16.482C354.367 16.254 354.025 15.996 353.785 15.708C353.605 15.48 353.473 15.234 353.389 14.97C353.305 14.694 353.263 14.394 353.263 14.07C353.263 13.542 353.413 13.074 353.713 12.666C354.013 12.258 354.415 11.94 354.919 11.712C355.435 11.472 356.011 11.352 356.647 11.352C357.091 11.352 357.529 11.412 357.961 11.532C358.405 11.652 358.813 11.826 359.185 12.054C359.557 12.282 359.869 12.552 360.121 12.864L359.059 14.034C358.831 13.806 358.579 13.608 358.303 13.44C358.039 13.26 357.769 13.122 357.493 13.026C357.217 12.93 356.965 12.882 356.737 12.882C356.485 12.882 356.257 12.906 356.053 12.954C355.849 13.002 355.675 13.074 355.531 13.17C355.399 13.266 355.297 13.386 355.225 13.53C355.153 13.674 355.117 13.836 355.117 14.016C355.129 14.172 355.165 14.322 355.225 14.466C355.297 14.598 355.393 14.712 355.513 14.808C355.645 14.904 355.843 15.006 356.107 15.114C356.371 15.222 356.707 15.324 357.115 15.42C357.715 15.576 358.207 15.75 358.591 15.942C358.987 16.122 359.299 16.332 359.527 16.572C359.767 16.8 359.935 17.064 360.031 17.364C360.127 17.664 360.175 18 360.175 18.372C360.175 18.912 360.019 19.398 359.707 19.83C359.407 20.25 358.999 20.58 358.483 20.82C357.967 21.06 357.391 21.18 356.755 21.18ZM362.218 21V7.68H364.072V13.494L363.748 13.71C363.868 13.29 364.102 12.906 364.45 12.558C364.798 12.198 365.212 11.91 365.692 11.694C366.172 11.466 366.664 11.352 367.168 11.352C367.888 11.352 368.488 11.496 368.968 11.784C369.448 12.06 369.808 12.486 370.048 13.062C370.288 13.638 370.408 14.364 370.408 15.24V21H368.554V15.366C368.554 14.826 368.482 14.382 368.338 14.034C368.194 13.674 367.972 13.416 367.672 13.26C367.372 13.092 367 13.02 366.556 13.044C366.196 13.044 365.866 13.104 365.566 13.224C365.266 13.332 365.002 13.488 364.774 13.692C364.558 13.896 364.384 14.136 364.252 14.412C364.132 14.676 364.072 14.964 364.072 15.276V21H363.154C362.998 21 362.842 21 362.686 21C362.53 21 362.374 21 362.218 21ZM382.216 21.18C381.292 21.18 380.464 20.97 379.732 20.55C379.012 20.118 378.442 19.536 378.022 18.804C377.602 18.06 377.392 17.214 377.392 16.266C377.392 15.318 377.602 14.478 378.022 13.746C378.442 13.002 379.012 12.42 379.732 12C380.464 11.568 381.292 11.352 382.216 11.352C383.128 11.352 383.944 11.568 384.664 12C385.396 12.42 385.972 13.002 386.392 13.746C386.812 14.478 387.022 15.318 387.022 16.266C387.022 17.214 386.812 18.06 386.392 18.804C385.972 19.536 385.396 20.118 384.664 20.55C383.944 20.97 383.128 21.18 382.216 21.18ZM382.216 19.488C382.78 19.488 383.284 19.35 383.728 19.074C384.172 18.786 384.52 18.402 384.772 17.922C385.024 17.43 385.144 16.878 385.132 16.266C385.144 15.642 385.024 15.09 384.772 14.61C384.52 14.118 384.172 13.734 383.728 13.458C383.284 13.182 382.78 13.044 382.216 13.044C381.652 13.044 381.142 13.188 380.686 13.476C380.242 13.752 379.894 14.136 379.642 14.628C379.39 15.108 379.27 15.654 379.282 16.266C379.27 16.878 379.39 17.43 379.642 17.922C379.894 18.402 380.242 18.786 380.686 19.074C381.142 19.35 381.652 19.488 382.216 19.488ZM389.717 21V10.488C389.717 9.948 389.837 9.468 390.077 9.048C390.317 8.628 390.647 8.298 391.067 8.058C391.487 7.818 391.973 7.698 392.525 7.698C392.909 7.698 393.269 7.77 393.605 7.914C393.941 8.058 394.211 8.25 394.415 8.49L393.785 9.912C393.629 9.768 393.455 9.654 393.263 9.57C393.083 9.474 392.909 9.426 392.741 9.426C392.489 9.426 392.273 9.468 392.093 9.552C391.925 9.624 391.799 9.744 391.715 9.912C391.631 10.068 391.589 10.26 391.589 10.488V21H390.653C390.497 21 390.341 21 390.185 21C390.029 21 389.873 21 389.717 21ZM388.205 13.422V11.712H393.821V13.422H388.205ZM401.972 21V9.138H403.826V21H401.972ZM400.01 13.35V11.55H406.022V13.35H400.01ZM407.71 21V7.68H409.564V13.494L409.24 13.71C409.36 13.29 409.594 12.906 409.942 12.558C410.29 12.198 410.704 11.91 411.184 11.694C411.664 11.466 412.156 11.352 412.66 11.352C413.38 11.352 413.98 11.496 414.46 11.784C414.94 12.06 415.3 12.486 415.54 13.062C415.78 13.638 415.9 14.364 415.9 15.24V21H414.046V15.366C414.046 14.826 413.974 14.382 413.83 14.034C413.686 13.674 413.464 13.416 413.164 13.26C412.864 13.092 412.492 13.02 412.048 13.044C411.688 13.044 411.358 13.104 411.058 13.224C410.758 13.332 410.494 13.488 410.266 13.692C410.05 13.896 409.876 14.136 409.744 14.412C409.624 14.676 409.564 14.964 409.564 15.276V21H408.646C408.49 21 408.334 21 408.178 21C408.022 21 407.866 21 407.71 21ZM422.825 21.18C421.853 21.18 420.989 20.976 420.233 20.568C419.489 20.148 418.901 19.578 418.469 18.858C418.049 18.138 417.839 17.31 417.839 16.374C417.839 15.63 417.959 14.952 418.199 14.34C418.439 13.728 418.769 13.2 419.189 12.756C419.621 12.3 420.131 11.952 420.719 11.712C421.319 11.46 421.967 11.334 422.663 11.334C423.275 11.334 423.845 11.454 424.373 11.694C424.901 11.922 425.357 12.24 425.741 12.648C426.137 13.056 426.437 13.542 426.641 14.106C426.857 14.658 426.959 15.264 426.947 15.924L426.929 16.716H419.207L418.793 15.24H425.327L425.057 15.546V15.114C425.021 14.718 424.889 14.364 424.661 14.052C424.433 13.74 424.145 13.494 423.797 13.314C423.449 13.134 423.071 13.044 422.663 13.044C422.015 13.044 421.469 13.17 421.025 13.422C420.581 13.662 420.245 14.022 420.017 14.502C419.789 14.97 419.675 15.552 419.675 16.248C419.675 16.908 419.813 17.484 420.089 17.976C420.365 18.456 420.755 18.828 421.259 19.092C421.763 19.356 422.345 19.488 423.005 19.488C423.473 19.488 423.905 19.41 424.301 19.254C424.709 19.098 425.147 18.816 425.615 18.408L426.551 19.722C426.263 20.01 425.909 20.262 425.489 20.478C425.081 20.694 424.643 20.868 424.175 21C423.719 21.12 423.269 21.18 422.825 21.18ZM330.296 47.96V34.55H332.168V36.71L331.88 36.548C331.952 36.188 332.156 35.846 332.492 35.522C332.828 35.186 333.236 34.916 333.716 34.712C334.208 34.496 334.712 34.388 335.228 34.388C336.08 34.388 336.836 34.598 337.496 35.018C338.156 35.438 338.678 36.014 339.062 36.746C339.446 37.478 339.638 38.318 339.638 39.266C339.638 40.202 339.446 41.042 339.062 41.786C338.69 42.518 338.174 43.1 337.514 43.532C336.854 43.952 336.11 44.162 335.282 44.162C334.73 44.162 334.196 44.054 333.68 43.838C333.164 43.61 332.726 43.322 332.366 42.974C332.006 42.626 331.784 42.266 331.7 41.894L332.168 41.642V47.96H330.296ZM334.976 42.452C335.528 42.452 336.02 42.314 336.452 42.038C336.884 41.762 337.226 41.384 337.478 40.904C337.73 40.424 337.856 39.878 337.856 39.266C337.856 38.654 337.73 38.114 337.478 37.646C337.238 37.166 336.902 36.788 336.47 36.512C336.038 36.236 335.54 36.098 334.976 36.098C334.412 36.098 333.914 36.236 333.482 36.512C333.05 36.776 332.708 37.148 332.456 37.628C332.204 38.108 332.078 38.654 332.078 39.266C332.078 39.878 332.204 40.424 332.456 40.904C332.708 41.384 333.05 41.762 333.482 42.038C333.914 42.314 334.412 42.452 334.976 42.452ZM341.651 44V34.55H343.523V37.52L343.343 36.8C343.475 36.344 343.697 35.93 344.009 35.558C344.333 35.186 344.699 34.892 345.107 34.676C345.527 34.46 345.959 34.352 346.403 34.352C346.607 34.352 346.799 34.37 346.979 34.406C347.171 34.442 347.321 34.484 347.429 34.532L346.943 36.548C346.799 36.488 346.637 36.44 346.457 36.404C346.289 36.356 346.121 36.332 345.953 36.332C345.629 36.332 345.317 36.398 345.017 36.53C344.729 36.65 344.471 36.824 344.243 37.052C344.027 37.268 343.853 37.526 343.721 37.826C343.589 38.114 343.523 38.432 343.523 38.78V44H341.651ZM352.917 44.18C351.945 44.18 351.081 43.976 350.325 43.568C349.581 43.148 348.993 42.578 348.561 41.858C348.141 41.138 347.931 40.31 347.931 39.374C347.931 38.63 348.051 37.952 348.291 37.34C348.531 36.728 348.861 36.2 349.281 35.756C349.713 35.3 350.223 34.952 350.811 34.712C351.411 34.46 352.059 34.334 352.755 34.334C353.367 34.334 353.937 34.454 354.465 34.694C354.993 34.922 355.449 35.24 355.833 35.648C356.229 36.056 356.529 36.542 356.733 37.106C356.949 37.658 357.051 38.264 357.039 38.924L357.021 39.716H349.299L348.885 38.24H355.419L355.149 38.546V38.114C355.113 37.718 354.981 37.364 354.753 37.052C354.525 36.74 354.237 36.494 353.889 36.314C353.541 36.134 353.163 36.044 352.755 36.044C352.107 36.044 351.561 36.17 351.117 36.422C350.673 36.662 350.337 37.022 350.109 37.502C349.881 37.97 349.767 38.552 349.767 39.248C349.767 39.908 349.905 40.484 350.181 40.976C350.457 41.456 350.847 41.828 351.351 42.092C351.855 42.356 352.437 42.488 353.097 42.488C353.565 42.488 353.997 42.41 354.393 42.254C354.801 42.098 355.239 41.816 355.707 41.408L356.643 42.722C356.355 43.01 356.001 43.262 355.581 43.478C355.173 43.694 354.735 43.868 354.267 44C353.811 44.12 353.361 44.18 352.917 44.18ZM361.974 44L357.978 34.55H359.976L362.856 41.624L362.514 41.786L365.592 34.55H367.5L363.306 44H361.974ZM369.502 44V34.55H371.356V44H369.502ZM370.402 32.462C370.006 32.462 369.7 32.36 369.484 32.156C369.268 31.952 369.16 31.664 369.16 31.292C369.16 30.944 369.268 30.662 369.484 30.446C369.712 30.23 370.018 30.122 370.402 30.122C370.798 30.122 371.104 30.224 371.32 30.428C371.536 30.632 371.644 30.92 371.644 31.292C371.644 31.64 371.53 31.922 371.302 32.138C371.086 32.354 370.786 32.462 370.402 32.462ZM378.454 44.18C377.53 44.18 376.702 43.97 375.97 43.55C375.25 43.118 374.68 42.536 374.26 41.804C373.84 41.06 373.63 40.214 373.63 39.266C373.63 38.318 373.84 37.478 374.26 36.746C374.68 36.002 375.25 35.42 375.97 35C376.702 34.568 377.53 34.352 378.454 34.352C379.366 34.352 380.182 34.568 380.902 35C381.634 35.42 382.21 36.002 382.63 36.746C383.05 37.478 383.26 38.318 383.26 39.266C383.26 40.214 383.05 41.06 382.63 41.804C382.21 42.536 381.634 43.118 380.902 43.55C380.182 43.97 379.366 44.18 378.454 44.18ZM378.454 42.488C379.018 42.488 379.522 42.35 379.966 42.074C380.41 41.786 380.758 41.402 381.01 40.922C381.262 40.43 381.382 39.878 381.37 39.266C381.382 38.642 381.262 38.09 381.01 37.61C380.758 37.118 380.41 36.734 379.966 36.458C379.522 36.182 379.018 36.044 378.454 36.044C377.89 36.044 377.38 36.188 376.924 36.476C376.48 36.752 376.132 37.136 375.88 37.628C375.628 38.108 375.508 38.654 375.52 39.266C375.508 39.878 375.628 40.43 375.88 40.922C376.132 41.402 376.48 41.786 376.924 42.074C377.38 42.35 377.89 42.488 378.454 42.488ZM388.592 44.18C387.92 44.18 387.332 44.024 386.828 43.712C386.336 43.4 385.952 42.962 385.676 42.398C385.412 41.834 385.28 41.162 385.28 40.382V34.55H387.134V39.878C387.134 40.706 387.326 41.36 387.71 41.84C388.106 42.32 388.652 42.56 389.348 42.56C389.696 42.56 390.014 42.506 390.302 42.398C390.59 42.278 390.836 42.116 391.04 41.912C391.256 41.708 391.424 41.462 391.544 41.174C391.664 40.886 391.724 40.574 391.724 40.238V34.55H393.578V44H391.724V42.02L392.048 41.804C391.904 42.248 391.658 42.65 391.31 43.01C390.974 43.37 390.572 43.658 390.104 43.874C389.636 44.078 389.132 44.18 388.592 44.18ZM399.329 44.18C398.537 44.18 397.823 44.042 397.187 43.766C396.551 43.49 396.023 43.082 395.603 42.542L396.863 41.462C397.223 41.882 397.613 42.188 398.033 42.38C398.465 42.56 398.951 42.65 399.491 42.65C399.707 42.65 399.905 42.626 400.085 42.578C400.277 42.518 400.439 42.434 400.571 42.326C400.715 42.218 400.823 42.092 400.895 41.948C400.967 41.792 401.003 41.624 401.003 41.444C401.003 41.132 400.889 40.88 400.661 40.688C400.541 40.604 400.349 40.514 400.085 40.418C399.833 40.31 399.503 40.202 399.095 40.094C398.399 39.914 397.829 39.71 397.385 39.482C396.941 39.254 396.599 38.996 396.359 38.708C396.179 38.48 396.047 38.234 395.963 37.97C395.879 37.694 395.837 37.394 395.837 37.07C395.837 36.542 395.987 36.074 396.287 35.666C396.587 35.258 396.989 34.94 397.493 34.712C398.009 34.472 398.585 34.352 399.221 34.352C399.665 34.352 400.103 34.412 400.535 34.532C400.979 34.652 401.387 34.826 401.759 35.054C402.131 35.282 402.443 35.552 402.695 35.864L401.633 37.034C401.405 36.806 401.153 36.608 400.877 36.44C400.613 36.26 400.343 36.122 400.067 36.026C399.791 35.93 399.539 35.882 399.311 35.882C399.059 35.882 398.831 35.906 398.627 35.954C398.423 36.002 398.249 36.074 398.105 36.17C397.973 36.266 397.871 36.386 397.799 36.53C397.727 36.674 397.691 36.836 397.691 37.016C397.703 37.172 397.739 37.322 397.799 37.466C397.871 37.598 397.967 37.712 398.087 37.808C398.219 37.904 398.417 38.006 398.681 38.114C398.945 38.222 399.281 38.324 399.689 38.42C400.289 38.576 400.781 38.75 401.165 38.942C401.561 39.122 401.873 39.332 402.101 39.572C402.341 39.8 402.509 40.064 402.605 40.364C402.701 40.664 402.749 41 402.749 41.372C402.749 41.912 402.593 42.398 402.281 42.83C401.981 43.25 401.573 43.58 401.057 43.82C400.541 44.06 399.965 44.18 399.329 44.18ZM335.264 67.18C334.856 67.18 334.448 67.114 334.04 66.982C333.644 66.85 333.278 66.676 332.942 66.46C332.618 66.232 332.342 65.986 332.114 65.722C331.898 65.446 331.754 65.17 331.682 64.894L332.15 64.642V66.946H330.296V53.68H332.15V59.71L331.862 59.548C331.922 59.272 332.054 59.008 332.258 58.756C332.462 58.492 332.72 58.258 333.032 58.054C333.356 57.838 333.704 57.67 334.076 57.55C334.448 57.418 334.826 57.352 335.21 57.352C336.062 57.352 336.818 57.562 337.478 57.982C338.138 58.402 338.66 58.984 339.044 59.728C339.428 60.46 339.62 61.3 339.62 62.248C339.62 63.196 339.428 64.042 339.044 64.786C338.672 65.53 338.156 66.118 337.496 66.55C336.836 66.97 336.092 67.18 335.264 67.18ZM334.958 65.488C335.51 65.488 336.002 65.35 336.434 65.074C336.866 64.786 337.208 64.402 337.46 63.922C337.712 63.43 337.838 62.872 337.838 62.248C337.838 61.636 337.712 61.09 337.46 60.61C337.22 60.118 336.884 59.734 336.452 59.458C336.02 59.182 335.522 59.044 334.958 59.044C334.394 59.044 333.896 59.182 333.464 59.458C333.032 59.734 332.69 60.118 332.438 60.61C332.186 61.09 332.06 61.636 332.06 62.248C332.06 62.872 332.186 63.43 332.438 63.922C332.69 64.402 333.032 64.786 333.464 65.074C333.896 65.35 334.394 65.488 334.958 65.488ZM341.67 67V53.68H343.524V67H341.67ZM350.224 67.18C349.3 67.18 348.472 66.97 347.74 66.55C347.02 66.118 346.45 65.536 346.03 64.804C345.61 64.06 345.4 63.214 345.4 62.266C345.4 61.318 345.61 60.478 346.03 59.746C346.45 59.002 347.02 58.42 347.74 58C348.472 57.568 349.3 57.352 350.224 57.352C351.136 57.352 351.952 57.568 352.672 58C353.404 58.42 353.98 59.002 354.4 59.746C354.82 60.478 355.03 61.318 355.03 62.266C355.03 63.214 354.82 64.06 354.4 64.804C353.98 65.536 353.404 66.118 352.672 66.55C351.952 66.97 351.136 67.18 350.224 67.18ZM350.224 65.488C350.788 65.488 351.292 65.35 351.736 65.074C352.18 64.786 352.528 64.402 352.78 63.922C353.032 63.43 353.152 62.878 353.14 62.266C353.152 61.642 353.032 61.09 352.78 60.61C352.528 60.118 352.18 59.734 351.736 59.458C351.292 59.182 350.788 59.044 350.224 59.044C349.66 59.044 349.15 59.188 348.694 59.476C348.25 59.752 347.902 60.136 347.65 60.628C347.398 61.108 347.278 61.654 347.29 62.266C347.278 62.878 347.398 63.43 347.65 63.922C347.902 64.402 348.25 64.786 348.694 65.074C349.15 65.35 349.66 65.488 350.224 65.488ZM361.064 67.18C360.188 67.18 359.402 66.964 358.706 66.532C358.022 66.1 357.476 65.512 357.068 64.768C356.672 64.024 356.474 63.19 356.474 62.266C356.474 61.342 356.672 60.508 357.068 59.764C357.476 59.02 358.022 58.432 358.706 58C359.402 57.568 360.188 57.352 361.064 57.352C361.904 57.352 362.666 57.526 363.35 57.874C364.046 58.21 364.574 58.672 364.934 59.26L363.908 60.52C363.716 60.244 363.47 59.992 363.17 59.764C362.87 59.536 362.552 59.356 362.216 59.224C361.88 59.092 361.556 59.026 361.244 59.026C360.668 59.026 360.152 59.17 359.696 59.458C359.252 59.734 358.898 60.118 358.634 60.61C358.37 61.102 358.238 61.654 358.238 62.266C358.238 62.878 358.376 63.43 358.652 63.922C358.928 64.402 359.294 64.786 359.75 65.074C360.206 65.362 360.71 65.506 361.262 65.506C361.586 65.506 361.898 65.452 362.198 65.344C362.51 65.236 362.81 65.074 363.098 64.858C363.386 64.642 363.656 64.378 363.908 64.066L364.934 65.326C364.55 65.866 363.998 66.31 363.278 66.658C362.57 67.006 361.832 67.18 361.064 67.18ZM368.375 64.048L368.285 62.032L372.803 57.55H375.305L368.375 64.048ZM366.683 67V53.68H368.537V67H366.683ZM373.055 67L369.491 62.842L370.805 61.636L375.431 67H373.055ZM382.264 67V57.55H384.118V67H382.264ZM383.164 55.462C382.768 55.462 382.462 55.36 382.246 55.156C382.03 54.952 381.922 54.664 381.922 54.292C381.922 53.944 382.03 53.662 382.246 53.446C382.474 53.23 382.78 53.122 383.164 53.122C383.56 53.122 383.866 53.224 384.082 53.428C384.298 53.632 384.406 53.92 384.406 54.292C384.406 54.64 384.292 54.922 384.064 55.138C383.848 55.354 383.548 55.462 383.164 55.462ZM386.968 67V57.55H388.822V59.494L388.498 59.71C388.618 59.29 388.852 58.906 389.2 58.558C389.548 58.198 389.962 57.91 390.442 57.694C390.922 57.466 391.414 57.352 391.918 57.352C392.638 57.352 393.238 57.496 393.718 57.784C394.198 58.06 394.558 58.486 394.798 59.062C395.038 59.638 395.158 60.364 395.158 61.24V67H393.304V61.366C393.304 60.826 393.232 60.382 393.088 60.034C392.944 59.674 392.722 59.416 392.422 59.26C392.122 59.092 391.75 59.02 391.306 59.044C390.946 59.044 390.616 59.104 390.316 59.224C390.016 59.332 389.752 59.488 389.524 59.692C389.308 59.896 389.134 60.136 389.002 60.412C388.882 60.676 388.822 60.964 388.822 61.276V67H387.904C387.748 67 387.592 67 387.436 67C387.28 67 387.124 67 386.968 67ZM403.888 67V55.138H405.742V67H403.888ZM401.926 59.35V57.55H407.938V59.35H401.926ZM409.626 67V53.68H411.48V59.494L411.156 59.71C411.276 59.29 411.51 58.906 411.858 58.558C412.206 58.198 412.62 57.91 413.1 57.694C413.58 57.466 414.072 57.352 414.576 57.352C415.296 57.352 415.896 57.496 416.376 57.784C416.856 58.06 417.216 58.486 417.456 59.062C417.696 59.638 417.816 60.364 417.816 61.24V67H415.962V61.366C415.962 60.826 415.89 60.382 415.746 60.034C415.602 59.674 415.38 59.416 415.08 59.26C414.78 59.092 414.408 59.02 413.964 59.044C413.604 59.044 413.274 59.104 412.974 59.224C412.674 59.332 412.41 59.488 412.182 59.692C411.966 59.896 411.792 60.136 411.66 60.412C411.54 60.676 411.48 60.964 411.48 61.276V67H410.562C410.406 67 410.25 67 410.094 67C409.938 67 409.782 67 409.626 67ZM424.741 67.18C423.769 67.18 422.905 66.976 422.149 66.568C421.405 66.148 420.817 65.578 420.385 64.858C419.965 64.138 419.755 63.31 419.755 62.374C419.755 61.63 419.875 60.952 420.115 60.34C420.355 59.728 420.685 59.2 421.105 58.756C421.537 58.3 422.047 57.952 422.635 57.712C423.235 57.46 423.883 57.334 424.579 57.334C425.191 57.334 425.761 57.454 426.289 57.694C426.817 57.922 427.273 58.24 427.657 58.648C428.053 59.056 428.353 59.542 428.557 60.106C428.773 60.658 428.875 61.264 428.863 61.924L428.845 62.716H421.123L420.709 61.24H427.243L426.973 61.546V61.114C426.937 60.718 426.805 60.364 426.577 60.052C426.349 59.74 426.061 59.494 425.713 59.314C425.365 59.134 424.987 59.044 424.579 59.044C423.931 59.044 423.385 59.17 422.941 59.422C422.497 59.662 422.161 60.022 421.933 60.502C421.705 60.97 421.591 61.552 421.591 62.248C421.591 62.908 421.729 63.484 422.005 63.976C422.281 64.456 422.671 64.828 423.175 65.092C423.679 65.356 424.261 65.488 424.921 65.488C425.389 65.488 425.821 65.41 426.217 65.254C426.625 65.098 427.063 64.816 427.531 64.408L428.467 65.722C428.179 66.01 427.825 66.262 427.405 66.478C426.997 66.694 426.559 66.868 426.091 67C425.635 67.12 425.185 67.18 424.741 67.18ZM334.31 90.18C333.434 90.18 332.648 89.964 331.952 89.532C331.268 89.1 330.722 88.512 330.314 87.768C329.918 87.024 329.72 86.19 329.72 85.266C329.72 84.342 329.918 83.508 330.314 82.764C330.722 82.02 331.268 81.432 331.952 81C332.648 80.568 333.434 80.352 334.31 80.352C335.15 80.352 335.912 80.526 336.596 80.874C337.292 81.21 337.82 81.672 338.18 82.26L337.154 83.52C336.962 83.244 336.716 82.992 336.416 82.764C336.116 82.536 335.798 82.356 335.462 82.224C335.126 82.092 334.802 82.026 334.49 82.026C333.914 82.026 333.398 82.17 332.942 82.458C332.498 82.734 332.144 83.118 331.88 83.61C331.616 84.102 331.484 84.654 331.484 85.266C331.484 85.878 331.622 86.43 331.898 86.922C332.174 87.402 332.54 87.786 332.996 88.074C333.452 88.362 333.956 88.506 334.508 88.506C334.832 88.506 335.144 88.452 335.444 88.344C335.756 88.236 336.056 88.074 336.344 87.858C336.632 87.642 336.902 87.378 337.154 87.066L338.18 88.326C337.796 88.866 337.244 89.31 336.524 89.658C335.816 90.006 335.078 90.18 334.31 90.18ZM339.929 90V76.68H341.783V82.494L341.459 82.71C341.579 82.29 341.813 81.906 342.161 81.558C342.509 81.198 342.923 80.91 343.403 80.694C343.883 80.466 344.375 80.352 344.879 80.352C345.599 80.352 346.199 80.496 346.679 80.784C347.159 81.06 347.519 81.486 347.759 82.062C347.999 82.638 348.119 83.364 348.119 84.24V90H346.265V84.366C346.265 83.826 346.193 83.382 346.049 83.034C345.905 82.674 345.683 82.416 345.383 82.26C345.083 82.092 344.711 82.02 344.267 82.044C343.907 82.044 343.577 82.104 343.277 82.224C342.977 82.332 342.713 82.488 342.485 82.692C342.269 82.896 342.095 83.136 341.963 83.412C341.843 83.676 341.783 83.964 341.783 84.276V90H340.865C340.709 90 340.553 90 340.397 90C340.241 90 340.085 90 339.929 90ZM356.232 90V83.844C356.232 83.316 356.04 82.89 355.656 82.566C355.284 82.23 354.81 82.062 354.234 82.062C353.706 82.062 353.226 82.17 352.794 82.386C352.374 82.602 351.99 82.932 351.642 83.376L350.436 82.17C351 81.558 351.606 81.102 352.254 80.802C352.914 80.502 353.622 80.352 354.378 80.352C355.098 80.352 355.722 80.472 356.25 80.712C356.778 80.952 357.186 81.306 357.474 81.774C357.762 82.23 357.906 82.788 357.906 83.448V90H356.232ZM353.406 90.18C352.794 90.18 352.248 90.06 351.768 89.82C351.288 89.58 350.904 89.25 350.616 88.83C350.34 88.398 350.202 87.894 350.202 87.318C350.202 86.814 350.292 86.37 350.472 85.986C350.652 85.602 350.916 85.284 351.264 85.032C351.624 84.78 352.068 84.588 352.596 84.456C353.136 84.324 353.754 84.258 354.45 84.258H357.078L356.916 85.734H354.216C353.856 85.734 353.532 85.77 353.244 85.842C352.968 85.902 352.728 86.004 352.524 86.148C352.332 86.28 352.188 86.442 352.092 86.634C351.996 86.814 351.948 87.03 351.948 87.282C351.948 87.546 352.014 87.78 352.146 87.984C352.278 88.176 352.458 88.326 352.686 88.434C352.914 88.542 353.178 88.596 353.478 88.596C353.91 88.596 354.318 88.524 354.702 88.38C355.098 88.224 355.446 88.014 355.746 87.75C356.058 87.486 356.298 87.192 356.466 86.868L356.898 88.074C356.646 88.494 356.334 88.86 355.962 89.172C355.59 89.484 355.188 89.73 354.756 89.91C354.324 90.09 353.874 90.18 353.406 90.18ZM360.555 90V80.55H362.409V90H360.555ZM361.455 78.462C361.059 78.462 360.753 78.36 360.537 78.156C360.321 77.952 360.213 77.664 360.213 77.292C360.213 76.944 360.321 76.662 360.537 76.446C360.765 76.23 361.071 76.122 361.455 76.122C361.851 76.122 362.157 76.224 362.373 76.428C362.589 76.632 362.697 76.92 362.697 77.292C362.697 77.64 362.583 77.922 362.355 78.138C362.139 78.354 361.839 78.462 361.455 78.462ZM365.259 90V80.55H367.113V82.494L366.789 82.71C366.909 82.29 367.143 81.906 367.491 81.558C367.839 81.198 368.253 80.91 368.733 80.694C369.213 80.466 369.705 80.352 370.209 80.352C370.929 80.352 371.529 80.496 372.009 80.784C372.489 81.06 372.849 81.486 373.089 82.062C373.329 82.638 373.449 83.364 373.449 84.24V90H371.595V84.366C371.595 83.826 371.523 83.382 371.379 83.034C371.235 82.674 371.013 82.416 370.713 82.26C370.413 82.092 370.041 82.02 369.597 82.044C369.237 82.044 368.907 82.104 368.607 82.224C368.307 82.332 368.043 82.488 367.815 82.692C367.599 82.896 367.425 83.136 367.293 83.412C367.173 83.676 367.113 83.964 367.113 84.276V90H366.195C366.039 90 365.883 90 365.727 90C365.571 90 365.415 90 365.259 90Z" fill="#0D0D0D"/>
<path d="M330.764 369V356.4H336.02C336.824 356.4 337.502 356.52 338.054 356.76C338.606 357 339.02 357.36 339.296 357.84C339.584 358.308 339.728 358.884 339.728 359.568C339.728 360.252 339.536 360.834 339.152 361.314C338.78 361.794 338.258 362.124 337.586 362.304V361.944C338.15 362.064 338.642 362.28 339.062 362.592C339.482 362.892 339.806 363.27 340.034 363.726C340.274 364.182 340.394 364.704 340.394 365.292C340.394 365.892 340.298 366.426 340.106 366.894C339.926 367.35 339.65 367.734 339.278 368.046C338.918 368.358 338.48 368.598 337.964 368.766C337.448 368.922 336.86 369 336.2 369H330.764ZM332.708 367.128H336.092C336.824 367.128 337.394 366.966 337.802 366.642C338.21 366.318 338.414 365.856 338.414 365.256C338.414 364.884 338.312 364.566 338.108 364.302C337.916 364.038 337.64 363.84 337.28 363.708C336.92 363.564 336.494 363.492 336.002 363.492H332.708V367.128ZM332.708 361.62H335.912C336.272 361.62 336.59 361.548 336.866 361.404C337.154 361.26 337.376 361.062 337.532 360.81C337.7 360.558 337.784 360.27 337.784 359.946C337.784 359.406 337.604 358.992 337.244 358.704C336.884 358.416 336.368 358.272 335.696 358.272H332.708V361.62ZM342.531 369V355.68H344.385V369H342.531ZM351.085 369.18C350.161 369.18 349.333 368.97 348.601 368.55C347.881 368.118 347.311 367.536 346.891 366.804C346.471 366.06 346.261 365.214 346.261 364.266C346.261 363.318 346.471 362.478 346.891 361.746C347.311 361.002 347.881 360.42 348.601 360C349.333 359.568 350.161 359.352 351.085 359.352C351.997 359.352 352.813 359.568 353.533 360C354.265 360.42 354.841 361.002 355.261 361.746C355.681 362.478 355.891 363.318 355.891 364.266C355.891 365.214 355.681 366.06 355.261 366.804C354.841 367.536 354.265 368.118 353.533 368.55C352.813 368.97 351.997 369.18 351.085 369.18ZM351.085 367.488C351.649 367.488 352.153 367.35 352.597 367.074C353.041 366.786 353.389 366.402 353.641 365.922C353.893 365.43 354.013 364.878 354.001 364.266C354.013 363.642 353.893 363.09 353.641 362.61C353.389 362.118 353.041 361.734 352.597 361.458C352.153 361.182 351.649 361.044 351.085 361.044C350.521 361.044 350.011 361.188 349.555 361.476C349.111 361.752 348.763 362.136 348.511 362.628C348.259 363.108 348.139 363.654 348.151 364.266C348.139 364.878 348.259 365.43 348.511 365.922C348.763 366.402 349.111 366.786 349.555 367.074C350.011 367.35 350.521 367.488 351.085 367.488ZM361.925 369.18C361.049 369.18 360.263 368.964 359.567 368.532C358.883 368.1 358.337 367.512 357.929 366.768C357.533 366.024 357.335 365.19 357.335 364.266C357.335 363.342 357.533 362.508 357.929 361.764C358.337 361.02 358.883 360.432 359.567 360C360.263 359.568 361.049 359.352 361.925 359.352C362.765 359.352 363.527 359.526 364.211 359.874C364.907 360.21 365.435 360.672 365.795 361.26L364.769 362.52C364.577 362.244 364.331 361.992 364.031 361.764C363.731 361.536 363.413 361.356 363.077 361.224C362.741 361.092 362.417 361.026 362.105 361.026C361.529 361.026 361.013 361.17 360.557 361.458C360.113 361.734 359.759 362.118 359.495 362.61C359.231 363.102 359.099 363.654 359.099 364.266C359.099 364.878 359.237 365.43 359.513 365.922C359.789 366.402 360.155 366.786 360.611 367.074C361.067 367.362 361.571 367.506 362.123 367.506C362.447 367.506 362.759 367.452 363.059 367.344C363.371 367.236 363.671 367.074 363.959 366.858C364.247 366.642 364.517 366.378 364.769 366.066L365.795 367.326C365.411 367.866 364.859 368.31 364.139 368.658C363.431 369.006 362.693 369.18 361.925 369.18ZM369.236 366.048L369.146 364.032L373.664 359.55H376.166L369.236 366.048ZM367.544 369V355.68H369.398V369H367.544ZM373.916 369L370.352 364.842L371.666 363.636L376.292 369H373.916ZM377.523 360.45L376.839 359.622C377.307 359.406 377.691 359.16 377.991 358.884C378.291 358.608 378.441 358.368 378.441 358.164C378.441 358.008 378.375 357.87 378.243 357.75C378.111 357.618 377.991 357.51 377.883 357.426C377.619 357.21 377.439 357.03 377.343 356.886C377.259 356.742 377.217 356.592 377.217 356.436C377.217 356.148 377.319 355.92 377.523 355.752C377.727 355.572 377.991 355.482 378.315 355.482C378.651 355.482 378.951 355.572 379.215 355.752C379.491 355.92 379.707 356.154 379.863 356.454C380.019 356.754 380.097 357.108 380.097 357.516C380.097 357.828 380.031 358.134 379.899 358.434C379.767 358.734 379.581 359.016 379.341 359.28C379.113 359.544 378.843 359.778 378.531 359.982C378.219 360.186 377.883 360.342 377.523 360.45ZM385.266 369.18C384.474 369.18 383.76 369.042 383.124 368.766C382.488 368.49 381.96 368.082 381.54 367.542L382.8 366.462C383.16 366.882 383.55 367.188 383.97 367.38C384.402 367.56 384.888 367.65 385.428 367.65C385.644 367.65 385.842 367.626 386.022 367.578C386.214 367.518 386.376 367.434 386.508 367.326C386.652 367.218 386.76 367.092 386.832 366.948C386.904 366.792 386.94 366.624 386.94 366.444C386.94 366.132 386.826 365.88 386.598 365.688C386.478 365.604 386.286 365.514 386.022 365.418C385.77 365.31 385.44 365.202 385.032 365.094C384.336 364.914 383.766 364.71 383.322 364.482C382.878 364.254 382.536 363.996 382.296 363.708C382.116 363.48 381.984 363.234 381.9 362.97C381.816 362.694 381.774 362.394 381.774 362.07C381.774 361.542 381.924 361.074 382.224 360.666C382.524 360.258 382.926 359.94 383.43 359.712C383.946 359.472 384.522 359.352 385.158 359.352C385.602 359.352 386.04 359.412 386.472 359.532C386.916 359.652 387.324 359.826 387.696 360.054C388.068 360.282 388.38 360.552 388.632 360.864L387.57 362.034C387.342 361.806 387.09 361.608 386.814 361.44C386.55 361.26 386.28 361.122 386.004 361.026C385.728 360.93 385.476 360.882 385.248 360.882C384.996 360.882 384.768 360.906 384.564 360.954C384.36 361.002 384.186 361.074 384.042 361.17C383.91 361.266 383.808 361.386 383.736 361.53C383.664 361.674 383.628 361.836 383.628 362.016C383.64 362.172 383.676 362.322 383.736 362.466C383.808 362.598 383.904 362.712 384.024 362.808C384.156 362.904 384.354 363.006 384.618 363.114C384.882 363.222 385.218 363.324 385.626 363.42C386.226 363.576 386.718 363.75 387.102 363.942C387.498 364.122 387.81 364.332 388.038 364.572C388.278 364.8 388.446 365.064 388.542 365.364C388.638 365.664 388.686 366 388.686 366.372C388.686 366.912 388.53 367.398 388.218 367.83C387.918 368.25 387.51 368.58 386.994 368.82C386.478 369.06 385.902 369.18 385.266 369.18ZM400.023 369.18C399.099 369.18 398.271 368.97 397.539 368.55C396.819 368.118 396.249 367.536 395.829 366.804C395.409 366.06 395.199 365.214 395.199 364.266C395.199 363.318 395.409 362.478 395.829 361.746C396.249 361.002 396.819 360.42 397.539 360C398.271 359.568 399.099 359.352 400.023 359.352C400.935 359.352 401.751 359.568 402.471 360C403.203 360.42 403.779 361.002 404.199 361.746C404.619 362.478 404.829 363.318 404.829 364.266C404.829 365.214 404.619 366.06 404.199 366.804C403.779 367.536 403.203 368.118 402.471 368.55C401.751 368.97 400.935 369.18 400.023 369.18ZM400.023 367.488C400.587 367.488 401.091 367.35 401.535 367.074C401.979 366.786 402.327 366.402 402.579 365.922C402.831 365.43 402.951 364.878 402.939 364.266C402.951 363.642 402.831 363.09 402.579 362.61C402.327 362.118 401.979 361.734 401.535 361.458C401.091 361.182 400.587 361.044 400.023 361.044C399.459 361.044 398.949 361.188 398.493 361.476C398.049 361.752 397.701 362.136 397.449 362.628C397.197 363.108 397.077 363.654 397.089 364.266C397.077 364.878 397.197 365.43 397.449 365.922C397.701 366.402 398.049 366.786 398.493 367.074C398.949 367.35 399.459 367.488 400.023 367.488ZM408.819 369L405.597 359.55L407.469 359.532L409.773 366.606L409.359 366.57L411.861 361.044H412.977L415.497 366.588L415.011 366.624L417.333 359.55H419.205L416.019 369H414.741L412.113 362.988L412.527 363.042L410.079 369H408.819ZM420.894 369V359.55H422.748V361.494L422.424 361.71C422.544 361.29 422.778 360.906 423.126 360.558C423.474 360.198 423.888 359.91 424.368 359.694C424.848 359.466 425.34 359.352 425.844 359.352C426.564 359.352 427.164 359.496 427.644 359.784C428.124 360.06 428.484 360.486 428.724 361.062C428.964 361.638 429.084 362.364 429.084 363.24V369H427.23V363.366C427.23 362.826 427.158 362.382 427.014 362.034C426.87 361.674 426.648 361.416 426.348 361.26C426.048 361.092 425.676 361.02 425.232 361.044C424.872 361.044 424.542 361.104 424.242 361.224C423.942 361.332 423.678 361.488 423.45 361.692C423.234 361.896 423.06 362.136 422.928 362.412C422.808 362.676 422.748 362.964 422.748 363.276V369H421.83C421.674 369 421.518 369 421.362 369C421.206 369 421.05 369 420.894 369ZM330.296 392V378.68H332.15V384.494L331.826 384.71C331.946 384.29 332.18 383.906 332.528 383.558C332.876 383.198 333.29 382.91 333.77 382.694C334.25 382.466 334.742 382.352 335.246 382.352C335.966 382.352 336.566 382.496 337.046 382.784C337.526 383.06 337.886 383.486 338.126 384.062C338.366 384.638 338.486 385.364 338.486 386.24V392H336.632V386.366C336.632 385.826 336.56 385.382 336.416 385.034C336.272 384.674 336.05 384.416 335.75 384.26C335.45 384.092 335.078 384.02 334.634 384.044C334.274 384.044 333.944 384.104 333.644 384.224C333.344 384.332 333.08 384.488 332.852 384.692C332.636 384.896 332.462 385.136 332.33 385.412C332.21 385.676 332.15 385.964 332.15 386.276V392H331.232C331.076 392 330.92 392 330.764 392C330.608 392 330.452 392 330.296 392ZM346.599 392V385.844C346.599 385.316 346.407 384.89 346.023 384.566C345.651 384.23 345.177 384.062 344.601 384.062C344.073 384.062 343.593 384.17 343.161 384.386C342.741 384.602 342.357 384.932 342.009 385.376L340.803 384.17C341.367 383.558 341.973 383.102 342.621 382.802C343.281 382.502 343.989 382.352 344.745 382.352C345.465 382.352 346.089 382.472 346.617 382.712C347.145 382.952 347.553 383.306 347.841 383.774C348.129 384.23 348.273 384.788 348.273 385.448V392H346.599ZM343.773 392.18C343.161 392.18 342.615 392.06 342.135 391.82C341.655 391.58 341.271 391.25 340.983 390.83C340.707 390.398 340.569 389.894 340.569 389.318C340.569 388.814 340.659 388.37 340.839 387.986C341.019 387.602 341.283 387.284 341.631 387.032C341.991 386.78 342.435 386.588 342.963 386.456C343.503 386.324 344.121 386.258 344.817 386.258H347.445L347.283 387.734H344.583C344.223 387.734 343.899 387.77 343.611 387.842C343.335 387.902 343.095 388.004 342.891 388.148C342.699 388.28 342.555 388.442 342.459 388.634C342.363 388.814 342.315 389.03 342.315 389.282C342.315 389.546 342.381 389.78 342.513 389.984C342.645 390.176 342.825 390.326 343.053 390.434C343.281 390.542 343.545 390.596 343.845 390.596C344.277 390.596 344.685 390.524 345.069 390.38C345.465 390.224 345.813 390.014 346.113 389.75C346.425 389.486 346.665 389.192 346.833 388.868L347.265 390.074C347.013 390.494 346.701 390.86 346.329 391.172C345.957 391.484 345.555 391.73 345.123 391.91C344.691 392.09 344.241 392.18 343.773 392.18ZM353.766 392.18C352.974 392.18 352.26 392.042 351.624 391.766C350.988 391.49 350.46 391.082 350.04 390.542L351.3 389.462C351.66 389.882 352.05 390.188 352.47 390.38C352.902 390.56 353.388 390.65 353.928 390.65C354.144 390.65 354.342 390.626 354.522 390.578C354.714 390.518 354.876 390.434 355.008 390.326C355.152 390.218 355.26 390.092 355.332 389.948C355.404 389.792 355.44 389.624 355.44 389.444C355.44 389.132 355.326 388.88 355.098 388.688C354.978 388.604 354.786 388.514 354.522 388.418C354.27 388.31 353.94 388.202 353.532 388.094C352.836 387.914 352.266 387.71 351.822 387.482C351.378 387.254 351.036 386.996 350.796 386.708C350.616 386.48 350.484 386.234 350.4 385.97C350.316 385.694 350.274 385.394 350.274 385.07C350.274 384.542 350.424 384.074 350.724 383.666C351.024 383.258 351.426 382.94 351.93 382.712C352.446 382.472 353.022 382.352 353.658 382.352C354.102 382.352 354.54 382.412 354.972 382.532C355.416 382.652 355.824 382.826 356.196 383.054C356.568 383.282 356.88 383.552 357.132 383.864L356.07 385.034C355.842 384.806 355.59 384.608 355.314 384.44C355.05 384.26 354.78 384.122 354.504 384.026C354.228 383.93 353.976 383.882 353.748 383.882C353.496 383.882 353.268 383.906 353.064 383.954C352.86 384.002 352.686 384.074 352.542 384.17C352.41 384.266 352.308 384.386 352.236 384.53C352.164 384.674 352.128 384.836 352.128 385.016C352.14 385.172 352.176 385.322 352.236 385.466C352.308 385.598 352.404 385.712 352.524 385.808C352.656 385.904 352.854 386.006 353.118 386.114C353.382 386.222 353.718 386.324 354.126 386.42C354.726 386.576 355.218 386.75 355.602 386.942C355.998 387.122 356.31 387.332 356.538 387.572C356.778 387.8 356.946 388.064 357.042 388.364C357.138 388.664 357.186 389 357.186 389.372C357.186 389.912 357.03 390.398 356.718 390.83C356.418 391.25 356.01 391.58 355.494 391.82C354.978 392.06 354.402 392.18 353.766 392.18ZM359.23 392V378.68H361.084V384.494L360.76 384.71C360.88 384.29 361.114 383.906 361.462 383.558C361.81 383.198 362.224 382.91 362.704 382.694C363.184 382.466 363.676 382.352 364.18 382.352C364.9 382.352 365.5 382.496 365.98 382.784C366.46 383.06 366.82 383.486 367.06 384.062C367.3 384.638 367.42 385.364 367.42 386.24V392H365.566V386.366C365.566 385.826 365.494 385.382 365.35 385.034C365.206 384.674 364.984 384.416 364.684 384.26C364.384 384.092 364.012 384.02 363.568 384.044C363.208 384.044 362.878 384.104 362.578 384.224C362.278 384.332 362.014 384.488 361.786 384.692C361.57 384.896 361.396 385.136 361.264 385.412C361.144 385.676 361.084 385.964 361.084 386.276V392H360.166C360.01 392 359.854 392 359.698 392C359.542 392 359.386 392 359.23 392Z" fill="#0D0D0D"/>
<path d="M318 24H237" stroke="#0D0D0D" stroke-width="5"/>
<path d="M318 372L237 372" stroke="#0D0D0D" stroke-width="5"/>
<path d="M238.386 518.292H31.501C21.761 518.292 13.8652 526.828 13.8652 537.357L13.8652 751.696C13.8652 762.225 21.761 770.761 31.501 770.761H238.386C248.126 770.761 256.021 762.225 256.021 751.696V537.357C256.021 526.828 248.126 518.292 238.386 518.292Z" fill="#0D0D0D"/>
<path d="M232.52 511.954L25.6359 511.954C15.8959 511.954 8.00012 520.49 8.00012 531.019L8.00012 745.359C8.00012 755.888 15.8959 764.423 25.6359 764.423H232.52C242.26 764.423 250.156 755.888 250.156 745.359L250.156 531.019C250.156 520.49 242.26 511.954 232.52 511.954Z" fill="white" stroke="#0D0D0D" stroke-width="2" stroke-miterlimit="10"/>
<path d="M211.591 568.536C211.59 574.586 209.526 580.423 205.792 584.93C202.058 589.436 196.918 592.295 191.355 592.96C185.793 593.624 180.199 592.047 175.645 588.53C171.091 585.013 167.898 579.804 166.676 573.9H88.1884C86.9663 579.804 83.7724 585.014 79.2185 588.53C74.6645 592.047 69.0705 593.624 63.5078 592.96C57.9451 592.295 52.8047 589.435 49.071 584.929C45.3373 580.422 43.2728 574.584 43.2728 568.534C43.2728 562.484 45.3373 556.647 49.071 552.14C52.8047 547.633 57.9451 544.774 63.5078 544.109C69.0705 543.444 74.6645 545.021 79.2185 548.538C83.7724 552.055 86.9663 557.264 88.1884 563.168H166.676C167.898 557.264 171.092 552.055 175.646 548.538C180.2 545.021 185.794 543.444 191.357 544.109C196.92 544.774 202.06 547.634 205.794 552.141C209.527 556.648 211.591 562.486 211.591 568.536Z" stroke="#0D0D0D" stroke-width="2" stroke-miterlimit="10"/>
<path d="M215.427 572.685C215.427 578.735 213.362 584.571 209.628 589.078C205.894 593.584 200.754 596.443 195.191 597.107C189.629 597.771 184.035 596.194 179.481 592.678C174.927 589.161 171.734 583.952 170.512 578.049H92.0245C90.8024 583.953 87.6085 589.161 83.0546 592.678C78.5006 596.194 72.9066 597.771 67.3439 597.107C61.7812 596.442 56.6408 593.583 52.9071 589.076C49.1734 584.57 47.1089 578.733 47.1089 572.683C47.1089 566.633 49.1734 560.796 52.9071 556.29C56.6408 551.783 61.7812 548.924 67.3439 548.259C72.9066 547.595 78.5006 549.172 83.0546 552.688C87.6085 556.205 90.8024 561.414 92.0245 567.317H170.512C171.734 561.413 174.928 556.204 179.482 552.688C184.036 549.171 189.63 547.594 195.193 548.259C200.756 548.924 205.896 551.784 209.63 556.291C213.363 560.798 215.427 566.635 215.427 572.685V572.685Z" stroke="#0D0D0D" stroke-width="2" stroke-miterlimit="10"/>
<path d="M207.75 564.388C207.749 570.438 205.685 576.274 201.951 580.781C198.217 585.287 193.077 588.146 187.514 588.811C181.951 589.475 176.358 587.898 171.804 584.381C167.25 580.865 164.057 575.656 162.834 569.752H84.3473C83.1252 575.656 79.9314 580.865 75.3774 584.381C70.8234 587.898 65.2294 589.475 59.6667 588.811C54.104 588.146 48.9636 585.287 45.2299 580.78C41.4962 576.273 39.4317 570.436 39.4317 564.386C39.4317 558.336 41.4962 552.498 45.2299 547.992C48.9636 543.485 54.104 540.625 59.6667 539.961C65.2294 539.296 70.8234 540.873 75.3774 544.39C79.9314 547.907 83.1252 553.116 84.3473 559.02H162.834C164.057 553.115 167.251 547.906 171.805 544.39C176.359 540.873 181.953 539.296 187.516 539.961C193.079 540.626 198.219 543.486 201.953 547.993C205.686 552.5 207.75 558.338 207.75 564.388Z" fill="white" stroke="#0D0D0D" stroke-width="2" stroke-miterlimit="10"/>
<path d="M62.1609 584.511C72.4426 584.511 80.7775 575.501 80.7775 564.387C80.7775 553.273 72.4426 544.263 62.1609 544.263C51.8793 544.263 43.5444 553.273 43.5444 564.387C43.5444 575.501 51.8793 584.511 62.1609 584.511Z" fill="#0D0D0D"/>
<path d="M185.021 584.511C195.302 584.511 203.637 575.501 203.637 564.387C203.637 553.273 195.302 544.263 185.021 544.263C174.739 544.263 166.404 553.273 166.404 564.387C166.404 575.501 174.739 584.511 185.021 584.511Z" fill="#0D0D0D"/>
<path d="M211.591 634.63C211.59 640.68 209.526 646.517 205.792 651.023C202.058 655.53 196.918 658.389 191.355 659.053C185.793 659.718 180.199 658.14 175.645 654.624C171.091 651.107 167.898 645.898 166.676 639.994H88.1884C86.9663 645.898 83.7724 651.107 79.2185 654.624C74.6645 658.141 69.0705 659.718 63.5078 659.053C57.9451 658.389 52.8047 655.529 49.071 651.022C45.3373 646.515 43.2728 640.678 43.2728 634.628C43.2728 628.578 45.3373 622.74 49.071 618.233C52.8047 613.727 57.9451 610.867 63.5078 610.202C69.0705 609.538 74.6645 611.115 79.2185 614.632C83.7724 618.148 86.9663 623.358 88.1884 629.262H166.676C167.898 623.357 171.092 618.148 175.646 614.631C180.2 611.115 185.794 609.538 191.357 610.203C196.92 610.867 202.06 613.727 205.794 618.235C209.527 622.742 211.591 628.58 211.591 634.63Z" stroke="#0D0D0D" stroke-width="2" stroke-miterlimit="10"/>
<path d="M215.427 638.779C215.427 644.829 213.362 650.666 209.628 655.172C205.894 659.679 200.754 662.538 195.191 663.202C189.629 663.866 184.035 662.289 179.481 658.773C174.927 655.256 171.734 650.047 170.512 644.143H92.0245C90.8024 650.047 87.6086 655.256 83.0546 658.773C78.5006 662.289 72.9066 663.867 67.3439 663.202C61.7812 662.537 56.6408 659.678 52.9071 655.171C49.1734 650.664 47.1089 644.827 47.1089 638.777C47.1089 632.727 49.1734 626.89 52.9071 622.383C56.6408 617.876 61.7812 615.017 67.3439 614.352C72.9066 613.687 78.5006 615.265 83.0546 618.781C87.6086 622.298 90.8024 627.507 92.0245 633.411H170.512C171.734 627.507 174.928 622.298 179.482 618.781C184.036 615.264 189.63 613.687 195.193 614.352C200.756 615.017 205.896 617.877 209.63 622.384C213.363 626.891 215.427 632.729 215.427 638.779V638.779Z" stroke="#0D0D0D" stroke-width="2" stroke-miterlimit="10"/>
<path d="M207.75 630.482C207.749 636.532 205.685 642.369 201.951 646.875C198.217 651.381 193.077 654.24 187.514 654.905C181.951 655.569 176.358 653.992 171.804 650.475C167.25 646.959 164.057 641.75 162.834 635.846H84.3473C83.1252 641.75 79.9314 646.959 75.3774 650.476C70.8234 653.992 65.2294 655.569 59.6667 654.905C54.104 654.24 48.9636 651.381 45.2299 646.874C41.4962 642.367 39.4317 636.53 39.4317 630.48C39.4317 624.43 41.4962 618.593 45.2299 614.086C48.9636 609.579 54.104 606.72 59.6667 606.055C65.2294 605.391 70.8234 606.968 75.3774 610.485C79.9314 614.001 83.1252 619.21 84.3473 625.114H162.834C164.057 619.21 167.251 614.001 171.805 610.484C176.359 606.968 181.953 605.391 187.516 606.056C193.079 606.72 198.219 609.58 201.953 614.087C205.686 618.595 207.75 624.432 207.75 630.482V630.482Z" fill="white" stroke="#0D0D0D" stroke-width="2" stroke-miterlimit="10"/>
<path d="M62.1609 650.604C72.4426 650.604 80.7775 641.594 80.7775 630.48C80.7775 619.365 72.4426 610.355 62.1609 610.355C51.8793 610.355 43.5444 619.365 43.5444 630.48C43.5444 641.594 51.8793 650.604 62.1609 650.604Z" fill="#0D0D0D"/>
<path d="M185.021 650.604C195.302 650.604 203.637 641.594 203.637 630.48C203.637 619.365 195.302 610.355 185.021 610.355C174.739 610.355 166.404 619.365 166.404 630.48C166.404 641.594 174.739 650.604 185.021 650.604Z" fill="#0D0D0D"/>
<path d="M211.591 700.724C211.59 706.774 209.526 712.611 205.792 717.117C202.058 721.624 196.918 724.483 191.355 725.147C185.793 725.812 180.199 724.235 175.645 720.718C171.091 717.201 167.898 711.992 166.676 706.088H88.1884C86.9663 711.992 83.7724 717.201 79.2185 720.718C74.6645 724.235 69.0705 725.812 63.5078 725.147C57.9451 724.483 52.8047 721.623 49.071 717.116C45.3373 712.609 43.2728 706.772 43.2728 700.722C43.2728 694.672 45.3373 688.835 49.071 684.328C52.8047 679.821 57.9451 676.961 63.5078 676.297C69.0705 675.632 74.6645 677.209 79.2185 680.726C83.7724 684.243 86.9663 689.452 88.1884 695.356H166.676C167.898 689.452 171.092 684.242 175.646 680.726C180.2 677.209 185.794 675.632 191.357 676.297C196.92 676.962 202.06 679.822 205.794 684.329C209.527 688.836 211.591 694.674 211.591 700.724V700.724Z" stroke="#0D0D0D" stroke-width="2" stroke-miterlimit="10"/>
<path d="M215.427 704.872C215.427 710.922 213.362 716.759 209.628 721.265C205.894 725.772 200.754 728.631 195.191 729.295C189.629 729.959 184.035 728.382 179.481 724.865C174.927 721.349 171.734 716.14 170.512 710.236H92.0245C90.8024 716.14 87.6085 721.349 83.0546 724.866C78.5006 728.382 72.9066 729.959 67.3439 729.295C61.7812 728.63 56.6408 725.771 52.9071 721.264C49.1734 716.757 47.1089 710.92 47.1089 704.87C47.1089 698.82 49.1734 692.983 52.9071 688.476C56.6408 683.97 61.7812 681.11 67.3439 680.446C72.9066 679.781 78.5006 681.358 83.0546 684.875C87.6085 688.391 90.8024 693.6 92.0245 699.504H170.512C171.734 693.6 174.928 688.391 179.482 684.874C184.036 681.358 189.63 679.781 195.193 680.446C200.756 681.111 205.896 683.97 209.63 688.478C213.363 692.985 215.427 698.822 215.427 704.872V704.872Z" stroke="#0D0D0D" stroke-width="2" stroke-miterlimit="10"/>
<path d="M207.75 696.576C207.749 702.625 205.685 708.462 201.951 712.969C198.217 717.475 193.077 720.334 187.514 720.998C181.951 721.663 176.358 720.085 171.804 716.569C167.25 713.052 164.057 707.843 162.834 701.94H84.3473C83.1252 707.843 79.9314 713.052 75.3774 716.569C70.8234 720.086 65.2294 721.663 59.6667 720.998C54.104 720.334 48.9636 717.474 45.2299 712.967C41.4962 708.461 39.4317 702.623 39.4317 696.574C39.4317 690.524 41.4962 684.686 45.2299 680.18C48.9636 675.673 54.104 672.814 59.6667 672.149C65.2294 671.484 70.8234 673.061 75.3774 676.578C79.9314 680.095 83.1252 685.304 84.3473 691.208H162.834C164.057 685.304 167.251 680.094 171.805 676.578C176.359 673.061 181.953 671.484 187.516 672.149C193.079 672.814 198.219 675.674 201.953 680.181C205.686 684.688 207.75 690.526 207.75 696.576V696.576Z" fill="white" stroke="#0D0D0D" stroke-width="2" stroke-miterlimit="10"/>
<path d="M62.1609 716.698C72.4426 716.698 80.7775 707.688 80.7775 696.573C80.7775 685.459 72.4426 676.448 62.1609 676.448C51.8793 676.448 43.5444 685.459 43.5444 696.573C43.5444 707.688 51.8793 716.698 62.1609 716.698Z" fill="#0D0D0D"/>
<path d="M185.021 716.698C195.302 716.698 203.637 707.688 203.637 696.573C203.637 685.459 195.302 676.448 185.021 676.448C174.739 676.448 166.404 685.459 166.404 696.573C166.404 707.688 174.739 716.698 185.021 716.698Z" fill="#0D0D0D"/>
<path d="M258.001 465.411V493.612C258.001 493.618 258 493.624 257.998 493.629C257.995 493.635 257.992 493.639 257.989 493.643C257.985 493.648 257.98 493.651 257.975 493.653C257.97 493.655 257.965 493.656 257.959 493.656H16.3597C16.3543 493.656 16.3489 493.655 16.3438 493.653C16.3388 493.651 16.3342 493.648 16.3303 493.643C16.3264 493.639 16.3234 493.635 16.3213 493.629C16.3192 493.624 16.3181 493.618 16.3181 493.612V465.411C16.3193 470.193 18.1114 474.782 21.306 478.183C24.5006 481.584 28.84 483.522 33.3833 483.577C37.9266 483.633 42.3076 481.801 45.5762 478.479C48.8448 475.157 50.7375 470.613 50.844 465.832C50.8388 461.204 52.4723 456.741 55.4255 453.313C58.3788 449.884 62.4399 447.738 66.816 447.292C69.1853 447.104 71.5658 447.434 73.8085 448.259C76.0513 449.085 78.1079 450.389 79.8497 452.09C81.5915 453.791 82.981 455.852 83.9311 458.144C84.8813 460.436 85.3716 462.91 85.3714 465.411C85.3714 470.229 87.19 474.85 90.4271 478.258C93.6643 481.665 98.0548 483.579 102.633 483.579C107.211 483.579 111.601 481.665 114.838 478.258C118.076 474.85 119.894 470.229 119.894 465.411C119.894 460.591 121.713 455.969 124.951 452.561C128.189 449.153 132.58 447.238 137.159 447.238C141.738 447.238 146.13 449.153 149.368 452.561C152.606 455.969 154.425 460.591 154.425 465.411C154.425 470.193 156.218 474.782 159.412 478.182C162.607 481.582 166.946 483.52 171.489 483.575C176.032 483.629 180.413 481.796 183.68 478.474C186.947 475.151 188.838 470.606 188.943 465.825C188.938 461.199 190.571 456.737 193.523 453.311C196.476 449.884 200.535 447.738 204.91 447.292C207.28 447.104 209.661 447.433 211.905 448.258C214.149 449.083 216.206 450.386 217.949 452.087C219.692 453.788 221.083 455.849 222.034 458.142C222.986 460.434 223.477 462.909 223.478 465.411C223.478 470.229 225.296 474.85 228.534 478.258C231.771 481.665 236.161 483.579 240.739 483.579C245.317 483.579 249.708 481.665 252.945 478.258C256.182 474.85 258.001 470.229 258.001 465.411H258.001Z" fill="#0D0D0D"/>
<path d="M250.171 457.172V485.372C250.171 485.384 250.167 485.395 250.159 485.403C250.151 485.411 250.141 485.416 250.13 485.416H8.53026C8.52479 485.416 8.51938 485.415 8.51433 485.413C8.50928 485.411 8.50469 485.407 8.50083 485.403C8.49697 485.399 8.4939 485.394 8.49181 485.389C8.48972 485.384 8.48865 485.378 8.48865 485.372V457.172C8.48981 461.954 10.282 466.543 13.4765 469.943C16.6711 473.344 21.0105 475.282 25.5538 475.338C30.0972 475.393 34.4781 473.561 37.7467 470.24C41.0153 466.918 42.9081 462.374 43.0145 457.593C43.0093 452.966 44.6428 448.502 47.5961 445.074C50.5494 441.646 54.6105 439.5 58.9865 439.054C61.3558 438.866 63.7363 439.196 65.979 440.021C68.2218 440.847 70.2784 442.151 72.0202 443.852C73.762 445.552 75.1515 447.613 76.1016 449.905C77.0517 452.197 77.5421 454.671 77.5419 457.172C77.5419 461.99 79.3605 466.611 82.5976 470.018C85.8348 473.425 90.2253 475.339 94.8033 475.339C99.3813 475.339 103.772 473.425 107.009 470.018C110.246 466.611 112.065 461.99 112.065 457.172C112.065 452.352 113.884 447.73 117.122 444.322C120.359 440.915 124.751 439 129.33 439C133.909 439 138.3 440.915 141.538 444.322C144.776 447.73 146.595 452.352 146.595 457.172C146.596 461.954 148.388 466.543 151.582 469.943C154.777 473.343 159.116 475.281 163.66 475.336C168.203 475.39 172.583 473.557 175.851 470.234C179.118 466.912 181.009 462.367 181.113 457.586C181.109 452.961 182.742 448.499 185.694 445.072C188.646 441.646 192.706 439.5 197.08 439.054C199.45 438.866 201.832 439.195 204.075 440.02C206.319 440.845 208.377 442.148 210.12 443.849C211.863 445.55 213.254 447.611 214.205 449.903C215.156 452.196 215.648 454.67 215.648 457.172C215.648 461.99 217.467 466.611 220.704 470.018C223.941 473.425 228.332 475.339 232.91 475.339C237.488 475.339 241.878 473.425 245.115 470.018C248.353 466.611 250.171 461.99 250.171 457.172H250.171Z" fill="#01F293" stroke="#0D0D0D" stroke-width="2" stroke-miterlimit="10"/>
<path d="M208 695.502C208 701.78 205.926 707.837 202.178 712.513C198.429 717.189 193.267 720.156 187.682 720.846C182.097 721.535 176.481 719.898 171.909 716.249C167.336 712.6 164.13 707.195 162.903 701.068H84.0977C82.8707 707.195 79.6639 712.6 75.0914 716.25C70.519 719.899 64.9024 721.535 59.3171 720.846C53.7319 720.156 48.5707 717.189 44.8218 712.512C41.073 707.835 39.0001 701.778 39.0001 695.5C39.0001 689.222 41.073 683.165 44.8218 678.488C48.5707 673.811 53.7319 670.844 59.3171 670.154C64.9024 669.465 70.519 671.101 75.0914 674.75C79.6639 678.4 82.8707 683.805 84.0977 689.932H162.903C164.13 683.805 167.337 678.399 171.909 674.75C176.482 671.101 182.099 669.465 187.684 670.155C193.27 670.844 198.431 673.812 202.179 678.489C205.928 683.166 208.001 689.224 208 695.502V695.502Z" fill="white" stroke="#0D0D0D" stroke-width="2" stroke-miterlimit="10"/>
<path d="M61.8274 716.522C72.1539 716.522 80.5251 707.144 80.5251 695.576C80.5251 684.008 72.1539 674.63 61.8274 674.63C51.501 674.63 43.1298 684.008 43.1298 695.576C43.1298 707.144 51.501 716.522 61.8274 716.522Z" fill="#0D0D0D"/>
<path d="M55.2323 685.655V694.254" stroke="white" stroke-width="4" stroke-miterlimit="10" stroke-linecap="round"/>
<path d="M68.4204 685.655V694.253" stroke="white" stroke-width="4" stroke-miterlimit="10" stroke-linecap="round"/>
<path d="M74.7775 697.558C72.7141 705.377 66.6559 708.361 61.827 708.361C56.998 708.361 50.9398 705.377 48.8765 697.558" stroke="white" stroke-width="4" stroke-miterlimit="10" stroke-linecap="round"/>
<path d="M185.224 716.524C195.551 716.524 203.922 707.146 203.922 695.577C203.922 684.009 195.551 674.631 185.224 674.631C174.898 674.631 166.527 684.009 166.527 695.577C166.527 707.146 174.898 716.524 185.224 716.524Z" fill="#0D0D0D"/>
<path d="M198.174 697.558C196.111 705.378 190.053 708.362 185.224 708.362C180.395 708.362 174.336 705.378 172.273 697.558" stroke="white" stroke-width="4" stroke-miterlimit="10" stroke-linecap="round"/>
<path d="M178.629 685.655V694.254" stroke="white" stroke-width="4" stroke-miterlimit="10" stroke-linecap="round"/>
<path d="M191.819 685.655V694.254" stroke="white" stroke-width="4" stroke-miterlimit="10" stroke-linecap="round"/>
<rect x="85.2111" y="694.346" width="5.13468" height="2.86618" fill="#0D0D0D"/>
<rect x="157.096" y="694.345" width="5.13468" height="2.86618" fill="#0D0D0D"/>
<rect x="92.915" y="694.345" width="10.2694" height="2.86618" fill="#0D0D0D"/>
<rect x="105.749" y="694.345" width="10.2694" height="2.86618" fill="#0D0D0D"/>
<rect x="118.588" y="694.345" width="10.2694" height="2.86618" fill="#0D0D0D"/>
<rect x="131.423" y="694.345" width="10.2694" height="2.86618" fill="#0D0D0D"/>
<rect x="144.259" y="694.345" width="10.2694" height="2.86618" fill="#0D0D0D"/>
<path d="M208 628.502C208 634.78 205.926 640.837 202.178 645.513C198.429 650.189 193.267 653.156 187.682 653.846C182.097 654.535 176.481 652.898 171.909 649.249C167.336 645.6 164.13 640.195 162.903 634.068H84.0977C82.8707 640.195 79.6639 645.6 75.0914 649.25C70.519 652.899 64.9024 654.535 59.3171 653.846C53.7319 653.156 48.5707 650.189 44.8218 645.512C41.073 640.835 39.0001 634.778 39.0001 628.5C39.0001 622.222 41.073 616.165 44.8218 611.488C48.5707 606.811 53.7319 603.844 59.3171 603.154C64.9024 602.465 70.519 604.101 75.0914 607.75C79.6639 611.4 82.8707 616.805 84.0977 622.932H162.903C164.13 616.805 167.337 611.399 171.909 607.75C176.482 604.101 182.099 602.465 187.684 603.155C193.27 603.844 198.431 606.812 202.179 611.489C205.928 616.166 208.001 622.224 208 628.502V628.502Z" fill="white" stroke="#0D0D0D" stroke-width="2" stroke-miterlimit="10"/>
<path d="M61.8274 649.522C72.1539 649.522 80.5251 640.144 80.5251 628.576C80.5251 617.008 72.1539 607.63 61.8274 607.63C51.501 607.63 43.1298 617.008 43.1298 628.576C43.1298 640.144 51.501 649.522 61.8274 649.522Z" fill="#0D0D0D"/>
<path d="M55.2323 618.655V627.254" stroke="white" stroke-width="4" stroke-miterlimit="10" stroke-linecap="round"/>
<path d="M68.4204 618.655V627.253" stroke="white" stroke-width="4" stroke-miterlimit="10" stroke-linecap="round"/>
<path d="M74.7775 630.558C72.7141 638.377 66.6559 641.361 61.827 641.361C56.998 641.361 50.9398 638.377 48.8765 630.558" stroke="white" stroke-width="4" stroke-miterlimit="10" stroke-linecap="round"/>
<path d="M185.224 649.524C195.551 649.524 203.922 640.146 203.922 628.577C203.922 617.009 195.551 607.631 185.224 607.631C174.898 607.631 166.527 617.009 166.527 628.577C166.527 640.146 174.898 649.524 185.224 649.524Z" fill="#0D0D0D"/>
<path d="M198.174 630.558C196.111 638.378 190.053 641.362 185.224 641.362C180.395 641.362 174.336 638.378 172.273 630.558" stroke="white" stroke-width="4" stroke-miterlimit="10" stroke-linecap="round"/>
<path d="M178.629 618.655V627.254" stroke="white" stroke-width="4" stroke-miterlimit="10" stroke-linecap="round"/>
<path d="M191.819 618.655V627.254" stroke="white" stroke-width="4" stroke-miterlimit="10" stroke-linecap="round"/>
<rect x="85.2111" y="627.346" width="5.13468" height="2.86618" fill="#0D0D0D"/>
<rect x="157.096" y="627.345" width="5.13468" height="2.86618" fill="#0D0D0D"/>
<rect x="92.915" y="627.345" width="10.2694" height="2.86618" fill="#0D0D0D"/>
<rect x="105.749" y="627.345" width="10.2694" height="2.86618" fill="#0D0D0D"/>
<rect x="118.588" y="627.345" width="10.2694" height="2.86618" fill="#0D0D0D"/>
<rect x="131.423" y="627.345" width="10.2694" height="2.86618" fill="#0D0D0D"/>
<rect x="144.259" y="627.345" width="10.2694" height="2.86618" fill="#0D0D0D"/>
<path d="M250.465 790.539H16.754V828.988L60.4806 807.125L98.1759 828.988L131.348 807.125L170.551 828.988L205.231 807.125L250.465 828.988V790.539Z" fill="#0D0D0D" stroke="#0D0D0D" stroke-width="3"/>
<path d="M247.449 783H13.738V821.449L57.4646 799.586L95.1599 821.449L128.332 799.586L167.535 821.449L202.215 799.586L247.449 821.449V783Z" fill="white" stroke="#0D0D0D" stroke-width="3"/>
<path d="M208 563.502C208 569.534 205.926 575.353 202.178 579.846C198.429 584.339 193.267 587.189 187.682 587.852C182.097 588.514 176.481 586.942 171.909 583.436C167.336 579.929 164.13 574.736 162.903 568.85H84.0977C82.8707 574.736 79.6639 579.93 75.0914 583.436C70.519 586.942 64.9024 588.514 59.3171 587.852C53.7319 587.189 48.5707 584.338 44.8218 579.845C41.073 575.352 39.0001 569.532 39.0001 563.5C39.0001 557.468 41.073 551.648 44.8218 547.155C48.5707 542.662 53.7319 539.811 59.3171 539.148C64.9024 538.486 70.519 540.058 75.0914 543.564C79.6639 547.07 82.8707 552.264 84.0977 558.15H162.903C164.13 552.264 167.337 547.07 171.909 543.564C176.482 540.058 182.099 538.486 187.684 539.148C193.27 539.811 198.431 542.663 202.179 547.156C205.928 551.65 208.001 557.47 208 563.502V563.502Z" fill="white" stroke="#0D0D0D" stroke-width="2" stroke-miterlimit="10"/>
<path d="M61.8274 583.698C72.1539 583.698 80.5251 574.688 80.5251 563.573C80.5251 552.459 72.1539 543.449 61.8274 543.449C51.501 543.449 43.1298 552.459 43.1298 563.573C43.1298 574.688 51.501 583.698 61.8274 583.698Z" fill="#0D0D0D"/>
<path d="M55.2323 554.041V562.303" stroke="white" stroke-width="4" stroke-miterlimit="10" stroke-linecap="round"/>
<path d="M68.4204 554.041V562.302" stroke="white" stroke-width="4" stroke-miterlimit="10" stroke-linecap="round"/>
<path d="M74.7775 565.477C72.7141 572.99 66.6559 575.857 61.827 575.857C56.998 575.857 50.9398 572.99 48.8765 565.477" stroke="white" stroke-width="4" stroke-miterlimit="10" stroke-linecap="round"/>
<path d="M185.224 583.699C195.551 583.699 203.922 574.689 203.922 563.574C203.922 552.46 195.551 543.45 185.224 543.45C174.898 543.45 166.527 552.46 166.527 563.574C166.527 574.689 174.898 583.699 185.224 583.699Z" fill="#0D0D0D"/>
<path d="M198.174 565.477C196.111 572.99 190.052 575.858 185.223 575.858C180.395 575.858 174.336 572.99 172.273 565.477" stroke="white" stroke-width="4" stroke-miterlimit="10" stroke-linecap="round"/>
<path d="M178.629 554.041V562.303" stroke="white" stroke-width="4" stroke-miterlimit="10" stroke-linecap="round"/>
<path d="M191.819 554.041V562.303" stroke="white" stroke-width="4" stroke-miterlimit="10" stroke-linecap="round"/>
<rect x="85.2111" y="562.391" width="5.13468" height="2.75379" fill="#0D0D0D"/>
<rect x="157.096" y="562.391" width="5.13468" height="2.75379" fill="#0D0D0D"/>
<rect x="92.915" y="562.391" width="10.2694" height="2.75379" fill="#0D0D0D"/>
<rect x="105.749" y="562.391" width="10.2694" height="2.75379" fill="#0D0D0D"/>
<rect x="118.588" y="562.391" width="10.2694" height="2.75379" fill="#0D0D0D"/>
<rect x="131.423" y="562.391" width="10.2694" height="2.75379" fill="#0D0D0D"/>
<rect x="144.259" y="562.391" width="10.2694" height="2.75379" fill="#0D0D0D"/>
<path d="M114.547 288L114.547 210" stroke="#0D0D0D" stroke-width="5"/>
<path d="M9.02075 59.4897V10.6678L25.3262 19.211C29.8882 21.6013 34.8919 22.843 39.9616 22.843C45.0312 22.843 50.0349 21.6013 54.5969 19.211L70.9024 10.6678L87.2079 19.2111C91.7699 21.6013 96.7736 22.8431 101.843 22.8431C106.913 22.8431 111.917 21.6013 116.479 19.2111L132.784 10.6678L149.09 19.211C153.652 21.6013 158.655 22.843 163.725 22.843C168.795 22.843 173.798 21.6013 178.36 19.211L194.666 10.6678L210.971 19.211C215.533 21.6013 220.537 22.843 225.607 22.843C230.676 22.843 235.68 21.6013 240.242 19.211L256.547 10.6678V59.4897H9.02075Z" fill="#0D0D0D"/>
<path d="M1.00183 50.8234V2L17.3073 10.5435C21.8693 12.9338 26.873 14.1756 31.9427 14.1756C37.0123 14.1756 42.016 12.9338 46.578 10.5435L62.8835 2L79.189 10.5435C83.751 12.9338 88.7548 14.1756 93.8244 14.1756C98.894 14.1756 103.898 12.9338 108.46 10.5435L124.765 2L141.071 10.5435C145.633 12.9338 150.636 14.1756 155.706 14.1756C160.776 14.1756 165.779 12.9338 170.341 10.5435L186.647 2L202.952 10.5435C207.514 12.9338 212.518 14.1756 217.588 14.1756C222.657 14.1756 227.661 12.9338 232.223 10.5435L248.529 2V50.8234H1.00183Z" fill="white" stroke="#0D0D0D" stroke-width="2" stroke-miterlimit="10"/>
<path d="M256.486 364.781C256.491 364.781 256.497 364.782 256.502 364.784C256.507 364.786 256.512 364.789 256.516 364.793C256.52 364.797 256.523 364.802 256.525 364.808C256.527 364.813 256.528 364.819 256.528 364.824V392.975C256.528 397.785 254.666 402.398 251.35 405.799C248.035 409.2 243.538 411.111 238.849 411.111C234.161 411.111 229.664 409.2 226.349 405.799C223.033 402.398 221.171 397.785 221.171 392.975C221.17 390.478 220.666 388.008 219.692 385.719C218.718 383.431 217.294 381.374 215.508 379.676C213.723 377.978 211.616 376.677 209.318 375.853C207.02 375.03 204.581 374.701 202.153 374.889C197.466 375.241 193.404 377.505 190.5 380.89C187.64 384.223 185.904 388.642 185.8 393.389C185.694 398.162 183.758 402.699 180.411 406.016C177.065 409.334 172.578 411.164 167.924 411.11C163.271 411.055 158.826 409.12 155.554 405.726C152.282 402.331 150.447 397.749 150.447 392.975C150.444 388.166 148.579 383.555 145.264 380.156C141.948 376.757 137.452 374.848 132.764 374.848C128.076 374.848 123.581 376.757 120.265 380.156C116.949 383.555 115.085 388.166 115.081 392.975C115.081 397.785 113.219 402.398 109.903 405.799C106.588 409.2 102.091 411.111 97.4024 411.111C92.7137 411.111 88.217 409.2 84.9015 405.799C81.5861 402.398 79.7235 397.785 79.7235 392.975C79.7237 390.479 79.2215 388.009 78.2484 385.721C77.2753 383.433 75.8522 381.376 74.0683 379.678C72.2843 377.981 70.1779 376.679 67.8809 375.855C65.584 375.031 63.1459 374.702 60.7193 374.889C51.4108 375.585 44.5734 383.824 44.3609 393.396C44.2515 398.177 42.3058 402.721 38.9472 406.038C35.5885 409.355 31.0887 411.178 26.4268 411.109C16.6884 410.97 9 402.513 9 392.522V364.824C9 364.813 9.00449 364.802 9.01248 364.793C9.02047 364.785 9.03131 364.781 9.04261 364.781H256.486Z" fill="#0D0D0D"/>
<path d="M248.486 356.445C248.491 356.445 248.497 356.446 248.502 356.448C248.507 356.45 248.512 356.453 248.516 356.458C248.52 356.462 248.523 356.466 248.525 356.472C248.527 356.477 248.528 356.483 248.528 356.488V384.639C248.528 389.449 246.666 394.062 243.35 397.463C240.035 400.864 235.538 402.775 230.85 402.775C226.161 402.775 221.664 400.864 218.349 397.463C215.033 394.062 213.171 389.449 213.171 384.639C213.17 382.142 212.667 379.672 211.692 377.384C210.718 375.095 209.294 373.038 207.509 371.34C205.723 369.642 203.616 368.341 201.318 367.517C199.02 366.694 196.581 366.366 194.153 366.554C184.849 367.251 178.009 375.486 177.8 385.053C177.694 389.826 175.758 394.363 172.411 397.681C169.065 400.998 164.578 402.828 159.924 402.774C155.271 402.719 150.826 400.785 147.554 397.39C144.282 393.995 142.447 389.413 142.447 384.639C142.444 379.83 140.58 375.22 137.264 371.82C133.948 368.421 129.452 366.512 124.764 366.512C120.077 366.512 115.581 368.421 112.265 371.82C108.949 375.22 107.085 379.83 107.081 384.639C107.081 389.449 105.219 394.062 101.903 397.463C98.588 400.864 94.0913 402.775 89.4025 402.775C84.7138 402.775 80.2171 400.864 76.9017 397.463C73.5862 394.062 71.7236 389.449 71.7236 384.639C71.7238 382.143 71.2216 379.673 70.2485 377.385C69.2754 375.098 67.8523 373.04 66.0684 371.342C64.2844 369.645 62.178 368.343 59.8811 367.519C57.5841 366.695 55.146 366.366 52.7194 366.553C43.411 367.249 36.5735 375.488 36.3611 385.06C36.2516 389.841 34.3059 394.385 30.9473 397.702C27.5886 401.019 23.0888 402.842 18.4269 402.773C8.68849 402.634 1.00012 394.177 1.00012 384.186V356.488C1.00012 356.477 1.00461 356.466 1.0126 356.458C1.02059 356.449 1.03143 356.445 1.04274 356.445H248.486Z" fill="#01F293" stroke="#0D0D0D" stroke-width="2" stroke-miterlimit="10"/>
<path d="M236.495 82.2251H25.0223C15.0662 82.2251 6.9953 90.9499 6.9953 101.712V320.805C6.9953 331.568 15.0662 340.293 25.0223 340.293H236.495C246.451 340.293 254.522 331.568 254.522 320.805V101.712C254.522 90.9499 246.451 82.2251 236.495 82.2251Z" fill="#0D0D0D"/>
<path d="M230.5 75.7454H19.0271C9.07107 75.7454 1.00012 84.4702 1.00012 95.2328V314.326C1.00012 325.089 9.07107 333.814 19.0271 333.814H230.5C240.456 333.814 248.527 325.089 248.527 314.326V95.2328C248.527 84.4702 240.456 75.7454 230.5 75.7454Z" fill="white" stroke="#0D0D0D" stroke-width="2" stroke-miterlimit="10"/>
<path d="M209.107 133.584C209.106 139.768 206.996 145.734 203.179 150.341C199.363 154.948 194.108 157.87 188.422 158.549C182.736 159.228 177.019 157.616 172.364 154.021C167.709 150.426 164.445 145.102 163.195 139.067H82.9675C81.7183 145.102 78.4536 150.427 73.7986 154.022C69.1437 157.616 63.4256 159.228 57.7395 158.549C52.0535 157.87 46.799 154.947 42.9825 150.34C39.166 145.733 37.0557 139.766 37.0557 133.582C37.0557 127.397 39.166 121.43 42.9825 116.823C46.799 112.217 52.0535 109.294 57.7395 108.614C63.4256 107.935 69.1437 109.547 73.7986 113.142C78.4536 116.737 81.7183 122.061 82.9675 128.096H163.195C164.445 122.061 167.709 116.736 172.365 113.141C177.02 109.547 182.738 107.935 188.424 108.614C194.11 109.294 199.365 112.217 203.181 116.825C206.997 121.432 209.107 127.399 209.107 133.584Z" stroke="#0D0D0D" stroke-width="2" stroke-miterlimit="10"/>
<path d="M213.028 137.823C213.027 144.007 210.916 149.974 207.1 154.58C203.283 159.187 198.029 162.11 192.343 162.789C186.657 163.468 180.939 161.856 176.284 158.261C171.63 154.666 168.365 149.341 167.116 143.306H86.8882C85.639 149.341 82.3743 154.666 77.7193 158.261C73.0643 161.856 67.3463 163.468 61.6602 162.789C55.9741 162.109 50.7197 159.186 46.9032 154.579C43.0867 149.972 40.9764 144.005 40.9764 137.821C40.9764 131.637 43.0867 125.67 46.9032 121.063C50.7197 116.456 55.9741 113.533 61.6602 112.854C67.3463 112.174 73.0643 113.786 77.7193 117.381C82.3743 120.976 85.639 126.301 86.8882 132.336H167.116C168.365 126.301 171.63 120.976 176.285 117.381C180.94 113.786 186.659 112.174 192.345 112.854C198.031 113.533 203.285 116.457 207.102 121.064C210.918 125.671 213.028 131.639 213.028 137.823V137.823Z" stroke="#0D0D0D" stroke-width="2" stroke-miterlimit="10"/>
<path d="M205.181 129.342C205.181 135.526 203.07 141.493 199.253 146.099C195.437 150.706 190.182 153.628 184.496 154.307C178.811 154.986 173.093 153.374 168.438 149.779C163.783 146.185 160.519 140.86 159.27 134.825H79.0418C77.7925 140.86 74.5278 146.185 69.8729 149.78C65.2179 153.374 59.4998 154.986 53.8138 154.307C48.1277 153.628 42.8733 150.705 39.0568 146.098C35.2403 141.491 33.1299 135.524 33.1299 129.34C33.1299 123.156 35.2403 117.189 39.0568 112.582C42.8733 107.975 48.1277 105.052 53.8138 104.373C59.4998 103.694 65.2179 105.306 69.8729 108.901C74.5278 112.495 77.7925 117.82 79.0418 123.855H159.27C160.519 117.82 163.784 112.495 168.439 108.9C173.094 105.305 178.812 103.694 184.498 104.373C190.185 105.053 195.439 107.976 199.255 112.583C203.072 117.191 205.182 123.158 205.181 129.342Z" fill="white" stroke="#0D0D0D" stroke-width="2" stroke-miterlimit="10"/>
<path d="M56.3632 149.911C66.8729 149.911 75.3927 140.701 75.3927 129.34C75.3927 117.979 66.8729 108.768 56.3632 108.768C45.8535 108.768 37.3337 117.979 37.3337 129.34C37.3337 140.701 45.8535 149.911 56.3632 149.911Z" fill="#0D0D0D"/>
<path d="M181.949 149.911C192.458 149.911 200.978 140.701 200.978 129.34C200.978 117.979 192.458 108.768 181.949 108.768C171.439 108.768 162.919 117.979 162.919 129.34C162.919 140.701 171.439 149.911 181.949 149.911Z" fill="#0D0D0D"/>
<path d="M209.107 201.142C209.106 207.326 206.996 213.293 203.179 217.899C199.363 222.506 194.108 225.428 188.422 226.107C182.736 226.786 177.019 225.174 172.364 221.579C167.709 217.985 164.445 212.66 163.195 206.625H82.9675C81.7183 212.66 78.4536 217.985 73.7986 221.58C69.1437 225.174 63.4256 226.786 57.7395 226.107C52.0535 225.428 46.799 222.505 42.9825 217.898C39.166 213.291 37.0557 207.324 37.0557 201.14C37.0557 194.956 39.166 188.989 42.9825 184.383C46.799 179.776 52.0535 176.853 57.7395 176.174C63.4256 175.494 69.1437 177.106 73.7986 180.701C78.4536 184.296 81.7183 189.62 82.9675 195.655H163.195C164.445 189.62 167.709 184.295 172.365 180.701C177.02 177.106 182.738 175.494 188.424 176.174C194.11 176.853 199.365 179.777 203.181 184.384C206.997 188.991 209.107 194.958 209.107 201.142Z" stroke="#0D0D0D" stroke-width="2" stroke-miterlimit="10"/>
<path d="M213.028 205.383C213.027 211.567 210.916 217.534 207.1 222.14C203.283 226.746 198.029 229.669 192.343 230.348C186.657 231.027 180.939 229.415 176.284 225.82C171.63 222.225 168.365 216.901 167.116 210.866H86.8882C85.639 216.901 82.3743 222.226 77.7193 225.82C73.0643 229.415 67.3463 231.027 61.6602 230.348C55.9741 229.668 50.7197 226.745 46.9032 222.139C43.0867 217.532 40.9764 211.565 40.9764 205.381C40.9764 199.197 43.0867 193.23 46.9032 188.623C50.7197 184.017 55.9741 181.094 61.6602 180.414C67.3463 179.735 73.0643 181.347 77.7193 184.942C82.3743 188.536 85.639 193.861 86.8882 199.896H167.116C168.365 193.861 171.63 188.536 176.285 184.941C180.94 181.347 186.659 179.735 192.345 180.415C198.031 181.094 203.285 184.017 207.102 188.625C210.918 193.232 213.028 199.199 213.028 205.383V205.383Z" stroke="#0D0D0D" stroke-width="2" stroke-miterlimit="10"/>
<path d="M205.181 196.902C205.181 203.086 203.07 209.052 199.253 213.658C195.437 218.265 190.182 221.187 184.496 221.866C178.811 222.545 173.093 220.933 168.438 217.338C163.783 213.744 160.519 208.419 159.27 202.385H79.0417C77.7925 208.419 74.5278 213.744 69.8729 217.339C65.2179 220.933 59.4998 222.545 53.8138 221.866C48.1277 221.187 42.8733 218.264 39.0568 213.657C35.2403 209.05 33.1299 203.084 33.1299 196.9C33.1299 190.716 35.2403 184.749 39.0568 180.142C42.8733 175.535 48.1277 172.613 53.8138 171.933C59.4998 171.254 65.2179 172.866 69.8729 176.461C74.5278 180.055 77.7925 185.38 79.0417 191.415H159.27C160.519 185.38 163.784 180.055 168.439 176.46C173.094 172.866 178.812 171.254 184.498 171.933C190.185 172.613 195.439 175.536 199.255 180.143C203.072 184.75 205.182 190.718 205.181 196.902V196.902Z" fill="white" stroke="#0D0D0D" stroke-width="2" stroke-miterlimit="10"/>
<path d="M56.3632 217.471C66.8729 217.471 75.3927 208.261 75.3927 196.9C75.3927 185.539 66.8729 176.329 56.3632 176.329C45.8535 176.329 37.3337 185.539 37.3337 196.9C37.3337 208.261 45.8535 217.471 56.3632 217.471Z" fill="#0D0D0D"/>
<path d="M181.949 217.471C192.458 217.471 200.978 208.261 200.978 196.9C200.978 185.539 192.458 176.329 181.949 176.329C171.439 176.329 162.919 185.539 162.919 196.9C162.919 208.261 171.439 217.471 181.949 217.471Z" fill="#0D0D0D"/>
<path d="M209.107 268.702C209.106 274.886 206.996 280.853 203.179 285.459C199.363 290.065 194.108 292.988 188.422 293.667C182.736 294.346 177.019 292.734 172.364 289.139C167.709 285.544 164.445 280.22 163.195 274.185H82.9675C81.7183 280.22 78.4536 285.545 73.7986 289.139C69.1437 292.734 63.4256 294.346 57.7395 293.667C52.0535 292.987 46.799 290.065 42.9825 285.458C39.166 280.851 37.0557 274.884 37.0557 268.7C37.0557 262.516 39.166 256.549 42.9825 251.942C46.799 247.336 52.0535 244.413 57.7395 243.733C63.4256 243.054 69.1437 244.666 73.7986 248.261C78.4536 251.856 81.7183 257.18 82.9675 263.215H163.195C164.445 257.18 167.709 251.855 172.365 248.261C177.02 244.666 182.738 243.054 188.424 243.734C194.11 244.413 199.365 247.337 203.181 251.944C206.997 256.551 209.107 262.518 209.107 268.702V268.702Z" stroke="#0D0D0D" stroke-width="2" stroke-miterlimit="10"/>
<path d="M213.028 272.942C213.027 279.126 210.916 285.093 207.1 289.699C203.283 294.306 198.029 297.228 192.343 297.907C186.657 298.586 180.939 296.974 176.284 293.379C171.63 289.785 168.365 284.46 167.116 278.425H86.8882C85.639 284.46 82.3743 289.785 77.7193 293.38C73.0643 296.974 67.3463 298.586 61.6602 297.907C55.9741 297.228 50.7197 294.305 46.9032 289.698C43.0867 285.091 40.9764 279.124 40.9764 272.94C40.9764 266.756 43.0867 260.789 46.9032 256.182C50.7197 251.575 55.9741 248.652 61.6602 247.973C67.3463 247.294 73.0643 248.906 77.7193 252.5C82.3743 256.095 85.639 261.42 86.8882 267.455H167.116C168.365 261.42 171.63 256.095 176.285 252.5C180.94 248.905 186.659 247.293 192.345 247.973C198.031 248.653 203.285 251.576 207.102 256.183C210.918 260.79 213.028 266.758 213.028 272.942V272.942Z" stroke="#0D0D0D" stroke-width="2" stroke-miterlimit="10"/>
<path d="M205.181 264.461C205.181 270.645 203.07 276.612 199.253 281.218C195.437 285.824 190.182 288.747 184.496 289.426C178.811 290.105 173.093 288.493 168.438 284.898C163.783 281.303 160.519 275.979 159.27 269.944H79.0417C77.7925 275.979 74.5278 281.304 69.8729 284.899C65.2179 288.493 59.4998 290.105 53.8138 289.426C48.1277 288.747 42.8733 285.824 39.0568 281.217C35.2403 276.61 33.1299 270.643 33.1299 264.459C33.1299 258.275 35.2403 252.308 39.0568 247.701C42.8733 243.094 48.1277 240.171 53.8138 239.492C59.4998 238.813 65.2179 240.425 69.8729 244.019C74.5278 247.614 77.7925 252.939 79.0417 258.974H159.27C160.519 252.939 163.784 247.614 168.439 244.019C173.094 240.424 178.812 238.812 184.498 239.492C190.185 240.172 195.439 243.095 199.255 247.702C203.072 252.309 205.182 258.277 205.181 264.461V264.461Z" fill="white" stroke="#0D0D0D" stroke-width="2" stroke-miterlimit="10"/>
<path d="M56.3632 285.031C66.8729 285.031 75.3927 275.821 75.3927 264.459C75.3927 253.098 66.8729 243.888 56.3632 243.888C45.8535 243.888 37.3337 253.098 37.3337 264.459C37.3337 275.821 45.8535 285.031 56.3632 285.031Z" fill="#0D0D0D"/>
<path d="M181.949 285.031C192.458 285.031 200.978 275.821 200.978 264.459C200.978 253.098 192.458 243.888 181.949 243.888C171.439 243.888 162.919 253.098 162.919 264.459C162.919 275.821 171.439 285.031 181.949 285.031Z" fill="#0D0D0D"/>
<path d="M202 263.502C202 269.534 199.926 275.353 196.178 279.846C192.429 284.339 187.267 287.189 181.682 287.852C176.097 288.514 170.481 286.942 165.909 283.436C161.336 279.929 158.13 274.736 156.903 268.85H78.0977C76.8707 274.736 73.6639 279.93 69.0914 283.436C64.519 286.942 58.9024 288.514 53.3171 287.852C47.7319 287.189 42.5707 284.338 38.8218 279.845C35.073 275.352 33.0001 269.532 33.0001 263.5C33.0001 257.468 35.073 251.648 38.8218 247.155C42.5707 242.662 47.7319 239.811 53.3171 239.148C58.9024 238.486 64.519 240.058 69.0914 243.564C73.6639 247.07 76.8707 252.264 78.0977 258.15H156.903C158.13 252.264 161.337 247.07 165.909 243.564C170.482 240.058 176.099 238.486 181.684 239.148C187.27 239.811 192.431 242.663 196.179 247.156C199.928 251.65 202.001 257.47 202 263.502V263.502Z" fill="white" stroke="#0D0D0D" stroke-width="2" stroke-miterlimit="10"/>
<path d="M55.8274 283.698C66.1539 283.698 74.5251 274.688 74.5251 263.573C74.5251 252.459 66.1539 243.449 55.8274 243.449C45.501 243.449 37.1298 252.459 37.1298 263.573C37.1298 274.688 45.501 283.698 55.8274 283.698Z" fill="#0D0D0D"/>
<path d="M49.2323 254.041V262.303" stroke="white" stroke-width="4" stroke-miterlimit="10" stroke-linecap="round"/>
<path d="M62.4204 254.041V262.302" stroke="white" stroke-width="4" stroke-miterlimit="10" stroke-linecap="round"/>
<path d="M68.7775 265.477C66.7141 272.99 60.6559 275.857 55.827 275.857C50.998 275.857 44.9398 272.99 42.8765 265.477" stroke="white" stroke-width="4" stroke-miterlimit="10" stroke-linecap="round"/>
<path d="M179.224 283.699C189.551 283.699 197.922 274.689 197.922 263.574C197.922 252.46 189.551 243.45 179.224 243.45C168.898 243.45 160.527 252.46 160.527 263.574C160.527 274.689 168.898 283.699 179.224 283.699Z" fill="#0D0D0D"/>
<path d="M192.174 265.477C190.111 272.99 184.052 275.858 179.223 275.858C174.395 275.858 168.336 272.99 166.273 265.477" stroke="white" stroke-width="4" stroke-miterlimit="10" stroke-linecap="round"/>
<path d="M172.629 254.041V262.303" stroke="white" stroke-width="4" stroke-miterlimit="10" stroke-linecap="round"/>
<path d="M185.819 254.041V262.303" stroke="white" stroke-width="4" stroke-miterlimit="10" stroke-linecap="round"/>
<rect x="79.2111" y="262.391" width="5.13468" height="2.75379" fill="#0D0D0D"/>
<rect x="151.096" y="262.391" width="5.13468" height="2.75379" fill="#0D0D0D"/>
<rect x="86.915" y="262.391" width="10.2694" height="2.75379" fill="#0D0D0D"/>
<rect x="99.7487" y="262.391" width="10.2694" height="2.75379" fill="#0D0D0D"/>
<rect x="112.588" y="262.391" width="10.2694" height="2.75379" fill="#0D0D0D"/>
<rect x="125.423" y="262.391" width="10.2694" height="2.75379" fill="#0D0D0D"/>
<rect x="138.259" y="262.391" width="10.2694" height="2.75379" fill="#0D0D0D"/>
<path d="M202 196.502C202 202.534 199.926 208.353 196.178 212.846C192.429 217.339 187.267 220.189 181.682 220.852C176.097 221.514 170.481 219.942 165.909 216.436C161.336 212.929 158.13 207.736 156.903 201.85H78.0977C76.8707 207.736 73.6639 212.93 69.0914 216.436C64.519 219.942 58.9024 221.514 53.3171 220.852C47.7319 220.189 42.5707 217.338 38.8218 212.845C35.073 208.352 33.0001 202.532 33.0001 196.5C33.0001 190.468 35.073 184.648 38.8218 180.155C42.5707 175.662 47.7319 172.811 53.3171 172.148C58.9024 171.486 64.519 173.058 69.0914 176.564C73.6639 180.07 76.8707 185.264 78.0977 191.15H156.903C158.13 185.264 161.337 180.07 165.909 176.564C170.482 173.058 176.099 171.486 181.684 172.148C187.27 172.811 192.431 175.663 196.179 180.156C199.928 184.65 202.001 190.47 202 196.502V196.502Z" fill="white" stroke="#0D0D0D" stroke-width="2" stroke-miterlimit="10"/>
<path d="M55.8274 216.698C66.1539 216.698 74.5251 207.688 74.5251 196.573C74.5251 185.459 66.1539 176.449 55.8274 176.449C45.501 176.449 37.1298 185.459 37.1298 196.573C37.1298 207.688 45.501 216.698 55.8274 216.698Z" fill="#0D0D0D"/>
<path d="M49.2323 187.041V195.303" stroke="white" stroke-width="4" stroke-miterlimit="10" stroke-linecap="round"/>
<path d="M62.4204 187.041V195.302" stroke="white" stroke-width="4" stroke-miterlimit="10" stroke-linecap="round"/>
<path d="M68.7775 198.477C66.7141 205.99 60.6559 208.857 55.827 208.857C50.998 208.857 44.9398 205.99 42.8765 198.477" stroke="white" stroke-width="4" stroke-miterlimit="10" stroke-linecap="round"/>
<path d="M179.224 216.699C189.551 216.699 197.922 207.689 197.922 196.574C197.922 185.46 189.551 176.45 179.224 176.45C168.898 176.45 160.527 185.46 160.527 196.574C160.527 207.689 168.898 216.699 179.224 216.699Z" fill="#0D0D0D"/>
<path d="M192.174 198.477C190.111 205.99 184.052 208.858 179.223 208.858C174.395 208.858 168.336 205.99 166.273 198.477" stroke="white" stroke-width="4" stroke-miterlimit="10" stroke-linecap="round"/>
<path d="M172.629 187.041V195.303" stroke="white" stroke-width="4" stroke-miterlimit="10" stroke-linecap="round"/>
<path d="M185.819 187.041V195.303" stroke="white" stroke-width="4" stroke-miterlimit="10" stroke-linecap="round"/>
<rect x="79.2111" y="195.391" width="5.13468" height="2.75379" fill="#0D0D0D"/>
<rect x="151.096" y="195.391" width="5.13468" height="2.75379" fill="#0D0D0D"/>
<rect x="86.915" y="195.391" width="10.2694" height="2.75379" fill="#0D0D0D"/>
<rect x="99.7487" y="195.391" width="10.2694" height="2.75379" fill="#0D0D0D"/>
<rect x="112.588" y="195.391" width="10.2694" height="2.75379" fill="#0D0D0D"/>
<rect x="125.423" y="195.391" width="10.2694" height="2.75379" fill="#0D0D0D"/>
<rect x="138.259" y="195.391" width="10.2694" height="2.75379" fill="#0D0D0D"/>
<path d="M202 128.502C202 134.534 199.926 140.353 196.178 144.846C192.429 149.339 187.267 152.189 181.682 152.852C176.097 153.514 170.481 151.942 165.909 148.436C161.336 144.929 158.13 139.736 156.903 133.85H78.0977C76.8707 139.736 73.6639 144.93 69.0914 148.436C64.519 151.942 58.9024 153.514 53.3171 152.852C47.7319 152.189 42.5707 149.338 38.8218 144.845C35.073 140.352 33.0001 134.532 33.0001 128.5C33.0001 122.468 35.073 116.648 38.8218 112.155C42.5707 107.662 47.7319 104.811 53.3171 104.148C58.9024 103.486 64.519 105.058 69.0914 108.564C73.6639 112.07 76.8707 117.264 78.0977 123.15H156.903C158.13 117.264 161.337 112.07 165.909 108.564C170.482 105.058 176.099 103.486 181.684 104.148C187.27 104.811 192.431 107.663 196.179 112.156C199.928 116.65 202.001 122.47 202 128.502V128.502Z" fill="white" stroke="#0D0D0D" stroke-width="2" stroke-miterlimit="10"/>
<path d="M55.8274 148.698C66.1539 148.698 74.5251 139.688 74.5251 128.573C74.5251 117.459 66.1539 108.449 55.8274 108.449C45.501 108.449 37.1298 117.459 37.1298 128.573C37.1298 139.688 45.501 148.698 55.8274 148.698Z" fill="#0D0D0D"/>
<path d="M49.2323 119.041V127.303" stroke="white" stroke-width="4" stroke-miterlimit="10" stroke-linecap="round"/>
<path d="M62.4204 119.041V127.302" stroke="white" stroke-width="4" stroke-miterlimit="10" stroke-linecap="round"/>
<path d="M68.7775 130.477C66.7141 137.99 60.6559 140.857 55.827 140.857C50.998 140.857 44.9398 137.99 42.8765 130.477" stroke="white" stroke-width="4" stroke-miterlimit="10" stroke-linecap="round"/>
<path d="M179.224 148.699C189.551 148.699 197.922 139.689 197.922 128.574C197.922 117.46 189.551 108.45 179.224 108.45C168.898 108.45 160.527 117.46 160.527 128.574C160.527 139.689 168.898 148.699 179.224 148.699Z" fill="#0D0D0D"/>
<path d="M192.174 130.477C190.111 137.99 184.052 140.858 179.223 140.858C174.395 140.858 168.336 137.99 166.273 130.477" stroke="white" stroke-width="4" stroke-miterlimit="10" stroke-linecap="round"/>
<path d="M172.629 119.041V127.303" stroke="white" stroke-width="4" stroke-miterlimit="10" stroke-linecap="round"/>
<path d="M185.819 119.041V127.303" stroke="white" stroke-width="4" stroke-miterlimit="10" stroke-linecap="round"/>
<rect x="79.2111" y="127.391" width="5.13468" height="2.75379" fill="#0D0D0D"/>
<rect x="151.096" y="127.391" width="5.13468" height="2.75379" fill="#0D0D0D"/>
<rect x="86.915" y="127.391" width="10.2694" height="2.75379" fill="#0D0D0D"/>
<rect x="99.7487" y="127.391" width="10.2694" height="2.75379" fill="#0D0D0D"/>
<rect x="112.588" y="127.391" width="10.2694" height="2.75379" fill="#0D0D0D"/>
<rect x="125.423" y="127.391" width="10.2694" height="2.75379" fill="#0D0D0D"/>
<rect x="138.259" y="127.391" width="10.2694" height="2.75379" fill="#0D0D0D"/>
</svg>
