<svg width="432" height="300" viewBox="0 0 432 300" fill="none" xmlns="http://www.w3.org/2000/svg">
<path d="M324 150.003C323.999 157.725 321.343 165.176 316.541 170.929C311.738 176.682 305.126 180.331 297.97 181.179C290.815 182.027 283.62 180.014 277.762 175.525C271.905 171.036 267.797 164.386 266.225 156.85H165.266C163.694 164.387 159.586 171.036 153.728 175.525C147.87 180.015 140.674 182.028 133.519 181.179C126.363 180.331 119.751 176.681 114.949 170.928C110.146 165.175 107.49 157.723 107.49 150C107.49 142.277 110.146 134.825 114.949 129.072C119.751 123.319 126.363 119.669 133.519 118.821C140.674 117.972 147.87 119.985 153.728 124.475C159.586 128.964 163.694 135.613 165.266 143.15H266.225C267.797 135.613 271.905 128.963 277.763 124.474C283.622 119.985 290.817 117.972 297.973 118.821C305.128 119.669 311.741 123.32 316.543 129.074C321.346 134.827 324.001 142.279 324 150.003V150.003Z" fill="white" stroke="black" stroke-width="2" stroke-miterlimit="10"/>
<path d="M136.735 175.861C149.964 175.861 160.689 164.325 160.689 150.094C160.689 135.863 149.964 124.327 136.735 124.327C123.506 124.327 112.781 135.863 112.781 150.094C112.781 164.325 123.506 175.861 136.735 175.861Z" fill="#0D0D0D"/>
<path d="M128.286 137.889V148.467" stroke="white" stroke-width="4" stroke-miterlimit="10" stroke-linecap="round"/>
<path d="M145.181 137.888V148.466" stroke="white" stroke-width="4" stroke-miterlimit="10" stroke-linecap="round"/>
<path d="M153.325 152.531C150.682 162.15 142.921 165.821 136.734 165.821C130.548 165.821 122.786 162.15 120.143 152.531" stroke="white" stroke-width="4" stroke-miterlimit="10" stroke-linecap="round"/>
<path d="M294.821 175.863C308.051 175.863 318.775 164.326 318.775 150.095C318.775 135.864 308.051 124.328 294.821 124.328C281.592 124.328 270.867 135.864 270.867 150.095C270.867 164.326 281.592 175.863 294.821 175.863Z" fill="#0D0D0D"/>
<path d="M311.411 152.532C308.768 162.151 301.007 165.822 294.82 165.822C288.634 165.822 280.872 162.151 278.229 152.532" stroke="white" stroke-width="4" stroke-miterlimit="10" stroke-linecap="round"/>
<path d="M286.372 137.889V148.467" stroke="white" stroke-width="4" stroke-miterlimit="10" stroke-linecap="round"/>
<path d="M303.27 137.889V148.467" stroke="white" stroke-width="4" stroke-miterlimit="10" stroke-linecap="round"/>
<rect x="166.692" y="148.579" width="6.57815" height="3.52589" fill="#0D0D0D"/>
<rect x="258.786" y="148.579" width="6.57815" height="3.52589" fill="#0D0D0D"/>
<rect x="176.562" y="148.579" width="13.1563" height="3.52589" fill="#0D0D0D"/>
<rect x="193.003" y="148.579" width="13.1563" height="3.52589" fill="#0D0D0D"/>
<rect x="209.452" y="148.579" width="13.1563" height="3.52589" fill="#0D0D0D"/>
<rect x="225.896" y="148.579" width="13.1563" height="3.52589" fill="#0D0D0D"/>
<rect x="242.34" y="148.579" width="13.1563" height="3.52589" fill="#0D0D0D"/>
</svg>
