<svg width="535" height="889" viewBox="0 0 535 889" fill="none" xmlns="http://www.w3.org/2000/svg">
<path d="M408.765 190V173.9H411.249V190H408.765ZM398.254 190V173.9H400.738V190H398.254ZM399.335 183.169V180.777H409.869V183.169H399.335ZM422.306 190V182.134C422.306 181.459 422.061 180.915 421.57 180.501C421.095 180.072 420.489 179.857 419.753 179.857C419.078 179.857 418.465 179.995 417.913 180.271C417.376 180.547 416.886 180.969 416.441 181.536L414.9 179.995C415.621 179.213 416.395 178.63 417.223 178.247C418.066 177.864 418.971 177.672 419.937 177.672C420.857 177.672 421.654 177.825 422.329 178.132C423.004 178.439 423.525 178.891 423.893 179.489C424.261 180.072 424.445 180.785 424.445 181.628V190H422.306ZM418.695 190.23C417.913 190.23 417.215 190.077 416.602 189.77C415.989 189.463 415.498 189.042 415.13 188.505C414.777 187.953 414.601 187.309 414.601 186.573C414.601 185.929 414.716 185.362 414.946 184.871C415.176 184.38 415.513 183.974 415.958 183.652C416.418 183.33 416.985 183.085 417.66 182.916C418.35 182.747 419.14 182.663 420.029 182.663H423.387L423.18 184.549H419.73C419.27 184.549 418.856 184.595 418.488 184.687C418.135 184.764 417.829 184.894 417.568 185.078C417.323 185.247 417.139 185.454 417.016 185.699C416.893 185.929 416.832 186.205 416.832 186.527C416.832 186.864 416.916 187.163 417.085 187.424C417.254 187.669 417.484 187.861 417.775 187.999C418.066 188.137 418.404 188.206 418.787 188.206C419.339 188.206 419.86 188.114 420.351 187.93C420.857 187.731 421.302 187.462 421.685 187.125C422.084 186.788 422.39 186.412 422.605 185.998L423.157 187.539C422.835 188.076 422.436 188.543 421.961 188.942C421.486 189.341 420.972 189.655 420.42 189.885C419.868 190.115 419.293 190.23 418.695 190.23ZM431.464 190.23C430.452 190.23 429.54 190.054 428.727 189.701C427.915 189.348 427.24 188.827 426.703 188.137L428.313 186.757C428.773 187.294 429.272 187.685 429.808 187.93C430.36 188.16 430.981 188.275 431.671 188.275C431.947 188.275 432.2 188.244 432.43 188.183C432.676 188.106 432.883 187.999 433.051 187.861C433.235 187.723 433.373 187.562 433.465 187.378C433.557 187.179 433.603 186.964 433.603 186.734C433.603 186.335 433.458 186.013 433.166 185.768C433.013 185.661 432.768 185.546 432.43 185.423C432.108 185.285 431.687 185.147 431.165 185.009C430.276 184.779 429.548 184.518 428.98 184.227C428.413 183.936 427.976 183.606 427.669 183.238C427.439 182.947 427.271 182.632 427.163 182.295C427.056 181.942 427.002 181.559 427.002 181.145C427.002 180.47 427.194 179.872 427.577 179.351C427.961 178.83 428.474 178.423 429.118 178.132C429.778 177.825 430.514 177.672 431.326 177.672C431.894 177.672 432.453 177.749 433.005 177.902C433.573 178.055 434.094 178.278 434.569 178.569C435.045 178.86 435.443 179.205 435.765 179.604L434.408 181.099C434.117 180.808 433.795 180.555 433.442 180.34C433.105 180.11 432.76 179.934 432.407 179.811C432.055 179.688 431.733 179.627 431.441 179.627C431.119 179.627 430.828 179.658 430.567 179.719C430.307 179.78 430.084 179.872 429.9 179.995C429.732 180.118 429.601 180.271 429.509 180.455C429.417 180.639 429.371 180.846 429.371 181.076C429.387 181.275 429.433 181.467 429.509 181.651C429.601 181.82 429.724 181.965 429.877 182.088C430.046 182.211 430.299 182.341 430.636 182.479C430.974 182.617 431.403 182.747 431.924 182.87C432.691 183.069 433.32 183.292 433.81 183.537C434.316 183.767 434.715 184.035 435.006 184.342C435.313 184.633 435.528 184.971 435.65 185.354C435.773 185.737 435.834 186.167 435.834 186.642C435.834 187.332 435.635 187.953 435.236 188.505C434.853 189.042 434.332 189.463 433.672 189.77C433.013 190.077 432.277 190.23 431.464 190.23ZM438.445 190V172.98H440.814V180.409L440.4 180.685C440.553 180.148 440.852 179.658 441.297 179.213C441.742 178.753 442.271 178.385 442.884 178.109C443.497 177.818 444.126 177.672 444.77 177.672C445.69 177.672 446.457 177.856 447.07 178.224C447.683 178.577 448.143 179.121 448.45 179.857C448.757 180.593 448.91 181.521 448.91 182.64V190H446.541V182.801C446.541 182.111 446.449 181.544 446.265 181.099C446.081 180.639 445.797 180.309 445.414 180.11C445.031 179.895 444.555 179.803 443.988 179.834C443.528 179.834 443.106 179.911 442.723 180.064C442.34 180.202 442.002 180.401 441.711 180.662C441.435 180.923 441.213 181.229 441.044 181.582C440.891 181.919 440.814 182.287 440.814 182.686V190H439.641C439.442 190 439.242 190 439.043 190C438.844 190 438.644 190 438.445 190ZM463.998 190.23C462.817 190.23 461.759 189.962 460.824 189.425C459.904 188.873 459.176 188.129 458.639 187.194C458.102 186.243 457.834 185.162 457.834 183.951C457.834 182.74 458.102 181.666 458.639 180.731C459.176 179.78 459.904 179.037 460.824 178.5C461.759 177.948 462.817 177.672 463.998 177.672C465.163 177.672 466.206 177.948 467.126 178.5C468.061 179.037 468.797 179.78 469.334 180.731C469.871 181.666 470.139 182.74 470.139 183.951C470.139 185.162 469.871 186.243 469.334 187.194C468.797 188.129 468.061 188.873 467.126 189.425C466.206 189.962 465.163 190.23 463.998 190.23ZM463.998 188.068C464.719 188.068 465.363 187.892 465.93 187.539C466.497 187.171 466.942 186.68 467.264 186.067C467.586 185.438 467.739 184.733 467.724 183.951C467.739 183.154 467.586 182.448 467.264 181.835C466.942 181.206 466.497 180.716 465.93 180.363C465.363 180.01 464.719 179.834 463.998 179.834C463.277 179.834 462.626 180.018 462.043 180.386C461.476 180.739 461.031 181.229 460.709 181.858C460.387 182.471 460.234 183.169 460.249 183.951C460.234 184.733 460.387 185.438 460.709 186.067C461.031 186.68 461.476 187.171 462.043 187.539C462.626 187.892 463.277 188.068 463.998 188.068ZM473.582 190V176.568C473.582 175.878 473.736 175.265 474.042 174.728C474.349 174.191 474.771 173.77 475.307 173.463C475.844 173.156 476.465 173.003 477.17 173.003C477.661 173.003 478.121 173.095 478.55 173.279C478.98 173.463 479.325 173.708 479.585 174.015L478.78 175.832C478.581 175.648 478.359 175.502 478.113 175.395C477.883 175.272 477.661 175.211 477.446 175.211C477.124 175.211 476.848 175.265 476.618 175.372C476.404 175.464 476.243 175.617 476.135 175.832C476.028 176.031 475.974 176.277 475.974 176.568V190H474.778C474.579 190 474.38 190 474.18 190C473.981 190 473.782 190 473.582 190ZM471.65 180.317V178.132H478.826V180.317H471.65ZM489.242 190V174.843H491.611V190H489.242ZM486.735 180.225V177.925H494.417V180.225H486.735ZM496.574 190V172.98H498.943V180.409L498.529 180.685C498.682 180.148 498.981 179.658 499.426 179.213C499.871 178.753 500.4 178.385 501.013 178.109C501.626 177.818 502.255 177.672 502.899 177.672C503.819 177.672 504.586 177.856 505.199 178.224C505.812 178.577 506.272 179.121 506.579 179.857C506.886 180.593 507.039 181.521 507.039 182.64V190H504.67V182.801C504.67 182.111 504.578 181.544 504.394 181.099C504.21 180.639 503.926 180.309 503.543 180.11C503.16 179.895 502.684 179.803 502.117 179.834C501.657 179.834 501.235 179.911 500.852 180.064C500.469 180.202 500.131 180.401 499.84 180.662C499.564 180.923 499.342 181.229 499.173 181.582C499.02 181.919 498.943 182.287 498.943 182.686V190H497.77C497.571 190 497.371 190 497.172 190C496.973 190 496.773 190 496.574 190ZM515.888 190.23C514.646 190.23 513.542 189.969 512.576 189.448C511.625 188.911 510.874 188.183 510.322 187.263C509.785 186.343 509.517 185.285 509.517 184.089C509.517 183.138 509.67 182.272 509.977 181.49C510.283 180.708 510.705 180.033 511.242 179.466C511.794 178.883 512.445 178.439 513.197 178.132C513.963 177.81 514.791 177.649 515.681 177.649C516.463 177.649 517.191 177.802 517.866 178.109C518.54 178.4 519.123 178.807 519.614 179.328C520.12 179.849 520.503 180.47 520.764 181.191C521.04 181.896 521.17 182.671 521.155 183.514L521.132 184.526H511.265L510.736 182.64H519.085L518.74 183.031V182.479C518.694 181.973 518.525 181.521 518.234 181.122C517.942 180.723 517.574 180.409 517.13 180.179C516.685 179.949 516.202 179.834 515.681 179.834C514.853 179.834 514.155 179.995 513.588 180.317C513.02 180.624 512.591 181.084 512.3 181.697C512.008 182.295 511.863 183.039 511.863 183.928C511.863 184.771 512.039 185.507 512.392 186.136C512.744 186.749 513.243 187.225 513.887 187.562C514.531 187.899 515.274 188.068 516.118 188.068C516.716 188.068 517.268 187.968 517.774 187.769C518.295 187.57 518.855 187.209 519.453 186.688L520.649 188.367C520.281 188.735 519.828 189.057 519.292 189.333C518.77 189.609 518.211 189.831 517.613 190C517.03 190.153 516.455 190.23 515.888 190.23ZM397.656 224.06V206.925H400.048V209.685L399.68 209.478C399.772 209.018 400.033 208.581 400.462 208.167C400.891 207.738 401.413 207.393 402.026 207.132C402.655 206.856 403.299 206.718 403.958 206.718C405.047 206.718 406.013 206.986 406.856 207.523C407.699 208.06 408.366 208.796 408.857 209.731C409.348 210.666 409.593 211.74 409.593 212.951C409.593 214.147 409.348 215.22 408.857 216.171C408.382 217.106 407.722 217.85 406.879 218.402C406.036 218.939 405.085 219.207 404.027 219.207C403.322 219.207 402.639 219.069 401.98 218.793C401.321 218.502 400.761 218.134 400.301 217.689C399.841 217.244 399.557 216.784 399.45 216.309L400.048 215.987V224.06H397.656ZM403.636 217.022C404.341 217.022 404.97 216.846 405.522 216.493C406.074 216.14 406.511 215.657 406.833 215.044C407.155 214.431 407.316 213.733 407.316 212.951C407.316 212.169 407.155 211.479 406.833 210.881C406.526 210.268 406.097 209.785 405.545 209.432C404.993 209.079 404.357 208.903 403.636 208.903C402.915 208.903 402.279 209.079 401.727 209.432C401.175 209.769 400.738 210.245 400.416 210.858C400.094 211.471 399.933 212.169 399.933 212.951C399.933 213.733 400.094 214.431 400.416 215.044C400.738 215.657 401.175 216.14 401.727 216.493C402.279 216.846 402.915 217.022 403.636 217.022ZM412.166 219V206.925H414.558V210.72L414.328 209.8C414.496 209.217 414.78 208.688 415.179 208.213C415.593 207.738 416.06 207.362 416.582 207.086C417.118 206.81 417.67 206.672 418.238 206.672C418.498 206.672 418.744 206.695 418.974 206.741C419.219 206.787 419.411 206.841 419.549 206.902L418.928 209.478C418.744 209.401 418.537 209.34 418.307 209.294C418.092 209.233 417.877 209.202 417.663 209.202C417.249 209.202 416.85 209.286 416.467 209.455C416.099 209.608 415.769 209.831 415.478 210.122C415.202 210.398 414.979 210.728 414.811 211.111C414.642 211.479 414.558 211.885 414.558 212.33V219H412.166ZM426.561 219.23C425.319 219.23 424.215 218.969 423.249 218.448C422.298 217.911 421.547 217.183 420.995 216.263C420.458 215.343 420.19 214.285 420.19 213.089C420.19 212.138 420.343 211.272 420.65 210.49C420.956 209.708 421.378 209.033 421.915 208.466C422.467 207.883 423.118 207.439 423.87 207.132C424.636 206.81 425.464 206.649 426.354 206.649C427.136 206.649 427.864 206.802 428.539 207.109C429.213 207.4 429.796 207.807 430.287 208.328C430.793 208.849 431.176 209.47 431.437 210.191C431.713 210.896 431.843 211.671 431.828 212.514L431.805 213.526H421.938L421.409 211.64H429.758L429.413 212.031V211.479C429.367 210.973 429.198 210.521 428.907 210.122C428.615 209.723 428.247 209.409 427.803 209.179C427.358 208.949 426.875 208.834 426.354 208.834C425.526 208.834 424.828 208.995 424.261 209.317C423.693 209.624 423.264 210.084 422.973 210.697C422.681 211.295 422.536 212.039 422.536 212.928C422.536 213.771 422.712 214.507 423.065 215.136C423.417 215.749 423.916 216.225 424.56 216.562C425.204 216.899 425.947 217.068 426.791 217.068C427.389 217.068 427.941 216.968 428.447 216.769C428.968 216.57 429.528 216.209 430.126 215.688L431.322 217.367C430.954 217.735 430.501 218.057 429.965 218.333C429.443 218.609 428.884 218.831 428.286 219C427.703 219.153 427.128 219.23 426.561 219.23ZM438.133 219L433.027 206.925H435.58L439.26 215.964L438.823 216.171L442.756 206.925H445.194L439.835 219H438.133ZM447.753 219V206.925H450.122V219H447.753ZM448.903 204.257C448.397 204.257 448.006 204.127 447.73 203.866C447.454 203.605 447.316 203.237 447.316 202.762C447.316 202.317 447.454 201.957 447.73 201.681C448.021 201.405 448.412 201.267 448.903 201.267C449.409 201.267 449.8 201.397 450.076 201.658C450.352 201.919 450.49 202.287 450.49 202.762C450.49 203.207 450.344 203.567 450.053 203.843C449.777 204.119 449.394 204.257 448.903 204.257ZM459.191 219.23C458.011 219.23 456.953 218.962 456.017 218.425C455.097 217.873 454.369 217.129 453.832 216.194C453.296 215.243 453.027 214.162 453.027 212.951C453.027 211.74 453.296 210.666 453.832 209.731C454.369 208.78 455.097 208.037 456.017 207.5C456.953 206.948 458.011 206.672 459.191 206.672C460.357 206.672 461.399 206.948 462.319 207.5C463.255 208.037 463.991 208.78 464.527 209.731C465.064 210.666 465.332 211.74 465.332 212.951C465.332 214.162 465.064 215.243 464.527 216.194C463.991 217.129 463.255 217.873 462.319 218.425C461.399 218.962 460.357 219.23 459.191 219.23ZM459.191 217.068C459.912 217.068 460.556 216.892 461.123 216.539C461.691 216.171 462.135 215.68 462.457 215.067C462.779 214.438 462.933 213.733 462.917 212.951C462.933 212.154 462.779 211.448 462.457 210.835C462.135 210.206 461.691 209.716 461.123 209.363C460.556 209.01 459.912 208.834 459.191 208.834C458.471 208.834 457.819 209.018 457.236 209.386C456.669 209.739 456.224 210.229 455.902 210.858C455.58 211.471 455.427 212.169 455.442 212.951C455.427 213.733 455.58 214.438 455.902 215.067C456.224 215.68 456.669 216.171 457.236 216.539C457.819 216.892 458.471 217.068 459.191 217.068ZM472.146 219.23C471.287 219.23 470.536 219.031 469.892 218.632C469.263 218.233 468.772 217.674 468.42 216.953C468.082 216.232 467.914 215.374 467.914 214.377V206.925H470.283V213.733C470.283 214.791 470.528 215.627 471.019 216.24C471.525 216.853 472.222 217.16 473.112 217.16C473.556 217.16 473.963 217.091 474.331 216.953C474.699 216.8 475.013 216.593 475.274 216.332C475.55 216.071 475.764 215.757 475.918 215.389C476.071 215.021 476.148 214.622 476.148 214.193V206.925H478.517V219H476.148V216.47L476.562 216.194C476.378 216.761 476.063 217.275 475.619 217.735C475.189 218.195 474.676 218.563 474.078 218.839C473.48 219.1 472.836 219.23 472.146 219.23ZM485.865 219.23C484.853 219.23 483.94 219.054 483.128 218.701C482.315 218.348 481.64 217.827 481.104 217.137L482.714 215.757C483.174 216.294 483.672 216.685 484.209 216.93C484.761 217.16 485.382 217.275 486.072 217.275C486.348 217.275 486.601 217.244 486.831 217.183C487.076 217.106 487.283 216.999 487.452 216.861C487.636 216.723 487.774 216.562 487.866 216.378C487.958 216.179 488.004 215.964 488.004 215.734C488.004 215.335 487.858 215.013 487.567 214.768C487.413 214.661 487.168 214.546 486.831 214.423C486.509 214.285 486.087 214.147 485.566 214.009C484.676 213.779 483.948 213.518 483.381 213.227C482.813 212.936 482.376 212.606 482.07 212.238C481.84 211.947 481.671 211.632 481.564 211.295C481.456 210.942 481.403 210.559 481.403 210.145C481.403 209.47 481.594 208.872 481.978 208.351C482.361 207.83 482.875 207.423 483.519 207.132C484.178 206.825 484.914 206.672 485.727 206.672C486.294 206.672 486.854 206.749 487.406 206.902C487.973 207.055 488.494 207.278 488.97 207.569C489.445 207.86 489.844 208.205 490.166 208.604L488.809 210.099C488.517 209.808 488.195 209.555 487.843 209.34C487.505 209.11 487.16 208.934 486.808 208.811C486.455 208.688 486.133 208.627 485.842 208.627C485.52 208.627 485.228 208.658 484.968 208.719C484.707 208.78 484.485 208.872 484.301 208.995C484.132 209.118 484.002 209.271 483.91 209.455C483.818 209.639 483.772 209.846 483.772 210.076C483.787 210.275 483.833 210.467 483.91 210.651C484.002 210.82 484.124 210.965 484.278 211.088C484.446 211.211 484.699 211.341 485.037 211.479C485.374 211.617 485.803 211.747 486.325 211.87C487.091 212.069 487.72 212.292 488.211 212.537C488.717 212.767 489.115 213.035 489.407 213.342C489.713 213.633 489.928 213.971 490.051 214.354C490.173 214.737 490.235 215.167 490.235 215.642C490.235 216.332 490.035 216.953 489.637 217.505C489.253 218.042 488.732 218.463 488.073 218.77C487.413 219.077 486.677 219.23 485.865 219.23ZM404.004 248.23C403.483 248.23 402.961 248.146 402.44 247.977C401.934 247.808 401.466 247.586 401.037 247.31C400.623 247.019 400.27 246.704 399.979 246.367C399.703 246.014 399.519 245.662 399.427 245.309L400.025 244.987V247.931H397.656V230.98H400.025V238.685L399.657 238.478C399.734 238.125 399.902 237.788 400.163 237.466C400.424 237.129 400.753 236.83 401.152 236.569C401.566 236.293 402.011 236.078 402.486 235.925C402.961 235.756 403.444 235.672 403.935 235.672C405.024 235.672 405.99 235.94 406.833 236.477C407.676 237.014 408.343 237.757 408.834 238.708C409.325 239.643 409.57 240.717 409.57 241.928C409.57 243.139 409.325 244.22 408.834 245.171C408.359 246.122 407.699 246.873 406.856 247.425C406.013 247.962 405.062 248.23 404.004 248.23ZM403.613 246.068C404.318 246.068 404.947 245.892 405.499 245.539C406.051 245.171 406.488 244.68 406.81 244.067C407.132 243.438 407.293 242.725 407.293 241.928C407.293 241.146 407.132 240.448 406.81 239.835C406.503 239.206 406.074 238.716 405.522 238.363C404.97 238.01 404.334 237.834 403.613 237.834C402.892 237.834 402.256 238.01 401.704 238.363C401.152 238.716 400.715 239.206 400.393 239.835C400.071 240.448 399.91 241.146 399.91 241.928C399.91 242.725 400.071 243.438 400.393 244.067C400.715 244.68 401.152 245.171 401.704 245.539C402.256 245.892 402.892 246.068 403.613 246.068ZM412.189 248V230.98H414.558V248H412.189ZM423.119 248.23C421.938 248.23 420.88 247.962 419.945 247.425C419.025 246.873 418.297 246.129 417.76 245.194C417.223 244.243 416.955 243.162 416.955 241.951C416.955 240.74 417.223 239.666 417.76 238.731C418.297 237.78 419.025 237.037 419.945 236.5C420.88 235.948 421.938 235.672 423.119 235.672C424.284 235.672 425.327 235.948 426.247 236.5C427.182 237.037 427.918 237.78 428.455 238.731C428.992 239.666 429.26 240.74 429.26 241.951C429.26 243.162 428.992 244.243 428.455 245.194C427.918 246.129 427.182 246.873 426.247 247.425C425.327 247.962 424.284 248.23 423.119 248.23ZM423.119 246.068C423.84 246.068 424.484 245.892 425.051 245.539C425.618 245.171 426.063 244.68 426.385 244.067C426.707 243.438 426.86 242.733 426.845 241.951C426.86 241.154 426.707 240.448 426.385 239.835C426.063 239.206 425.618 238.716 425.051 238.363C424.484 238.01 423.84 237.834 423.119 237.834C422.398 237.834 421.747 238.018 421.164 238.386C420.597 238.739 420.152 239.229 419.83 239.858C419.508 240.471 419.355 241.169 419.37 241.951C419.355 242.733 419.508 243.438 419.83 244.067C420.152 244.68 420.597 245.171 421.164 245.539C421.747 245.892 422.398 246.068 423.119 246.068ZM436.971 248.23C435.851 248.23 434.847 247.954 433.958 247.402C433.084 246.85 432.386 246.099 431.865 245.148C431.359 244.197 431.106 243.132 431.106 241.951C431.106 240.77 431.359 239.705 431.865 238.754C432.386 237.803 433.084 237.052 433.958 236.5C434.847 235.948 435.851 235.672 436.971 235.672C438.044 235.672 439.018 235.894 439.892 236.339C440.781 236.768 441.456 237.359 441.916 238.11L440.605 239.72C440.359 239.367 440.045 239.045 439.662 238.754C439.278 238.463 438.872 238.233 438.443 238.064C438.013 237.895 437.599 237.811 437.201 237.811C436.465 237.811 435.805 237.995 435.223 238.363C434.655 238.716 434.203 239.206 433.866 239.835C433.528 240.464 433.36 241.169 433.36 241.951C433.36 242.733 433.536 243.438 433.889 244.067C434.241 244.68 434.709 245.171 435.292 245.539C435.874 245.907 436.518 246.091 437.224 246.091C437.638 246.091 438.036 246.022 438.42 245.884C438.818 245.746 439.202 245.539 439.57 245.263C439.938 244.987 440.283 244.65 440.605 244.251L441.916 245.861C441.425 246.551 440.72 247.118 439.8 247.563C438.895 248.008 437.952 248.23 436.971 248.23ZM446.312 244.228L446.197 241.652L451.97 235.925H455.167L446.312 244.228ZM444.15 248V230.98H446.519V248H444.15ZM452.292 248L447.738 242.687L449.417 241.146L455.328 248H452.292ZM464.06 248V235.925H466.429V248H464.06ZM465.21 233.257C464.704 233.257 464.313 233.127 464.037 232.866C463.761 232.605 463.623 232.237 463.623 231.762C463.623 231.317 463.761 230.957 464.037 230.681C464.328 230.405 464.719 230.267 465.21 230.267C465.716 230.267 466.107 230.397 466.383 230.658C466.659 230.919 466.797 231.287 466.797 231.762C466.797 232.207 466.651 232.567 466.36 232.843C466.084 233.119 465.7 233.257 465.21 233.257ZM470.07 248V235.925H472.439V238.409L472.025 238.685C472.178 238.148 472.477 237.658 472.922 237.213C473.367 236.753 473.896 236.385 474.509 236.109C475.122 235.818 475.751 235.672 476.395 235.672C477.315 235.672 478.082 235.856 478.695 236.224C479.308 236.577 479.768 237.121 480.075 237.857C480.382 238.593 480.535 239.521 480.535 240.64V248H478.166V240.801C478.166 240.111 478.074 239.544 477.89 239.099C477.706 238.639 477.422 238.309 477.039 238.11C476.656 237.895 476.18 237.803 475.613 237.834C475.153 237.834 474.731 237.911 474.348 238.064C473.965 238.202 473.627 238.401 473.336 238.662C473.06 238.923 472.838 239.229 472.669 239.582C472.516 239.919 472.439 240.287 472.439 240.686V248H471.266C471.067 248 470.867 248 470.668 248C470.469 248 470.269 248 470.07 248ZM491.69 248V232.843H494.059V248H491.69ZM489.183 238.225V235.925H496.865V238.225H489.183ZM499.022 248V230.98H501.391V238.409L500.977 238.685C501.131 238.148 501.43 237.658 501.874 237.213C502.319 236.753 502.848 236.385 503.461 236.109C504.075 235.818 504.703 235.672 505.347 235.672C506.267 235.672 507.034 235.856 507.647 236.224C508.261 236.577 508.721 237.121 509.027 237.857C509.334 238.593 509.487 239.521 509.487 240.64V248H507.118V240.801C507.118 240.111 507.026 239.544 506.842 239.099C506.658 238.639 506.375 238.309 505.991 238.11C505.608 237.895 505.133 237.803 504.565 237.834C504.105 237.834 503.684 237.911 503.3 238.064C502.917 238.202 502.58 238.401 502.288 238.662C502.012 238.923 501.79 239.229 501.621 239.582C501.468 239.919 501.391 240.287 501.391 240.686V248H500.218C500.019 248 499.82 248 499.62 248C499.421 248 499.222 248 499.022 248ZM518.336 248.23C517.094 248.23 515.99 247.969 515.024 247.448C514.073 246.911 513.322 246.183 512.77 245.263C512.233 244.343 511.965 243.285 511.965 242.089C511.965 241.138 512.118 240.272 512.425 239.49C512.732 238.708 513.153 238.033 513.69 237.466C514.242 236.883 514.894 236.439 515.645 236.132C516.412 235.81 517.24 235.649 518.129 235.649C518.911 235.649 519.639 235.802 520.314 236.109C520.989 236.4 521.571 236.807 522.062 237.328C522.568 237.849 522.951 238.47 523.212 239.191C523.488 239.896 523.618 240.671 523.603 241.514L523.58 242.526H513.713L513.184 240.64H521.533L521.188 241.031V240.479C521.142 239.973 520.973 239.521 520.682 239.122C520.391 238.723 520.023 238.409 519.578 238.179C519.133 237.949 518.65 237.834 518.129 237.834C517.301 237.834 516.603 237.995 516.036 238.317C515.469 238.624 515.039 239.084 514.748 239.697C514.457 240.295 514.311 241.039 514.311 241.928C514.311 242.771 514.487 243.507 514.84 244.136C515.193 244.749 515.691 245.225 516.335 245.562C516.979 245.899 517.723 246.068 518.566 246.068C519.164 246.068 519.716 245.968 520.222 245.769C520.743 245.57 521.303 245.209 521.901 244.688L523.097 246.367C522.729 246.735 522.277 247.057 521.74 247.333C521.219 247.609 520.659 247.831 520.061 248C519.478 248.153 518.903 248.23 518.336 248.23ZM402.785 277.23C401.666 277.23 400.661 276.954 399.772 276.402C398.898 275.85 398.2 275.099 397.679 274.148C397.173 273.197 396.92 272.132 396.92 270.951C396.92 269.77 397.173 268.705 397.679 267.754C398.2 266.803 398.898 266.052 399.772 265.5C400.661 264.948 401.666 264.672 402.785 264.672C403.858 264.672 404.832 264.894 405.706 265.339C406.595 265.768 407.27 266.359 407.73 267.11L406.419 268.72C406.174 268.367 405.859 268.045 405.476 267.754C405.093 267.463 404.686 267.233 404.257 267.064C403.828 266.895 403.414 266.811 403.015 266.811C402.279 266.811 401.62 266.995 401.037 267.363C400.47 267.716 400.017 268.206 399.68 268.835C399.343 269.464 399.174 270.169 399.174 270.951C399.174 271.733 399.35 272.438 399.703 273.067C400.056 273.68 400.523 274.171 401.106 274.539C401.689 274.907 402.333 275.091 403.038 275.091C403.452 275.091 403.851 275.022 404.234 274.884C404.633 274.746 405.016 274.539 405.384 274.263C405.752 273.987 406.097 273.65 406.419 273.251L407.73 274.861C407.239 275.551 406.534 276.118 405.614 276.563C404.709 277.008 403.766 277.23 402.785 277.23ZM409.965 277V259.98H412.334V267.409L411.92 267.685C412.073 267.148 412.372 266.658 412.817 266.213C413.261 265.753 413.79 265.385 414.404 265.109C415.017 264.818 415.646 264.672 416.29 264.672C417.21 264.672 417.976 264.856 418.59 265.224C419.203 265.577 419.663 266.121 419.97 266.857C420.276 267.593 420.43 268.521 420.43 269.64V277H418.061V269.801C418.061 269.111 417.969 268.544 417.785 268.099C417.601 267.639 417.317 267.309 416.934 267.11C416.55 266.895 416.075 266.803 415.508 266.834C415.048 266.834 414.626 266.911 414.243 267.064C413.859 267.202 413.522 267.401 413.231 267.662C412.955 267.923 412.732 268.229 412.564 268.582C412.41 268.919 412.334 269.287 412.334 269.686V277H411.161C410.961 277 410.762 277 410.563 277C410.363 277 410.164 277 409.965 277ZM430.796 277V269.134C430.796 268.459 430.551 267.915 430.06 267.501C429.585 267.072 428.979 266.857 428.243 266.857C427.569 266.857 426.955 266.995 426.403 267.271C425.867 267.547 425.376 267.969 424.931 268.536L423.39 266.995C424.111 266.213 424.885 265.63 425.713 265.247C426.557 264.864 427.461 264.672 428.427 264.672C429.347 264.672 430.145 264.825 430.819 265.132C431.494 265.439 432.015 265.891 432.383 266.489C432.751 267.072 432.935 267.785 432.935 268.628V277H430.796ZM427.185 277.23C426.403 277.23 425.706 277.077 425.092 276.77C424.479 276.463 423.988 276.042 423.62 275.505C423.268 274.953 423.091 274.309 423.091 273.573C423.091 272.929 423.206 272.362 423.436 271.871C423.666 271.38 424.004 270.974 424.448 270.652C424.908 270.33 425.476 270.085 426.15 269.916C426.84 269.747 427.63 269.663 428.519 269.663H431.877L431.67 271.549H428.22C427.76 271.549 427.346 271.595 426.978 271.687C426.626 271.764 426.319 271.894 426.058 272.078C425.813 272.247 425.629 272.454 425.506 272.699C425.384 272.929 425.322 273.205 425.322 273.527C425.322 273.864 425.407 274.163 425.575 274.424C425.744 274.669 425.974 274.861 426.265 274.999C426.557 275.137 426.894 275.206 427.277 275.206C427.829 275.206 428.351 275.114 428.841 274.93C429.347 274.731 429.792 274.462 430.175 274.125C430.574 273.788 430.881 273.412 431.095 272.998L431.647 274.539C431.325 275.076 430.927 275.543 430.451 275.942C429.976 276.341 429.462 276.655 428.91 276.885C428.358 277.115 427.783 277.23 427.185 277.23ZM436.32 277V264.925H438.689V277H436.32ZM437.47 262.257C436.964 262.257 436.573 262.127 436.297 261.866C436.021 261.605 435.883 261.237 435.883 260.762C435.883 260.317 436.021 259.957 436.297 259.681C436.589 259.405 436.98 259.267 437.47 259.267C437.976 259.267 438.367 259.397 438.643 259.658C438.919 259.919 439.057 260.287 439.057 260.762C439.057 261.207 438.912 261.567 438.62 261.843C438.344 262.119 437.961 262.257 437.47 262.257ZM442.331 277V264.925H444.7V267.409L444.286 267.685C444.439 267.148 444.738 266.658 445.183 266.213C445.627 265.753 446.156 265.385 446.77 265.109C447.383 264.818 448.012 264.672 448.656 264.672C449.576 264.672 450.342 264.856 450.956 265.224C451.569 265.577 452.029 266.121 452.336 266.857C452.642 267.593 452.796 268.521 452.796 269.64V277H450.427V269.801C450.427 269.111 450.335 268.544 450.151 268.099C449.967 267.639 449.683 267.309 449.3 267.11C448.916 266.895 448.441 266.803 447.874 266.834C447.414 266.834 446.992 266.911 446.609 267.064C446.225 267.202 445.888 267.401 445.597 267.662C445.321 267.923 445.098 268.229 444.93 268.582C444.776 268.919 444.7 269.287 444.7 269.686V277H443.527C443.327 277 443.128 277 442.929 277C442.729 277 442.53 277 442.331 277Z" fill="#0D0D0D"/>
<path d="M398.254 706V689.9H404.97C405.997 689.9 406.864 690.053 407.569 690.36C408.274 690.667 408.803 691.127 409.156 691.74C409.524 692.338 409.708 693.074 409.708 693.948C409.708 694.822 409.463 695.566 408.972 696.179C408.497 696.792 407.83 697.214 406.971 697.444V696.984C407.692 697.137 408.32 697.413 408.857 697.812C409.394 698.195 409.808 698.678 410.099 699.261C410.406 699.844 410.559 700.511 410.559 701.262C410.559 702.029 410.436 702.711 410.191 703.309C409.961 703.892 409.608 704.382 409.133 704.781C408.673 705.18 408.113 705.486 407.454 705.701C406.795 705.9 406.043 706 405.2 706H398.254ZM400.738 703.608H405.062C405.997 703.608 406.726 703.401 407.247 702.987C407.768 702.573 408.029 701.983 408.029 701.216C408.029 700.741 407.899 700.334 407.638 699.997C407.393 699.66 407.04 699.407 406.58 699.238C406.12 699.054 405.576 698.962 404.947 698.962H400.738V703.608ZM400.738 696.57H404.832C405.292 696.57 405.698 696.478 406.051 696.294C406.419 696.11 406.703 695.857 406.902 695.535C407.117 695.213 407.224 694.845 407.224 694.431C407.224 693.741 406.994 693.212 406.534 692.844C406.074 692.476 405.415 692.292 404.556 692.292H400.738V696.57ZM413.29 706V688.98H415.659V706H413.29ZM424.22 706.23C423.039 706.23 421.981 705.962 421.046 705.425C420.126 704.873 419.397 704.129 418.861 703.194C418.324 702.243 418.056 701.162 418.056 699.951C418.056 698.74 418.324 697.666 418.861 696.731C419.397 695.78 420.126 695.037 421.046 694.5C421.981 693.948 423.039 693.672 424.22 693.672C425.385 693.672 426.428 693.948 427.348 694.5C428.283 695.037 429.019 695.78 429.556 696.731C430.092 697.666 430.361 698.74 430.361 699.951C430.361 701.162 430.092 702.243 429.556 703.194C429.019 704.129 428.283 704.873 427.348 705.425C426.428 705.962 425.385 706.23 424.22 706.23ZM424.22 704.068C424.94 704.068 425.584 703.892 426.152 703.539C426.719 703.171 427.164 702.68 427.486 702.067C427.808 701.438 427.961 700.733 427.946 699.951C427.961 699.154 427.808 698.448 427.486 697.835C427.164 697.206 426.719 696.716 426.152 696.363C425.584 696.01 424.94 695.834 424.22 695.834C423.499 695.834 422.847 696.018 422.265 696.386C421.697 696.739 421.253 697.229 420.931 697.858C420.609 698.471 420.455 699.169 420.471 699.951C420.455 700.733 420.609 701.438 420.931 702.067C421.253 702.68 421.697 703.171 422.265 703.539C422.847 703.892 423.499 704.068 424.22 704.068ZM438.071 706.23C436.952 706.23 435.947 705.954 435.058 705.402C434.184 704.85 433.486 704.099 432.965 703.148C432.459 702.197 432.206 701.132 432.206 699.951C432.206 698.77 432.459 697.705 432.965 696.754C433.486 695.803 434.184 695.052 435.058 694.5C435.947 693.948 436.952 693.672 438.071 693.672C439.144 693.672 440.118 693.894 440.992 694.339C441.881 694.768 442.556 695.359 443.016 696.11L441.705 697.72C441.46 697.367 441.145 697.045 440.762 696.754C440.379 696.463 439.972 696.233 439.543 696.064C439.114 695.895 438.7 695.811 438.301 695.811C437.565 695.811 436.906 695.995 436.323 696.363C435.756 696.716 435.303 697.206 434.966 697.835C434.629 698.464 434.46 699.169 434.46 699.951C434.46 700.733 434.636 701.438 434.989 702.067C435.342 702.68 435.809 703.171 436.392 703.539C436.975 703.907 437.619 704.091 438.324 704.091C438.738 704.091 439.137 704.022 439.52 703.884C439.919 703.746 440.302 703.539 440.67 703.263C441.038 702.987 441.383 702.65 441.705 702.251L443.016 703.861C442.525 704.551 441.82 705.118 440.9 705.563C439.995 706.008 439.052 706.23 438.071 706.23ZM447.413 702.228L447.298 699.652L453.071 693.925H456.268L447.413 702.228ZM445.251 706V688.98H447.62V706H445.251ZM453.393 706L448.839 700.687L450.518 699.146L456.429 706H453.393ZM458.001 695.075L457.127 694.017C457.725 693.741 458.216 693.427 458.599 693.074C458.982 692.721 459.174 692.415 459.174 692.154C459.174 691.955 459.09 691.778 458.921 691.625C458.752 691.456 458.599 691.318 458.461 691.211C458.124 690.935 457.894 690.705 457.771 690.521C457.664 690.337 457.61 690.145 457.61 689.946C457.61 689.578 457.74 689.287 458.001 689.072C458.262 688.842 458.599 688.727 459.013 688.727C459.442 688.727 459.826 688.842 460.163 689.072C460.516 689.287 460.792 689.586 460.991 689.969C461.19 690.352 461.29 690.805 461.29 691.326C461.29 691.725 461.206 692.116 461.037 692.499C460.868 692.882 460.631 693.243 460.324 693.58C460.033 693.917 459.688 694.216 459.289 694.477C458.89 694.738 458.461 694.937 458.001 695.075ZM467.896 706.23C466.884 706.23 465.972 706.054 465.159 705.701C464.346 705.348 463.672 704.827 463.135 704.137L464.745 702.757C465.205 703.294 465.703 703.685 466.24 703.93C466.792 704.16 467.413 704.275 468.103 704.275C468.379 704.275 468.632 704.244 468.862 704.183C469.107 704.106 469.314 703.999 469.483 703.861C469.667 703.723 469.805 703.562 469.897 703.378C469.989 703.179 470.035 702.964 470.035 702.734C470.035 702.335 469.889 702.013 469.598 701.768C469.445 701.661 469.199 701.546 468.862 701.423C468.54 701.285 468.118 701.147 467.597 701.009C466.708 700.779 465.979 700.518 465.412 700.227C464.845 699.936 464.408 699.606 464.101 699.238C463.871 698.947 463.702 698.632 463.595 698.295C463.488 697.942 463.434 697.559 463.434 697.145C463.434 696.47 463.626 695.872 464.009 695.351C464.392 694.83 464.906 694.423 465.55 694.132C466.209 693.825 466.945 693.672 467.758 693.672C468.325 693.672 468.885 693.749 469.437 693.902C470.004 694.055 470.526 694.278 471.001 694.569C471.476 694.86 471.875 695.205 472.197 695.604L470.84 697.099C470.549 696.808 470.227 696.555 469.874 696.34C469.537 696.11 469.192 695.934 468.839 695.811C468.486 695.688 468.164 695.627 467.873 695.627C467.551 695.627 467.26 695.658 466.999 695.719C466.738 695.78 466.516 695.872 466.332 695.995C466.163 696.118 466.033 696.271 465.941 696.455C465.849 696.639 465.803 696.846 465.803 697.076C465.818 697.275 465.864 697.467 465.941 697.651C466.033 697.82 466.156 697.965 466.309 698.088C466.478 698.211 466.731 698.341 467.068 698.479C467.405 698.617 467.835 698.747 468.356 698.87C469.123 699.069 469.751 699.292 470.242 699.537C470.748 699.767 471.147 700.035 471.438 700.342C471.745 700.633 471.959 700.971 472.082 701.354C472.205 701.737 472.266 702.167 472.266 702.642C472.266 703.332 472.067 703.953 471.668 704.505C471.285 705.042 470.763 705.463 470.104 705.77C469.445 706.077 468.709 706.23 467.896 706.23ZM486.751 706.23C485.57 706.23 484.512 705.962 483.577 705.425C482.657 704.873 481.929 704.129 481.392 703.194C480.855 702.243 480.587 701.162 480.587 699.951C480.587 698.74 480.855 697.666 481.392 696.731C481.929 695.78 482.657 695.037 483.577 694.5C484.512 693.948 485.57 693.672 486.751 693.672C487.916 693.672 488.959 693.948 489.879 694.5C490.814 695.037 491.55 695.78 492.087 696.731C492.624 697.666 492.892 698.74 492.892 699.951C492.892 701.162 492.624 702.243 492.087 703.194C491.55 704.129 490.814 704.873 489.879 705.425C488.959 705.962 487.916 706.23 486.751 706.23ZM486.751 704.068C487.472 704.068 488.116 703.892 488.683 703.539C489.25 703.171 489.695 702.68 490.017 702.067C490.339 701.438 490.492 700.733 490.477 699.951C490.492 699.154 490.339 698.448 490.017 697.835C489.695 697.206 489.25 696.716 488.683 696.363C488.116 696.01 487.472 695.834 486.751 695.834C486.03 695.834 485.379 696.018 484.796 696.386C484.229 696.739 483.784 697.229 483.462 697.858C483.14 698.471 482.987 699.169 483.002 699.951C482.987 700.733 483.14 701.438 483.462 702.067C483.784 702.68 484.229 703.171 484.796 703.539C485.379 703.892 486.03 704.068 486.751 704.068ZM497.991 706L493.874 693.925L496.266 693.902L499.21 702.941L498.681 702.895L501.878 695.834H503.304L506.524 702.918L505.903 702.964L508.87 693.925H511.262L507.191 706H505.558L502.2 698.318L502.729 698.387L499.601 706H497.991ZM513.42 706V693.925H515.789V696.409L515.375 696.685C515.528 696.148 515.827 695.658 516.272 695.213C516.716 694.753 517.245 694.385 517.859 694.109C518.472 693.818 519.101 693.672 519.745 693.672C520.665 693.672 521.431 693.856 522.045 694.224C522.658 694.577 523.118 695.121 523.425 695.857C523.731 696.593 523.885 697.521 523.885 698.64V706H521.516V698.801C521.516 698.111 521.424 697.544 521.24 697.099C521.056 696.639 520.772 696.309 520.389 696.11C520.005 695.895 519.53 695.803 518.963 695.834C518.503 695.834 518.081 695.911 517.698 696.064C517.314 696.202 516.977 696.401 516.686 696.662C516.41 696.923 516.187 697.229 516.019 697.582C515.865 697.919 515.789 698.287 515.789 698.686V706H514.616C514.416 706 514.217 706 514.018 706C513.818 706 513.619 706 513.42 706ZM397.656 735V717.98H400.025V725.409L399.611 725.685C399.764 725.148 400.063 724.658 400.508 724.213C400.953 723.753 401.482 723.385 402.095 723.109C402.708 722.818 403.337 722.672 403.981 722.672C404.901 722.672 405.668 722.856 406.281 723.224C406.894 723.577 407.354 724.121 407.661 724.857C407.968 725.593 408.121 726.521 408.121 727.64V735H405.752V727.801C405.752 727.111 405.66 726.544 405.476 726.099C405.292 725.639 405.008 725.309 404.625 725.11C404.242 724.895 403.766 724.803 403.199 724.834C402.739 724.834 402.317 724.911 401.934 725.064C401.551 725.202 401.213 725.401 400.922 725.662C400.646 725.923 400.424 726.229 400.255 726.582C400.102 726.919 400.025 727.287 400.025 727.686V735H398.852C398.653 735 398.453 735 398.254 735C398.055 735 397.855 735 397.656 735ZM418.488 735V727.134C418.488 726.459 418.242 725.915 417.752 725.501C417.276 725.072 416.671 724.857 415.935 724.857C415.26 724.857 414.647 724.995 414.095 725.271C413.558 725.547 413.067 725.969 412.623 726.536L411.082 724.995C411.802 724.213 412.577 723.63 413.405 723.247C414.248 722.864 415.153 722.672 416.119 722.672C417.039 722.672 417.836 722.825 418.511 723.132C419.185 723.439 419.707 723.891 420.075 724.489C420.443 725.072 420.627 725.785 420.627 726.628V735H418.488ZM414.877 735.23C414.095 735.23 413.397 735.077 412.784 734.77C412.17 734.463 411.68 734.042 411.312 733.505C410.959 732.953 410.783 732.309 410.783 731.573C410.783 730.929 410.898 730.362 411.128 729.871C411.358 729.38 411.695 728.974 412.14 728.652C412.6 728.33 413.167 728.085 413.842 727.916C414.532 727.747 415.321 727.663 416.211 727.663H419.569L419.362 729.549H415.912C415.452 729.549 415.038 729.595 414.67 729.687C414.317 729.764 414.01 729.894 413.75 730.078C413.504 730.247 413.32 730.454 413.198 730.699C413.075 730.929 413.014 731.205 413.014 731.527C413.014 731.864 413.098 732.163 413.267 732.424C413.435 732.669 413.665 732.861 413.957 732.999C414.248 733.137 414.585 733.206 414.969 733.206C415.521 733.206 416.042 733.114 416.533 732.93C417.039 732.731 417.483 732.462 417.867 732.125C418.265 731.788 418.572 731.412 418.787 730.998L419.339 732.539C419.017 733.076 418.618 733.543 418.143 733.942C417.667 734.341 417.154 734.655 416.602 734.885C416.05 735.115 415.475 735.23 414.877 735.23ZM427.646 735.23C426.634 735.23 425.722 735.054 424.909 734.701C424.096 734.348 423.422 733.827 422.885 733.137L424.495 731.757C424.955 732.294 425.453 732.685 425.99 732.93C426.542 733.16 427.163 733.275 427.853 733.275C428.129 733.275 428.382 733.244 428.612 733.183C428.857 733.106 429.064 732.999 429.233 732.861C429.417 732.723 429.555 732.562 429.647 732.378C429.739 732.179 429.785 731.964 429.785 731.734C429.785 731.335 429.639 731.013 429.348 730.768C429.195 730.661 428.949 730.546 428.612 730.423C428.29 730.285 427.868 730.147 427.347 730.009C426.458 729.779 425.729 729.518 425.162 729.227C424.595 728.936 424.158 728.606 423.851 728.238C423.621 727.947 423.452 727.632 423.345 727.295C423.238 726.942 423.184 726.559 423.184 726.145C423.184 725.47 423.376 724.872 423.759 724.351C424.142 723.83 424.656 723.423 425.3 723.132C425.959 722.825 426.695 722.672 427.508 722.672C428.075 722.672 428.635 722.749 429.187 722.902C429.754 723.055 430.276 723.278 430.751 723.569C431.226 723.86 431.625 724.205 431.947 724.604L430.59 726.099C430.299 725.808 429.977 725.555 429.624 725.34C429.287 725.11 428.942 724.934 428.589 724.811C428.236 724.688 427.914 724.627 427.623 724.627C427.301 724.627 427.01 724.658 426.749 724.719C426.488 724.78 426.266 724.872 426.082 724.995C425.913 725.118 425.783 725.271 425.691 725.455C425.599 725.639 425.553 725.846 425.553 726.076C425.568 726.275 425.614 726.467 425.691 726.651C425.783 726.82 425.906 726.965 426.059 727.088C426.228 727.211 426.481 727.341 426.818 727.479C427.155 727.617 427.585 727.747 428.106 727.87C428.873 728.069 429.501 728.292 429.992 728.537C430.498 728.767 430.897 729.035 431.188 729.342C431.495 729.633 431.709 729.971 431.832 730.354C431.955 730.737 432.016 731.167 432.016 731.642C432.016 732.332 431.817 732.953 431.418 733.505C431.035 734.042 430.513 734.463 429.854 734.77C429.195 735.077 428.459 735.23 427.646 735.23ZM434.627 735V717.98H436.996V725.409L436.582 725.685C436.735 725.148 437.034 724.658 437.479 724.213C437.923 723.753 438.452 723.385 439.066 723.109C439.679 722.818 440.308 722.672 440.952 722.672C441.872 722.672 442.638 722.856 443.252 723.224C443.865 723.577 444.325 724.121 444.632 724.857C444.938 725.593 445.092 726.521 445.092 727.64V735H442.723V727.801C442.723 727.111 442.631 726.544 442.447 726.099C442.263 725.639 441.979 725.309 441.596 725.11C441.212 724.895 440.737 724.803 440.17 724.834C439.71 724.834 439.288 724.911 438.905 725.064C438.521 725.202 438.184 725.401 437.893 725.662C437.617 725.923 437.394 726.229 437.226 726.582C437.072 726.919 436.996 727.287 436.996 727.686V735H435.823C435.623 735 435.424 735 435.225 735C435.025 735 434.826 735 434.627 735Z" fill="#0D0D0D"/>
<path d="M366 197H237" stroke="#0D0D0D" stroke-width="5"/>
<path d="M114.547 288L114.547 210" stroke="#0D0D0D" stroke-width="5"/>
<path d="M9.02075 59.4898V10.6678L25.3262 19.211C29.8882 21.6013 34.8919 22.8431 39.9616 22.8431C45.0312 22.8431 50.0349 21.6013 54.5969 19.211L70.9024 10.6678L87.2079 19.2111C91.7699 21.6013 96.7736 22.8431 101.843 22.8431C106.913 22.8431 111.917 21.6013 116.479 19.2111L132.784 10.6679L149.09 19.2111C153.652 21.6013 158.655 22.8431 163.725 22.8431C168.795 22.8431 173.798 21.6013 178.36 19.2111L194.666 10.6679L210.971 19.2111C215.533 21.6013 220.537 22.8431 225.607 22.8431C230.676 22.8431 235.68 21.6013 240.242 19.2111L256.547 10.6679V59.4898H9.02075Z" fill="black"/>
<path d="M1.00171 50.8234V2L17.3072 10.5435C21.8692 12.9338 26.8729 14.1756 31.9425 14.1756C37.0122 14.1756 42.0159 12.9338 46.5779 10.5435L62.8834 2L79.1889 10.5435C83.7509 12.9338 88.7546 14.1756 93.8243 14.1756C98.8939 14.1756 103.898 12.9338 108.46 10.5435L124.765 2L141.071 10.5435C145.633 12.9338 150.636 14.1756 155.706 14.1756C160.776 14.1756 165.779 12.9338 170.341 10.5435L186.647 2L202.952 10.5435C207.514 12.9338 212.518 14.1756 217.588 14.1756C222.657 14.1756 227.661 12.9338 232.223 10.5435L248.529 2V50.8234H1.00171Z" fill="white" stroke="black" stroke-width="2" stroke-miterlimit="10"/>
<path d="M222.69 392.864V392.864C222.69 397.288 224.403 401.524 227.442 404.641C230.479 407.757 234.59 409.5 238.869 409.5C243.147 409.5 247.258 407.757 250.295 404.641C253.334 401.524 255.048 397.288 255.048 392.864V366.169H10.519V392.411C10.519 401.667 17.6312 409.372 26.4673 409.498L26.468 409.498C30.7221 409.561 34.8357 407.899 37.9122 404.86C40.9899 401.82 42.7798 397.649 42.8805 393.25C43.1077 383.031 50.43 374.045 60.6249 373.282C63.2623 373.079 65.9117 373.437 68.4066 374.332C70.902 375.227 73.1877 376.64 75.1215 378.481C77.0552 380.321 78.5954 382.549 79.6479 385.023C80.7003 387.498 81.2428 390.167 81.2426 392.864C81.2426 397.288 82.9563 401.524 85.9948 404.641C89.032 407.757 93.1432 409.5 97.4216 409.5C101.7 409.5 105.811 407.757 108.848 404.641C111.887 401.524 113.6 397.288 113.6 392.864V392.863C113.604 387.669 115.617 382.681 119.21 378.998C122.804 375.313 127.685 373.236 132.783 373.236C137.881 373.236 142.763 375.313 146.357 378.998C149.949 382.681 151.963 387.669 151.966 392.863V392.864C151.966 397.255 153.654 401.462 156.653 404.574C159.651 407.684 163.715 409.449 167.961 409.499C172.207 409.549 176.309 407.879 179.374 404.841C182.441 401.801 184.222 397.635 184.32 393.245C184.32 393.245 184.32 393.245 184.32 393.245L185.82 393.278L222.69 392.864ZM222.69 392.864C222.689 390.166 222.145 387.496 221.091 385.021M222.69 392.864L221.091 385.021M221.091 385.021C220.038 382.546 218.496 380.318 216.561 378.478M221.091 385.021L216.561 378.478M216.561 378.478C214.626 376.637 212.339 375.225 209.843 374.33M216.561 378.478L209.843 374.33M209.843 374.33C207.347 373.435 204.697 373.079 202.058 373.283L209.843 374.33Z" stroke="#0D0D0D" stroke-width="3"/>
<path d="M248.486 356.445C248.491 356.445 248.497 356.446 248.502 356.448C248.507 356.45 248.512 356.453 248.516 356.458C248.52 356.462 248.523 356.466 248.525 356.472C248.527 356.477 248.528 356.483 248.528 356.488V384.639C248.528 389.449 246.666 394.062 243.35 397.463C240.035 400.864 235.538 402.775 230.849 402.775C226.161 402.775 221.664 400.864 218.349 397.463C215.033 394.062 213.171 389.449 213.171 384.639C213.17 382.142 212.666 379.672 211.692 377.384C210.718 375.095 209.294 373.038 207.508 371.34C205.723 369.642 203.616 368.341 201.318 367.517C199.02 366.694 196.581 366.366 194.153 366.554C184.849 367.251 178.009 375.486 177.8 385.053C177.694 389.826 175.758 394.363 172.411 397.681C169.065 400.998 164.578 402.828 159.924 402.774C155.271 402.719 150.826 400.785 147.554 397.39C144.282 393.995 142.447 389.413 142.447 384.639C142.444 379.83 140.579 375.22 137.264 371.82C133.948 368.421 129.452 366.512 124.764 366.512C120.076 366.512 115.581 368.421 112.265 371.82C108.949 375.22 107.085 379.83 107.081 384.639C107.081 389.449 105.219 394.062 101.903 397.463C98.5879 400.864 94.0912 402.775 89.4024 402.775C84.7137 402.775 80.217 400.864 76.9015 397.463C73.5861 394.062 71.7235 389.449 71.7235 384.639C71.7237 382.143 71.2215 379.673 70.2484 377.385C69.2753 375.098 67.8522 373.04 66.0683 371.342C64.2843 369.645 62.1779 368.343 59.8809 367.519C57.584 366.695 55.1459 366.366 52.7193 366.553C43.4108 367.249 36.5734 375.488 36.3609 385.06C36.2515 389.841 34.3058 394.385 30.9472 397.702C27.5885 401.019 23.0887 402.842 18.4268 402.773C8.68836 402.634 1 394.177 1 384.186V356.488C1 356.477 1.00449 356.466 1.01248 356.458C1.02047 356.449 1.03131 356.445 1.04261 356.445H248.486Z" fill="white" stroke="black" stroke-width="2" stroke-miterlimit="10"/>
<path d="M236.495 82.2251H25.0221C15.0661 82.2251 6.99512 90.9499 6.99512 101.712V320.805C6.99512 331.568 15.0661 340.293 25.0221 340.293H236.495C246.451 340.293 254.522 331.568 254.522 320.805V101.712C254.522 90.9499 246.451 82.2251 236.495 82.2251Z" fill="black"/>
<path d="M230.5 75.7454H19.027C9.07095 75.7454 1 84.4702 1 95.2328V314.326C1 325.089 9.07095 333.814 19.027 333.814H230.5C240.456 333.814 248.527 325.089 248.527 314.326V95.2328C248.527 84.4702 240.456 75.7454 230.5 75.7454Z" fill="white" stroke="black" stroke-width="2" stroke-miterlimit="10"/>
<path d="M209.107 133.584C209.106 139.768 206.996 145.734 203.179 150.341C199.362 154.948 194.108 157.87 188.422 158.549C182.736 159.228 177.018 157.616 172.364 154.021C167.709 150.426 164.444 145.102 163.195 139.067H82.9675C81.7183 145.102 78.4535 150.427 73.7986 154.022C69.1436 157.616 63.4256 159.228 57.7395 158.549C52.0534 157.87 46.799 154.947 42.9825 150.34C39.166 145.733 37.0557 139.766 37.0557 133.582C37.0557 127.397 39.166 121.43 42.9825 116.823C46.799 112.217 52.0534 109.294 57.7395 108.614C63.4256 107.935 69.1436 109.547 73.7986 113.142C78.4535 116.737 81.7183 122.061 82.9675 128.096H163.195C164.445 122.061 167.709 116.736 172.365 113.141C177.02 109.547 182.738 107.935 188.424 108.614C194.11 109.294 199.365 112.217 203.181 116.825C206.997 121.432 209.107 127.399 209.107 133.584Z" stroke="black" stroke-width="2" stroke-miterlimit="10"/>
<path d="M213.027 137.823C213.027 144.007 210.916 149.974 207.1 154.58C203.283 159.187 198.029 162.11 192.343 162.789C186.657 163.468 180.939 161.855 176.284 158.261C171.63 154.666 168.365 149.341 167.116 143.306H86.8881C85.6389 149.341 82.3742 154.666 77.7192 158.261C73.0643 161.856 67.3462 163.468 61.6601 162.788C55.9741 162.109 50.7196 159.186 46.9031 154.579C43.0866 149.972 40.9763 144.005 40.9763 137.821C40.9763 131.637 43.0866 125.67 46.9031 121.063C50.7196 116.456 55.9741 113.533 61.6601 112.854C67.3462 112.174 73.0643 113.786 77.7192 117.381C82.3742 120.976 85.6389 126.301 86.8881 132.336H167.116C168.365 126.301 171.63 120.976 176.285 117.381C180.94 113.786 186.659 112.174 192.345 112.854C198.031 113.533 203.285 116.457 207.102 121.064C210.918 125.671 213.028 131.639 213.027 137.823V137.823Z" stroke="black" stroke-width="2" stroke-miterlimit="10"/>
<path d="M205.181 129.342C205.181 135.526 203.07 141.493 199.253 146.099C195.437 150.706 190.182 153.628 184.496 154.307C178.811 154.986 173.093 153.374 168.438 149.779C163.783 146.185 160.519 140.86 159.27 134.825H79.0417C77.7925 140.86 74.5278 146.185 69.8728 149.78C65.2178 153.374 59.4998 154.986 53.8137 154.307C48.1276 153.628 42.8732 150.705 39.0567 146.098C35.2402 141.491 33.1299 135.524 33.1299 129.34C33.1299 123.156 35.2402 117.189 39.0567 112.582C42.8732 107.975 48.1276 105.052 53.8137 104.373C59.4998 103.694 65.2178 105.306 69.8728 108.9C74.5278 112.495 77.7925 117.82 79.0417 123.855H159.27C160.519 117.82 163.784 112.495 168.439 108.9C173.094 105.305 178.812 103.694 184.498 104.373C190.185 105.053 195.439 107.976 199.255 112.583C203.072 117.191 205.182 123.158 205.181 129.342Z" fill="white" stroke="black" stroke-width="2" stroke-miterlimit="10"/>
<path d="M56.3632 149.911C66.8729 149.911 75.3927 140.701 75.3927 129.34C75.3927 117.979 66.8729 108.768 56.3632 108.768C45.8535 108.768 37.3337 117.979 37.3337 129.34C37.3337 140.701 45.8535 149.911 56.3632 149.911Z" fill="black"/>
<path d="M181.949 149.911C192.458 149.911 200.978 140.701 200.978 129.34C200.978 117.979 192.458 108.768 181.949 108.768C171.439 108.768 162.919 117.979 162.919 129.34C162.919 140.701 171.439 149.911 181.949 149.911Z" fill="black"/>
<path d="M209.107 201.142C209.106 207.326 206.996 213.293 203.179 217.899C199.363 222.505 194.108 225.428 188.422 226.107C182.736 226.786 177.018 225.174 172.364 221.579C167.709 217.985 164.444 212.66 163.195 206.625H82.9675C81.7183 212.66 78.4535 217.985 73.7986 221.579C69.1436 225.174 63.4256 226.786 57.7395 226.107C52.0534 225.428 46.799 222.505 42.9825 217.898C39.166 213.291 37.0557 207.324 37.0557 201.14C37.0557 194.956 39.166 188.989 42.9825 184.383C46.799 179.776 52.0534 176.853 57.7395 176.174C63.4256 175.494 69.1436 177.106 73.7986 180.701C78.4535 184.296 81.7183 189.62 82.9675 195.655H163.195C164.445 189.62 167.709 184.295 172.365 180.701C177.02 177.106 182.738 175.494 188.424 176.174C194.11 176.853 199.365 179.777 203.181 184.384C206.997 188.991 209.107 194.958 209.107 201.142Z" stroke="black" stroke-width="2" stroke-miterlimit="10"/>
<path d="M213.027 205.383C213.027 211.567 210.916 217.533 207.1 222.14C203.283 226.746 198.029 229.669 192.343 230.348C186.657 231.027 180.939 229.415 176.284 225.82C171.63 222.225 168.365 216.901 167.116 210.866H86.8881C85.6389 216.901 82.3742 222.226 77.7192 225.82C73.0643 229.415 67.3462 231.027 61.6601 230.348C55.9741 229.668 50.7196 226.745 46.9031 222.139C43.0866 217.532 40.9763 211.565 40.9763 205.381C40.9763 199.197 43.0866 193.23 46.9031 188.623C50.7196 184.017 55.9741 181.094 61.6601 180.414C67.3462 179.735 73.0643 181.347 77.7192 184.942C82.3742 188.536 85.6389 193.861 86.8881 199.896H167.116C168.365 193.861 171.63 188.536 176.285 184.941C180.94 181.347 186.659 179.735 192.345 180.414C198.031 181.094 203.285 184.017 207.102 188.624C210.918 193.232 213.028 199.199 213.027 205.383V205.383Z" stroke="black" stroke-width="2" stroke-miterlimit="10"/>
<path d="M205.181 196.902C205.181 203.086 203.07 209.052 199.253 213.658C195.437 218.265 190.182 221.187 184.496 221.866C178.811 222.545 173.093 220.933 168.438 217.338C163.783 213.744 160.519 208.419 159.27 202.385H79.0417C77.7925 208.419 74.5278 213.744 69.8728 217.339C65.2178 220.933 59.4998 222.545 53.8137 221.866C48.1276 221.187 42.8732 218.264 39.0567 213.657C35.2402 209.05 33.1299 203.084 33.1299 196.9C33.1299 190.716 35.2402 184.749 39.0567 180.142C42.8732 175.535 48.1276 172.613 53.8137 171.933C59.4998 171.254 65.2178 172.866 69.8728 176.461C74.5278 180.055 77.7925 185.38 79.0417 191.415H159.27C160.519 185.38 163.784 180.055 168.439 176.46C173.094 172.866 178.812 171.254 184.498 171.933C190.185 172.613 195.439 175.536 199.255 180.143C203.072 184.75 205.182 190.718 205.181 196.902V196.902Z" fill="white" stroke="black" stroke-width="2" stroke-miterlimit="10"/>
<path d="M56.3632 217.47C66.8729 217.47 75.3927 208.261 75.3927 196.899C75.3927 185.538 66.8729 176.328 56.3632 176.328C45.8535 176.328 37.3337 185.538 37.3337 196.899C37.3337 208.261 45.8535 217.47 56.3632 217.47Z" fill="black"/>
<path d="M181.949 217.47C192.458 217.47 200.978 208.261 200.978 196.899C200.978 185.538 192.458 176.328 181.949 176.328C171.439 176.328 162.919 185.538 162.919 196.899C162.919 208.261 171.439 217.47 181.949 217.47Z" fill="black"/>
<path d="M209.107 268.702C209.106 274.886 206.996 280.853 203.179 285.459C199.362 290.065 194.108 292.988 188.422 293.667C182.736 294.346 177.018 292.734 172.364 289.139C167.709 285.544 164.444 280.22 163.195 274.185H82.9675C81.7183 280.22 78.4535 285.545 73.7986 289.139C69.1436 292.734 63.4256 294.346 57.7395 293.667C52.0534 292.987 46.799 290.064 42.9825 285.458C39.166 280.851 37.0557 274.884 37.0557 268.7C37.0557 262.516 39.166 256.549 42.9825 251.942C46.799 247.336 52.0534 244.413 57.7395 243.733C63.4256 243.054 69.1436 244.666 73.7986 248.261C78.4535 251.855 81.7183 257.18 82.9675 263.215H163.195C164.445 257.18 167.709 251.855 172.365 248.26C177.02 244.666 182.738 243.054 188.424 243.734C194.11 244.413 199.365 247.336 203.181 251.944C206.997 256.551 209.107 262.518 209.107 268.702V268.702Z" stroke="black" stroke-width="2" stroke-miterlimit="10"/>
<path d="M213.027 272.942C213.027 279.126 210.916 285.093 207.1 289.699C203.283 294.305 198.029 297.228 192.343 297.907C186.657 298.586 180.939 296.974 176.284 293.379C171.63 289.784 168.365 284.46 167.116 278.425H86.8881C85.6389 284.46 82.3742 289.785 77.7192 293.379C73.0643 296.974 67.3462 298.586 61.6601 297.907C55.9741 297.228 50.7196 294.305 46.9031 289.698C43.0866 285.091 40.9763 279.124 40.9763 272.94C40.9763 266.756 43.0866 260.789 46.9031 256.182C50.7196 251.575 55.9741 248.652 61.6601 247.973C67.3462 247.294 73.0643 248.906 77.7192 252.5C82.3742 256.095 85.6389 261.42 86.8881 267.455H167.116C168.365 261.42 171.63 256.095 176.285 252.5C180.94 248.905 186.659 247.293 192.345 247.973C198.031 248.653 203.285 251.576 207.102 256.183C210.918 260.79 213.028 266.758 213.027 272.942V272.942Z" stroke="black" stroke-width="2" stroke-miterlimit="10"/>
<path d="M205.181 264.461C205.181 270.645 203.07 276.612 199.253 281.218C195.437 285.824 190.182 288.747 184.496 289.426C178.811 290.105 173.093 288.493 168.438 284.898C163.783 281.303 160.519 275.979 159.27 269.944H79.0417C77.7925 275.979 74.5278 281.304 69.8728 284.898C65.2178 288.493 59.4998 290.105 53.8137 289.426C48.1276 288.747 42.8732 285.824 39.0567 281.217C35.2402 276.61 33.1299 270.643 33.1299 264.459C33.1299 258.275 35.2402 252.308 39.0567 247.701C42.8732 243.094 48.1276 240.171 53.8137 239.492C59.4998 238.812 65.2178 240.425 69.8728 244.019C74.5278 247.614 77.7925 252.939 79.0417 258.974H159.27C160.519 252.939 163.784 247.614 168.439 244.019C173.094 240.424 178.812 238.812 184.498 239.492C190.185 240.172 195.439 243.095 199.255 247.702C203.072 252.309 205.182 258.277 205.181 264.461V264.461Z" fill="white" stroke="black" stroke-width="2" stroke-miterlimit="10"/>
<path d="M56.3632 285.031C66.8729 285.031 75.3927 275.82 75.3927 264.459C75.3927 253.098 66.8729 243.888 56.3632 243.888C45.8535 243.888 37.3337 253.098 37.3337 264.459C37.3337 275.82 45.8535 285.031 56.3632 285.031Z" fill="black"/>
<path d="M181.949 285.031C192.458 285.031 200.978 275.82 200.978 264.459C200.978 253.098 192.458 243.888 181.949 243.888C171.439 243.888 162.919 253.098 162.919 264.459C162.919 275.82 171.439 285.031 181.949 285.031Z" fill="black"/>
<path d="M360.652 709.054L167.652 709.054" stroke="#0D0D0D" stroke-width="5"/>
<path d="M238.385 636.292H31.5008C21.7608 636.292 13.865 644.828 13.865 655.357L13.865 869.696C13.865 880.225 21.7608 888.761 31.5008 888.761H238.385C248.125 888.761 256.021 880.225 256.021 869.696V655.357C256.021 644.828 248.125 636.292 238.385 636.292Z" fill="black"/>
<path d="M232.52 629.954H25.6358C15.8958 629.954 8 638.49 8 649.019L8 863.359C8 873.888 15.8958 882.423 25.6358 882.423H232.52C242.26 882.423 250.156 873.888 250.156 863.359L250.156 649.019C250.156 638.49 242.26 629.954 232.52 629.954Z" fill="white" stroke="black" stroke-width="2" stroke-miterlimit="10"/>
<path d="M211.591 686.536C211.59 692.586 209.526 698.423 205.792 702.93C202.058 707.436 196.918 710.295 191.355 710.96C185.792 711.624 180.199 710.047 175.645 706.53C171.091 703.013 167.898 697.804 166.675 691.9H88.1883C86.9662 697.804 83.7724 703.014 79.2184 706.53C74.6644 710.047 69.0704 711.624 63.5077 710.96C57.945 710.295 52.8046 707.435 49.0709 702.929C45.3372 698.422 43.2727 692.584 43.2727 686.534C43.2727 680.484 45.3372 674.647 49.0709 670.14C52.8046 665.633 57.945 662.774 63.5077 662.109C69.0704 661.444 74.6644 663.021 79.2184 666.538C83.7724 670.055 86.9662 675.264 88.1883 681.168H166.675C167.898 675.264 171.092 670.055 175.646 666.538C180.2 663.021 185.794 661.444 191.357 662.109C196.92 662.774 202.06 665.634 205.794 670.141C209.527 674.648 211.591 680.486 211.591 686.536Z" stroke="black" stroke-width="2" stroke-miterlimit="10"/>
<path d="M215.427 690.685C215.426 696.735 213.361 702.571 209.628 707.077C205.894 711.584 200.753 714.443 195.191 715.107C189.628 715.771 184.035 714.194 179.481 710.678C174.927 707.161 171.733 701.952 170.511 696.049H92.0243C90.8022 701.952 87.6083 707.161 83.0543 710.678C78.5004 714.194 72.9064 715.771 67.3437 715.107C61.781 714.442 56.6406 711.583 52.9069 707.076C49.1732 702.57 47.1086 696.733 47.1086 690.683C47.1086 684.633 49.1732 678.796 52.9069 674.29C56.6406 669.783 61.781 666.924 67.3437 666.259C72.9064 665.595 78.5004 667.172 83.0543 670.688C87.6083 674.205 90.8022 679.413 92.0243 685.317H170.511C171.734 679.413 174.928 674.204 179.482 670.688C184.036 667.171 189.63 665.594 195.193 666.259C200.756 666.924 205.896 669.784 209.63 674.291C213.363 678.798 215.427 684.635 215.427 690.685V690.685Z" stroke="black" stroke-width="2" stroke-miterlimit="10"/>
<path d="M207.75 682.388C207.749 688.437 205.684 694.274 201.951 698.781C198.217 703.287 193.076 706.146 187.514 706.811C181.951 707.475 176.358 705.898 171.804 702.381C167.25 698.864 164.056 693.655 162.834 687.752H84.3473C83.1252 693.656 79.9313 698.865 75.3773 702.381C70.8234 705.898 65.2294 707.475 59.6667 706.811C54.104 706.146 48.9636 703.286 45.2299 698.78C41.4962 694.273 39.4316 688.436 39.4316 682.386C39.4316 676.336 41.4962 670.498 45.2299 665.992C48.9636 661.485 54.104 658.625 59.6667 657.961C65.2294 657.296 70.8234 658.873 75.3773 662.39C79.9313 665.906 83.1252 671.116 84.3473 677.02H162.834C164.057 671.115 167.251 665.906 171.805 662.39C176.359 658.873 181.953 657.296 187.516 657.961C193.079 658.626 198.219 661.486 201.953 665.993C205.686 670.5 207.75 676.338 207.75 682.388Z" fill="white" stroke="black" stroke-width="2" stroke-miterlimit="10"/>
<path d="M62.161 702.511C72.4427 702.511 80.7776 693.501 80.7776 682.387C80.7776 671.273 72.4427 662.263 62.161 662.263C51.8794 662.263 43.5444 671.273 43.5444 682.387C43.5444 693.501 51.8794 702.511 62.161 702.511Z" fill="black"/>
<path d="M185.021 702.511C195.302 702.511 203.637 693.501 203.637 682.387C203.637 671.273 195.302 662.263 185.021 662.263C174.739 662.263 166.404 671.273 166.404 682.387C166.404 693.501 174.739 702.511 185.021 702.511Z" fill="black"/>
<path d="M211.591 752.63C211.59 758.68 209.526 764.517 205.792 769.023C202.058 773.53 196.918 776.389 191.355 777.053C185.792 777.718 180.199 776.14 175.645 772.624C171.091 769.107 167.898 763.898 166.675 757.994H88.1883C86.9662 763.898 83.7724 769.107 79.2184 772.624C74.6644 776.141 69.0704 777.718 63.5077 777.053C57.945 776.389 52.8046 773.529 49.0709 769.022C45.3372 764.515 43.2727 758.678 43.2727 752.628C43.2727 746.578 45.3372 740.74 49.0709 736.233C52.8046 731.727 57.945 728.867 63.5077 728.202C69.0704 727.538 74.6644 729.115 79.2184 732.632C83.7724 736.148 86.9662 741.358 88.1883 747.262H166.675C167.898 741.357 171.092 736.148 175.646 732.631C180.2 729.115 185.794 727.538 191.357 728.203C196.92 728.867 202.06 731.727 205.794 736.235C209.527 740.742 211.591 746.58 211.591 752.63Z" stroke="black" stroke-width="2" stroke-miterlimit="10"/>
<path d="M215.427 756.779C215.426 762.829 213.361 768.666 209.628 773.172C205.894 777.679 200.753 780.538 195.191 781.202C189.628 781.866 184.035 780.289 179.481 776.772C174.927 773.256 171.733 768.047 170.511 762.143H92.0243C90.8022 768.047 87.6083 773.256 83.0543 776.773C78.5004 780.289 72.9064 781.866 67.3437 781.202C61.781 780.537 56.6406 777.678 52.9069 773.171C49.1732 768.664 47.1086 762.827 47.1086 756.777C47.1086 750.727 49.1732 744.89 52.9069 740.383C56.6406 735.876 61.781 733.017 67.3437 732.352C72.9064 731.687 78.5004 733.264 83.0543 736.781C87.6083 740.298 90.8022 745.507 92.0243 751.411H170.511C171.734 745.507 174.928 740.298 179.482 736.781C184.036 733.264 189.63 731.687 195.193 732.352C200.756 733.017 205.896 735.877 209.63 740.384C213.363 744.891 215.427 750.729 215.427 756.779V756.779Z" stroke="black" stroke-width="2" stroke-miterlimit="10"/>
<path d="M207.75 748.482C207.749 754.532 205.684 760.369 201.951 764.875C198.217 769.381 193.076 772.241 187.514 772.905C181.951 773.569 176.358 771.992 171.804 768.475C167.25 764.959 164.056 759.75 162.834 753.846H84.3473C83.1252 759.75 79.9313 764.959 75.3773 768.476C70.8234 771.992 65.2294 773.569 59.6667 772.905C54.104 772.24 48.9636 769.381 45.2299 764.874C41.4962 760.367 39.4316 754.53 39.4316 748.48C39.4316 742.43 41.4962 736.593 45.2299 732.086C48.9636 727.58 54.104 724.72 59.6667 724.056C65.2294 723.391 70.8234 724.968 75.3773 728.485C79.9313 732.001 83.1252 737.21 84.3473 743.114H162.834C164.057 737.21 167.251 732.001 171.805 728.484C176.359 724.968 181.953 723.391 187.516 724.056C193.079 724.72 198.219 727.58 201.953 732.087C205.686 736.595 207.75 742.432 207.75 748.482V748.482Z" fill="white" stroke="black" stroke-width="2" stroke-miterlimit="10"/>
<path d="M62.161 768.604C72.4427 768.604 80.7776 759.594 80.7776 748.48C80.7776 737.365 72.4427 728.355 62.161 728.355C51.8794 728.355 43.5444 737.365 43.5444 748.48C43.5444 759.594 51.8794 768.604 62.161 768.604Z" fill="black"/>
<path d="M185.021 768.604C195.302 768.604 203.637 759.594 203.637 748.48C203.637 737.365 195.302 728.355 185.021 728.355C174.739 728.355 166.404 737.365 166.404 748.48C166.404 759.594 174.739 768.604 185.021 768.604Z" fill="black"/>
<path d="M211.591 818.724C211.59 824.774 209.526 830.611 205.792 835.118C202.058 839.624 196.918 842.483 191.355 843.148C185.792 843.812 180.199 842.235 175.645 838.718C171.091 835.201 167.898 829.992 166.675 824.088H88.1883C86.9662 829.992 83.7724 835.201 79.2184 838.718C74.6644 842.235 69.0704 843.812 63.5077 843.147C57.945 842.483 52.8046 839.623 49.0709 835.116C45.3372 830.609 43.2727 824.772 43.2727 818.722C43.2727 812.672 45.3372 806.835 49.0709 802.328C52.8046 797.821 57.945 794.961 63.5077 794.297C69.0704 793.632 74.6644 795.209 79.2184 798.726C83.7724 802.243 86.9662 807.452 88.1883 813.356H166.675C167.898 807.452 171.092 802.242 175.646 798.726C180.2 795.209 185.794 793.632 191.357 794.297C196.92 794.962 202.06 797.822 205.794 802.329C209.527 806.836 211.591 812.674 211.591 818.724V818.724Z" stroke="black" stroke-width="2" stroke-miterlimit="10"/>
<path d="M215.427 822.872C215.426 828.922 213.361 834.759 209.628 839.265C205.894 843.771 200.753 846.631 195.191 847.295C189.628 847.959 184.035 846.382 179.481 842.865C174.927 839.349 171.733 834.14 170.511 828.236H92.0243C90.8022 834.14 87.6083 839.349 83.0543 842.866C78.5004 846.382 72.9064 847.959 67.3437 847.295C61.781 846.63 56.6406 843.771 52.9069 839.264C49.1732 834.757 47.1086 828.92 47.1086 822.87C47.1086 816.82 49.1732 810.983 52.9069 806.476C56.6406 801.97 61.781 799.11 67.3437 798.446C72.9064 797.781 78.5004 799.358 83.0543 802.875C87.6083 806.391 90.8022 811.6 92.0243 817.504H170.511C171.734 811.6 174.928 806.391 179.482 802.874C184.036 799.358 189.63 797.781 195.193 798.446C200.756 799.11 205.896 801.97 209.63 806.477C213.363 810.985 215.427 816.822 215.427 822.872V822.872Z" stroke="black" stroke-width="2" stroke-miterlimit="10"/>
<path d="M207.75 814.576C207.749 820.625 205.684 826.462 201.951 830.969C198.217 835.475 193.076 838.334 187.514 838.998C181.951 839.663 176.358 838.085 171.804 834.569C167.25 831.052 164.056 825.843 162.834 819.94H84.3473C83.1252 825.843 79.9313 831.052 75.3773 834.569C70.8234 838.086 65.2294 839.663 59.6667 838.998C54.104 838.334 48.9636 835.474 45.2299 830.967C41.4962 826.461 39.4316 820.623 39.4316 814.574C39.4316 808.524 41.4962 802.686 45.2299 798.18C48.9636 793.673 54.104 790.814 59.6667 790.149C65.2294 789.484 70.8234 791.061 75.3773 794.578C79.9313 798.095 83.1252 803.304 84.3473 809.208H162.834C164.057 803.304 167.251 798.094 171.805 794.578C176.359 791.061 181.953 789.484 187.516 790.149C193.079 790.814 198.219 793.674 201.953 798.181C205.686 802.688 207.75 808.526 207.75 814.576V814.576Z" fill="white" stroke="black" stroke-width="2" stroke-miterlimit="10"/>
<path d="M62.161 834.698C72.4427 834.698 80.7776 825.688 80.7776 814.573C80.7776 803.459 72.4427 794.448 62.161 794.448C51.8794 794.448 43.5444 803.459 43.5444 814.573C43.5444 825.688 51.8794 834.698 62.161 834.698Z" fill="black"/>
<path d="M185.021 834.698C195.302 834.698 203.637 825.688 203.637 814.573C203.637 803.459 195.302 794.448 185.021 794.448C174.739 794.448 166.404 803.459 166.404 814.573C166.404 825.688 174.739 834.698 185.021 834.698Z" fill="black"/>
<path d="M258.001 583.411V611.612C258.001 611.618 258 611.624 257.998 611.629C257.995 611.635 257.992 611.639 257.989 611.643C257.985 611.648 257.98 611.651 257.975 611.653C257.97 611.655 257.965 611.656 257.959 611.656H16.3597C16.3543 611.656 16.3489 611.655 16.3438 611.653C16.3388 611.651 16.3342 611.648 16.3303 611.643C16.3264 611.639 16.3234 611.635 16.3213 611.629C16.3192 611.624 16.3181 611.618 16.3181 611.612V583.411C16.3193 588.193 18.1114 592.782 21.306 596.183C24.5006 599.584 28.84 601.522 33.3833 601.577C37.9266 601.633 42.3076 599.801 45.5762 596.479C48.8448 593.157 50.7375 588.613 50.844 583.832C50.8388 579.204 52.4723 574.741 55.4255 571.313C58.3788 567.884 62.4399 565.738 66.816 565.292C69.1853 565.104 71.5658 565.434 73.8085 566.259C76.0513 567.085 78.1079 568.389 79.8497 570.09C81.5915 571.791 82.981 573.852 83.9311 576.144C84.8813 578.436 85.3716 580.91 85.3714 583.411C85.3714 588.229 87.19 592.85 90.4271 596.258C93.6643 599.665 98.0548 601.579 102.633 601.579C107.211 601.579 111.601 599.665 114.838 596.258C118.076 592.85 119.894 588.229 119.894 583.411C119.894 578.591 121.713 573.969 124.951 570.561C128.189 567.153 132.58 565.238 137.159 565.238C141.738 565.238 146.13 567.153 149.368 570.561C152.606 573.969 154.425 578.591 154.425 583.411C154.425 588.193 156.218 592.782 159.412 596.182C162.607 599.582 166.946 601.52 171.489 601.575C176.032 601.629 180.413 599.796 183.68 596.474C186.947 593.151 188.838 588.606 188.943 583.825C188.938 579.199 190.571 574.737 193.523 571.311C196.476 567.884 200.535 565.738 204.91 565.292C207.28 565.104 209.661 565.433 211.905 566.258C214.149 567.083 216.206 568.386 217.949 570.087C219.692 571.788 221.083 573.849 222.034 576.142C222.986 578.434 223.477 580.909 223.478 583.411C223.478 588.229 225.296 592.85 228.534 596.258C231.771 599.665 236.161 601.579 240.739 601.579C245.317 601.579 249.708 599.665 252.945 596.258C256.182 592.85 258.001 588.229 258.001 583.411H258.001Z" fill="black"/>
<path d="M250.171 575.172V603.372C250.171 603.384 250.167 603.395 250.159 603.403C250.151 603.411 250.141 603.416 250.129 603.416H8.53014C8.52467 603.416 8.51926 603.415 8.51421 603.413C8.50916 603.411 8.50457 603.407 8.50071 603.403C8.49684 603.399 8.49378 603.394 8.49169 603.389C8.4896 603.384 8.48852 603.378 8.48853 603.372V575.172C8.48968 579.954 10.2819 584.543 13.4764 587.943C16.671 591.344 21.0104 593.282 25.5537 593.338C30.097 593.393 34.478 591.561 37.7466 588.24C41.0152 584.918 42.9079 580.374 43.0144 575.593C43.0092 570.966 44.6427 566.502 47.596 563.074C50.5492 559.646 54.6103 557.5 58.9864 557.054C61.3557 556.866 63.7362 557.196 65.9789 558.021C68.2216 558.847 70.2783 560.151 72.0201 561.852C73.7619 563.552 75.1514 565.613 76.1015 567.905C77.0516 570.197 77.5419 572.671 77.5418 575.172C77.5418 579.99 79.3604 584.611 82.5975 588.018C85.8346 591.425 90.2251 593.339 94.8031 593.339C99.3811 593.339 103.772 591.425 107.009 588.018C110.246 584.611 112.065 579.99 112.065 575.172C112.065 570.352 113.884 565.73 117.121 562.322C120.359 558.915 124.751 557 129.33 557C133.909 557 138.3 558.915 141.538 562.322C144.776 565.73 146.595 570.352 146.595 575.172C146.596 579.954 148.388 584.543 151.582 587.943C154.777 591.343 159.116 593.281 163.659 593.336C168.203 593.39 172.583 591.557 175.851 588.234C179.118 584.912 181.009 580.367 181.113 575.586C181.108 570.961 182.741 566.499 185.694 563.072C188.646 559.646 192.706 557.5 197.08 557.054C199.45 556.866 201.832 557.195 204.075 558.02C206.319 558.845 208.377 560.148 210.12 561.849C211.863 563.55 213.254 565.611 214.205 567.903C215.156 570.196 215.648 572.67 215.648 575.172C215.648 579.99 217.467 584.611 220.704 588.018C223.941 591.425 228.332 593.339 232.91 593.339C237.488 593.339 241.878 591.425 245.115 588.018C248.352 584.611 250.171 579.99 250.171 575.172H250.171Z" fill="white" stroke="black" stroke-width="2" stroke-miterlimit="10"/>
<path d="M208 813.502C208 819.78 205.926 825.837 202.177 830.513C198.428 835.189 193.267 838.156 187.682 838.846C182.097 839.535 176.481 837.898 171.909 834.249C167.336 830.6 164.13 825.195 162.903 819.068H84.0976C82.8706 825.195 79.6637 830.6 75.0913 834.25C70.5189 837.899 64.9023 839.535 59.317 838.846C53.7318 838.156 48.5705 835.189 44.8217 830.512C41.0729 825.835 39 819.778 39 813.5C39 807.222 41.0729 801.165 44.8217 796.488C48.5705 791.811 53.7318 788.844 59.317 788.154C64.9023 787.465 70.5189 789.101 75.0913 792.75C79.6637 796.4 82.8706 801.805 84.0976 807.932H162.903C164.13 801.805 167.337 796.399 171.909 792.75C176.482 789.101 182.099 787.465 187.684 788.155C193.269 788.844 198.431 791.812 202.179 796.489C205.928 801.166 208.001 807.224 208 813.502V813.502Z" fill="white" stroke="black" stroke-width="2" stroke-miterlimit="10"/>
<path d="M61.8273 834.522C72.1537 834.522 80.5249 825.144 80.5249 813.576C80.5249 802.008 72.1537 792.63 61.8273 792.63C51.5008 792.63 43.1296 802.008 43.1296 813.576C43.1296 825.144 51.5008 834.522 61.8273 834.522Z" fill="#0D0D0D"/>
<path d="M55.2322 803.655V812.254" stroke="white" stroke-width="4" stroke-miterlimit="10" stroke-linecap="round"/>
<path d="M68.4202 803.655V812.253" stroke="white" stroke-width="4" stroke-miterlimit="10" stroke-linecap="round"/>
<path d="M74.7772 815.558C72.7139 823.377 66.6557 826.361 61.8267 826.361C56.9977 826.361 50.9395 823.377 48.8762 815.558" stroke="white" stroke-width="4" stroke-miterlimit="10" stroke-linecap="round"/>
<path d="M185.224 834.524C195.55 834.524 203.922 825.146 203.922 813.577C203.922 802.009 195.55 792.631 185.224 792.631C174.898 792.631 166.526 802.009 166.526 813.577C166.526 825.146 174.898 834.524 185.224 834.524Z" fill="#0D0D0D"/>
<path d="M198.174 815.558C196.111 823.378 190.052 826.362 185.223 826.362C180.394 826.362 174.336 823.378 172.273 815.558" stroke="white" stroke-width="4" stroke-miterlimit="10" stroke-linecap="round"/>
<path d="M178.629 803.655V812.254" stroke="white" stroke-width="4" stroke-miterlimit="10" stroke-linecap="round"/>
<path d="M191.819 803.655V812.254" stroke="white" stroke-width="4" stroke-miterlimit="10" stroke-linecap="round"/>
<rect x="85.2109" y="812.346" width="5.13468" height="2.86618" fill="#0D0D0D"/>
<rect x="157.096" y="812.345" width="5.13468" height="2.86618" fill="#0D0D0D"/>
<rect x="92.9148" y="812.345" width="10.2694" height="2.86618" fill="#0D0D0D"/>
<rect x="105.749" y="812.345" width="10.2694" height="2.86618" fill="#0D0D0D"/>
<rect x="118.588" y="812.345" width="10.2694" height="2.86618" fill="#0D0D0D"/>
<rect x="131.423" y="812.345" width="10.2694" height="2.86618" fill="#0D0D0D"/>
<rect x="144.259" y="812.345" width="10.2694" height="2.86618" fill="#0D0D0D"/>
<path d="M208 746.502C208 752.78 205.926 758.837 202.177 763.513C198.428 768.189 193.267 771.156 187.682 771.846C182.097 772.535 176.481 770.898 171.909 767.249C167.336 763.6 164.13 758.195 162.903 752.068H84.0976C82.8706 758.195 79.6637 763.6 75.0913 767.25C70.5189 770.899 64.9023 772.535 59.317 771.846C53.7318 771.156 48.5705 768.189 44.8217 763.512C41.0729 758.835 39 752.778 39 746.5C39 740.222 41.0729 734.165 44.8217 729.488C48.5705 724.811 53.7318 721.844 59.317 721.154C64.9023 720.465 70.5189 722.101 75.0913 725.75C79.6637 729.4 82.8706 734.805 84.0976 740.932H162.903C164.13 734.805 167.337 729.399 171.909 725.75C176.482 722.101 182.099 720.465 187.684 721.155C193.269 721.844 198.431 724.812 202.179 729.489C205.928 734.166 208.001 740.224 208 746.502V746.502Z" fill="white" stroke="black" stroke-width="2" stroke-miterlimit="10"/>
<path d="M61.8273 767.522C72.1537 767.522 80.5249 758.144 80.5249 746.576C80.5249 735.008 72.1537 725.63 61.8273 725.63C51.5008 725.63 43.1296 735.008 43.1296 746.576C43.1296 758.144 51.5008 767.522 61.8273 767.522Z" fill="#0D0D0D"/>
<path d="M55.2322 736.655V745.254" stroke="white" stroke-width="4" stroke-miterlimit="10" stroke-linecap="round"/>
<path d="M68.4202 736.655V745.253" stroke="white" stroke-width="4" stroke-miterlimit="10" stroke-linecap="round"/>
<path d="M74.7772 748.558C72.7139 756.377 66.6557 759.361 61.8267 759.361C56.9977 759.361 50.9395 756.377 48.8762 748.558" stroke="white" stroke-width="4" stroke-miterlimit="10" stroke-linecap="round"/>
<path d="M185.224 767.524C195.55 767.524 203.922 758.146 203.922 746.577C203.922 735.009 195.55 725.631 185.224 725.631C174.898 725.631 166.526 735.009 166.526 746.577C166.526 758.146 174.898 767.524 185.224 767.524Z" fill="#0D0D0D"/>
<path d="M198.174 748.558C196.111 756.378 190.052 759.362 185.223 759.362C180.394 759.362 174.336 756.378 172.273 748.558" stroke="white" stroke-width="4" stroke-miterlimit="10" stroke-linecap="round"/>
<path d="M178.629 736.655V745.254" stroke="white" stroke-width="4" stroke-miterlimit="10" stroke-linecap="round"/>
<path d="M191.819 736.655V745.254" stroke="white" stroke-width="4" stroke-miterlimit="10" stroke-linecap="round"/>
<rect x="85.2109" y="745.346" width="5.13468" height="2.86618" fill="#0D0D0D"/>
<rect x="157.096" y="745.345" width="5.13468" height="2.86618" fill="#0D0D0D"/>
<rect x="92.9148" y="745.345" width="10.2694" height="2.86618" fill="#0D0D0D"/>
<rect x="105.749" y="745.345" width="10.2694" height="2.86618" fill="#0D0D0D"/>
<rect x="118.588" y="745.345" width="10.2694" height="2.86618" fill="#0D0D0D"/>
<rect x="131.423" y="745.345" width="10.2694" height="2.86618" fill="#0D0D0D"/>
<rect x="144.259" y="745.345" width="10.2694" height="2.86618" fill="#0D0D0D"/>
<path d="M250.465 728.947H16.7539V767.396L60.4805 745.533L98.1758 767.396L131.348 745.533L170.551 767.396L205.23 745.533L250.465 767.396V728.947Z" fill="black" stroke="black" stroke-width="3"/>
<path d="M247.449 721.409H13.7378V759.858L57.4644 737.995L95.1597 759.858L128.332 737.995L167.535 759.858L202.214 737.995L247.449 759.858V721.409Z" fill="white" stroke="black" stroke-width="3"/>
<path d="M208 681.502C208 687.534 205.926 693.353 202.177 697.846C198.428 702.339 193.267 705.189 187.682 705.852C182.097 706.514 176.481 704.942 171.909 701.436C167.336 697.929 164.13 692.736 162.903 686.85H84.0976C82.8706 692.736 79.6637 697.93 75.0913 701.436C70.5189 704.942 64.9023 706.514 59.317 705.852C53.7318 705.189 48.5705 702.338 44.8217 697.845C41.0729 693.352 39 687.532 39 681.5C39 675.468 41.0729 669.648 44.8217 665.155C48.5705 660.662 53.7318 657.811 59.317 657.148C64.9023 656.486 70.5189 658.058 75.0913 661.564C79.6637 665.07 82.8706 670.264 84.0976 676.15H162.903C164.13 670.264 167.337 665.07 171.909 661.564C176.482 658.058 182.099 656.486 187.684 657.148C193.269 657.811 198.431 660.663 202.179 665.156C205.928 669.65 208.001 675.47 208 681.502V681.502Z" fill="white" stroke="black" stroke-width="2" stroke-miterlimit="10"/>
<path d="M61.8273 701.698C72.1537 701.698 80.5249 692.688 80.5249 681.573C80.5249 670.459 72.1537 661.449 61.8273 661.449C51.5008 661.449 43.1296 670.459 43.1296 681.573C43.1296 692.688 51.5008 701.698 61.8273 701.698Z" fill="#0D0D0D"/>
<path d="M55.2322 672.041V680.303" stroke="white" stroke-width="4" stroke-miterlimit="10" stroke-linecap="round"/>
<path d="M68.4202 672.041V680.302" stroke="white" stroke-width="4" stroke-miterlimit="10" stroke-linecap="round"/>
<path d="M74.7772 683.477C72.7139 690.99 66.6557 693.857 61.8267 693.857C56.9977 693.857 50.9395 690.99 48.8762 683.477" stroke="white" stroke-width="4" stroke-miterlimit="10" stroke-linecap="round"/>
<path d="M185.224 701.699C195.55 701.699 203.922 692.689 203.922 681.574C203.922 670.46 195.55 661.45 185.224 661.45C174.898 661.45 166.526 670.46 166.526 681.574C166.526 692.689 174.898 701.699 185.224 701.699Z" fill="#0D0D0D"/>
<path d="M198.174 683.477C196.111 690.99 190.052 693.858 185.223 693.858C180.394 693.858 174.336 690.99 172.273 683.477" stroke="white" stroke-width="4" stroke-miterlimit="10" stroke-linecap="round"/>
<path d="M178.629 672.041V680.303" stroke="white" stroke-width="4" stroke-miterlimit="10" stroke-linecap="round"/>
<path d="M191.819 672.041V680.303" stroke="white" stroke-width="4" stroke-miterlimit="10" stroke-linecap="round"/>
<rect x="85.2109" y="680.391" width="5.13468" height="2.75379" fill="#0D0D0D"/>
<rect x="157.096" y="680.391" width="5.13468" height="2.75379" fill="#0D0D0D"/>
<rect x="92.9148" y="680.391" width="10.2694" height="2.75379" fill="#0D0D0D"/>
<rect x="105.749" y="680.391" width="10.2694" height="2.75379" fill="#0D0D0D"/>
<rect x="118.588" y="680.391" width="10.2694" height="2.75379" fill="#0D0D0D"/>
<rect x="131.423" y="680.391" width="10.2694" height="2.75379" fill="#0D0D0D"/>
<rect x="144.259" y="680.391" width="10.2694" height="2.75379" fill="#0D0D0D"/>
<path d="M202 263.502C202 269.534 199.926 275.353 196.177 279.846C192.428 284.339 187.267 287.189 181.682 287.852C176.097 288.514 170.481 286.942 165.909 283.436C161.336 279.929 158.13 274.736 156.903 268.85H78.0976C76.8706 274.736 73.6637 279.93 69.0913 283.436C64.5189 286.942 58.9023 288.514 53.317 287.852C47.7318 287.189 42.5705 284.338 38.8217 279.845C35.0729 275.352 33 269.532 33 263.5C33 257.468 35.0729 251.648 38.8217 247.155C42.5705 242.662 47.7318 239.811 53.317 239.148C58.9023 238.486 64.5189 240.058 69.0913 243.564C73.6637 247.07 76.8706 252.264 78.0976 258.15H156.903C158.13 252.264 161.337 247.07 165.909 243.564C170.482 240.058 176.099 238.486 181.684 239.148C187.269 239.811 192.431 242.663 196.179 247.156C199.928 251.65 202.001 257.47 202 263.502V263.502Z" fill="white" stroke="black" stroke-width="2" stroke-miterlimit="10"/>
<path d="M55.8273 283.698C66.1537 283.698 74.5249 274.688 74.5249 263.573C74.5249 252.459 66.1537 243.449 55.8273 243.449C45.5008 243.449 37.1296 252.459 37.1296 263.573C37.1296 274.688 45.5008 283.698 55.8273 283.698Z" fill="#0D0D0D"/>
<path d="M49.2322 254.041V262.303" stroke="white" stroke-width="4" stroke-miterlimit="10" stroke-linecap="round"/>
<path d="M62.4202 254.041V262.302" stroke="white" stroke-width="4" stroke-miterlimit="10" stroke-linecap="round"/>
<path d="M68.7772 265.477C66.7139 272.99 60.6557 275.857 55.8267 275.857C50.9977 275.857 44.9395 272.99 42.8762 265.477" stroke="white" stroke-width="4" stroke-miterlimit="10" stroke-linecap="round"/>
<path d="M179.224 283.699C189.55 283.699 197.922 274.689 197.922 263.574C197.922 252.46 189.55 243.45 179.224 243.45C168.898 243.45 160.526 252.46 160.526 263.574C160.526 274.689 168.898 283.699 179.224 283.699Z" fill="#0D0D0D"/>
<path d="M192.174 265.477C190.111 272.99 184.052 275.858 179.223 275.858C174.394 275.858 168.336 272.99 166.273 265.477" stroke="white" stroke-width="4" stroke-miterlimit="10" stroke-linecap="round"/>
<path d="M172.629 254.041V262.303" stroke="white" stroke-width="4" stroke-miterlimit="10" stroke-linecap="round"/>
<path d="M185.819 254.041V262.303" stroke="white" stroke-width="4" stroke-miterlimit="10" stroke-linecap="round"/>
<rect x="79.2109" y="262.391" width="5.13468" height="2.75379" fill="#0D0D0D"/>
<rect x="151.096" y="262.391" width="5.13468" height="2.75379" fill="#0D0D0D"/>
<rect x="86.9148" y="262.391" width="10.2694" height="2.75379" fill="#0D0D0D"/>
<rect x="99.7485" y="262.391" width="10.2694" height="2.75379" fill="#0D0D0D"/>
<rect x="112.588" y="262.391" width="10.2694" height="2.75379" fill="#0D0D0D"/>
<rect x="125.423" y="262.391" width="10.2694" height="2.75379" fill="#0D0D0D"/>
<rect x="138.259" y="262.391" width="10.2694" height="2.75379" fill="#0D0D0D"/>
<path d="M202 196.502C202 202.534 199.926 208.353 196.177 212.846C192.428 217.339 187.267 220.189 181.682 220.852C176.097 221.514 170.481 219.942 165.909 216.436C161.336 212.929 158.13 207.736 156.903 201.85H78.0976C76.8706 207.736 73.6637 212.93 69.0913 216.436C64.5189 219.942 58.9023 221.514 53.317 220.852C47.7318 220.189 42.5705 217.338 38.8217 212.845C35.0729 208.352 33 202.532 33 196.5C33 190.468 35.0729 184.648 38.8217 180.155C42.5705 175.662 47.7318 172.811 53.317 172.148C58.9023 171.486 64.5189 173.058 69.0913 176.564C73.6637 180.07 76.8706 185.264 78.0976 191.15H156.903C158.13 185.264 161.337 180.07 165.909 176.564C170.482 173.058 176.099 171.486 181.684 172.148C187.269 172.811 192.431 175.663 196.179 180.156C199.928 184.65 202.001 190.47 202 196.502V196.502Z" fill="white" stroke="black" stroke-width="2" stroke-miterlimit="10"/>
<path d="M55.8273 216.698C66.1537 216.698 74.5249 207.688 74.5249 196.573C74.5249 185.459 66.1537 176.449 55.8273 176.449C45.5008 176.449 37.1296 185.459 37.1296 196.573C37.1296 207.688 45.5008 216.698 55.8273 216.698Z" fill="#0D0D0D"/>
<path d="M49.2322 187.041V195.303" stroke="white" stroke-width="4" stroke-miterlimit="10" stroke-linecap="round"/>
<path d="M62.4202 187.041V195.302" stroke="white" stroke-width="4" stroke-miterlimit="10" stroke-linecap="round"/>
<path d="M68.7772 198.477C66.7139 205.99 60.6557 208.857 55.8267 208.857C50.9977 208.857 44.9395 205.99 42.8762 198.477" stroke="white" stroke-width="4" stroke-miterlimit="10" stroke-linecap="round"/>
<path d="M179.224 216.699C189.55 216.699 197.922 207.689 197.922 196.574C197.922 185.46 189.55 176.45 179.224 176.45C168.898 176.45 160.526 185.46 160.526 196.574C160.526 207.689 168.898 216.699 179.224 216.699Z" fill="#0D0D0D"/>
<path d="M192.174 198.477C190.111 205.99 184.052 208.858 179.223 208.858C174.394 208.858 168.336 205.99 166.273 198.477" stroke="white" stroke-width="4" stroke-miterlimit="10" stroke-linecap="round"/>
<path d="M172.629 187.041V195.303" stroke="white" stroke-width="4" stroke-miterlimit="10" stroke-linecap="round"/>
<path d="M185.819 187.041V195.303" stroke="white" stroke-width="4" stroke-miterlimit="10" stroke-linecap="round"/>
<rect x="79.2109" y="195.391" width="5.13468" height="2.75379" fill="#0D0D0D"/>
<rect x="151.096" y="195.391" width="5.13468" height="2.75379" fill="#0D0D0D"/>
<rect x="86.9148" y="195.391" width="10.2694" height="2.75379" fill="#0D0D0D"/>
<rect x="99.7485" y="195.391" width="10.2694" height="2.75379" fill="#0D0D0D"/>
<rect x="112.588" y="195.391" width="10.2694" height="2.75379" fill="#0D0D0D"/>
<rect x="125.423" y="195.391" width="10.2694" height="2.75379" fill="#0D0D0D"/>
<rect x="138.259" y="195.391" width="10.2694" height="2.75379" fill="#0D0D0D"/>
<path d="M202 128.502C202 134.534 199.926 140.353 196.177 144.846C192.428 149.339 187.267 152.189 181.682 152.852C176.097 153.514 170.481 151.942 165.909 148.436C161.336 144.929 158.13 139.736 156.903 133.85H78.0976C76.8706 139.736 73.6637 144.93 69.0913 148.436C64.5189 151.942 58.9023 153.514 53.317 152.852C47.7318 152.189 42.5705 149.338 38.8217 144.845C35.0729 140.352 33 134.532 33 128.5C33 122.468 35.0729 116.648 38.8217 112.155C42.5705 107.662 47.7318 104.811 53.317 104.148C58.9023 103.486 64.5189 105.058 69.0913 108.564C73.6637 112.07 76.8706 117.264 78.0976 123.15H156.903C158.13 117.264 161.337 112.07 165.909 108.564C170.482 105.058 176.099 103.486 181.684 104.148C187.269 104.811 192.431 107.663 196.179 112.156C199.928 116.65 202.001 122.47 202 128.502V128.502Z" fill="white" stroke="black" stroke-width="2" stroke-miterlimit="10"/>
<path d="M55.8273 148.698C66.1537 148.698 74.5249 139.688 74.5249 128.573C74.5249 117.459 66.1537 108.449 55.8273 108.449C45.5008 108.449 37.1296 117.459 37.1296 128.573C37.1296 139.688 45.5008 148.698 55.8273 148.698Z" fill="#0D0D0D"/>
<path d="M49.2322 119.041V127.303" stroke="white" stroke-width="4" stroke-miterlimit="10" stroke-linecap="round"/>
<path d="M62.4202 119.041V127.302" stroke="white" stroke-width="4" stroke-miterlimit="10" stroke-linecap="round"/>
<path d="M68.7772 130.477C66.7139 137.99 60.6557 140.857 55.8267 140.857C50.9977 140.857 44.9395 137.99 42.8762 130.477" stroke="white" stroke-width="4" stroke-miterlimit="10" stroke-linecap="round"/>
<path d="M179.224 148.699C189.55 148.699 197.922 139.689 197.922 128.574C197.922 117.46 189.55 108.45 179.224 108.45C168.898 108.45 160.526 117.46 160.526 128.574C160.526 139.689 168.898 148.699 179.224 148.699Z" fill="#0D0D0D"/>
<path d="M192.174 130.477C190.111 137.99 184.052 140.858 179.223 140.858C174.394 140.858 168.336 137.99 166.273 130.477" stroke="white" stroke-width="4" stroke-miterlimit="10" stroke-linecap="round"/>
<path d="M172.629 119.041V127.303" stroke="white" stroke-width="4" stroke-miterlimit="10" stroke-linecap="round"/>
<path d="M185.819 119.041V127.303" stroke="white" stroke-width="4" stroke-miterlimit="10" stroke-linecap="round"/>
<rect x="79.2109" y="127.391" width="5.13468" height="2.75379" fill="#0D0D0D"/>
<rect x="151.096" y="127.391" width="5.13468" height="2.75379" fill="#0D0D0D"/>
<rect x="86.9148" y="127.391" width="10.2694" height="2.75379" fill="#0D0D0D"/>
<rect x="99.7485" y="127.391" width="10.2694" height="2.75379" fill="#0D0D0D"/>
<rect x="112.588" y="127.391" width="10.2694" height="2.75379" fill="#0D0D0D"/>
<rect x="125.423" y="127.391" width="10.2694" height="2.75379" fill="#0D0D0D"/>
<rect x="138.259" y="127.391" width="10.2694" height="2.75379" fill="#0D0D0D"/>
</svg>
